<?xml version="1.0" encoding="utf-8"?>
<!-- Generator: Adobe Illustrator 18.1.1, SVG Export Plug-In . SVG Version: 6.00 Build 0)  -->
<svg version="1.1" xmlns="http://www.w3.org/2000/svg" xmlns:xlink="http://www.w3.org/1999/xlink" x="0px" y="0px"
	 viewBox="0 0 960 560" enable-background="new 0 0 960 560" xml:space="preserve">
<symbol  id="Gear" viewBox="-141 -141 281 281">
	<g>
		<path fill="#1B1464" d="M12,125.295c0,2.119,0,10.743,0,10.743c0,2.401-1.949,3.962-4.351,3.962H-7.65
			c-2.402,0-4.35-1.561-4.35-3.962c0,0,0-8.624,0-10.743c0-2.118-5-3.317-5-3.317v-8.457c0-2.403,2.345-4.521,4.747-4.521h12.252
			h12.253c2.402,0,4.748,2.117,4.748,4.521v8.457C17,121.977,12,123.177,12,125.295z"/>
		<path fill="#1B1464" d="M-36.863,120.35c-0.811,1.958-4.111,9.924-4.111,9.924c-0.919,2.22-3.463,3.273-5.683,2.354l-14.133-5.854
			c-2.219-0.919-3.274-3.464-2.354-5.684c0,0,3.3-7.965,4.111-9.925c0.811-1.956-2.983-4.826-2.983-4.826l3.237-7.813
			c0.919-2.221,3.464-3.274,5.683-2.355l11.32,4.688l11.32,4.689c2.219,0.92,3.273,3.464,2.354,5.683l-3.236,7.814
			C-31.341,119.046-36.052,118.392-36.863,120.35z"/>
		<path fill="#1B1464" d="M-80.113,97.08c-1.498,1.501-7.595,7.596-7.595,7.596c-1.699,1.699-4.453,1.699-6.151,0l-10.818-10.815
			c-1.698-1.699-1.699-4.453,0-6.152c0,0,6.098-6.097,7.596-7.596c1.498-1.499-0.91-5.601-0.91-5.601l5.981-5.981
			c1.698-1.698,4.453-1.698,6.15,0l8.664,8.664l8.664,8.664c1.7,1.698,1.699,4.454,0.001,6.153l-5.981,5.979
			C-74.511,97.99-78.614,95.583-80.113,97.08z"/>
		<path fill="#1B1464" d="M-111.165,59.034c-1.958,0.813-9.925,4.11-9.925,4.11c-2.219,0.919-4.763-0.137-5.683-2.354l-5.855-14.135
			c-0.919-2.217,0.135-4.764,2.354-5.683c0,0,7.966-3.299,9.924-4.11c1.958-0.812,1.303-5.522,1.303-5.522l7.814-3.236
			c2.219-0.92,4.764,0.135,5.683,2.354l4.689,11.318l4.688,11.321c0.919,2.219-0.135,4.764-2.354,5.683l-7.813,3.237
			C-106.338,62.018-109.208,58.223-111.165,59.034z"/>
		<path fill="#1B1464" d="M-125.294,12c-2.119,0-10.742,0-10.742,0c-2.402,0-4.349-1.948-4.349-4.352l-0.001-15.299
			c0.001-2.401,1.948-4.35,4.351-4.35c0,0,8.622,0,10.742,0c2.118,0,3.317-4.604,3.317-4.604l8.543,0.001
			c2.401-0.001,4.434,1.946,4.434,4.35V0v12.254c0,2.401-2.117,3.746-4.519,3.746h-8.458C-121.976,16-123.175,12-125.294,12z"/>
		<path fill="#1B1464" d="M-120.348-36.862c-1.958-0.81-9.924-4.111-9.924-4.111c-2.219-0.92-3.272-3.462-2.354-5.683l5.854-14.135
			c0.919-2.218,3.465-3.271,5.684-2.354c0,0,7.966,3.302,9.925,4.111c1.957,0.811,4.826-2.982,4.826-2.982l7.814,3.236
			c2.219,0.918,3.273,3.463,2.354,5.683l-4.688,11.319l-4.689,11.319c-0.92,2.221-3.464,3.274-5.684,2.355l-7.813-3.235
			C-119.045-31.338-118.39-36.052-120.348-36.862z"/>
		<path fill="#1B1464" d="M-97.08-80.111c-1.5-1.499-7.596-7.596-7.596-7.596c-1.698-1.698-1.698-4.451,0-6.151l10.817-10.818
			c1.698-1.698,4.453-1.698,6.151,0c0,0,6.097,6.099,7.596,7.597c1.498,1.499,5.601-0.911,5.601-0.911l5.979,5.983
			c1.699,1.698,1.699,4.451,0,6.149l-8.663,8.664l-8.664,8.663c-1.7,1.699-4.454,1.699-6.152,0l-5.981-5.979
			C-97.99-74.51-95.581-78.613-97.08-80.111z"/>
		<path fill="#1B1464" d="M-59.033-111.164c-0.812-1.958-4.11-9.926-4.11-9.926c-0.918-2.217,0.135-4.762,2.354-5.683l14.133-5.854
			c2.219-0.92,4.764,0.136,5.684,2.354c0,0,3.299,7.967,4.111,9.925c0.81,1.958,5.522,1.303,5.522,1.303l3.235,7.814
			c0.92,2.219-0.135,4.764-2.354,5.683l-11.319,4.688l-11.32,4.689c-2.22,0.918-4.764-0.135-5.684-2.354l-3.237-7.814
			C-62.016-106.338-58.22-109.208-59.033-111.164z"/>
		<path fill="#1B1464" d="M-12-125.294c0-2.12,0-10.742,0-10.742c0-2.401,1.95-4.964,4.353-4.964H7.651
			c2.401,0,4.349,2.255,4.35,4.658c0,0-0.001,8.774,0,10.896c-0.001,2.118,4.603,3.394,4.603,3.394l-0.001,8.08
			c0.001,2.401-1.948,3.972-4.349,3.972H0.002h-12.253c-2.403,0-4.749-1.116-4.749-3.518v-8.457C-17-121.975-12-123.174-12-125.294z
			"/>
		<path fill="#1B1464" d="M36.864-120.348c0.811-1.958,4.111-9.925,4.111-9.925c0.919-2.217,3.463-3.271,5.684-2.354l14.134,5.854
			c2.218,0.921,3.271,3.466,2.354,5.687c0,0-3.3,7.964-4.111,9.922s2.983,4.826,2.983,4.826l-3.237,7.814
			c-0.918,2.221-3.463,3.271-5.683,2.354l-11.319-4.688l-11.319-4.688c-2.22-0.921-3.275-3.466-2.355-5.685l3.236-7.813
			C31.34-119.043,36.054-118.39,36.864-120.348z"/>
		<path fill="#1B1464" d="M80.113-97.08c1.499-1.498,7.596-7.597,7.596-7.597c1.7-1.695,4.451-1.695,6.153,0l10.816,10.82
			c1.698,1.698,1.698,4.452-0.001,6.151c0,0-6.096,6.097-7.596,7.594c-1.499,1.5,0.909,5.602,0.909,5.602l-5.98,5.979
			c-1.698,1.702-4.451,1.699-6.15,0.002l-8.664-8.663l-8.664-8.664c-1.698-1.7-1.698-4.453-0.001-6.151l5.98-5.979
			C74.511-97.987,78.615-95.581,80.113-97.08z"/>
		<path fill="#1B1464" d="M111.165-59.031c1.959-0.812,9.925-4.112,9.925-4.112c2.219-0.917,4.763,0.137,5.684,2.355l5.854,14.133
			c0.918,2.22-0.136,4.764-2.354,5.685c0,0-7.967,3.299-9.925,4.11c-1.958,0.811-1.304,5.522-1.304,5.522l-7.814,3.235
			c-2.219,0.921-4.762-0.135-5.682-2.353l-4.689-11.32l-4.688-11.321c-0.918-2.22,0.135-4.763,2.354-5.683l7.813-3.236
			C106.338-62.016,109.209-58.22,111.165-59.031z"/>
		<path fill="#1B1464" d="M125.294-12c2.12,0,10.743,0,10.743,0c2.4,0,3.963,1.951,3.963,4.355V7.653
			c0,2.401-1.562,4.347-3.964,4.347c0,0-8.621,0-10.742,0c-2.119,0-3.316,4.605-3.316,4.605l-8.543-0.002
			c-2.401,0.002-4.434-1.946-4.434-4.349V0.003l0.085-12.253c0-2.402,1.989-4.351,4.391-4.351l8.479,0.001
			C121.956-16.601,123.177-12,125.294-12z"/>
		<path fill="#1B1464" d="M120.349,36.865c1.958,0.81,9.925,4.11,9.925,4.11c2.218,0.919,3.271,3.464,2.354,5.684l-5.855,14.134
			c-0.92,2.219-3.465,3.272-5.684,2.355c0,0-7.965-3.302-9.925-4.114c-1.957-0.812-4.826,2.984-4.826,2.984l-7.813-3.238
			c-2.22-0.918-3.272-3.462-2.354-5.681l4.688-11.321l4.69-11.317c0.919-2.221,3.463-3.274,5.682-2.356l7.814,3.236
			C119.045,31.341,118.392,36.055,120.349,36.865z"/>
		<path fill="#1B1464" d="M97.08,80.114c1.5,1.497,7.596,7.596,7.596,7.596c1.698,1.699,1.698,4.451,0.001,6.151l-10.818,10.818
			c-1.699,1.696-4.453,1.696-6.152,0c0,0-6.095-6.099-7.595-7.597c-1.498-1.5-5.602,0.907-5.602,0.907l-5.979-5.979
			c-1.699-1.699-1.698-4.453,0-6.152l8.663-8.663l8.665-8.662c1.698-1.7,4.452-1.7,6.151-0.004l5.979,5.981
			C97.99,74.512,95.582,78.616,97.08,80.114z"/>
		<path fill="#1B1464" d="M59.033,111.167c0.812,1.958,4.11,9.924,4.11,9.924c0.919,2.219-0.136,4.764-2.354,5.685l-14.136,5.854
			c-2.219,0.917-4.764-0.136-5.683-2.355c0,0-3.298-7.966-4.11-9.925c-0.81-1.958-5.521-1.304-5.521-1.304l-3.236-7.814
			c-0.921-2.219,0.134-4.763,2.354-5.683l11.318-4.688l11.318-4.688c2.221-0.92,4.766,0.133,5.686,2.354l3.235,7.813
			C62.016,106.339,58.222,109.209,59.033,111.167z"/>
		<path fill="#1B1464" d="M0,25.482c14.072,0,25.48-11.408,25.48-25.48S14.072-25.478,0-25.478s-25.48,11.408-25.48,25.48
			S-14.072,25.482,0,25.482z"/>
		<path fill="#1B1464" d="M123.087,0.002c0-67.98-55.107-123.087-123.087-123.087S-123.088-67.979-123.088,0.002
			c0,67.979,55.108,123.086,123.088,123.086S123.087,67.981,123.087,0.002z M0,34.361c-18.977,0-34.36-15.383-34.36-34.359
			C-34.36-18.976-18.977-34.36,0-34.36S34.359-18.975,34.359,0.002C34.36,18.978,18.977,34.361,0,34.361z M9,73.452
			C9,76.159,6.804,78,4.096,78h-8.192C-6.804,78-9,76.159-9,73.452V52.254C-9,49.547-6.804,47-4.096,47h8.192
			C6.804,47,9,49.547,9,52.254V73.452z"/>
	</g>
	<polygon display="none" fill="none" points="-141,140 140,140 140,-141 -141,-141 	"/>
</symbol>
<symbol  id="Gear1" viewBox="-80.823 -80.823 161.646 161.647">
	<g>
		<g>
			<g>
				<path fill="#B3B3B3" d="M3.222,76.773c0,0.568,0,2.883,0,2.883c0,0.643-0.525,1.167-1.169,1.167h-4.105
					c-0.646,0-1.167-0.524-1.167-1.167c0,0,0-2.315,0-2.883c0-0.57-1.235-0.892-1.235-0.892v-2.271c0-0.646,0.521-1.167,1.164-1.167
					H0h3.291c0.644,0,1.166,0.521,1.166,1.167v2.272C4.456,75.882,3.222,76.203,3.222,76.773z"/>
			</g>
			<g>
				<path fill="#B3B3B3" d="M-8.828,76.331c-0.092,0.562-0.451,2.848-0.451,2.848c-0.102,0.637-0.699,1.071-1.336,0.971
					l-4.056-0.644c-0.637-0.101-1.072-0.699-0.97-1.333c0,0,0.359-2.289,0.451-2.849c0.088-0.56-1.083-1.073-1.083-1.073
					l0.356-2.243c0.1-0.636,0.699-1.068,1.333-0.969l3.253,0.515l3.245,0.513c0.64,0.102,1.074,0.7,0.971,1.334l-0.353,2.242
					C-7.467,75.643-8.742,75.77-8.828,76.331z"/>
			</g>
			<g>
				<path fill="#B3B3B3" d="M-20.662,74.009c-0.176,0.541-0.893,2.745-0.893,2.745c-0.195,0.612-0.855,0.947-1.469,0.747
					l-3.904-1.269c-0.614-0.199-0.948-0.856-0.749-1.468c0,0,0.714-2.204,0.89-2.745c0.176-0.539-0.898-1.228-0.898-1.228
					l0.699-2.16c0.199-0.612,0.859-0.948,1.472-0.75l3.129,1.017l3.127,1.017c0.613,0.2,0.948,0.857,0.75,1.471l-0.702,2.158
					C-19.211,73.545-20.486,73.471-20.662,74.009z"/>
			</g>
			<g>
				<path fill="#B3B3B3" d="M-31.986,69.868c-0.259,0.506-1.309,2.568-1.309,2.568c-0.293,0.574-0.995,0.802-1.568,0.51
					l-3.659-1.864c-0.573-0.294-0.802-0.996-0.508-1.572c0,0,1.049-2.062,1.308-2.57c0.257-0.504-0.699-1.353-0.699-1.353
					l1.032-2.022c0.293-0.576,0.996-0.804,1.572-0.508l2.927,1.492l2.929,1.49c0.577,0.294,0.807,0.995,0.513,1.572l-1.029,2.023
					C-30.478,69.636-31.728,69.362-31.986,69.868z"/>
			</g>
			<g>
				<path fill="#B3B3B3" d="M-42.52,64.003c-0.334,0.461-1.694,2.332-1.694,2.332c-0.379,0.521-1.109,0.639-1.63,0.258l-3.323-2.412
					c-0.521-0.38-0.637-1.11-0.259-1.63c0,0,1.363-1.873,1.695-2.334c0.335-0.461-0.476-1.449-0.476-1.449l1.335-1.833
					c0.376-0.521,1.106-0.637,1.629-0.259l2.662,1.934l2.66,1.932c0.521,0.38,0.638,1.108,0.258,1.631l-1.333,1.836
					C-40.996,64.01-42.184,63.542-42.52,64.003z"/>
			</g>
			<g>
				<path fill="#B3B3B3" d="M-52.009,56.563c-0.4,0.402-2.038,2.038-2.038,2.038c-0.454,0.457-1.196,0.457-1.652,0.002l-2.901-2.905
					c-0.456-0.454-0.456-1.195,0-1.649c0,0,1.634-1.639,2.04-2.041c0.399-0.4-0.245-1.504-0.245-1.504l1.604-1.603
					c0.456-0.456,1.196-0.456,1.652,0l2.324,2.325l2.324,2.326c0.456,0.456,0.457,1.195,0.001,1.651l-1.606,1.606
					C-50.506,56.808-51.606,56.163-52.009,56.563z"/>
			</g>
			<g>
				<path fill="#B3B3B3" d="M-60.217,47.729c-0.46,0.335-2.33,1.696-2.33,1.696c-0.523,0.38-1.256,0.265-1.634-0.257l-2.411-3.322
					c-0.38-0.522-0.265-1.252,0.258-1.63c0,0,1.872-1.36,2.333-1.697c0.457-0.333-0.008-1.521-0.008-1.521l1.837-1.336
					c0.521-0.378,1.252-0.263,1.632,0.26l1.933,2.661l1.932,2.66c0.38,0.522,0.265,1.251-0.259,1.631l-1.835,1.333
					C-58.77,48.206-59.757,47.398-60.217,47.729z"/>
			</g>
			<g>
				<path fill="#B3B3B3" d="M-66.943,37.722c-0.505,0.258-2.567,1.311-2.567,1.311c-0.577,0.291-1.278,0.063-1.572-0.511
					l-1.864-3.659c-0.291-0.573-0.063-1.278,0.51-1.57c0,0,2.063-1.05,2.572-1.309c0.505-0.259,0.231-1.506,0.231-1.506l2.022-1.03
					c0.575-0.291,1.276-0.064,1.568,0.511l1.492,2.931l1.494,2.929c0.294,0.576,0.066,1.278-0.512,1.569l-2.021,1.032
					C-65.589,38.421-66.435,37.465-66.943,37.722z"/>
			</g>
			<g>
				<path fill="#B3B3B3" d="M-72.018,26.786c-0.542,0.175-2.744,0.892-2.744,0.892c-0.613,0.2-1.271-0.137-1.471-0.75l-1.268-3.904
					c-0.2-0.613,0.134-1.271,0.751-1.469c0,0,2.198-0.717,2.74-0.894c0.54-0.176,0.465-1.451,0.465-1.451l2.158-0.702
					c0.615-0.2,1.272,0.137,1.469,0.752l1.021,3.127l1.013,3.126c0.2,0.613-0.134,1.273-0.747,1.472l-2.159,0.702
					C-70.791,27.687-71.479,26.611-72.018,26.786z"/>
			</g>
			<g>
				<path fill="#B3B3B3" d="M-75.323,15.189c-0.562,0.089-2.849,0.452-2.849,0.452c-0.635,0.102-1.235-0.335-1.335-0.969
					l-0.643-4.058c-0.101-0.638,0.334-1.233,0.971-1.333c0,0,2.284-0.365,2.85-0.452c0.559-0.089,0.685-1.36,0.685-1.36l2.241-0.356
					c0.637-0.1,1.233,0.333,1.337,0.971l0.514,3.249l0.516,3.249c0.099,0.637-0.333,1.236-0.971,1.333l-2.245,0.357
					C-74.253,16.271-74.762,15.1-75.323,15.189z"/>
			</g>
			<g>
				<path fill="#B3B3B3" d="M-76.771,3.221c-0.571,0-2.886,0-2.886,0c-0.644,0-1.166-0.524-1.166-1.169v-4.105
					c0-0.645,0.522-1.169,1.166-1.169c0,0,2.314,0,2.886,0c0.568,0,0.89-1.235,0.89-1.235l2.271-0.001
					c0.645,0.001,1.166,0.526,1.164,1.169l0.002,3.29l-0.002,3.288c0.002,0.643-0.52,1.169-1.164,1.167l-2.271,0.002
					C-75.881,4.458-76.203,3.221-76.771,3.221z"/>
			</g>
			<g>
				<path fill="#B3B3B3" d="M-76.329-8.83c-0.564-0.089-2.85-0.449-2.85-0.449c-0.637-0.101-1.071-0.7-0.971-1.337l0.643-4.057
					c0.1-0.636,0.7-1.068,1.335-0.967c0,0,2.287,0.361,2.849,0.449c0.561,0.09,1.07-1.082,1.07-1.082l2.245,0.354
					c0.638,0.102,1.071,0.702,0.971,1.336l-0.516,3.249l-0.514,3.246c-0.104,0.64-0.7,1.076-1.337,0.974l-2.241-0.354
					C-75.644-7.468-75.77-8.743-76.329-8.83z"/>
			</g>
			<g>
				<path fill="#B3B3B3" d="M-74.009-20.662c-0.54-0.176-2.74-0.891-2.74-0.891c-0.613-0.197-0.951-0.858-0.751-1.471l1.269-3.905
					c0.198-0.613,0.856-0.947,1.47-0.749c0,0,2.202,0.717,2.744,0.893c0.54,0.176,1.229-0.901,1.229-0.901l2.157,0.699
					c0.613,0.202,0.947,0.86,0.747,1.471l-1.013,3.13l-1.017,3.126c-0.2,0.615-0.857,0.952-1.473,0.751l-2.158-0.702
					C-73.545-19.212-73.469-20.486-74.009-20.662z"/>
			</g>
			<g>
				<path fill="#B3B3B3" d="M-69.865-31.988c-0.509-0.256-2.572-1.306-2.572-1.306c-0.572-0.294-0.801-0.998-0.51-1.569l1.864-3.661
					c0.294-0.572,0.995-0.802,1.572-0.508c0,0,2.063,1.049,2.567,1.31c0.509,0.257,1.357-0.699,1.357-0.699l2.021,1.029
					c0.574,0.295,0.804,0.998,0.509,1.569l-1.494,2.933l-1.49,2.929c-0.294,0.576-0.995,0.807-1.57,0.511l-2.022-1.028
					C-69.633-30.478-69.359-31.729-69.865-31.988z"/>
			</g>
			<g>
				<path fill="#B3B3B3" d="M-64.001-42.521c-0.462-0.337-2.334-1.695-2.334-1.695c-0.522-0.38-0.638-1.11-0.258-1.63l2.411-3.325
					c0.382-0.521,1.11-0.636,1.634-0.256c0,0,1.87,1.358,2.33,1.695c0.46,0.335,1.447-0.477,1.447-0.477l1.837,1.333
					c0.519,0.381,0.639,1.111,0.258,1.629l-1.937,2.665l-1.929,2.657c-0.38,0.523-1.107,0.641-1.63,0.26l-1.839-1.333
					C-64.009-40.996-63.545-42.188-64.001-42.521z"/>
			</g>
			<g>
				<path fill="#B3B3B3" d="M-56.56-52.009c-0.403-0.404-2.041-2.039-2.041-2.039c-0.456-0.456-0.456-1.197,0-1.651l2.903-2.903
					c0.458-0.454,1.196-0.456,1.65,0c0,0,1.638,1.636,2.041,2.039c0.4,0.401,1.503-0.245,1.503-0.245l1.604,1.604
					c0.454,0.456,0.455,1.195-0.001,1.652l-2.327,2.327l-2.322,2.324c-0.456,0.456-1.196,0.457-1.651,0.001l-1.605-1.605
					C-56.806-50.507-56.161-51.611-56.56-52.009z"/>
			</g>
			<g>
				<path fill="#B3B3B3" d="M-47.731-60.217c-0.332-0.462-1.695-2.333-1.695-2.333c-0.378-0.522-0.263-1.252,0.259-1.63l3.325-2.416
					c0.52-0.376,1.249-0.263,1.628,0.261c0,0,1.36,1.871,1.694,2.333c0.336,0.458,1.524-0.006,1.524-0.006l1.333,1.833
					c0.38,0.522,0.265,1.253-0.258,1.633l-2.66,1.934l-2.662,1.932c-0.519,0.378-1.253,0.266-1.629-0.259l-1.335-1.833
					C-48.207-58.77-47.396-59.758-47.731-60.217z"/>
			</g>
			<g>
				<path fill="#B3B3B3" d="M-37.72-66.945c-0.261-0.507-1.31-2.568-1.31-2.568c-0.294-0.574-0.065-1.28,0.508-1.569l3.659-1.864
					c0.573-0.294,1.275-0.065,1.568,0.509c0,0,1.053,2.062,1.309,2.57c0.262,0.509,1.508,0.232,1.508,0.232l1.03,2.021
					c0.292,0.576,0.065,1.278-0.51,1.57l-2.933,1.494l-2.926,1.493c-0.577,0.292-1.28,0.067-1.572-0.512l-1.033-2.02
					C-38.422-65.589-37.464-66.438-37.72-66.945z"/>
			</g>
			<g>
				<path fill="#B3B3B3" d="M-26.783-72.018c-0.176-0.546-0.894-2.745-0.894-2.745c-0.198-0.612,0.136-1.271,0.749-1.471
					l3.904-1.266c0.615-0.201,1.274,0.134,1.469,0.747c0,0,0.718,2.199,0.893,2.745c0.177,0.541,1.452,0.464,1.452,0.464
					l0.704,2.157c0.195,0.613-0.139,1.273-0.753,1.472l-3.127,1.02l-3.127,1.012c-0.613,0.2-1.274-0.132-1.471-0.75l-0.702-2.158
					C-27.685-70.794-26.611-71.479-26.783-72.018z"/>
			</g>
			<g>
				<path fill="#B3B3B3" d="M-15.189-75.324c-0.088-0.564-0.451-2.848-0.451-2.848c-0.101-0.637,0.334-1.234,0.97-1.336l4.056-0.642
					c0.637-0.1,1.234,0.333,1.336,0.972c0,0,0.361,2.284,0.451,2.847c0.086,0.562,1.36,0.686,1.36,0.686l0.356,2.241
					c0.1,0.638-0.335,1.234-0.973,1.336l-3.247,0.515l-3.248,0.513c-0.638,0.101-1.237-0.331-1.335-0.969l-0.358-2.243
					C-16.272-74.253-15.1-74.762-15.189-75.324z"/>
			</g>
			<g>
				<path fill="#B3B3B3" d="M-3.217-76.771c0-0.573,0-2.885,0-2.885c0-0.646,0.521-1.167,1.166-1.167h4.104
					c0.647,0,1.169,0.521,1.169,1.167c0,0,0,2.312,0,2.885c0,0.57,1.234,0.889,1.234,0.889l0.004,2.271
					c-0.004,0.641-0.526,1.165-1.17,1.165h-3.291h-3.286c-0.643,0-1.168-0.52-1.166-1.165l-0.002-2.271
					C-4.455-75.882-3.217-76.203-3.217-76.771z"/>
			</g>
			<g>
				<path fill="#B3B3B3" d="M8.831-76.331c0.088-0.563,0.449-2.847,0.449-2.847c0.104-0.639,0.701-1.071,1.333-0.969l4.061,0.639
					c0.638,0.102,1.069,0.7,0.971,1.336c0,0-0.363,2.284-0.454,2.848c-0.088,0.563,1.082,1.072,1.082,1.072l-0.354,2.243
					c-0.103,0.636-0.699,1.07-1.337,0.969l-3.25-0.513l-3.246-0.515c-0.637-0.1-1.074-0.698-0.972-1.333l0.354-2.243
					C7.468-75.645,8.744-75.77,8.831-76.331z"/>
			</g>
			<g>
				<path fill="#B3B3B3" d="M20.666-74.009c0.176-0.546,0.887-2.745,0.887-2.745c0.198-0.612,0.859-0.947,1.473-0.747l3.904,1.269
					c0.615,0.197,0.947,0.856,0.748,1.469c0,0-0.714,2.199-0.893,2.745c-0.176,0.539,0.903,1.225,0.903,1.225l-0.7,2.16
					c-0.2,0.613-0.859,0.95-1.472,0.748L22.385-68.9l-3.124-1.014c-0.612-0.201-0.954-0.859-0.751-1.472l0.7-2.159
					C19.211-73.546,20.489-73.469,20.666-74.009z"/>
			</g>
			<g>
				<path fill="#B3B3B3" d="M31.988-69.865c0.259-0.511,1.305-2.571,1.305-2.571c0.296-0.574,0.999-0.804,1.573-0.51l3.658,1.864
					c0.574,0.294,0.802,0.996,0.509,1.567c0,0-1.051,2.064-1.308,2.573c-0.259,0.507,0.695,1.354,0.695,1.354l-1.027,2.022
					c-0.296,0.574-0.997,0.802-1.571,0.51l-2.934-1.493l-2.925-1.491c-0.578-0.295-0.809-0.998-0.515-1.572l1.03-2.023
					C30.479-69.634,31.73-69.361,31.988-69.865z"/>
			</g>
			<g>
				<path fill="#B3B3B3" d="M42.522-64.003c0.336-0.46,1.695-2.333,1.695-2.333c0.378-0.522,1.11-0.637,1.628-0.259l3.325,2.415
					c0.521,0.38,0.638,1.108,0.257,1.627c0,0-1.359,1.875-1.696,2.336c-0.333,0.458,0.479,1.447,0.479,1.447l-1.334,1.836
					c-0.378,0.52-1.11,0.635-1.633,0.256l-2.661-1.934l-2.658-1.931c-0.523-0.379-0.642-1.108-0.261-1.63l1.335-1.839
					C40.998-64.012,42.189-63.544,42.522-64.003z"/>
			</g>
			<g>
				<path fill="#B3B3B3" d="M52.011-56.562c0.404-0.404,2.04-2.041,2.04-2.041c0.456-0.454,1.194-0.454,1.648,0l2.906,2.905
					c0.456,0.457,0.456,1.193,0,1.648c0,0-1.637,1.638-2.04,2.04c-0.405,0.401,0.242,1.503,0.242,1.503l-1.602,1.605
					c-0.456,0.453-1.196,0.455-1.651-0.001l-2.33-2.326l-2.322-2.324c-0.456-0.458-0.458-1.197,0-1.651l1.604-1.607
					C50.507-56.809,51.611-56.16,52.011-56.562z"/>
			</g>
			<g>
				<path fill="#B3B3B3" d="M60.216-47.731c0.467-0.332,2.336-1.695,2.336-1.695c0.522-0.38,1.251-0.263,1.627,0.259l2.416,3.323
					c0.378,0.521,0.265,1.25-0.259,1.63c0,0-1.871,1.358-2.333,1.695c-0.461,0.334,0.006,1.523,0.006,1.523l-1.834,1.336
					c-0.521,0.374-1.251,0.262-1.63-0.261l-1.938-2.665l-1.93-2.657c-0.378-0.521-0.264-1.251,0.259-1.629l1.835-1.336
					C58.771-48.208,59.76-47.396,60.216-47.731z"/>
			</g>
			<g>
				<path fill="#B3B3B3" d="M66.945-37.722c0.509-0.259,2.566-1.31,2.566-1.31c0.578-0.292,1.281-0.063,1.571,0.51l1.865,3.659
					c0.292,0.573,0.066,1.275-0.509,1.569c0,0-2.063,1.052-2.571,1.308c-0.507,0.259-0.229,1.508-0.229,1.508l-2.021,1.03
					c-0.577,0.289-1.28,0.063-1.568-0.513l-1.497-2.929l-1.49-2.929c-0.295-0.576-0.07-1.278,0.508-1.569l2.021-1.033
					C65.59-38.422,66.437-37.464,66.945-37.722z"/>
			</g>
			<g>
				<path fill="#B3B3B3" d="M72.024-26.784c0.54-0.178,2.737-0.895,2.737-0.895c0.614-0.198,1.275,0.138,1.473,0.751l1.268,3.905
					c0.2,0.613-0.137,1.271-0.747,1.469c0,0-2.197,0.715-2.743,0.891c-0.542,0.176-0.465,1.454-0.465,1.454l-2.158,0.702
					c-0.614,0.196-1.269-0.139-1.469-0.752l-1.018-3.131l-1.018-3.124c-0.201-0.614,0.137-1.272,0.747-1.472l2.161-0.705
					C70.792-27.69,71.483-26.607,72.024-26.784z"/>
			</g>
			<g>
				<path fill="#B3B3B3" d="M75.327-15.189c0.563-0.088,2.848-0.452,2.848-0.452c0.637-0.102,1.234,0.334,1.335,0.969l0.639,4.057
					c0.104,0.637-0.329,1.234-0.967,1.335c0,0-2.281,0.362-2.852,0.451c-0.563,0.087-0.685,1.36-0.685,1.36l-2.241,0.357
					c-0.635,0.096-1.234-0.336-1.336-0.974l-0.513-3.248l-0.517-3.247c-0.101-0.636,0.332-1.237,0.969-1.334l2.247-0.358
					C74.254-16.273,74.761-15.101,75.327-15.189z"/>
			</g>
			<g>
				<path fill="#B3B3B3" d="M76.773-3.22c0.574,0,2.884-0.002,2.884-0.002c0.643,0.002,1.166,0.526,1.166,1.171v4.105
					c0,0.645-0.521,1.167-1.164,1.167c0,0-2.315,0-2.886,0s-0.891,1.236-0.891,1.236l-2.271,0.002
					c-0.642-0.005-1.163-0.527-1.161-1.171L72.448,0v-3.287c0-0.646,0.519-1.17,1.163-1.168l2.274-0.002
					C75.885-4.457,76.206-3.22,76.773-3.22z"/>
			</g>
			<g>
				<path fill="#B3B3B3" d="M76.329,8.832c0.57,0.088,2.852,0.45,2.852,0.45c0.638,0.1,1.071,0.699,0.967,1.336l-0.639,4.055
					c-0.104,0.637-0.698,1.071-1.334,0.969c0,0-2.285-0.361-2.849-0.452c-0.565-0.089-1.075,1.084-1.075,1.084l-2.24-0.354
					c-0.636-0.107-1.073-0.702-0.969-1.337l0.513-3.25l0.513-3.247c0.102-0.638,0.698-1.073,1.336-0.971l2.241,0.354
					C75.645,7.47,75.77,8.743,76.329,8.832z"/>
			</g>
			<g>
				<path fill="#B3B3B3" d="M74.011,20.663c0.546,0.177,2.743,0.892,2.743,0.892c0.61,0.198,0.947,0.858,0.747,1.471l-1.268,3.905
					c-0.202,0.614-0.858,0.947-1.469,0.748c0,0-2.201-0.713-2.746-0.892c-0.542-0.176-1.227,0.9-1.227,0.9l-2.157-0.701
					c-0.611-0.2-0.952-0.857-0.747-1.469l1.014-3.133l1.017-3.125c0.198-0.612,0.851-0.952,1.467-0.75l2.161,0.699
					C73.546,19.208,73.469,20.486,74.011,20.663z"/>
			</g>
			<g>
				<path fill="#B3B3B3" d="M69.868,31.986c0.509,0.261,2.568,1.307,2.568,1.307c0.578,0.292,0.802,0.997,0.512,1.57l-1.865,3.659
					c-0.292,0.576-0.997,0.802-1.566,0.511c0,0-2.063-1.053-2.575-1.311c-0.504-0.258-1.351,0.698-1.351,0.698l-2.021-1.028
					c-0.573-0.295-0.803-0.997-0.508-1.571l1.49-2.934l1.492-2.927c0.293-0.576,0.993-0.806,1.568-0.513l2.026,1.03
					C69.638,30.478,69.361,31.728,69.868,31.986z"/>
			</g>
			<g>
				<path fill="#B3B3B3" d="M64.003,42.522c0.462,0.335,2.333,1.694,2.333,1.694c0.523,0.377,0.637,1.111,0.259,1.63l-2.416,3.322
					c-0.378,0.524-1.109,0.637-1.627,0.259c0,0-1.869-1.36-2.336-1.697c-0.458-0.334-1.445,0.477-1.445,0.477l-1.84-1.33
					c-0.515-0.383-0.632-1.11-0.254-1.632l1.935-2.664l1.934-2.656c0.375-0.523,1.104-0.641,1.627-0.26l1.837,1.334
					C64.009,40.998,63.542,42.189,64.003,42.522z"/>
			</g>
			<g>
				<path fill="#B3B3B3" d="M56.561,52.011c0.406,0.404,2.04,2.038,2.04,2.038c0.456,0.456,0.456,1.195,0,1.651L55.7,58.603
					c-0.456,0.457-1.192,0.454-1.648,0c0,0-1.637-1.634-2.04-2.043c-0.403-0.399-1.504,0.248-1.504,0.248l-1.606-1.604
					c-0.454-0.457-0.454-1.197,0.002-1.651l2.326-2.328l2.325-2.322c0.456-0.456,1.192-0.458,1.648-0.002l1.61,1.605
					C56.813,50.507,56.161,51.609,56.561,52.011z"/>
			</g>
			<g>
				<path fill="#B3B3B3" d="M47.731,60.218c0.337,0.465,1.693,2.334,1.693,2.334c0.38,0.52,0.266,1.252-0.259,1.63l-3.32,2.412
					c-0.521,0.38-1.251,0.265-1.627-0.256c0,0-1.36-1.871-1.696-2.336c-0.334-0.458-1.523,0.009-1.523,0.009l-1.336-1.834
					c-0.373-0.523-0.262-1.251,0.262-1.632l2.659-1.934l2.66-1.932c0.522-0.38,1.25-0.267,1.628,0.259l1.339,1.833
					C48.21,58.77,47.394,59.757,47.731,60.218z"/>
			</g>
			<g>
				<path fill="#B3B3B3" d="M37.723,66.943c0.259,0.511,1.31,2.568,1.31,2.568c0.293,0.576,0.065,1.278-0.511,1.572l-3.656,1.864
					c-0.576,0.294-1.277,0.066-1.57-0.507c0,0-1.051-2.061-1.312-2.574c-0.255-0.508-1.505-0.232-1.505-0.232l-1.033-2.019
					c-0.284-0.576-0.061-1.28,0.516-1.568l2.932-1.497l2.928-1.491c0.575-0.294,1.275-0.07,1.567,0.508l1.032,2.022
					C38.42,65.589,37.465,66.437,37.723,66.943z"/>
			</g>
			<g>
				<path fill="#B3B3B3" d="M26.786,72.021c0.178,0.543,0.893,2.743,0.893,2.743c0.199,0.612-0.139,1.271-0.75,1.468l-3.905,1.269
					c-0.612,0.201-1.271-0.134-1.47-0.744c0,0-0.715-2.201-0.891-2.749c-0.176-0.539-1.454-0.463-1.454-0.463l-0.698-2.155
					c-0.198-0.611,0.136-1.273,0.749-1.472l3.13-1.019l3.124-1.016c0.616-0.2,1.272,0.133,1.474,0.748l0.704,2.16
					C27.691,70.791,26.609,71.478,26.786,72.021z"/>
			</g>
			<g>
				<path fill="#B3B3B3" d="M15.19,75.324c0.089,0.565,0.451,2.847,0.451,2.847c0.103,0.639-0.334,1.235-0.972,1.336l-4.056,0.644
					c-0.634,0.1-1.233-0.334-1.33-0.969c0,0-0.364-2.284-0.455-2.854c-0.085-0.558-1.36-0.685-1.36-0.685l-0.355-2.241
					c-0.096-0.633,0.337-1.234,0.974-1.331l3.249-0.518l3.246-0.515c0.638-0.1,1.235,0.33,1.333,0.969l0.358,2.245
					C16.273,74.253,15.101,74.764,15.19,75.324z"/>
			</g>
			<g>
				<g>
					<path fill="#B3B3B3" d="M0-76.016c-41.984,0-76.017,34.033-76.017,76.017S-41.985,76.016,0,76.016
						c41.983,0,76.018-34.031,76.018-76.015S41.984-76.016,0-76.016z M8.66,0.001c0,4.782-3.876,8.656-8.66,8.656
						c-4.782,0-8.658-3.874-8.658-8.656c0-4.783,3.876-8.659,8.658-8.659C4.784-8.659,8.66-4.783,8.66,0.001z M50.678-1.911
						c0.582,0,1.055,0.474,1.055,1.056v1.709c0,0.584-0.473,1.059-1.055,1.059h-15.43c-0.582,0-1.055-0.474-1.055-1.059v-1.709
						c0-0.583,0.473-1.056,1.055-1.056H50.678z"/>
				</g>
			</g>
		</g>
	</g>
</symbol>
<g id="Layer_2">
	<use xlink:href="#Gear"  width="281" height="281" x="-141" y="-141" transform="matrix(1 0 0 -1 694 342)" overflow="visible"/>
	<g>
		<g>
			<g>
				<g>
					<g>
						<path fill="#414141" d="M398.68,481.749c0.198-1.384-0.026-4.496-0.727-3.878l-0.387,5.297L398.68,481.749z"/>
						<path fill="#414141" d="M393.786,471.961c-0.803,2.57-1.888,7.083-1.423,11.945c0.943-5.087,1.134-2.967,2.049-9.029
							c0.693-0.62,1.229,1.695,1.127,3.644c0.237-1.359,1.141,1.16,1.464-2.166c-1.003-4.096-2.062-4.257-3.296-0.866
							C393.459,474.322,393.723,472.939,393.786,471.961z"/>
						<path fill="#414141" d="M332.833,449.044l0.142,0.737C333.004,449.417,332.946,449.187,332.833,449.044z"/>
						<path fill="#414141" d="M297.489,429.28c0.333,0.025,0.684-0.391,0.91-0.814C297.988,428.649,297.632,428.836,297.489,429.28z
							"/>
						<path fill="#414141" d="M293.885,420.965c0.057,0.217,0.135,0.34,0.203,0.505
							C294.167,420.963,294.149,420.651,293.885,420.965z"/>
						<path fill="#414141" d="M332.833,449.044l-0.336-1.955C331.756,448.649,332.501,448.487,332.833,449.044z"/>
						<path fill="#414141" d="M383.553,484.282c0.274-0.228,0.523-0.701,0.765-1.325c-0.223,0.209-0.438,0.38-0.655,0.5
							C383.627,483.724,383.597,483.951,383.553,484.282z"/>
						<path fill="#414141" d="M350.598,451.232l0.3,0.097c0.281-0.539,0.597-1.201,0.937-1.952L350.598,451.232z"/>
						<path fill="#414141" d="M363.251,454.239c-0.229-0.267-1.482,4.05-2.102,5.917c0.642-1.742,1.079-2.536,1.418-2.802
							C362.79,456.527,363.012,455.528,363.251,454.239z"/>
						<path fill="#414141" d="M382.111,465.811l0.438-0.576C382.432,465.417,382.25,465.578,382.111,465.811z"/>
						<path fill="#414141" d="M342.089,447.088c0.22-0.63,0.389-1.197,0.468-1.539C342.354,446.073,342.204,446.589,342.089,447.088
							z"/>
						<path fill="#414141" d="M61.755,196.665c0.32,0.012,0.523-0.006,0.8-0.003C62.102,196.572,61.782,196.544,61.755,196.665z"/>
						<path fill="#414141" d="M84.705,180.718l0.226,0.244c0.846,0.107,1.677,0.212,2.505,0.294L84.705,180.718z"/>
						<path fill="#414141" d="M285.241,410.133c-0.002,0.057,0.006,0.061,0.01,0.102
							C285.778,409.93,285.571,409.925,285.241,410.133z"/>
						<path fill="#414141" d="M187.698,353.035c-1.537,3.915-4.893,2.698-6.207,7.365
							C182.472,358.929,187.287,356.048,187.698,353.035z"/>
						<path fill="#414141" d="M383.21,483.654c-0.209,0.03-0.421,0.047-0.626-0.02C382.854,483.81,383.047,483.817,383.21,483.654z"
							/>
						<path fill="#414141" d="M181.491,360.4l-0.022,0.027l-0.109,0.453C181.414,360.682,181.445,360.569,181.491,360.4z"/>
						<path fill="#414141" d="M258.513,399.021c-0.332,0.722-0.523,1.305-0.696,1.866
							C258.031,400.479,258.246,399.953,258.513,399.021z"/>
						<path fill="#414141" d="M274.487,414.833l-0.196-0.783C274.289,414.512,274.377,414.717,274.487,414.833z"/>
						<path fill="#414141" d="M245.691,399.086c-0.079-0.444,0.146-1.032-0.496-0.707c-0.082,0.215-0.13,0.372-0.169,0.535
							C245.454,398.456,245.762,398.3,245.691,399.086z"/>
						<path fill="#414141" d="M235.654,393.232c-0.124,0.327-0.187,0.59-0.282,0.888c0.144-0.017,0.295-0.007,0.438-0.016
							L235.654,393.232z"/>
						<path fill="#414141" d="M68.276,236.389c1.178-0.548,2.507-1.013,3.828-1.434C69.021,235.823,67.512,234.171,68.276,236.389z"
							/>
						<path fill="#414141" d="M383.759,481.762c-0.17,1.121-0.329,1.671-0.55,1.891c0.154-0.036,0.305-0.111,0.453-0.197
							C383.756,482.794,383.817,482.165,383.759,481.762z"/>
						<path fill="#414141" d="M227.605,429.611l-1.353-1.558C226.503,428.707,227.003,429.26,227.605,429.611z"/>
						<path fill="#414141" d="M106.286,320.005l-0.714-0.07C105.593,320.139,105.795,320.2,106.286,320.005z"/>
						<path fill="#414141" d="M220.918,425.708c0.505-1.541,0.657-2.52,0.636-3.229c-0.251,0.265-0.475,0.464-0.786,0.884
							L220.918,425.708z"/>
						<path fill="#414141" d="M72.148,234.941c-0.015,0.008-0.044,0.014-0.044,0.014S72.133,234.948,72.148,234.941z"/>
						<path fill="#414141" d="M59.23,223.193c0.164,2.058,5.861,0.116,9.275,0.045c1.993,2.066-4.143,1.736-7.016,3.018
							c1.781,1.27,7.247,1.49,7.239,2.588c-0.941,0.25-1.248,0.523-2.499,0.491c4.932,0.672,1.165,4.524,7.308,5.073
							c-0.485,0.237-0.957,0.406-1.39,0.532c2.838-0.899,5.776-1.56,7.882-1.948c0.27,0.804,3.962,0.712,0.253,1.853
							c0.007-0.525-1.524-0.233-2.752-0.214l1.816,0.505c-5.254,1.991-2.12-0.771-6.136,0.095c2.147,1.367,6.974,2.297,5.797,3.925
							c-5.254,1.575-2.474-2.634-6.795,0.243l1.59-2.53c-8.027,3.484,0.315-1.408-8.32,2.084c-0.962,3.197,3.387,2.491,2.584,5.608
							c3.089-0.141,4.271-1.31,7.36-1.464c3.131,1.185,0.027,2.788-2.874,4.275c-2.905,1.472-5.61,2.815-1.741,3.243
							c3.697-0.268,10.306-1.952,7.429,1.029l-6.098,1.126c0.28,2.779,8.917-1.168,5.86,2.73c-2.453,0.276-2.605-1.379-3.173-0.77
							c-4.039,3.225,3.729,0.168,4.165,1.472l-5.074,1.986c0.866,1.242,2.482,2.297,4.117,3.353
							c0.822,0.526,1.629,1.063,2.389,1.612c0.775,0.544,1.466,1.117,1.985,1.754c-1.575,0.415-3.369,0.507-4.652,1.788
							c2.01,1.386,2.636,3.412,2.582,5.734c-0.027,1.16-0.225,2.393-0.507,3.648c-0.257,1.241-0.567,2.487-0.9,3.709l4.908-0.563
							c0.095,0.331-1.667,1.453-2.653,1.488c-0.988,2.116,2.748-1.158,4.728-1.264c0.651,0.63-1.983,2.149-3.492,2.242
							c2.369,0.389,5.096,1.182,6.799,2.443c1.68,1.279,2.52,2.937,0.898,5.323l-1.493,0.154c-0.68,2.815,9.668-2.282,6.697,1.487
							l-0.91,0.055c0.185,2.521,1.768,4.449,2.911,6.431c1.105,2.015,1.585,4.21-0.547,7.578c3.073-1.447,3.006-0.073,3.21,1.102
							c0.186,1.185,0.722,2.104,4.791-0.275c-2.52,4.695-4.361,4.964-4.916,9.862c0.198,1.096,5.742-1.982,7.226-1.509l-4.075,2.775
							l5.203-1.492l-4.374,4.077l1.725,0.233c-0.032-0.546,1.247-2.059,2.457-2.804c2.878,0.176-0.249,5.536-2.267,7.058
							l5.903,1.059c-1.653,1.1-2.623,0.916-3.983,1.194c5.411-1.099-3.937,3.422,1.024,2.415c0.734-0.9,2.448-1.627,3.275-2.185
							c-1.805,2.649-0.33,4.58,1.77,5.195l-2.9,1.81c1.346,3.074,5.475,4.38,7.736,7.18c0.369-1.996,5.114-5.516,6.218-5.104
							l-3.731,3.657c2.911-1.563,0.804-2.081,4.725-3.575c0.392,1.375-3.949,4.494-5.758,4.998l2.447,0.067
							c-1.123,1.079-1.999,1.321-3.579,2.526c2.898-1.599-2.102,5.57,2.794,2.638l-1.109,1.088c2.355,2.792,4.752,2.858,6.984,4.802
							c3.347-3.01,3.397-1.498,6.643-3.357c0.391,2.511-0.526,6.694,1.534,8.311c2.875-0.315,3.085-2.309,5.556-3.633
							c-2.82,2.973-0.728,4.488-3.754,5.647c2.663,1.673,3.397,2.18,8.45,2.467c0.857-1.505,1.032-2.357,2.17-3.199
							c0.955-0.006-0.063,2.342-1.487,3.704l-0.424,0.18c3.665-0.744,3.454,3.053,3.414,6.668c-0.039,3.585,0.09,6.978,4.219,4.894
							l-0.426,0.192l5.629-1.049c0.784,1.596-2.756,1.696-3.487,4.409c3.701-1.34,4.683-0.18,5.438,1.161
							c0.749,1.337,1.262,2.863,3.946,2.07c-2.868,5.445-0.997,6.668,1.271,7.506c2.277,0.84,4.927,1.314,3.924,5.354l1.579-2.376
							c2.379-1.7-0.162,1.915-0.048,2.818c1.266-1.815,0.807-2.594,2.169-3.505c3.939,0.78,6.23,3.903,8.251,7.511
							c2.014,3.602,3.632,7.931,6,11.085c1.845,2.159,9.552-11.327,8.555-3.81l-3.747,3.85c4.046-1.123,6.284,0.522,8.528,2.129
							c2.226,1.629,4.394,3.362,8.055,2.507c-0.914,0.863-1.765,2.201-2.192,1.905c-0.55,1.926,0.306,2.529,1.503,2.312
							c1.204-0.232,2.744-1.28,3.576-2.607c0.514,0.729-1.328,2.507-1.732,4.127c-0.222,2.518,4.969-2.713,3.483,0.856
							c-0.236,0.583-0.918,0.9-1.249,1.045c1.594-1.206,2.671,2.182,4.365-1.974c0.607,2.84,4.239,0.294,4.262,3.325
							c3.404-3.749,1.713,3.759,5.535-2.119c-3.783,6.173,0.058,6.79,2.828,4.468c-1.452,1.685-0.193,2.514-2.124,4.892
							c1.286,0.645,3.096,0.095,4.717-3.252c-1.978,8.82,7.986-3.509,3.845,6.893c5.575-1.3,10.249-1.819,14.35-1.504
							c-3.543,6.285-3.996-1.349-7.474,5.381c4.593-0.903,9.312-5.354,11.611-2.178c0.345,1.299-1.928,2.525-2.782,3.467
							c4.546-0.968,5.806,3.795,10.428,1.785c-0.317,0.592-0.959,1.085-1.499,1.423c0.661,0.084,0.798,1.619,2.248-1.332
							l-0.949,0.51c1.316-4.678,6.767-7.698,8.015-9.89c-5.249,7.875,1.676,3.514-5.249,13.313c0.648-0.362,1.816-1.509,2.734-3.502
							c0.249,0.843-0.164,2.072-1.853,4.01c2.803-0.57,3.685-4.037,5.445-3.053c-0.729,1.414-1.37,1.774-2.405,3.341
							c2.318-2.287,4.634-4.587,5.54-2.613c-0.524,0.807-0.911,2.009-1.353,1.755c2.831,0.896,8.154-5.132,9.664-1.029
							c-3.931,5.75-0.045,2.521-2.561,7.941l2.337-0.821l0.674-2.905c1.303,0.772,4.428-2.542,4.717-0.218l-2.095,1.711l3.03,0.231
							l-0.425-2.735c2.728-2.087,3.208-6.846,4.258-4.473c-0.634,0.37,1.31,0.728,0.455,4.231c0,0-0.005-0.002-0.012,0.012
							c1.507-1.378,3.072-2.836,3.413-1.018c-0.583,1.842-3.12,5.827-3.511,7.049c2.853-4.155,3.771,0.315,6.943-4.062
							c-0.826,0.988-2.214,3.796-2.405,4.421l2.333-3.379c0.058,1.471-0.125,2.082-1.32,4.28c1.564,1.587,2.713-7.107,3.523-3.081
							c-0.318,0.21-0.5,0.799-1.134,1.173c1.504,2.634,5.48-0.225,6.69,2.573c-1.962,5.725-2.454,0.458-3.929,5.373
							c3.495,0.475,9.342-3.563,11.676-0.933l-0.275-0.852c3.923-7.539,0.463,4.809,3.614,1.84c-0.62,0.407-2.404,4.08-1.918,3.262
							c1.476,2.177,5.055-0.049,9.182-1.177l-1.235,1.841c0.442,2.325,2.778,2.379,3.732,3.839c1.217-1.854,1.836-1.218,2.568-4.344
							c-0.308,6.597,2.345,5.828,4.932,4.749c1.298-0.535,2.59-1.141,3.562-0.92c0.984,0.201,1.65,1.224,1.723,3.991
							c-0.453-0.133-1.707,1.422-1.353,1.558l3.856-0.779c0.943-3.589,0.304-2.265,0.586-5.217c1.112-1.933,2.525-3.238,3.282-2.972
							c-2.162,1.83-1.899,5.643-1.908,7.791c0.253-1.108,0.859-2.227,1.169-3.337c-0.392,6.777,2.591-6.981,3.442-2.063
							l-0.706,1.812c1.144-0.678,2.666-2.887,3.393-2.074c-0.871,4.21-1.469,1.627-2.568,4.971c1.382,0.196,4.841-6.982,4.794-2.577
							c-0.874,0.993-1.665,0.79-2.553,1.77c-0.149,5.175,0.384,3.999,1.127,5.036l-0.064-0.136l1.647,2.824l-0.216-1.476
							c2.312-5.144,3.24-5.402,4.147-5.19c0.903,0.189,1.791,0.869,3.733-2.419c-3.764,6.204-1.307,3.799-2.608,8.468
							c0.258,1.448,0.809,3.133,0.239,4.398c1.975-3.558,1.162,3.474,3.96-1.786c-0.26,1.54,1.149,0.384,0.094,4.169
							c1.712-0.91,0.207-2.727,0.742-4.616c1.644-2.389,2.574-0.557,3.747,1.069c1.145,1.649,2.593,2.983,4.758-0.384
							c3.203-2.574,4.374-7.656,7.059-10.038c0.262,1.282-0.054,2.677-0.453,3.751c-0.397,1.074-0.872,1.825-0.872,1.825
							c1.086,2.423,2.202,2.113,3.636,0.462c-0.382,1.331-0.224,2.505,0.025,4.293c1.1-0.315,1.158-5.557,2.347-3.198
							c-0.357,1.72-0.872,4.495-1.532,6.179c1.398-1.335,2.831-4.196,4.165-5.53c0.209,2.733-0.987,4.08-1.568,5.829
							c1.571-1.147,3.975-2.27,4.517-6.548l-0.857-1.581c0.516-0.181,0.15,3.708-0.272,4.473c-1.387,3.309-1.736-1.583-1.712-3.15
							l0.94-0.953c-0.264-4.595-1.113-4.271-2.186-2.879c-1.063,1.391-2.38,3.865-3.258,3.485l1.278-6.558
							c0,0-0.557,1.33-1.113,2.661c-0.576,1.329-1.151,2.657-1.151,2.657c-0.23-1.767-0.11-5.49,0.816-6.394
							c-0.886-3.399-1.318,2.243-1.975-1.512c-0.052-0.58,0.035-0.892,0.168-1.146l-1.396,1.851
							c0.393-1.365,0.361-4.686,0.953-3.659c-0.803-2.01-1.759-0.848-2.581,0.12c-0.814,0.986-1.476,1.843-1.496-0.711l0.231-0.379
							c-1.582,0.897-1.855,2.091-2.09,3.731c-0.243,1.639-0.431,3.728-2.041,6.382c0,0,0.12-3.029,0.24-6.058
							c0.153-3.025,0.306-6.05,0.306-6.05l-1.133,4.752c-0.269-0.233-0.791-0.71-0.328-2.61c-1.713,3.069-0.194,2.127-1.42,5.102
							c-0.32-2.331-1.404-2.016-2.287-2.085c-0.879-0.068-1.539-0.517-0.865-4.349c-1.313,3.522,0.774,3.071-1.325,5.287
							c1.384-8.27-2.096,0.97-2.551-3.088c1.412-4.103,2.073-1.59,1.695-5.646c-1.226,3.459-1.771,2.916-2.153,1.653
							c-0.385-1.267-0.6-3.236-1.303-2.702c-1.531,5.607-2.945,1.69-5.276,3.049c0.329-0.928-0.302-1.922-1.126-3.019
							c-0.822-1.119-1.844-2.32-2.339-3.58l0.345-0.914c-2.099,5.487-3.494,3.916-5.123,4.625c1.176-3.316,1.843-4.54,3-5.819
							l-1.149-0.367c-0.875,1.689-1.555,2.501-2.527,2.872l1.725-4.047c-1.568-0.311-4.813,3.829-5.767,0.313
							c-1.563,3.789-2.345,11.315-5.476,13.049c0.695-2.105,1.951-5.681,2.824-6.319c-0.283,0.205-1.298,1.474-1.334,0.449
							l2.158-3.166c-0.331-1.878-1.569,2.734-2.181,2.13c1.134-2.949,0.262-2.313,1.259-4.616c0.291-0.216,0.166,1.459,0.88,0.405
							c-0.614-0.84-0.921-2.958-0.372-5.312c-0.579,1.702-1.534,3.968-2.278,4.123c-1.618-0.372,0.863-3.73,0.582-5.596
							c-1.175,1.891-1.291-0.611-3.079,3.76c-0.438-0.204,0.306-2.28,0.616-3.533c-1.562,1.611-3.876-0.937-4.926,4.059l0.076,0.389
							c-0.076,0.075-0.123,0.061-0.209,0.138c0.006,0.003,0,0,0.006,0.003l-0.006-0.003c-2.21,1.632-3.312,0.41-4.262-1.085
							c-0.953-1.501-1.748-3.293-3.436-2.954l0.648-1.444c-2.262,0.96-3.828-0.55-6.34,2.041c-0.453-0.216,0.138-3.117,1.12-4.737
							c-1.657,0.538-2.543,2.082-3.12-1.062c2.334-1.954,0.633-2.399,2.049-1.273c-0.932-1.941-0.182-4.375-3.643-1.233
							c2.279-3.396,1.056-5.146-0.177-4.393l-0.192,3.117c-1.057,0.149-1.606-0.513-2.171-1.164l2.683-4.618
							c-0.221-7.274-10.343,7.239-7.939-3.642c-2.45,2.948,0.52,3.168-2.118,6.727c-1.108-1.334,0.78-8.926,0.345-9.158
							c-0.636-3.601-5.243,6.086-6.388,3.274c-0.579,1.827-2.574,6.496-4.894,7.347c-1.117-1.334,1.785-8,3.356-8.924
							c0.411,0.024,0.308,0.648,0.009,1.216c0.764-0.39,1.727-0.825,2.078-2.948l-1.026,1.612c0.155-2.084-1.886-2.863-0.044-5.427
							c-1.874,1.092-1.842,2.563-1.485,3.836c-0.6-3.357-2.797-1.484-3.835-4.069c-0.172,1.084-0.896,3.216-1.182,3.051
							c-1.681-3.474-2.816,2.617-5.047,2.429c0.245-3.115,3.482-5.985,0.526-4.753c-0.256-2.321,2.029-4.619,3.174-5.775
							c-3.343,2.42-2.078-3.732-2.721-4.823l1.574-0.914c-0.938,0.542-1.358,0.297-1.794,0.064l-1.217,3.643
							c-0.218-0.858-0.652-1.093,0.076-2.498c-1.665,1.943-2.455,5.84-5.066,8.324c0.182-2.075-3.065,0.756-1.007-3.851
							c1.404,2.641,2.069-4.628,4.281-4.408c-0.629,0.354-1.051,0.11-1.267-0.75c0.179-0.541,0.549-0.891,0.823-1.076
							c-0.02-5.071-3.556,4.582-5.668,3.369c1.576-2.383,1.971-5.043,1.342-4.684c0.841,0.496-1.757,4.423-3.559,5.945
							c-0.374-2.672-2.259,0.677-2.868,0.071l0.346,1.355c-1.589,2.373-2.111,1.679-3.492,1.964
							c0.941-2.003,1.582-0.889,1.687-1.933c-3.387,3.859-0.02-5.85-3.07-3.654c0.207-2.062,2.423-4.755,2.429-6.225
							c-3.385,2.38,0.027-4.379-3.139-2.611c-1.297,3.631-0.769,2.864-3.746,5.482l4.135-0.848l-4.457,3.927
							c0.848,0.507,2.966-1.15,3.184-0.304c-2.341,2.287-1.808,1.495-2.873,4.514c1.491-5.685-3.948,1.699-3.499-2.465l4.507-8.305
							c-0.037-4.814-5.933,2.298-7.465-1.235l0.068,1.904c-2.158,3.1-1.898-0.434-3.495,0.433c1.604-2.725,1.617-4.021,2.207-5.947
							c-1.091,2.076-1.812-1.263-5.12,4.114l0.85-4.293c-1.281-2.673-6.84,6.481-8.379,4.385c2.315-2.638,2.492-5.105,5.072-6.474
							c-0.665-0.41-0.991-1.255-2.084,0.639c0.58-1.933-4.005,2.63-3.131-0.343c-0.976,1.036-2.721,3.849-3.354,3.176
							c0.237-0.603,0.783-1.348,0.783-1.348c-0.781,1.348-2.259,1.138-3.342,4.554c2.869-9.748-6.266-2.802-3.74-11.176
							c-1.999,0.022-4.286-0.182-5.734-0.794c0.578-0.755,0.825-1.341,0.905-0.908c-0.287-3.615-5.871,7.045-6.252,2.97
							c1.623-4.989,2.564-1.672,2.916-3.72c2.589-4.508,1.783-4.584,0.548-4.289c-1.223,0.283-2.88,0.928-1.947-2.075l0.658-0.307
							c0.848-3.648-4.656,1.699-5.984-0.029c0,0,0.58-0.719,0.86-1.313c-4.039,3.71-7.258,3.755-9.704,3.857
							c2.754-3.048,1.93-1.296,3.897-4.953c-1.055-0.003-3.438,5.686-5.555,5.657c0.751-2.179,0.772-4.508,3.092-8.262l1.502,0.721
							c2.468-5.217-1.875-1.024-2.047-2.334l1.486-2.004c-2.527-0.732-6.124,4.458-8.119,2.529l-0.845,1.719
							c-4.774,4.243,0.977-3.603-2.891-0.671l3.261-5.431c-1.666,0.686-6.331,2.996-8.488,2.923
							c3.565-3.214,6.632-3.976,9.263-5.519c-0.759-0.595-2.936-1.509-5.17,0.727c0.676-0.268,1.977-1.243,1.725-0.229
							c-3.849,3.346-6.603,4.425-8.115,3.168c7.519-9.668-2.233-5.537,2.381-13.96c-2.7,0.783-3.794-0.575-4.538-2.43
							c-0.766-1.839-1.272-4.078-3.016-5.004c-4.888,8.289-1.06-0.5-7.024,7.255c-1.124-0.092-1.302-0.439-0.964-0.984
							c0,0,0.377-1.568,0.753-3.136c0.398-1.573,0.796-3.146,0.796-3.146c1.322-2.615,2.034-1.1,3.367-2.848
							c-1.019-1.855,2.017-3.732,2.705-6.558c-2.042,2.858-3.734,3.401-3.722,1.657l-1.704,4.476c-5.48,2.171,3.5-7.805-1.948-5.669
							l2.673-1.768c-1.128,0.233-2.107-0.62-3.584-0.904c-1.464-0.297-3.394-0.063-6.544,2.392c0.566-1.013,2.112-3.223,3.044-3.33
							c-0.851-1.575-3.642-1.29-6.092-1.311c-1.22-0.011-2.362-0.086-3.095-0.508c-0.72-0.433-1.051-1.193-0.686-2.529l1.839-1.545
							c-0.925,0.061-3.908,2.465-2.801,0.176c0.719-0.68,1.844-1.535,1.734-1.84c-0.808,0.362-4.131,1.822-3.756,0.236l2.401-1.415
							c-0.075-2.265-2.122-1.974-4.577-1.248c-2.452,0.731-5.235,1.85-6.806,1.395c5.074-4.885,4.981-8.322,4.952-10.014l0.76-0.647
							c-1.953-3.248-8.589-0.796-13.061-1.722c2.186-3.337,1.56-5.213,0.584-7.015c-0.947-1.817-2.331-3.507-1.717-6.188
							c-0.68,1.206-4.375,3.315-5.329,3.249c0.618-1.517-5.315,1.157-0.097-2.659l0.084,0.307c2.325-2.17,2.889-3.315,2.804-4.073
							c-0.069-0.769-0.803-1.144-1.112-1.726l-6.922,4.845c3.919-5.076,1.719-6.2-0.56-7.156c-2.301-0.919-4.518-1.746-0.458-5.586
							c-2.21,0.48-2.751-0.401-4.977,0.057l3.821-2.436c-0.258-2.559-0.461-3.753-2.823-5.596l3.046-1.204
							c-0.528-1.48-12.166,5.068-13.179,3.867l5.587-3.84c-0.757-1.186-0.21-3.134-0.303-4.679
							c-0.042-0.777-0.268-1.445-0.864-1.904c-0.588-0.464-1.588-0.698-3.256-0.583c0.891-0.43,2.65-1.288,3.097-1.023
							c-0.456-1.258,1.746-6.545-6.287-1.877c5.362-2.802-0.815-2.795-3.908-3.02l4.1-1.749c-5.646,1.346-7.074,1.971-9.266,0.976
							c0.343-0.646,3.07-1.867,2.278-0.86c1.516-2.296-4.296,0.764-2.88-1.84l2.861-0.594c-0.304-1.485-1.643-0.738-5.018-0.131
							c-2.033-0.138-0.172-3.061,3.447-4.839c-2.354,0.803-5.668,1.32-4.928,0.043c1.361-0.699,2.351-0.767,2.834-0.798
							c1.906-3.431-6.167-1.49-2.733-4.707c1.363-0.569,2.011-0.94,2.374-1.23c0.616,1.847,0.971,3.398,0.616,3.384
							c3.801-1.565,3.912-3.242,9.618-4.253c-3.301,0.078-10.368,0.531-9.131-1.584c0.346-0.209,0.684-0.413,1.257-0.686
							l0.489-0.018c0.255-0.466-0.218-0.619-0.975-0.651c0.457-0.682,0.801-1.132,0.725-1.589c3.139-1.328,1.177-2.269,1.092-3.044
							c-4.226,1.543-3.867,0.335-7.074,2.46c0.267-0.225,0.556-0.036,0.898,0.396c0.162,0.068,0.27,0.177,0.544,0.161
							c-0.112,0.023-0.247,0.052-0.389,0.081c0.285,0.444,0.591,1.045,0.897,1.742c-2.339,0.202-4.361,0.212-2.284-1.449
							c-2.854,0.578-5.806,1.12-7.208,1.327c5.571-3.122,8.141-6.128,11.731-7.582c-1.566-0.715-2.417-1.897-3.915-2.78
							c-1.439-0.899-3.566-1.5-7.834-1.096c-1.229-0.381,2.124-1.425,3.337-2.023c0.92,0.154,0.917,0.639,2.141,0.513
							c-2.441-0.725-1.861-3.637-7.667-2.496c2.122-2.345,5.521-0.405,3.961-2.46l1.835-0.129c0.992-0.842,1.479-1.519,1.59-2.084
							c0.137-0.57-0.09-1.03-0.571-1.424c-0.959-0.788-2.907-1.323-4.785-1.927c-3.736-1.18-7.269-2.744-1.776-6.351
							c-0.683,0.481-0.996,0.72-1.95,0.963c2.199-3.4,0.556-6.161-0.741-9.099c-0.69-1.456-1.096-2.954-0.91-4.49
							c0.19-1.533,1.014-3.107,3.017-4.673c1.579-1.725-2.198-1.681-5.142-2.582l4.8-0.567c0,0-1.396-0.375-2.792-0.75
							c-1.395-0.391-2.791-0.781-2.791-0.781c-2.048-1.199,0.907-2.377,3.409-3.53c2.501-1.174,4.546-2.305,0.674-3.901
							l-3.251,0.349c0.309-0.56-0.203-1.466-0.263-2.2c-0.041-0.734,0.298-1.288,2.162-1.123c-0.586-0.133-3.361-0.501-1.634-0.873
							l2.528,0.074c0,0-1.038-0.737-2.075-1.474c-1.037-0.757-2.074-1.514-2.074-1.514c1.96-2.021,9.997,0.944,10.674-1.988
							c-0.905-1.14-7.135-3.853-8.842-3.609c-0.153,0.456-1.645,1.055-4.169,0.865l-1.241-1.226
							c-7.403-0.892-14.923-2.692-20.309-0.107c0,0,1.1,0.627,2.2,1.254c1.101,0.613,2.203,1.226,2.203,1.226l-3.647,0.413
							l-0.11-1.808c-3.454,0.749-0.499,1.648,1.514,2.496c-1.928,0.038-3.288,0.25-4.029,0.634c0,0,1.742,0.631,3.484,1.261
							c1.744,0.609,3.487,1.219,3.487,1.219c-2.926,0.111-5.715-1.241-7.41,0.096c3.24,1.129,6.584-0.603,8.651,1.078
							c-3.44,0.837-6.183,0.462-3.362,1.741c-1.927,0.102-3.134-0.187-3.948-0.696c1.126,0.577,1.298,1.286,1.75,1.935
							c0.453,0.648,1.114,1.234,3.095,1.537c-4.174,0.991,1.107,3.523-5.944,3.422c1.69,0.347,5.549,1.841,5.85,2.781
							c-8.456-1.62-0.465,3.621-9.514,3.456c1.905,0.274,3.054,0.701,3.817,1.219c0.777,0.517,1.138,1.129,1.396,1.777
							c0.516,1.292,0.623,2.744,2.81,3.743c-0.61-0.084-1.848-0.251-1.477-0.484c-0.53,1.35-2.782,1.912-4.145,2.892
							c6.26-0.347,7.843,1.538,11.772,2.195c-5.892,2.195-7.399-0.203-13.141,0.86c2.525-0.292,3.842,0.289,5.047,0.805
							c1.194,0.52,2.358,0.962,4.413,0.461c-3.55,1.622-1.66,1.234-6.735,2.483c7.812-0.738,1.484,0.984,6.398,1.366
							c-3.583,2.254-7.213,1.448-4.577,3.06C62.232,224.563,59.23,223.193,59.23,223.193z M83.823,264.381
							c-0.04,0.015-0.069,0.026-0.084,0.032c-0.24-0.318-0.445-0.589-0.575-0.762C83.292,263.806,83.474,264.021,83.823,264.381z
							 M85.263,267.819c-0.004-0.487-0.184-1.022-0.432-1.566c1.396-0.684,2.941-1.135,3.001-0.763
							C86.788,265.683,86.276,266.816,85.263,267.819z M111.787,249.97c0.758,0.263-0.02,0.721-0.865,1.102
							c-0.149-0.201-0.38-0.415-0.788-0.661c-0.14,0.033-0.392,0.093-0.537,0.128C110.422,250.297,111.198,250.079,111.787,249.97z"
							/>
						<path fill="#414141" d="M105.936,251.068c-0.119-0.038-0.309-0.015-0.377-0.095c-0.342,0.233-0.627,0.441-0.855,0.631
							c0.476-0.101,0.959-0.203,1.388-0.294C106.036,251.23,105.994,251.141,105.936,251.068z"/>
						<path fill="#414141" d="M333.003,449.902l-0.028-0.122c-0.012,0.185-0.029,0.372-0.105,0.648
							C332.909,450.21,332.963,450.08,333.003,449.902z"/>
						<polygon fill="#414141" points="102.075,317.759 103.019,317.118 102.009,317.395 						"/>
						<path fill="#414141" d="M345.832,471.225c-0.088,0.387-0.144,0.799-0.107,1.171
							C345.806,472.115,345.823,471.694,345.832,471.225z"/>
						<path fill="#414141" d="M353.93,474.763l0.774,1.881C354.423,475.619,354.163,475.096,353.93,474.763z"/>
						<path fill="#414141" d="M359.978,478.675c0.273-0.746,0.438-1.316,0.59-1.843c-0.003-0.012-0.006-0.013-0.007-0.03
							L359.978,478.675z"/>
						<path fill="#414141" d="M260.989,441.734c-0.089-0.02-0.195-0.005-0.318,0.062
							C259.742,442.293,260.259,442.176,260.989,441.734z"/>
						<path fill="#414141" d="M293.205,446.221c-0.652,0.588-1.294,1.166-1.823,1.47
							C291.719,448.241,292.06,448.509,293.205,446.221z"/>
						<path fill="#414141" d="M227.751,429.786c0.027-0.043,0.012-0.019,0.042-0.066c-0.073-0.024-0.123-0.072-0.188-0.11
							L227.751,429.786z"/>
						<path fill="#414141" d="M290.139,446.991c0.091,1.047,0.587,1.074,1.243,0.7C291.114,447.224,290.846,446.578,290.139,446.991
							z"/>
						<path fill="#414141" d="M389.922,485.075l0.34,0.201c0.004-0.298,0.033-0.538,0.066-0.721L389.922,485.075z"/>
						<path fill="#414141" d="M390.328,484.556l0.4-0.512C390.552,484.035,390.399,484.063,390.328,484.556z"/>
						<path fill="#414141" d="M391.559,482.95l-0.832,1.093C391.005,484.069,391.347,484.226,391.559,482.95z"/>
						<path fill="#414141" d="M380.662,482.313l-0.28,1.612C380.476,483.597,380.57,483.072,380.662,482.313z"/>
						<path fill="#414141" d="M377.781,482.487c0.618,0.438,1.294,3.635,2.373,2.719l0.228-1.281
							C379.651,486.287,378.742,479.823,377.781,482.487z"/>
						<path fill="#414141" d="M370.234,460.773l1.777,1.682c-0.035-1.778-0.036-4.16,0.939-4.392
							C371.454,452.481,372.736,461.982,370.234,460.773z"/>
						<path fill="#414141" d="M364.596,456.905c1.256-0.529,0.595-2.452,0.893-3.389
							C364.446,454.893,364.173,455.237,364.596,456.905z"/>
						<path fill="#414141" d="M320.83,440.604l1.821-3.667C321.608,437.101,321.977,438.372,320.83,440.604z"/>
						<polygon fill="#414141" points="303.393,455.766 303.097,458.443 305.097,455.242 						"/>
						<polygon fill="#414141" points="311.145,427.132 311.749,426.775 309.769,427.462 						"/>
						<path fill="#414141" d="M239.455,390.875l-2.343,4.466C238.089,394.866,241.081,390.055,239.455,390.875z"/>
						<path fill="#414141" d="M207.757,376.712c1.126-2.291,1.273-4.173-0.627-2.484
							C207.558,374.957,207.067,377.017,207.757,376.712z"/>
						<polygon fill="#414141" points="140.584,302.259 142.328,301.793 140.474,301.624 						"/>
					</g>
				</g>
			</g>
		</g>
	</g>
	<g>
		<g>
			<g>
				<g>
					<g>
						<path fill="#414141" d="M940.828,309.49c1.403-0.138,4.316-1.303,3.449-1.882l-5.212,1.153L940.828,309.49z"/>
						<path fill="#414141" d="M948.201,300.98c-2.753-0.075-7.346,0.474-11.69,2.771c5.082-0.89,3.167,0.055,9.213-1.03
							c0.866,0.588-1.107,1.952-2.992,2.467c1.381-0.172-0.669,1.586,2.625,0.925c3.513-2.352,3.178-3.781-0.489-3.977
							C945.859,301.44,947.258,301.247,948.201,300.98z"/>
						<path fill="#414141" d="M911.154,224.546l-0.106,0.832C911.21,225.035,911.228,224.766,911.154,224.546z"/>
						<path fill="#414141" d="M874.334,185.678c0.396,0.157,0.859-0.148,1.176-0.51C874.996,185.202,874.55,185.261,874.334,185.678
							z"/>
						<path fill="#414141" d="M870.645,175.415c0.057,0.255,0.145,0.416,0.217,0.618
							C870.992,175.519,870.988,175.176,870.645,175.415z"/>
						<path fill="#414141" d="M911.154,224.546l0.3-2.177C910.099,223.442,910.981,223.771,911.154,224.546z"/>
						<path fill="#414141" d="M932.237,295.362c0.351,0.144,0.886,0.158,1.557,0.095c-0.297-0.116-0.55-0.242-0.776-0.388
							C932.77,295.163,932.561,295.241,932.237,295.362z"/>
						<path fill="#414141" d="M929.418,240.347l0.264,0.355c0.561-0.249,1.222-0.58,1.953-0.969L929.418,240.347z"/>
						<path fill="#414141" d="M940.469,255.188c-0.055-0.463-3.938,1.804-5.682,2.718c1.687-0.789,2.595-0.997,3.079-0.871
							C938.596,256.587,939.435,256,940.469,255.188z"/>
						<path fill="#414141" d="M947.277,284.434l0.773,0.205C947.82,284.598,947.564,284.47,947.277,284.434z"/>
						<path fill="#414141" d="M922.105,229.321c0.498-0.445,0.913-0.869,1.137-1.143
							C922.807,228.532,922.434,228.922,922.105,229.321z"/>
						<path fill="#414141" d="M467.106,58.803c0.073-0.312,0.091-0.515,0.146-0.787C467.07,58.442,466.98,58.751,467.106,58.803z"/>
						<path fill="#414141" d="M451.12,33.315l0.319-0.188c0.173-0.834,0.344-1.653,0.484-2.473L451.12,33.315z"/>
						<path fill="#414141" d="M860.197,160.747c-0.002,0.061,0.008,0.068,0.013,0.114
							C860.872,160.697,860.611,160.625,860.197,160.747z"/>
						<path fill="#414141" d="M722.465,93.508c0.044,4.358-4.547,3.72-3.875,8.818C719.038,100.607,723.441,96.727,722.465,93.508z"
							/>
						<path fill="#414141" d="M932.6,294.74c-0.14-0.182-0.269-0.371-0.321-0.596C932.271,294.483,932.369,294.666,932.6,294.74z"/>
						<path fill="#414141" d="M718.59,102.327l-0.013,0.033l0.083,0.49C718.63,102.633,718.614,102.511,718.59,102.327z"/>
						<path fill="#414141" d="M825.64,142.179c-0.326,0.727-0.493,1.326-0.64,1.905C825.218,143.678,825.422,143.146,825.64,142.179
							z"/>
						<path fill="#414141" d="M846.857,162.727l-0.263-0.896C846.604,162.33,846.718,162.574,846.857,162.727z"/>
						<path fill="#414141" d="M809.534,140.479c-0.173-0.485,0.007-1.094-0.741-0.812c-0.065,0.223-0.099,0.387-0.12,0.558
							C809.131,139.776,809.49,139.642,809.534,140.479z"/>
						<path fill="#414141" d="M795.914,133.352c-0.084,0.343-0.106,0.621-0.16,0.935c0.176-0.011,0.366,0.007,0.543,0.005
							L795.914,133.352z"/>
						<path fill="#414141" d="M511.652,65.837c-0.038-1.307,0.072-2.713,0.222-4.094C511.393,64.911,509.018,65.537,511.652,65.837z
							"/>
						<path fill="#414141" d="M934.552,294.348c-1.074,0.376-1.641,0.491-1.952,0.391c0.115,0.127,0.262,0.232,0.418,0.33
							C933.648,294.841,934.232,294.598,934.552,294.348z"/>
						<path fill="#414141" d="M792.135,171.405l-1.71-1.684C790.784,170.414,791.413,171.012,792.135,171.405z"/>
						<path fill="#414141" d="M614.51,93.232l-0.681,0.35C613.997,93.742,614.22,93.677,614.51,93.232z"/>
						<path fill="#414141" d="M784.045,167.116c0.367-1.598,0.402-2.621,0.277-3.366c-0.248,0.271-0.476,0.473-0.771,0.905
							L784.045,167.116z"/>
						<path fill="#414141" d="M511.879,61.697c0.001,0.017-0.005,0.046-0.005,0.046S511.881,61.714,511.879,61.697z"/>
						<path fill="#414141" d="M494.442,68.819c2.159,0.589,2.234-5.44,3.406-8.657c2.981-1.085,0.304,4.509,0.558,7.657
							c1.959-1.186,4.369-6.221,5.545-5.736c-0.117,0.97,0.044,1.367-0.495,2.499c2.748-4.244,5.171,0.926,8.483-4.378
							c0.035,0.545,0.002,1.046-0.06,1.493c0.325-2.964,0.936-5.913,1.474-7.986c1.012,0.129,2.667-3.22,2.184,0.634
							c-0.583-0.25-0.978,1.258-1.528,2.37l1.408-1.396c-0.298,5.626-1.84,1.546-2.746,5.554c2.409-1.299,5.795-5.239,6.994-3.354
							c-0.903,5.368-4.025,0.954-3.049,6.135l-1.923-2.57c-0.086,8.774-1.313-0.913-1.68,8.408c2.766,2.249,4.115-1.898,6.873,0.36
							c1.391-2.779,0.785-4.401,2.179-7.183c5.715-4.261,0.347,14.095,5.27,7.852c1.685-3.314,3.633-9.915,5.101-5.808l-2.243,5.775
							c2.87,1.335,3.824-8.154,6.011-3.359c-1.143,2.205-2.865,1.391-2.582,2.213c0.889,5.215,2.284-3.027,3.866-2.637l-0.985,5.362
							c3.413-0.032,7.932-3.006,11.738-3.002c-0.602,1.514-1.633,3.003-1.219,4.833c5.156-1.453,9.392,3.161,12.843,7.407
							l2.875-4.099c0.369,0.155,0.15,2.245-0.501,3.008c1.202,2.187,0.87-2.852,2.16-4.404c1.042-0.048,0.546,2.957-0.429,4.147
							c3.991-3.014,10.733-5.895,12.48-0.18l-0.989,1.172c1.897,2.512,5.386-8.486,6.438-3.642l-0.663,0.678
							c4.692,3.467,11.727,1.118,13.688,9.088c2.725-6.245,4.302,4.427,7.402-4.487c1.611,5.412,0.259,6.755,3.505,11.074
							c0.985,0.766,3.429-5.095,5.115-5.594l-1.452,4.711l3.443-4.336l-0.789,5.936l1.681-0.796
							c-0.427-0.442-0.425-2.456,0.084-3.782c2.717-1.486,3.901,4.833,3.167,7.25c0,0,1.515-0.602,3.031-1.205
							c1.517-0.593,3.034-1.186,3.034-1.186c-0.725,1.85-1.735,2.229-2.759,3.222c4.11-3.933-1.159,5.09,2.607,1.484
							c0.039-1.169,1.088-2.734,1.454-3.663c0.231,3.219,2.858,4.125,5.216,3.586l-1.455,3.097c3.241,2.011,7.967,0.899,11.88,2.375
							c-0.895-1.992,1.348-7.452,2.698-7.577l-1.243,5.09c1.806-2.784-0.569-2.286,2.264-5.473c1.285,1.09-0.953,5.947-2.355,7.255
							l2.387-1.079c-0.407,1.505-1.097,2.133-1.859,3.968c1.805-2.798,1.352,6.02,4.272,1.089l-0.415,1.498
							c3.912,1.426,6.303,0.35,9.593,1.252c1.592-4.21,2.5-2.807,4.698-5.872c1.867,2.225,3.254,6.506,6.212,7.193
							c2.769-1.362,1.909-3.356,3.74-5.531c-1.283,3.894,1.678,4.582-0.822,6.798c3.631,0.633,4.627,0.813,10.088-0.62
							c0.135-1.745-0.128-2.631,0.642-3.832c1.02-0.325,1.158,2.293,0.339,4.088l-0.357,0.318c3.506-1.936,5.215,1.931,6.875,5.459
							c1.663,3.538,3.296,6.701,6.77,3.512l-0.369,0.306l5.591-2.527c1.548,1.394-2.236,2.413-1.846,5.314
							c6.81-4.612,6.318,3.64,11.54,0.848c-0.953,6.126,1.504,6.911,4.286,7.287c2.784,0.362,5.915,0.276,6.203,4.594l0.911-2.708
							c2.032-2.166,0.49,1.979,0.92,2.872c0.775-2.073-0.006-2.783,1.185-3.958c2.321,0.056,4.407,0.761,6.334,1.874
							c1.919,1.133,3.67,2.7,5.352,4.425c3.363,3.458,6.42,7.601,9.901,10.558c2.592,2.032,7.788-12.631,8.654-4.752l-3.261,4.317
							c8.585-3.037,11.9,5.799,19.933,3.708c-0.874,0.932-1.577,2.354-2.125,2.069c-0.466,4.022,4.341,2.336,5.755-0.462
							c0.727,0.756-1.047,2.641-1.21,4.338c0.185,2.619,5.192-2.903,4.125,0.831c-0.17,0.608-0.895,0.948-1.246,1.105
							c1.619-1.285,3.391,2.251,4.651-2.084c1.149,2.959,4.943,0.3,5.421,3.497c3.376-3.822,2.474,3.989,6.077-2.029
							c-3.516,6.331,0.934,7.069,3.851,4.805c-1.475,1.688,0.062,2.615-1.89,5c1.531,0.716,3.539,0.277,5.065-3.126
							c-0.695,4.54,1.505,3.764,3.424,3.204c1.919-0.57,3.562-0.945,1.591,4.312c3.155-0.478,6.047-0.653,8.778-0.632
							c1.365,0.012,2.685,0.077,3.966,0.193c1.268,0.132,2.497,0.316,3.69,0.546c-3.867,6.084-4.67-1.992-8.38,4.639
							c5.159-0.387,10.535-4.372,13.263-0.627c0.409,1.43-2.191,2.32-3.15,3.169c5.195-0.224,6.616,4.939,11.92,3.778
							c-0.38,0.554-1.128,0.94-1.754,1.186c0.754,0.219,0.862,1.844,2.612-0.937l-1.104,0.338c1.609-4.645,8.023-6.617,9.563-8.614
							c-6.319,7.062,1.841,4.115-6.531,12.781c0.75-0.232,2.135-1.162,3.281-3.035c0.247,0.945-0.293,2.131-2.312,3.768
							c3.207,0.049,4.417-3.356,6.39-1.901c-0.921,1.297-1.678,1.518-2.954,2.906c2.776-1.837,5.617-3.666,6.507-1.341
							c-0.658,0.705-1.191,1.858-1.674,1.478c3.105,1.683,9.817-3.126,11.148,1.689c-5.085,4.803-0.314,2.62-3.781,7.487
							l2.733-0.157l1.107-2.801c1.398,1.173,5.358-1.229,5.382,1.306l-2.592,1.076l3.386,1.263l-0.109-2.991
							c3.385-1.231,4.555-6.036,5.465-3.174c-0.784,0.157,1.429,1.24-0.046,4.568c0,0-0.005-0.004-0.015,0.008
							c1.918-0.891,3.923-1.798,4.035,0.23c-0.956,1.694-4.464,4.877-5.102,5.999c3.898-3.241,4.164,1.71,8.523-1.57
							c-1.113,0.695-3.18,3.05-3.508,3.617l3.233-2.563c-0.212,1.552-0.536,2.105-2.287,3.892c1.417,2.264,4.398-6.233,4.521-1.741
							c-0.398,0.084-0.718,0.616-1.497,0.741c1.142,3.299,6.176,2.045,6.854,5.483c-3.522,4.944-2.784-0.61-5.559,3.745
							c1.814,0.969,4.555,1.084,7.1,1.443c2.508,0.388,4.799,1.041,5.685,2.928l-0.044-0.985c3.208-2.79,2.993-1.521,2.489,0.254
							c-0.492,1.77-1.313,4.058,0.806,3.404c-0.786,0.076-3.834,2.792-3.063,2.233c0.415,1.44,1.714,2.064,3.514,2.484
							c1.805,0.416,4.107,0.631,6.437,1.294l-1.958,1.073c-0.411,2.478,1.897,3.853,2.266,5.771
							c1.994-1.046,2.334-0.049,4.376-2.564c-3.055,6.054-0.246,6.844,2.815,7.532c2.99,0.698,6.198,1.314,3.494,6.269
							c-0.359-0.426-2.324,0.108-2.066,0.462c0,0,1.001,0.475,2.002,0.95c0.995,0.483,1.964,0.995,1.964,0.995
							c2.801-2.443,1.505-1.743,3.328-4.141c2.056-0.893,4.1-0.958,4.692-0.131c-3.05-0.051-4.788,3.512-6.023,5.33
							c0.844-0.767,2.013-1.281,2.911-2.006c-4.136,5.521,6.263-4.03,4.341,0.895l-1.68,0.987c1.449,0.297,4.131-0.326,4.317,0.976
							c-3.271,2.805-2.288,0.159-5.23,2.091c1.078,1.181,8.502-1.839,5.776,1.763c-1.381,0.075-1.948-0.746-3.313-0.661
							c-3.293,4.122-2.141,3.548-2.158,4.964l0.032-0.158l-0.428,3.469l0.773-1.303c5.253-2.184,6.206-1.532,6.824-0.596
							c0.614,0.951,0.849,2.203,4.706,1.511c-7.323,1.276-3.655,1.69-7.917,4.003c-0.796,1.28-1.56,2.923-2.885,3.369
							c4.042-0.92-1.624,3.318,4.194,2.001c-1.319,0.84,0.521,1.243-3.033,2.916c1.854,0.799,2.185-1.656,3.952-2.505
							c2.938-0.204,2.266,1.902,1.847,3.952c-0.451,2.082-0.696,4.112,3.394,4.076c2.051,0.72,4.348,0.644,6.57,0.598
							c2.204-0.036,4.363-0.055,6.19,0.789c-0.918,0.992-2.299,1.39-3.444,1.551c-1.146,0.16-2.058,0.082-2.058,0.082
							c-1.409,2.443-0.534,3.338,1.741,4.008c-1.376,0.268-2.296,1.026-3.713,2.142c0.878,0.92,5.543-1.515,4.043,0.877
							c-1.709,0.422-4.401,1.185-6.215,1.347c1.838,0.717,5.053,0.887,6.92,1.739c-2.375,1.376-4.16,0.724-5.992,0.936
							c1.743,1.027,3.878,2.969,8.093,1.918l1.025-1.552c0.425,0.496-3.329,1.624-4.227,1.501c-3.671-0.064,0.619-2.434,2.037-3.105
							l1.331,0.615c4.047-2.194,3.284-3.094,1.488-3.671c-1.807-0.58-4.6-0.831-4.795-1.907l6.469-1.812
							c0,0-1.493,0.033-2.986,0.067c-1.495,0.051-2.991,0.102-2.991,0.102c1.391-1.127,4.641-2.953,6.009-2.357
							c2.338-2.796-2.743-0.307,0.026-3.068c0.456-0.376,0.775-0.447,1.076-0.429l-2.454-0.593c1.396-0.311,4.149-2.227,3.683-0.934
							c1.147-2.107-0.47-2.639-1.842-2.998c-1.405-0.349-2.568-0.543-0.551-2.14l0.475,0.031c-1.905-1.265-3.033-0.789-4.5-0.018
							c-1.464,0.777-3.274,1.835-6.468,1.88c0,0,2.458-1.812,4.917-3.624c2.446-1.837,4.891-3.673,4.891-3.673l-4.497,1.929
							c-0.026-0.44-0.064-1.322,1.726-2.111c-3.676,0.264-1.749,1.221-4.953,1.957c2.965-3.813-4.385-3.573,2.167-7.797
							c-3.558,1.239-1.587,3.026-4.831,2.515c3.49-2.334,2.881-2.687,1.719-2.871c-1.157-0.192-2.921-0.168-1.724-1.907
							c3.991-1.754,2.918,0.879,5.293-2.627c-6.826,2.829-0.455-3.817-2.462-4.418c-2.485,1.506-3.426,1.13-4.115,0.237
							c-0.712-0.877-1.208-2.264-2.711-2.783c0.861-0.471,0.873-1.899,0.714-3.616c-0.088-0.857-0.185-1.803-0.278-2.703
							c-0.092-0.904-0.151-1.786-0.066-2.574l0.84-0.503c-5.081,2.995-5.58,0.393-7.59-0.327c2.88-2.015,4.187-2.574,6.032-2.701
							l-1.01-1.362c-1.754,0.788-2.855,0.946-4.032,0.47l3.775-2.275c-1.571-1.682-6.869-0.459-6.302-4.536
							c-3.3,2.43-7.639,8.78-11.557,8.173c1.673-1.457,4.574-3.899,5.76-3.845c-0.386-0.022-1.995,0.425-1.565-0.567l3.646-1.372
							c0.491-2.037-2.844,1.392-3.211,0.382c2.482-1.956,1.276-1.996,3.325-3.451c0.405,0.018-0.435,1.506,0.769,1.055
							c-0.283-1.269,0.257-3.53,1.813-5.416c-1.328,1.214-3.301,2.683-4.164,2.282c-1.591-1.567,2.45-3.002,2.864-5.055
							c-2.034,0.984-1.208-1.588-4.841,1.431c-0.396-0.517,1.207-2.036,2.017-3.06c-2.344,0.467-4.031-3.688-6.946,0.599
							l-0.056,0.438c-0.11,0.023-0.156-0.022-0.278-0.004c0.006,0.007,0,0,0.006,0.007l-0.006-0.007
							c-3.005,0.155-3.74-1.741-4.311-3.839c-0.576-2.082-0.933-4.417-2.938-5.076l1.151-1.086
							c-2.802-0.398-4.219-2.816-7.735-1.539c-0.451-0.46,0.955-3.127,2.481-4.263c-2.052-0.359-3.387,0.756-3.34-2.809
							c3.158-0.792,1.285-2.176,2.67-0.222c-0.625-2.53,0.716-4.704-3.99-3.224c3.382-2.37,2.273-4.868,0.668-4.719l-0.839,3.191
							c-1.268-0.388-1.776-1.364-2.312-2.344l4.028-3.517c0.487-3.959-2.969-3.321-5.87-2.96c-2.915,0.351-5.307,0.442-3.127-4.79
							c-3.349,2.043,0.194,3.598-3.483,6.191c-1.102-1.874,2.152-9.128,1.64-9.581c-0.361-4.163-7.029,4.215-8.085,0.795
							c-0.89,1.715-3.824,5.861-6.65,5.888c-1.145-1.818,2.98-7.819,4.964-8.18c0.493,0.19,0.304,0.814-0.114,1.301
							c0.956-0.115,2.166-0.191,2.807-2.317l-1.403,1.309c0.401-2.162-2-3.825,0.461-5.843c-2.373,0.416-2.456,2.022-2.148,3.53
							c-0.403-3.875-3.283-2.647-4.364-5.814c-0.28,1.103-1.311,3.121-1.647,2.84c-1.813-4.335-3.589,1.786-6.254,0.816
							c0.472-3.234,4.565-5.225,0.89-4.896c-0.21-2.574,2.681-4.28,4.153-5.123c-4.222,1.458-2.453-4.754-3.272-6.177l1.992-0.447
							c-1.191,0.264-1.71-0.155-2.26-0.551l-1.568,3.546c-0.254-1.011-0.806-1.388,0.12-2.677c-2.099,1.572-3.137,5.511-6.402,7.387
							c0.251-2.173-3.764-0.088-1.198-4.44c1.724,3.274,2.575-4.374,5.343-3.447c-0.79,0.185-1.318-0.21-1.592-1.211
							c0.222-0.531,0.685-0.794,1.029-0.909c-0.076-5.525-4.432,3.851-7.052,1.921c1.937-2.124,2.379-4.886,1.591-4.68
							c1.075,0.781-2.123,4.276-4.329,5.426c-0.509-2.988-2.792,0.125-3.551-0.686l0.459,1.549
							c-1.915,2.138-2.566,1.262-4.247,1.223c1.105-1.92,1.918-0.558,2.024-1.654c-4.036,3.298-0.21-6.31-3.925-4.676
							c0.156-2.176,2.778-4.557,2.701-6.149c-4.1,1.774-0.248-4.788-4.134-3.596c-1.348,3.646-0.756,2.914-4.289,5.122
							c0,0,1.276-0.01,2.552-0.019c1.273,0.011,2.546,0.022,2.546,0.022l-5.284,3.236c1.074,0.72,3.588-0.574,3.906,0.39
							c-2.77,1.931-2.145,1.204-3.308,4.217c1.542-5.816-4.715,0.979-4.42-3.36l4.982-8.03c-0.498-5.23-7.225,1.255-9.478-2.788
							l0.284,2.067c-2.366,2.965-2.4-0.796-4.286-0.134c1.689-2.673,1.562-4.077,2.06-6.062c-1.104,2.055-2.461-1.661-5.896,3.654
							l0.49-4.497c-2.013-3.073-7.594,6.023-9.77,3.631c2.469-2.566,2.306-5.202,5.321-6.359c-0.898-0.524-1.444-1.478-2.508,0.433
							c0.409-2.027-4.558,2.37-3.964-0.721c-1.042,1.013-2.734,3.859-3.623,3.078c0.191-0.624,0.74-1.372,0.74-1.372
							c-0.74,1.366-2.59,1.018-3.348,4.574c0.928-5.08-1.128-5.955-3.201-6.645c-2.074-0.701-4.181-1.183-3.487-5.574
							c-2.49-0.072-5.349-0.408-7.276-1.099c0.539-0.788,0.709-1.406,0.908-0.942c-1.213-3.876-5.584,7.358-6.97,3.013
							c0.796-5.302,2.736-1.728,2.681-3.911c4.189-9.522-4.078-0.446-3.362-6.82l0.738-0.325c0.046-3.897-5.337,1.802-7.428-0.028
							c0,0,0.512-0.773,0.688-1.411c-3.938,4.003-7.807,4.126-10.747,4.37c2.438-3.346,1.966-1.454,3.27-5.408
							c-1.292,0.042-2.501,6.154-5.063,6.236c0.263-2.331-0.424-4.788,1.221-8.885l2.076,0.692c1.385-5.645-2.643-1-3.266-2.378
							l1.174-2.204c-3.378-0.659-6.019,5.027-9.092,3.172l-0.443,1.873c-4.338,4.879-0.051-3.859-3.726-0.429l2.049-6.002
							c-1.805,0.863-6.613,3.738-9.19,3.89c3.083-3.753,6.528-4.841,9.198-6.696c-1.152-0.564-4.17-1.348-6.038,1.232
							c0.717-0.348,1.938-1.498,2.008-0.402c-3.45,3.898-6.307,5.298-8.577,4.168c2.663-5.511,1.463-6.909-0.155-8.074
							c-1.622-1.158-3.642-2.113-2.617-6.844c-5.941,2.388-7.501-5.299-12.652-6.704c-1.943,9.518-1.525-0.344-4.984,8.822
							c-1.371,0.121-1.74-0.202-1.597-0.832l-1.206-6.8c0.264-2.967,1.9-1.555,2.631-3.628c-2.211-1.71,0.529-4.264-0.146-7.343
							c-0.985,3.377-2.764,4.285-3.685,2.468l0.302,4.995c-5.437,3.408,0.073-8.836-5.381-5.489l2.263-2.402
							c-2.48,0.941-6.664-2.779-11.334,3.866c0.095-1.175,0.65-3.829,1.709-4.176c-3.93-2.792-12.675,4.048-14.297-1.773
							l1.181-2.106c-1.057,0.331-3.008,3.655-3.163,1.01c0.403-0.904,1.173-2.105,0.848-2.382c-0.721,0.598-3.643,3.118-4.226,1.411
							l1.87-2.177c-3.165-4.512-8.83,3.722-12.933,3.953c2.443-6.606-0.123-9.995-1.412-11.687l0.398-0.915
							c-4.69-2.643-10.456,2.489-15.957,3.47c-0.164-4.11-2.332-5.719-4.852-7.009c-2.521-1.293-5.421-2.183-7.053-5
							c0.3,1.451-1.868,5.162-2.913,5.559c-0.634-1.714-4.541,3.636-2.327-2.436l0.347,0.247c1.186-6.284-1.591-5.431-3.281-6.18
							l-2.927,7.931c-0.351-6.605-3.706-6.525-6.842-6.145c-3.135,0.361-6.04,0.964-5.636-4.681
							c-1.742,1.666-3.103,1.208-4.828,2.88l1.409-4.307c-2.728-2.061-4.087-3.133-8.221-3.222l1.723-2.865
							c-2.078-0.922-6.513,11.688-8.553,11.357l1.352-6.653c-3.762-1.012-5.897-7.844-11.315-3.06
							c0.336-0.932,0.992-2.778,1.676-2.86c-1.706-0.714-5.606-6.344-7.503,2.753c1.614-5.824-3.725-1.659-6.462,0.339l1.518-4.204
							c-3.249,5.004-3.718,6.491-6.519,7.343c-0.409-0.718,0.456-3.58,0.903-2.269c-1.262-2.781-2.587,3.659-4.235,0.73l1.602-2.508
							c-1.848-0.872-2.095,0.632-4.034,3.555c-1.686,1.405-3.383-2.055-2.63-6.026c-0.9,2.304-2.811,5.201-3.654,3.776
							c0.237-1.513,0.897-2.317,1.225-2.707c-2.481-3.792-6.15,3.741-7.274-1.084c0.325-1.442,0.365-2.195,0.291-2.675
							c2.559,0.788,4.581,1.571,4.303,1.833c1.051-3.974-0.868-5.226,2.248-10.275c-2.486,2.548-7.051,8.31-8.604,5.902
							c0-0.412,0.001-0.815,0.085-1.449l0.326-0.391c-0.369-0.521-0.887-0.262-1.456,0.303c-0.484-0.825-0.774-1.422-1.386-1.644
							c0.596-3.353-1.967-2.371-2.977-2.79c-1.012,4.383-2.206,3.344-1.828,7.263c-0.087-0.356,0.329-0.474,1.07-0.484
							c0.19-0.09,0.391-0.11,0.56-0.342c-0.048,0.105-0.106,0.231-0.168,0.366c0.718,0.046,1.64,0.162,2.673,0.354
							c-1.39,2.001-2.722,3.659-3.265,0.952c-1.245,2.671-2.557,5.408-3.228,6.679c0.109-6.434-1.836-10.405-1.295-14.254
							c-3.807,1.661-7.954-0.245-11.92,7.48c-1.156,0.834-0.478-2.612-0.51-3.988c0.72-0.696,1.313-0.417,1.879-1.528
							c-2.314,1.644-5.594-0.431-7.368,5.207c-1.683-3.119,2.525-4.996-0.845-4.778l0.834-1.66c-2.041-5.307-5.43-2.219-8.784,0.533
							c-3.365,2.757-6.683,5.141-8.839-1.485c0.319,0.827,0.484,1.213,0.371,2.2c-3.355-3.442-7.677-3.079-11.88-3.09
							c-4.205-0.037-8.309-0.364-11.38-5.268c-1.884-2.108-2.854,1.544-4.748,4.095l0.444-4.837l-3.364,5.023
							c-4.011,3.387-3.454-12.789-9.038-5.923l-0.054,3.296c-1.38-0.869-5.056,1.046-4.142-2.593c-0.259,0.557-1.09,3.246-1.37,1.47
							l0.402-2.496l-4.418,3.612c-2.519-2.307,2.19-9.803-1.888-11.032c-1.721,0.681-5.645,6.468-5.348,8.239
							c0.6,0.234,1.319,1.838,0.936,4.341l-1.623,1.048c-1.512,7.298-3.837,14.631-1.337,20.363l3.137-4.067l0.139,3.695
							l-2.022-0.13c0.543,3.549,1.768,0.713,2.926-1.176c-0.143,1.927-0.045,3.309,0.297,4.097l3.558-6.591
							c-0.232,2.918-2.051,5.506-0.784,7.367c1.667-3.059,0.108-6.619,2.29-8.431c0.535,3.531-0.289,6.19,1.552,3.578
							c-0.156,1.921-0.655,3.073-1.329,3.81c1.588-2.054,3.288-0.401,4.614-4.187c0.417,4.321,4.188-0.361,2.772,6.562
							c0.677-1.587,3.091-5.036,4.229-5.112c-3.55,7.907,3.951,1.278,1.716,10.063c2.897-7.168,5.895-2.283,9.299-5.909
							c-0.263,0.562-0.786,1.705-0.938,1.281c1.331,0.902,1.302,3.228,1.949,4.815c1.426-6.109,3.98-7.078,5.979-10.593
							c0.565,6.301-2.562,6.983-3.166,12.792c0.928-4.998,4.101-4.313,4.355-8.586c0.602,3.953,0.805,2.027,0.443,7.266
							c1.84-7.624,1.534-1.037,3.651-5.507c1.171,4.199-1.013,7.293,1.638,5.42C496.931,66.508,494.442,68.819,494.442,68.819z
							 M548.622,67.611c-0.011,0.042-0.018,0.071-0.022,0.087c-0.466-0.013-0.863-0.024-1.117-0.031
							C547.718,67.664,548.044,67.657,548.622,67.611z M552.928,68.673c-0.477-0.308-1.12-0.509-1.816-0.66
							c0.24-1.54,0.806-3.047,1.218-2.854C551.833,66.102,552.62,67.235,552.928,68.673z M551.513,36.093
							c0.856-0.445,0.872,0.469,0.741,1.385c-0.349-0.005-0.772,0.047-1.354,0.222c-0.056,0.131-0.16,0.378-0.218,0.513
							C550.96,37.397,551.233,36.636,551.513,36.093z"/>
						<path fill="#414141" d="M548.812,41.504c-0.125,0.073-0.227,0.241-0.367,0.247c0.045,0.421,0.097,0.78,0.167,1.083
							c0.203-0.448,0.41-0.904,0.592-1.306C549.071,41.523,548.937,41.501,548.812,41.504z"/>
						<path fill="#414141" d="M911.036,225.518l0.013-0.14c-0.079,0.176-0.165,0.35-0.347,0.574
							C910.823,225.76,910.929,225.667,911.036,225.518z"/>
						<polygon fill="#414141" points="609.156,93.868 609.494,92.778 608.827,93.613 						"/>
						<path fill="#414141" d="M914.258,254.319c-0.294,0.268-0.575,0.579-0.752,0.923
							C913.737,255.06,913.989,254.714,914.258,254.319z"/>
						<path fill="#414141" d="M919.222,263.328l-0.548,2.07C919.096,264.388,919.207,263.772,919.222,263.328z"/>
						<path fill="#414141" d="M921.479,271.12c0.727-0.324,1.25-0.606,1.732-0.866c0.006-0.011,0.004-0.015,0.015-0.027
							L921.479,271.12z"/>
						<path fill="#414141" d="M830.774,188.17c-0.101-0.038-0.223-0.044-0.364,0.003C829.339,188.509,829.93,188.487,830.774,188.17
							z"/>
						<path fill="#414141" d="M867.231,201.886c-0.832,0.379-1.649,0.752-2.295,0.884
							C865.242,203.456,865.591,203.851,867.231,201.886z"/>
						<path fill="#414141" d="M792.32,171.594c0.03-0.048,0.009-0.015,0.041-0.067c-0.086-0.028-0.147-0.08-0.226-0.123
							L792.32,171.594z"/>
						<path fill="#414141" d="M863.615,201.611c-0.04,1.12,0.518,1.317,1.32,1.158C864.696,202.192,864.478,201.427,863.615,201.611
							z"/>
						<path fill="#414141" d="M934.424,301.809l-0.033,0.406c0.275-0.113,0.508-0.181,0.691-0.222L934.424,301.809z"/>
						<path fill="#414141" d="M935.082,301.994l0.65,0.187C935.661,302.006,935.567,301.868,935.082,301.994z"/>
						<path fill="#414141" d="M937.105,302.579l-1.373-0.399C935.836,302.461,935.845,302.85,937.105,302.579z"/>
						<path fill="#414141" d="M932.373,291.67l-1.534,0.571C931.172,292.159,931.672,291.976,932.373,291.67z"/>
						<path fill="#414141" d="M930.657,289.052c-0.025,0.838-2.387,3.15-1.037,3.641l1.22-0.452
							C928.441,292.828,933.442,288.529,930.657,289.052z"/>
						<path fill="#414141" d="M942.319,267.745l0.248,3.115c1.287-1.258,3.011-2.962,4.022-2.009
							C949.356,263.178,943.539,271.359,942.319,267.745z"/>
						<path fill="#414141" d="M940.01,258.781c1.501,0.907,2.148-1.323,3.027-1.767C941.165,256.985,940.707,256.999,940.01,258.781
							z"/>
						<path fill="#414141" d="M900.018,208.566l2.994-2.793C901.751,205.341,901.888,206.891,900.018,208.566z"/>
						<path fill="#414141" d="M876.883,215.703l-0.934,2.593l2.916-2.403c0,0-0.493-0.051-0.986-0.102
							C877.381,215.747,876.883,215.703,876.883,215.703z"/>
						<path fill="#414141" d="M891.059,189.272l0.781-0.087c0,0-0.622-0.058-1.243-0.115c-0.624-0.051-1.247-0.102-1.247-0.102
							L891.059,189.272z"/>
						<path fill="#414141" d="M800.169,131.057l-1.996,4.637C799.284,135.258,802.04,130.3,800.169,131.057z"/>
						<path fill="#414141" d="M756.847,115.941c0.59-2.496,0.087-4.494-1.648-2.556
							C755.988,114.117,756.106,116.321,756.847,115.941z"/>
						<polygon fill="#414141" points="632.857,58.998 634.252,57.684 632.175,58.473 						"/>
					</g>
				</g>
			</g>
		</g>
	</g>
	
		<use xlink:href="#Gear1"  width="161.646" height="161.647" id="XMLID_2_" x="-80.823" y="-80.823" transform="matrix(1.6625 0 0 -1.622 541.5739 176.1473)" overflow="visible"/>
	
		<use xlink:href="#Gear"  width="281" height="281" id="XMLID_1_" x="-141" y="-141" transform="matrix(1 0 0 -1 327 176)" overflow="visible"/>
</g>
<g id="Layer_1">
	<text transform="matrix(1.1274 0 0 1 9.2263 428.6024)" fill="#E6E6E6" font-family="'MyriadPro-Regular'" font-size="152.114">NUAMES</text>
</g>
</svg>
