<?xml version="1.0" encoding="utf-8"?>
<!-- Generator: Adobe Illustrator 16.0.0, SVG Export Plug-In . SVG Version: 6.00 Build 0)  -->
<!DOCTYPE svg PUBLIC "-//W3C//DTD SVG 1.1//EN" "http://www.w3.org/Graphics/SVG/1.1/DTD/svg11.dtd">
<svg version="1.1" xmlns="http://www.w3.org/2000/svg" xmlns:xlink="http://www.w3.org/1999/xlink" x="0px" y="0px" width="1600px"
	 height="1000px" viewBox="0 0 1600 1000" enable-background="new 0 0 1600 1000" xml:space="preserve">
<g id="_x35_">
	<rect fill="#F36E21" width="1600" height="1000"/>
	<g>
		<path fill="#FFFFFF" d="M281.22,93.757c-5.836,0-10.559-1.74-14.168-5.221c-3.609-3.48-5.414-8.01-5.414-13.588v-0.984
			c0-3.891,0.721-7.324,2.162-10.301s3.545-5.279,6.311-6.908c2.765-1.629,6.047-2.443,9.844-2.443
			c5.344,0,9.563,1.658,12.656,4.975s4.641,7.939,4.641,13.869v4.605h-23.555c0.422,2.133,1.348,3.809,2.777,5.027
			c1.429,1.219,3.281,1.828,5.555,1.828c3.75,0,6.68-1.313,8.789-3.938l5.414,6.398c-1.477,2.039-3.568,3.662-6.275,4.869
			S284.337,93.757,281.22,93.757z M279.884,63.452c-3.469,0-5.532,2.297-6.188,6.891h11.953v-0.914
			c0.047-1.898-0.434-3.369-1.441-4.412C283.201,63.974,281.759,63.452,279.884,63.452z"/>
		<path fill="#FFFFFF" d="M316.728,78.956l6.012-23.941h12.48l-12.41,38.039h-12.094l-12.41-38.039h12.516L316.728,78.956z"/>
		<path fill="#FFFFFF" d="M356.701,93.757c-5.836,0-10.559-1.74-14.168-5.221c-3.609-3.48-5.414-8.01-5.414-13.588v-0.984
			c0-3.891,0.721-7.324,2.162-10.301s3.545-5.279,6.311-6.908c2.765-1.629,6.047-2.443,9.844-2.443
			c5.344,0,9.563,1.658,12.656,4.975s4.641,7.939,4.641,13.869v4.605h-23.555c0.422,2.133,1.348,3.809,2.777,5.027
			c1.429,1.219,3.281,1.828,5.555,1.828c3.75,0,6.68-1.313,8.789-3.938l5.414,6.398c-1.477,2.039-3.568,3.662-6.275,4.869
			S359.817,93.757,356.701,93.757z M355.365,63.452c-3.469,0-5.532,2.297-6.188,6.891h11.953v-0.914
			c0.047-1.898-0.434-3.369-1.441-4.412C358.681,63.974,357.24,63.452,355.365,63.452z"/>
		<path fill="#FFFFFF" d="M388.376,55.015l0.387,4.465c2.625-3.445,6.246-5.168,10.863-5.168c3.96,0,6.92,1.184,8.877,3.551
			c1.957,2.367,2.971,5.93,3.041,10.688v24.504h-11.883V69.042c0-1.922-0.387-3.334-1.16-4.236s-2.18-1.354-4.219-1.354
			c-2.32,0-4.043,0.914-5.168,2.742v26.859h-11.848V55.015H388.376z"/>
		<path fill="#FFFFFF" d="M468.884,77.444l3.832-22.43h11.355l-8.965,38.039h-10.02l-6.293-22.57l-6.328,22.57h-10.02l-8.965-38.039
			h11.355l3.762,22.957l6.047-22.957h8.262L468.884,77.444z"/>
		<path fill="#FFFFFF" d="M499.892,59.093c2.531-3.188,5.766-4.781,9.703-4.781c4.195,0,7.359,1.242,9.492,3.727
			c2.132,2.484,3.222,6.152,3.27,11.004v24.012h-11.883v-23.73c0-2.016-0.41-3.498-1.23-4.447c-0.821-0.949-2.215-1.424-4.184-1.424
			c-2.438,0-4.161,0.773-5.168,2.32v27.281h-11.848v-54h11.848V59.093z"/>
		<path fill="#FFFFFF" d="M547.353,93.757c-5.836,0-10.559-1.74-14.168-5.221c-3.609-3.48-5.414-8.01-5.414-13.588v-0.984
			c0-3.891,0.721-7.324,2.162-10.301s3.545-5.279,6.311-6.908c2.765-1.629,6.047-2.443,9.844-2.443
			c5.344,0,9.563,1.658,12.656,4.975s4.641,7.939,4.641,13.869v4.605H539.83c0.422,2.133,1.348,3.809,2.777,5.027
			c1.429,1.219,3.281,1.828,5.555,1.828c3.75,0,6.68-1.313,8.789-3.938l5.414,6.398c-1.477,2.039-3.568,3.662-6.275,4.869
			S550.47,93.757,547.353,93.757z M546.017,63.452c-3.469,0-5.532,2.297-6.188,6.891h11.953v-0.914
			c0.047-1.898-0.434-3.369-1.441-4.412C549.333,63.974,547.892,63.452,546.017,63.452z"/>
		<path fill="#FFFFFF" d="M579.029,55.015l0.387,4.465c2.625-3.445,6.246-5.168,10.863-5.168c3.96,0,6.92,1.184,8.877,3.551
			c1.957,2.367,2.971,5.93,3.041,10.688v24.504h-11.883V69.042c0-1.922-0.387-3.334-1.16-4.236s-2.18-1.354-4.219-1.354
			c-2.32,0-4.043,0.914-5.168,2.742v26.859h-11.848V55.015H579.029z"/>
		<path fill="#FFFFFF" d="M648.111,93.054c-0.422-0.773-0.797-1.91-1.125-3.41c-2.18,2.742-5.227,4.113-9.141,4.113
			c-3.586,0-6.633-1.084-9.141-3.252c-2.508-2.168-3.762-4.893-3.762-8.174c0-4.125,1.523-7.242,4.57-9.352
			c3.046-2.109,7.476-3.164,13.289-3.164h3.656v-2.014c0-3.509-1.512-5.264-4.535-5.264c-2.813,0-4.219,1.39-4.219,4.169h-11.848
			c0-3.675,1.564-6.66,4.693-8.954s7.119-3.441,11.971-3.441s8.684,1.184,11.496,3.551s4.254,5.613,4.324,9.738v16.84
			c0.047,3.492,0.585,6.164,1.617,8.016v0.598H648.111z M640.693,85.319c1.477,0,2.701-0.316,3.674-0.949
			c0.972-0.633,1.67-1.348,2.092-2.145v-6.082h-3.445c-4.125,0-6.188,1.852-6.188,5.555c0,1.078,0.363,1.951,1.09,2.619
			C638.642,84.985,639.568,85.319,640.693,85.319z"/>
		<path fill="#FFFFFF" d="M718.142,74.315c0,5.906-1.331,10.623-3.99,14.15c-2.66,3.527-6.252,5.291-10.775,5.291
			c-3.493,0-6.363-1.277-8.613-3.832v17.754h-11.848V55.015h11.074l0.352,3.516c2.273-2.813,5.261-4.219,8.965-4.219
			c4.688,0,8.332,1.729,10.934,5.186s3.902,8.209,3.902,14.256V74.315z M706.294,73.577c0-6.75-1.969-10.125-5.906-10.125
			c-2.813,0-4.688,1.008-5.625,3.023v14.977c1.031,2.109,2.93,3.164,5.695,3.164c3.773,0,5.718-3.258,5.836-9.773V73.577z"/>
		<path fill="#FFFFFF" d="M744.791,93.054c-0.422-0.773-0.797-1.91-1.125-3.41c-2.18,2.742-5.227,4.113-9.141,4.113
			c-3.586,0-6.633-1.084-9.141-3.252c-2.508-2.168-3.762-4.893-3.762-8.174c0-4.125,1.523-7.242,4.57-9.352
			c3.046-2.109,7.476-3.164,13.289-3.164h3.656v-2.014c0-3.509-1.512-5.264-4.535-5.264c-2.813,0-4.219,1.39-4.219,4.169h-11.848
			c0-3.675,1.564-6.66,4.693-8.954s7.119-3.441,11.971-3.441s8.684,1.184,11.496,3.551s4.254,5.613,4.324,9.738v16.84
			c0.047,3.492,0.585,6.164,1.617,8.016v0.598H744.791z M737.373,85.319c1.477,0,2.701-0.316,3.674-0.949
			c0.972-0.633,1.67-1.348,2.092-2.145v-6.082h-3.445c-4.125,0-6.188,1.852-6.188,5.555c0,1.078,0.363,1.951,1.09,2.619
			C735.321,84.985,736.248,85.319,737.373,85.319z"/>
		<path fill="#FFFFFF" d="M784.587,65.737l-3.902-0.281c-3.727,0-6.117,1.172-7.172,3.516v24.082h-11.848V55.015h11.109l0.387,4.887
			c1.992-3.727,4.769-5.59,8.332-5.59c1.266,0,2.367,0.141,3.305,0.422L784.587,65.737z"/>
		<path fill="#FFFFFF" d="M804.416,45.558v9.457h6.258v8.227h-6.258v17.402c0,1.43,0.258,2.426,0.773,2.988
			c0.515,0.563,1.534,0.844,3.059,0.844c1.172,0,2.156-0.07,2.953-0.211v8.473c-2.133,0.68-4.359,1.02-6.68,1.02
			c-4.079,0-7.09-0.961-9.036-2.883c-1.946-1.922-2.918-4.84-2.918-8.754V63.241h-4.852v-8.227h4.852v-9.457H804.416z"/>
		<path fill="#FFFFFF" d="M849.346,84.616c1.664,0,2.953-0.451,3.867-1.354s1.358-2.162,1.336-3.779h11.109
			c0,4.172-1.494,7.594-4.482,10.266s-6.838,4.008-11.549,4.008c-5.532,0-9.892-1.734-13.078-5.203
			c-3.188-3.469-4.781-8.273-4.781-14.414v-0.492c0-3.844,0.708-7.236,2.127-10.178c1.418-2.941,3.463-5.203,6.135-6.785
			s5.836-2.373,9.492-2.373c4.944,0,8.871,1.371,11.777,4.113c2.905,2.742,4.359,6.457,4.359,11.145h-11.109
			c0-1.969-0.48-3.48-1.441-4.535c-0.962-1.055-2.25-1.582-3.867-1.582c-3.071,0-4.864,1.957-5.379,5.871
			c-0.164,1.242-0.246,2.953-0.246,5.133c0,3.82,0.457,6.469,1.371,7.945S847.354,84.616,849.346,84.616z"/>
		<path fill="#FFFFFF" d="M892.096,93.054c-0.422-0.773-0.797-1.91-1.125-3.41c-2.18,2.742-5.227,4.113-9.141,4.113
			c-3.586,0-6.633-1.084-9.141-3.252c-2.509-2.168-3.762-4.893-3.762-8.174c0-4.125,1.523-7.242,4.57-9.352
			c3.046-2.109,7.476-3.164,13.289-3.164h3.656v-2.014c0-3.509-1.512-5.264-4.535-5.264c-2.813,0-4.219,1.39-4.219,4.169h-11.848
			c0-3.675,1.564-6.66,4.693-8.954s7.119-3.441,11.971-3.441s8.684,1.184,11.496,3.551s4.254,5.613,4.324,9.738v16.84
			c0.047,3.492,0.585,6.164,1.617,8.016v0.598H892.096z M884.678,85.319c1.477,0,2.701-0.316,3.674-0.949
			c0.972-0.633,1.67-1.348,2.092-2.145v-6.082h-3.445c-4.126,0-6.188,1.852-6.188,5.555c0,1.078,0.363,1.951,1.09,2.619
			C882.626,84.985,883.553,85.319,884.678,85.319z"/>
		<path fill="#FFFFFF" d="M919.764,55.015l0.387,4.465c2.624-3.445,6.245-5.168,10.863-5.168c3.96,0,6.92,1.184,8.877,3.551
			c1.956,2.367,2.971,5.93,3.041,10.688v24.504h-11.883V69.042c0-1.922-0.387-3.334-1.16-4.236s-2.18-1.354-4.219-1.354
			c-2.32,0-4.043,0.914-5.168,2.742v26.859h-11.848V55.015H919.764z"/>
		<path fill="#FFFFFF" d="M960.369,55.015l0.387,4.465c2.624-3.445,6.245-5.168,10.863-5.168c3.96,0,6.92,1.184,8.877,3.551
			c1.956,2.367,2.971,5.93,3.041,10.688v24.504h-11.883V69.042c0-1.922-0.387-3.334-1.16-4.236s-2.18-1.354-4.219-1.354
			c-2.32,0-4.043,0.914-5.168,2.742v26.859H949.26V55.015H960.369z"/>
		<path fill="#FFFFFF" d="M988.6,73.683c0-3.797,0.738-7.178,2.215-10.143s3.598-5.244,6.363-6.838
			c2.765-1.594,6.012-2.391,9.738-2.391c5.695,0,10.183,1.764,13.465,5.291c3.281,3.527,4.922,8.326,4.922,14.396v0.422
			c0,5.93-1.647,10.635-4.939,14.115c-3.293,3.48-7.752,5.221-13.377,5.221c-5.414,0-9.762-1.623-13.043-4.869
			c-3.282-3.246-5.051-7.646-5.309-13.201L988.6,73.683z M1000.447,74.421c0,3.516,0.55,6.094,1.652,7.734
			c1.102,1.641,2.729,2.461,4.887,2.461c4.219,0,6.375-3.246,6.469-9.738v-1.195c0-6.82-2.18-10.23-6.539-10.23
			c-3.961,0-6.105,2.941-6.434,8.824L1000.447,74.421z"/>
		<path fill="#FFFFFF" d="M1044.322,45.558v9.457h6.258v8.227h-6.258v17.402c0,1.43,0.258,2.426,0.773,2.988
			c0.515,0.563,1.534,0.844,3.059,0.844c1.172,0,2.156-0.07,2.953-0.211v8.473c-2.133,0.68-4.359,1.02-6.68,1.02
			c-4.078,0-7.09-0.961-9.035-2.883c-1.946-1.922-2.918-4.84-2.918-8.754V63.241h-4.852v-8.227h4.852v-9.457H1044.322z"/>
		<path fill="#FFFFFF" d="M1108.482,74.351c0,6.234-1.289,11.027-3.867,14.379c-2.579,3.352-6.211,5.027-10.898,5.027
			c-3.867,0-6.984-1.535-9.352-4.605l-0.492,3.902h-10.617v-54h11.848v19.02c2.202-2.508,5.05-3.762,8.543-3.762
			c4.733,0,8.39,1.699,10.969,5.098c2.578,3.398,3.867,8.18,3.867,14.344V74.351z M1096.6,73.596c0-3.65-0.487-6.253-1.459-7.81
			c-0.973-1.556-2.467-2.334-4.482-2.334c-2.672,0-4.523,1.018-5.555,3.054v15.092c1.007,2.013,2.883,3.019,5.625,3.019
			c2.789,0,4.558-1.356,5.309-4.071C1096.411,79.211,1096.6,76.895,1096.6,73.596z"/>
		<path fill="#FFFFFF" d="M1132.107,93.757c-5.836,0-10.56-1.74-14.168-5.221c-3.609-3.48-5.414-8.01-5.414-13.588v-0.984
			c0-3.891,0.721-7.324,2.162-10.301s3.545-5.279,6.311-6.908c2.765-1.629,6.047-2.443,9.844-2.443
			c5.344,0,9.563,1.658,12.656,4.975s4.641,7.939,4.641,13.869v4.605h-23.555c0.422,2.133,1.348,3.809,2.777,5.027
			c1.429,1.219,3.281,1.828,5.555,1.828c3.749,0,6.68-1.313,8.789-3.938l5.414,6.398c-1.477,2.039-3.568,3.662-6.275,4.869
			S1135.224,93.757,1132.107,93.757z M1130.771,63.452c-3.469,0-5.532,2.297-6.188,6.891h11.953v-0.914
			c0.047-1.898-0.435-3.369-1.441-4.412C1134.088,63.974,1132.646,63.452,1130.771,63.452z"/>
		<path fill="#FFFFFF" d="M1193.842,65.737l-3.902-0.281c-3.727,0-6.117,1.172-7.172,3.516v24.082h-11.848V55.015h11.109
			l0.387,4.887c1.991-3.727,4.769-5.59,8.332-5.59c1.266,0,2.367,0.141,3.305,0.422L1193.842,65.737z"/>
		<path fill="#FFFFFF" d="M1215.85,93.757c-5.836,0-10.56-1.74-14.168-5.221c-3.609-3.48-5.414-8.01-5.414-13.588v-0.984
			c0-3.891,0.721-7.324,2.162-10.301s3.545-5.279,6.311-6.908c2.765-1.629,6.047-2.443,9.844-2.443
			c5.344,0,9.563,1.658,12.656,4.975s4.641,7.939,4.641,13.869v4.605h-23.555c0.422,2.133,1.348,3.809,2.777,5.027
			s3.281,1.828,5.555,1.828c3.75,0,6.68-1.313,8.789-3.938l5.414,6.398c-1.477,2.039-3.568,3.662-6.275,4.869
			S1218.967,93.757,1215.85,93.757z M1214.514,63.452c-3.469,0-5.532,2.297-6.188,6.891h11.953v-0.914
			c0.047-1.898-0.434-3.369-1.441-4.412S1216.389,63.452,1214.514,63.452z"/>
		<path fill="#FFFFFF" d="M1259.303,88.94c-2.508,3.211-5.895,4.816-10.16,4.816c-4.172,0-7.33-1.213-9.475-3.639
			s-3.217-5.912-3.217-10.459V55.015h11.848v24.715c0,3.258,1.582,4.887,4.746,4.887c2.719,0,4.652-0.973,5.801-2.918V55.015h11.918
			v38.039h-11.109L1259.303,88.94z"/>
		<path fill="#FFFFFF" d="M1297.166,82.366c0-1.008-0.527-1.816-1.582-2.426s-3.059-1.242-6.012-1.898s-5.391-1.518-7.313-2.584
			s-3.387-2.361-4.395-3.885s-1.512-3.27-1.512-5.238c0-3.492,1.441-6.369,4.324-8.631s6.656-3.393,11.32-3.393
			c5.016,0,9.047,1.137,12.094,3.41s4.57,5.262,4.57,8.965h-11.883c0-3.047-1.605-4.57-4.816-4.57c-1.242,0-2.285,0.346-3.129,1.037
			s-1.266,1.553-1.266,2.584c0,1.055,0.516,1.91,1.547,2.566s2.678,1.195,4.939,1.617s4.248,0.926,5.959,1.512
			c5.719,1.969,8.578,5.496,8.578,10.582c0,3.469-1.541,6.293-4.623,8.473s-7.072,3.27-11.971,3.27
			c-3.258,0-6.164-0.586-8.719-1.758s-4.547-2.766-5.977-4.781s-2.145-4.137-2.145-6.363h11.074c0.047,1.758,0.633,3.041,1.758,3.85
			s2.566,1.213,4.324,1.213c1.617,0,2.83-0.328,3.639-0.984S1297.166,83.421,1297.166,82.366z"/>
		<path fill="#FFFFFF" d="M1332.533,93.757c-5.836,0-10.559-1.74-14.168-5.221s-5.414-8.01-5.414-13.588v-0.984
			c0-3.891,0.721-7.324,2.162-10.301s3.545-5.279,6.311-6.908s6.047-2.443,9.844-2.443c5.344,0,9.563,1.658,12.656,4.975
			s4.641,7.939,4.641,13.869v4.605h-23.555c0.422,2.133,1.348,3.809,2.777,5.027s3.281,1.828,5.555,1.828
			c3.75,0,6.68-1.313,8.789-3.938l5.414,6.398c-1.477,2.039-3.568,3.662-6.275,4.869S1335.65,93.757,1332.533,93.757z
			 M1331.197,63.452c-3.469,0-5.531,2.297-6.188,6.891h11.953v-0.914c0.047-1.898-0.434-3.369-1.441-4.412
			S1333.072,63.452,1331.197,63.452z"/>
		<path fill="#FFFFFF" d="M1351.834,73.753c0-6.023,1.301-10.77,3.902-14.238s6.234-5.203,10.898-5.203
			c3.398,0,6.258,1.336,8.578,4.008V39.054h11.883v54h-10.652l-0.598-4.078c-2.438,3.188-5.531,4.781-9.281,4.781
			c-4.523,0-8.109-1.734-10.758-5.203S1351.834,80.151,1351.834,73.753z M1363.682,74.491c0,6.75,1.969,10.125,5.906,10.125
			c2.625,0,4.5-1.102,5.625-3.305V66.827c-1.078-2.25-2.93-3.375-5.555-3.375c-3.656,0-5.637,2.953-5.941,8.859L1363.682,74.491z"/>
	</g>
	<g>
		<path fill="#FFFFFF" d="M304.677,149.065l3.832-22.43h11.355l-8.965,38.039h-10.02l-6.293-22.57l-6.328,22.57h-10.02
			l-8.965-38.039h11.355l3.762,22.957l6.047-22.957h8.262L304.677,149.065z"/>
		<path fill="#FFFFFF" d="M342.505,165.378c-5.836,0-10.559-1.74-14.168-5.221c-3.609-3.48-5.414-8.01-5.414-13.588v-0.984
			c0-3.891,0.721-7.324,2.162-10.301s3.545-5.279,6.311-6.908c2.765-1.629,6.047-2.443,9.844-2.443
			c5.344,0,9.563,1.658,12.656,4.975s4.641,7.939,4.641,13.869v4.605h-23.555c0.422,2.133,1.348,3.809,2.777,5.027
			c1.429,1.219,3.281,1.828,5.555,1.828c3.75,0,6.68-1.313,8.789-3.938l5.414,6.398c-1.477,2.039-3.568,3.662-6.275,4.869
			S345.622,165.378,342.505,165.378z M341.169,135.073c-3.469,0-5.532,2.297-6.188,6.891h11.953v-0.914
			c0.047-1.898-0.434-3.369-1.441-4.412C344.485,135.595,343.044,135.073,341.169,135.073z"/>
		<path fill="#FFFFFF" d="M397.313,156.237c1.664,0,2.953-0.451,3.867-1.354s1.359-2.162,1.336-3.779h11.109
			c0,4.172-1.494,7.594-4.482,10.266s-6.838,4.008-11.549,4.008c-5.532,0-9.891-1.734-13.078-5.203
			c-3.188-3.469-4.781-8.273-4.781-14.414v-0.492c0-3.844,0.708-7.236,2.127-10.178c1.418-2.941,3.463-5.203,6.135-6.785
			s5.836-2.373,9.492-2.373c4.945,0,8.871,1.371,11.777,4.113c2.906,2.742,4.359,6.457,4.359,11.145h-11.109
			c0-1.969-0.48-3.48-1.441-4.535c-0.961-1.055-2.25-1.582-3.867-1.582c-3.071,0-4.864,1.957-5.379,5.871
			c-0.164,1.242-0.246,2.953-0.246,5.133c0,3.82,0.457,6.469,1.371,7.945S395.321,156.237,397.313,156.237z"/>
		<path fill="#FFFFFF" d="M440.063,164.675c-0.422-0.773-0.797-1.91-1.125-3.41c-2.18,2.742-5.227,4.113-9.141,4.113
			c-3.586,0-6.633-1.084-9.141-3.252c-2.508-2.168-3.762-4.893-3.762-8.174c0-4.125,1.523-7.242,4.57-9.352
			c3.046-2.109,7.476-3.164,13.289-3.164h3.656v-2.014c0-3.509-1.512-5.264-4.535-5.264c-2.813,0-4.219,1.39-4.219,4.169H417.81
			c0-3.675,1.564-6.66,4.693-8.954s7.119-3.441,11.971-3.441s8.684,1.184,11.496,3.551s4.254,5.613,4.324,9.738v16.84
			c0.047,3.492,0.585,6.164,1.617,8.016v0.598H440.063z M432.646,156.94c1.477,0,2.701-0.316,3.674-0.949
			c0.972-0.633,1.67-1.348,2.092-2.145v-6.082h-3.445c-4.125,0-6.188,1.852-6.188,5.555c0,1.078,0.363,1.951,1.09,2.619
			C430.594,156.606,431.521,156.94,432.646,156.94z"/>
		<path fill="#FFFFFF" d="M467.731,126.636l0.387,4.465c2.625-3.445,6.246-5.168,10.863-5.168c3.96,0,6.92,1.184,8.877,3.551
			c1.957,2.367,2.971,5.93,3.041,10.688v24.504h-11.883v-24.012c0-1.922-0.387-3.334-1.16-4.236s-2.18-1.354-4.219-1.354
			c-2.32,0-4.043,0.914-5.168,2.742v26.859h-11.848v-38.039H467.731z"/>
		<path fill="#FFFFFF" d="M538.396,137.358l-3.902-0.281c-3.727,0-6.117,1.172-7.172,3.516v24.082h-11.848v-38.039h11.109
			l0.387,4.887c1.992-3.727,4.769-5.59,8.332-5.59c1.266,0,2.367,0.141,3.305,0.422L538.396,137.358z"/>
		<path fill="#FFFFFF" d="M560.403,165.378c-5.836,0-10.559-1.74-14.168-5.221c-3.609-3.48-5.414-8.01-5.414-13.588v-0.984
			c0-3.891,0.721-7.324,2.162-10.301s3.545-5.279,6.311-6.908c2.765-1.629,6.047-2.443,9.844-2.443
			c5.344,0,9.563,1.658,12.656,4.975s4.641,7.939,4.641,13.869v4.605H552.88c0.422,2.133,1.348,3.809,2.777,5.027
			c1.429,1.219,3.281,1.828,5.555,1.828c3.75,0,6.68-1.313,8.789-3.938l5.414,6.398c-1.477,2.039-3.568,3.662-6.275,4.869
			S563.52,165.378,560.403,165.378z M559.067,135.073c-3.469,0-5.532,2.297-6.188,6.891h11.953v-0.914
			c0.047-1.898-0.434-3.369-1.441-4.412C562.384,135.595,560.942,135.073,559.067,135.073z"/>
		<path fill="#FFFFFF" d="M597.282,156.237c1.664,0,2.953-0.451,3.867-1.354s1.359-2.162,1.336-3.779h11.109
			c0,4.172-1.494,7.594-4.482,10.266s-6.838,4.008-11.549,4.008c-5.532,0-9.891-1.734-13.078-5.203
			c-3.188-3.469-4.781-8.273-4.781-14.414v-0.492c0-3.844,0.708-7.236,2.127-10.178c1.418-2.941,3.463-5.203,6.135-6.785
			s5.836-2.373,9.492-2.373c4.945,0,8.871,1.371,11.777,4.113c2.906,2.742,4.359,6.457,4.359,11.145h-11.109
			c0-1.969-0.48-3.48-1.441-4.535c-0.961-1.055-2.25-1.582-3.867-1.582c-3.071,0-4.864,1.957-5.379,5.871
			c-0.164,1.242-0.246,2.953-0.246,5.133c0,3.82,0.457,6.469,1.371,7.945S595.29,156.237,597.282,156.237z"/>
		<path fill="#FFFFFF" d="M617.11,145.304c0-3.797,0.738-7.178,2.215-10.143s3.598-5.244,6.363-6.838
			c2.765-1.594,6.012-2.391,9.738-2.391c5.695,0,10.183,1.764,13.465,5.291c3.281,3.527,4.922,8.326,4.922,14.396v0.422
			c0,5.93-1.647,10.635-4.939,14.115c-3.293,3.48-7.752,5.221-13.377,5.221c-5.414,0-9.762-1.623-13.043-4.869
			c-3.282-3.246-5.051-7.646-5.309-13.201L617.11,145.304z M628.958,146.042c0,3.516,0.55,6.094,1.652,7.734
			c1.102,1.641,2.73,2.461,4.887,2.461c4.219,0,6.375-3.246,6.469-9.738v-1.195c0-6.82-2.18-10.23-6.539-10.23
			c-3.961,0-6.105,2.941-6.434,8.824L628.958,146.042z"/>
		<path fill="#FFFFFF" d="M673.677,150.577l6.012-23.941h12.48l-12.41,38.039h-12.094l-12.41-38.039h12.516L673.677,150.577z"/>
		<path fill="#FFFFFF" d="M713.649,165.378c-5.836,0-10.559-1.74-14.168-5.221c-3.609-3.48-5.414-8.01-5.414-13.588v-0.984
			c0-3.891,0.721-7.324,2.162-10.301s3.545-5.279,6.311-6.908c2.765-1.629,6.047-2.443,9.844-2.443
			c5.344,0,9.563,1.658,12.656,4.975s4.641,7.939,4.641,13.869v4.605h-23.555c0.422,2.133,1.348,3.809,2.777,5.027
			c1.429,1.219,3.281,1.828,5.555,1.828c3.75,0,6.68-1.313,8.789-3.938l5.414,6.398c-1.477,2.039-3.568,3.662-6.275,4.869
			S716.766,165.378,713.649,165.378z M712.313,135.073c-3.469,0-5.532,2.297-6.188,6.891h11.953v-0.914
			c0.047-1.898-0.434-3.369-1.441-4.412C715.63,135.595,714.188,135.073,712.313,135.073z"/>
		<path fill="#FFFFFF" d="M757.454,137.358l-3.902-0.281c-3.727,0-6.117,1.172-7.172,3.516v24.082h-11.848v-38.039h11.109
			l0.387,4.887c1.992-3.727,4.769-5.59,8.332-5.59c1.266,0,2.367,0.141,3.305,0.422L757.454,137.358z"/>
		<path fill="#FFFFFF" d="M794.825,150.577l6.012-23.941h12.48l-12.41,38.039h-12.094l-12.41-38.039h12.516L794.825,150.577z"/>
		<path fill="#FFFFFF" d="M837.751,164.675c-0.422-0.773-0.797-1.91-1.125-3.41c-2.18,2.742-5.227,4.113-9.141,4.113
			c-3.586,0-6.633-1.084-9.141-3.252c-2.509-2.168-3.762-4.893-3.762-8.174c0-4.125,1.523-7.242,4.57-9.352
			c3.046-2.109,7.476-3.164,13.289-3.164h3.656v-2.014c0-3.509-1.512-5.264-4.535-5.264c-2.813,0-4.219,1.39-4.219,4.169h-11.848
			c0-3.675,1.564-6.66,4.693-8.954s7.119-3.441,11.971-3.441s8.684,1.184,11.496,3.551s4.254,5.613,4.324,9.738v16.84
			c0.047,3.492,0.585,6.164,1.617,8.016v0.598H837.751z M830.333,156.94c1.477,0,2.701-0.316,3.674-0.949
			c0.972-0.633,1.67-1.348,2.092-2.145v-6.082h-3.445c-4.126,0-6.188,1.852-6.188,5.555c0,1.078,0.363,1.951,1.09,2.619
			C828.281,156.606,829.208,156.94,830.333,156.94z"/>
		<path fill="#FFFFFF" d="M867.036,164.675h-11.883v-54h11.883V164.675z"/>
		<path fill="#FFFFFF" d="M896.989,160.562c-2.509,3.211-5.895,4.816-10.16,4.816c-4.172,0-7.33-1.213-9.475-3.639
			s-3.217-5.912-3.217-10.459v-24.645h11.848v24.715c0,3.258,1.582,4.887,4.746,4.887c2.719,0,4.652-0.973,5.801-2.918v-26.684
			h11.918v38.039h-11.109L896.989,160.562z"/>
		<path fill="#FFFFFF" d="M936.364,164.675c-0.422-0.773-0.797-1.91-1.125-3.41c-2.18,2.742-5.227,4.113-9.141,4.113
			c-3.586,0-6.633-1.084-9.141-3.252c-2.509-2.168-3.762-4.893-3.762-8.174c0-4.125,1.523-7.242,4.57-9.352
			c3.046-2.109,7.476-3.164,13.289-3.164h3.656v-2.014c0-3.509-1.512-5.264-4.535-5.264c-2.813,0-4.219,1.39-4.219,4.169H914.11
			c0-3.675,1.564-6.66,4.693-8.954s7.119-3.441,11.971-3.441s8.684,1.184,11.496,3.551s4.254,5.613,4.324,9.738v16.84
			c0.047,3.492,0.585,6.164,1.617,8.016v0.598H936.364z M928.946,156.94c1.477,0,2.701-0.316,3.674-0.949
			c0.972-0.633,1.67-1.348,2.092-2.145v-6.082h-3.445c-4.126,0-6.188,1.852-6.188,5.555c0,1.078,0.363,1.951,1.09,2.619
			C926.895,156.606,927.821,156.94,928.946,156.94z"/>
		<path fill="#FFFFFF" d="M988.466,145.972c0,6.234-1.289,11.027-3.867,14.379c-2.579,3.352-6.211,5.027-10.898,5.027
			c-3.867,0-6.984-1.535-9.352-4.605l-0.492,3.902h-10.617v-54h11.848v19.02c2.202-2.508,5.05-3.762,8.543-3.762
			c4.733,0,8.39,1.699,10.969,5.098c2.578,3.398,3.867,8.18,3.867,14.344V145.972z M976.583,145.217c0-3.65-0.487-6.253-1.459-7.81
			c-0.973-1.556-2.467-2.334-4.482-2.334c-2.672,0-4.523,1.018-5.555,3.054v15.092c1.007,2.013,2.883,3.019,5.625,3.019
			c2.789,0,4.558-1.356,5.309-4.071C976.395,150.832,976.583,148.516,976.583,145.217z"/>
		<path fill="#FFFFFF" d="M1006.185,164.675h-11.883v-54h11.883V164.675z"/>
		<path fill="#FFFFFF" d="M1031.884,165.378c-5.836,0-10.56-1.74-14.168-5.221c-3.609-3.48-5.414-8.01-5.414-13.588v-0.984
			c0-3.891,0.721-7.324,2.162-10.301s3.545-5.279,6.311-6.908c2.765-1.629,6.047-2.443,9.844-2.443
			c5.344,0,9.563,1.658,12.656,4.975s4.641,7.939,4.641,13.869v4.605h-23.555c0.422,2.133,1.348,3.809,2.777,5.027
			c1.429,1.219,3.281,1.828,5.555,1.828c3.749,0,6.68-1.313,8.789-3.938l5.414,6.398c-1.477,2.039-3.568,3.662-6.275,4.869
			S1035,165.378,1031.884,165.378z M1030.548,135.073c-3.469,0-5.532,2.297-6.188,6.891h11.953v-0.914
			c0.047-1.898-0.435-3.369-1.441-4.412C1033.864,135.595,1032.423,135.073,1030.548,135.073z"/>
		<path fill="#FFFFFF" d="M1081.806,126.636l0.387,4.465c2.694-3.445,6.315-5.168,10.863-5.168c4.804,0,8.051,1.91,9.738,5.73
			c2.578-3.82,6.305-5.73,11.18-5.73c7.711,0,11.672,4.664,11.883,13.992v24.75h-11.883v-24.012c0-1.945-0.329-3.363-0.984-4.254
			c-0.656-0.891-1.852-1.336-3.586-1.336c-2.344,0-4.091,1.043-5.238,3.129l0.035,0.492v25.98h-11.883v-23.941
			c0-1.992-0.316-3.434-0.949-4.324s-1.841-1.336-3.621-1.336c-2.273,0-4.008,1.043-5.203,3.129v26.473h-11.848v-38.039H1081.806z"
			/>
		<path fill="#FFFFFF" d="M1154.052,164.675c-0.422-0.773-0.797-1.91-1.125-3.41c-2.18,2.742-5.227,4.113-9.141,4.113
			c-3.586,0-6.633-1.084-9.141-3.252c-2.509-2.168-3.762-4.893-3.762-8.174c0-4.125,1.523-7.242,4.57-9.352
			c3.046-2.109,7.476-3.164,13.289-3.164h3.656v-2.014c0-3.509-1.512-5.264-4.535-5.264c-2.813,0-4.219,1.39-4.219,4.169h-11.848
			c0-3.675,1.564-6.66,4.693-8.954s7.119-3.441,11.971-3.441s8.684,1.184,11.496,3.551s4.254,5.613,4.324,9.738v16.84
			c0.047,3.492,0.585,6.164,1.617,8.016v0.598H1154.052z M1146.634,156.94c1.477,0,2.701-0.316,3.674-0.949
			c0.972-0.633,1.67-1.348,2.092-2.145v-6.082h-3.445c-4.126,0-6.188,1.852-6.188,5.555c0,1.078,0.363,1.951,1.09,2.619
			C1144.582,156.606,1145.509,156.94,1146.634,156.94z"/>
		<path fill="#FFFFFF" d="M1184.638,117.179v9.457h6.258v8.227h-6.258v17.402c0,1.43,0.258,2.426,0.773,2.988
			c0.515,0.563,1.534,0.844,3.059,0.844c1.172,0,2.156-0.07,2.953-0.211v8.473c-2.133,0.68-4.359,1.02-6.68,1.02
			c-4.078,0-7.09-0.961-9.035-2.883c-1.946-1.922-2.918-4.84-2.918-8.754v-18.879h-4.852v-8.227h4.852v-9.457H1184.638z"/>
		<path fill="#FFFFFF" d="M1213.958,165.378c-5.836,0-10.56-1.74-14.168-5.221c-3.609-3.48-5.414-8.01-5.414-13.588v-0.984
			c0-3.891,0.721-7.324,2.162-10.301s3.545-5.279,6.311-6.908c2.765-1.629,6.047-2.443,9.844-2.443
			c5.344,0,9.563,1.658,12.656,4.975s4.641,7.939,4.641,13.869v4.605h-23.555c0.422,2.133,1.348,3.809,2.777,5.027
			c1.429,1.219,3.281,1.828,5.555,1.828c3.749,0,6.68-1.313,8.789-3.938l5.414,6.398c-1.477,2.039-3.568,3.662-6.275,4.869
			S1217.074,165.378,1213.958,165.378z M1212.622,135.073c-3.469,0-5.532,2.297-6.188,6.891h11.953v-0.914
			c0.047-1.898-0.435-3.369-1.441-4.412C1215.938,135.595,1214.497,135.073,1212.622,135.073z"/>
		<path fill="#FFFFFF" d="M1257.763,137.358l-3.902-0.281c-3.727,0-6.117,1.172-7.172,3.516v24.082h-11.848v-38.039h11.109
			l0.387,4.887c1.991-3.727,4.769-5.59,8.332-5.59c1.266,0,2.367,0.141,3.305,0.422L1257.763,137.358z"/>
		<path fill="#FFFFFF" d="M1261.946,116.792c0-1.697,0.609-3.089,1.828-4.174c1.218-1.084,2.8-1.627,4.746-1.627
			c1.945,0,3.527,0.543,4.746,1.627c1.218,1.085,1.828,2.477,1.828,4.174c0,1.698-0.61,3.09-1.828,4.174
			c-1.219,1.085-2.801,1.627-4.746,1.627c-1.946,0-3.528-0.542-4.746-1.627C1262.556,119.882,1261.946,118.49,1261.946,116.792z
			 M1274.532,164.675h-11.883v-38.039h11.883V164.675z"/>
		<path fill="#FFFFFF" d="M1303.255,164.675c-0.422-0.773-0.797-1.91-1.125-3.41c-2.18,2.742-5.227,4.113-9.141,4.113
			c-3.586,0-6.633-1.084-9.141-3.252c-2.509-2.168-3.762-4.893-3.762-8.174c0-4.125,1.523-7.242,4.57-9.352
			c3.046-2.109,7.476-3.164,13.289-3.164h3.656v-2.014c0-3.509-1.512-5.264-4.535-5.264c-2.813,0-4.219,1.39-4.219,4.169h-11.848
			c0-3.675,1.564-6.66,4.693-8.954s7.119-3.441,11.971-3.441s8.684,1.184,11.496,3.551s4.254,5.613,4.324,9.738v16.84
			c0.047,3.492,0.585,6.164,1.617,8.016v0.598H1303.255z M1295.837,156.94c1.477,0,2.701-0.316,3.674-0.949
			c0.972-0.633,1.67-1.348,2.092-2.145v-6.082h-3.445c-4.126,0-6.188,1.852-6.188,5.555c0,1.078,0.363,1.951,1.09,2.619
			C1293.785,156.606,1294.712,156.94,1295.837,156.94z"/>
		<path fill="#FFFFFF" d="M1332.54,164.675h-11.883v-54h11.883V164.675z"/>
		<path fill="#FFFFFF" d="M1359.751,153.987c0-1.008-0.527-1.816-1.582-2.426s-3.059-1.242-6.012-1.898s-5.392-1.518-7.313-2.584
			c-1.922-1.066-3.388-2.361-4.395-3.885c-1.008-1.523-1.512-3.27-1.512-5.238c0-3.492,1.441-6.369,4.324-8.631
			s6.656-3.393,11.32-3.393c5.015,0,9.047,1.137,12.094,3.41c3.046,2.273,4.57,5.262,4.57,8.965h-11.883
			c0-3.047-1.605-4.57-4.816-4.57c-1.243,0-2.285,0.346-3.129,1.037s-1.266,1.553-1.266,2.584c0,1.055,0.515,1.91,1.547,2.566
			c1.031,0.656,2.677,1.195,4.939,1.617c2.262,0.422,4.248,0.926,5.959,1.512c5.718,1.969,8.578,5.496,8.578,10.582
			c0,3.469-1.542,6.293-4.623,8.473c-3.082,2.18-7.072,3.27-11.971,3.27c-3.258,0-6.165-0.586-8.719-1.758
			c-2.555-1.172-4.548-2.766-5.977-4.781c-1.43-2.016-2.145-4.137-2.145-6.363h11.074c0.047,1.758,0.633,3.041,1.758,3.85
			s2.566,1.213,4.324,1.213c1.617,0,2.83-0.328,3.639-0.984S1359.751,155.042,1359.751,153.987z"/>
		<path fill="#FFFFFF" d="M1384.079,125.124c1.875,0,3.433,0.557,4.676,1.67c1.242,1.113,1.863,2.537,1.863,4.271
			s-0.621,3.158-1.863,4.271c-1.243,1.113-2.801,1.67-4.676,1.67c-1.898,0-3.463-0.563-4.693-1.688s-1.846-2.543-1.846-4.254
			s0.615-3.129,1.846-4.254S1382.181,125.124,1384.079,125.124z M1384.079,153.179c1.875,0,3.433,0.557,4.676,1.67
			c1.242,1.113,1.863,2.537,1.863,4.271s-0.621,3.158-1.863,4.271c-1.243,1.113-2.801,1.67-4.676,1.67
			c-1.898,0-3.463-0.563-4.693-1.688s-1.846-2.543-1.846-4.254s0.615-3.129,1.846-4.254S1382.181,153.179,1384.079,153.179z"/>
	</g>
	<g>
		<path fill="#FFFFFF" d="M76.268,275.989H58.553v-56.396l-17.401,5.084v-13.417l33.492-11.583h1.625V275.989z"/>
		<path fill="#FFFFFF" d="M105.776,296.535l-8.91-4.193l1.782-3.564c2.445-4.542,3.721-8.875,3.826-12.998v-13.103h14.151
			l-0.053,11.373c-0.035,4.018-1.066,8.106-3.092,12.265C111.454,290.473,108.886,293.879,105.776,296.535z"/>
		<path fill="#FFFFFF" d="M181.197,244.804c0,10.309-2.315,18.258-6.945,23.848c-4.63,5.591-11.155,8.386-19.576,8.386
			c-8.491,0-15.061-2.812-19.707-8.438c-4.647-5.626-6.971-13.558-6.971-23.796v-13.941c0-10.307,2.314-18.257,6.944-23.848
			c4.63-5.59,11.172-8.386,19.628-8.386c8.456,0,15.007,2.813,19.655,8.438c4.646,5.626,6.971,13.575,6.971,23.848V244.804z
			 M163.534,228.608c0-5.485-0.716-9.582-2.149-12.29c-1.433-2.708-3.704-4.063-6.813-4.063c-3.04,0-5.25,1.258-6.63,3.774
			c-1.381,2.516-2.123,6.324-2.228,11.426v19.497c0,5.695,0.716,9.862,2.149,12.5c1.432,2.639,3.703,3.957,6.813,3.957
			c3.004,0,5.223-1.284,6.656-3.853c1.432-2.567,2.166-6.595,2.201-12.08V228.608z"/>
		<path fill="#FFFFFF" d="M243.358,244.804c0,10.309-2.315,18.258-6.945,23.848c-4.63,5.591-11.155,8.386-19.576,8.386
			c-8.491,0-15.061-2.812-19.707-8.438c-4.647-5.626-6.971-13.558-6.971-23.796v-13.941c0-10.307,2.314-18.257,6.944-23.848
			c4.63-5.59,11.172-8.386,19.628-8.386c8.456,0,15.007,2.813,19.655,8.438c4.646,5.626,6.971,13.575,6.971,23.848V244.804z
			 M225.695,228.608c0-5.485-0.716-9.582-2.149-12.29c-1.433-2.708-3.704-4.063-6.813-4.063c-3.04,0-5.25,1.258-6.63,3.774
			c-1.381,2.516-2.123,6.324-2.228,11.426v19.497c0,5.695,0.716,9.862,2.149,12.5c1.432,2.639,3.703,3.957,6.813,3.957
			c3.004,0,5.223-1.284,6.656-3.853c1.432-2.567,2.166-6.595,2.201-12.08V228.608z"/>
		<path fill="#FFFFFF" d="M305.519,244.804c0,10.309-2.315,18.258-6.945,23.848c-4.63,5.591-11.155,8.386-19.576,8.386
			c-8.491,0-15.061-2.812-19.707-8.438c-4.647-5.626-6.971-13.558-6.971-23.796v-13.941c0-10.307,2.314-18.257,6.944-23.848
			c4.63-5.59,11.172-8.386,19.628-8.386c8.456,0,15.007,2.813,19.655,8.438c4.646,5.626,6.971,13.575,6.971,23.848V244.804z
			 M287.855,228.608c0-5.485-0.716-9.582-2.149-12.29c-1.433-2.708-3.704-4.063-6.813-4.063c-3.04,0-5.25,1.258-6.63,3.774
			c-1.381,2.516-2.123,6.324-2.228,11.426v19.497c0,5.695,0.716,9.862,2.149,12.5c1.432,2.639,3.703,3.957,6.813,3.957
			c3.004,0,5.223-1.284,6.656-3.853c1.432-2.567,2.166-6.595,2.201-12.08V228.608z"/>
		<path fill="#FFFFFF" d="M321.189,296.535l-8.91-4.193l1.782-3.564c2.445-4.542,3.721-8.875,3.826-12.998v-13.103h14.151
			l-0.053,11.373c-0.035,4.018-1.066,8.106-3.092,12.265C326.867,290.473,324.299,293.879,321.189,296.535z"/>
		<path fill="#FFFFFF" d="M396.611,244.804c0,10.309-2.315,18.258-6.945,23.848c-4.63,5.591-11.155,8.386-19.576,8.386
			c-8.491,0-15.061-2.812-19.707-8.438c-4.647-5.626-6.971-13.558-6.971-23.796v-13.941c0-10.307,2.314-18.257,6.944-23.848
			c4.63-5.59,11.172-8.386,19.628-8.386c8.456,0,15.007,2.813,19.655,8.438c4.646,5.626,6.971,13.575,6.971,23.848V244.804z
			 M378.948,228.608c0-5.485-0.716-9.582-2.149-12.29c-1.433-2.708-3.704-4.063-6.813-4.063c-3.04,0-5.25,1.258-6.63,3.774
			c-1.381,2.516-2.123,6.324-2.228,11.426v19.497c0,5.695,0.716,9.862,2.149,12.5c1.432,2.639,3.703,3.957,6.813,3.957
			c3.004,0,5.223-1.284,6.656-3.853c1.432-2.567,2.166-6.595,2.201-12.08V228.608z"/>
		<path fill="#FFFFFF" d="M458.771,244.804c0,10.309-2.315,18.258-6.945,23.848c-4.63,5.591-11.155,8.386-19.576,8.386
			c-8.491,0-15.061-2.812-19.707-8.438c-4.647-5.626-6.971-13.558-6.971-23.796v-13.941c0-10.307,2.314-18.257,6.944-23.848
			c4.63-5.59,11.172-8.386,19.628-8.386c8.456,0,15.007,2.813,19.655,8.438c4.646,5.626,6.971,13.575,6.971,23.848V244.804z
			 M441.108,228.608c0-5.485-0.716-9.582-2.149-12.29c-1.433-2.708-3.704-4.063-6.813-4.063c-3.04,0-5.25,1.258-6.63,3.774
			c-1.381,2.516-2.123,6.324-2.228,11.426v19.497c0,5.695,0.716,9.862,2.149,12.5c1.432,2.639,3.703,3.957,6.813,3.957
			c3.004,0,5.223-1.284,6.656-3.853c1.432-2.567,2.166-6.595,2.201-12.08V228.608z"/>
		<path fill="#FFFFFF" d="M520.932,244.804c0,10.309-2.315,18.258-6.945,23.848c-4.63,5.591-11.155,8.386-19.576,8.386
			c-8.491,0-15.061-2.812-19.707-8.438c-4.647-5.626-6.971-13.558-6.971-23.796v-13.941c0-10.307,2.314-18.257,6.944-23.848
			c4.63-5.59,11.172-8.386,19.628-8.386c8.456,0,15.007,2.813,19.655,8.438c4.646,5.626,6.971,13.575,6.971,23.848V244.804z
			 M503.269,228.608c0-5.485-0.716-9.582-2.149-12.29c-1.433-2.708-3.704-4.063-6.813-4.063c-3.04,0-5.25,1.258-6.63,3.774
			c-1.381,2.516-2.123,6.324-2.228,11.426v19.497c0,5.695,0.716,9.862,2.149,12.5c1.432,2.639,3.703,3.957,6.813,3.957
			c3.004,0,5.223-1.284,6.656-3.853c1.432-2.567,2.166-6.595,2.201-12.08V228.608z"/>
		<path fill="#FFFFFF" d="M581.101,263.41c2.48,0,4.402-0.672,5.765-2.018c1.363-1.345,2.026-3.224,1.992-5.635h16.562
			c0,6.221-2.228,11.321-6.683,15.305c-4.455,3.983-10.194,5.975-17.217,5.975c-8.247,0-14.746-2.585-19.497-7.757
			c-4.752-5.171-7.128-12.334-7.128-21.488v-0.734c0-5.729,1.056-10.788,3.171-15.173c2.114-4.385,5.163-7.757,9.146-10.116
			c3.983-2.358,8.7-3.537,14.151-3.537c7.372,0,13.225,2.044,17.558,6.132c4.332,4.088,6.499,9.627,6.499,16.614h-16.562
			c0-2.935-0.717-5.188-2.149-6.761c-1.433-1.572-3.354-2.358-5.765-2.358c-4.578,0-7.251,2.918-8.019,8.753
			c-0.245,1.853-0.367,4.402-0.367,7.652c0,5.695,0.682,9.644,2.044,11.845C575.964,262.31,578.13,263.41,581.101,263.41z"/>
		<path fill="#FFFFFF" d="M640.327,277.037c-8.7,0-15.742-2.594-21.122-7.783c-5.381-5.188-8.071-11.94-8.071-20.257v-1.468
			c0-5.8,1.074-10.919,3.223-15.356s5.285-7.87,9.408-10.299c4.123-2.429,9.015-3.643,14.675-3.643
			c7.966,0,14.256,2.472,18.868,7.416s6.918,11.837,6.918,20.677v6.866H629.11c0.629,3.18,2.009,5.678,4.141,7.494
			c2.131,1.817,4.892,2.726,8.281,2.726c5.59,0,9.958-1.956,13.103-5.87l8.071,9.539c-2.201,3.04-5.32,5.46-9.355,7.259
			C649.315,276.138,644.973,277.037,640.327,277.037z M638.335,231.858c-5.171,0-8.247,3.425-9.225,10.272h17.82v-1.362
			c0.069-2.83-0.647-5.022-2.149-6.578C643.279,232.637,641.13,231.858,638.335,231.858z"/>
		<path fill="#FFFFFF" d="M689.961,275.989h-17.715v-80.505h17.715V275.989z"/>
		<path fill="#FFFFFF" d="M719.469,275.989h-17.715v-80.505h17.715V275.989z"/>
		<path fill="#FFFFFF" d="M809.722,248.054c0,8.805-1.983,15.837-5.948,21.096c-3.966,5.26-9.321,7.888-16.064,7.888
			c-5.207,0-9.487-1.903-12.841-5.713v26.469h-17.663v-78.514h16.51l0.524,5.241c3.389-4.192,7.844-6.289,13.365-6.289
			c6.988,0,12.422,2.577,16.3,7.73c3.879,5.154,5.817,12.238,5.817,21.253V248.054z M792.06,246.953
			c0-10.063-2.935-15.095-8.805-15.095c-4.193,0-6.989,1.503-8.386,4.508v22.327c1.537,3.145,4.367,4.717,8.491,4.717
			c5.625,0,8.525-4.856,8.7-14.57V246.953z"/>
		<path fill="#FFFFFF" d="M834.775,225.359c3.773-4.752,8.596-7.128,14.466-7.128c6.254,0,10.972,1.853,14.151,5.556
			c3.179,3.704,4.804,9.172,4.874,16.404v35.798h-17.715v-35.378c0-3.005-0.612-5.215-1.835-6.63
			c-1.224-1.416-3.302-2.123-6.236-2.123c-3.635,0-6.203,1.153-7.705,3.459v40.672h-17.663v-80.505h17.663V225.359z"/>
		<path fill="#FFFFFF" d="M875.866,247.11c0-5.66,1.101-10.7,3.302-15.121c2.201-4.42,5.363-7.817,9.486-10.194
			c4.123-2.375,8.963-3.563,14.519-3.563c8.49,0,15.182,2.629,20.073,7.888s7.338,12.413,7.338,21.463v0.629
			c0,8.841-2.455,15.854-7.363,21.043c-4.91,5.189-11.558,7.783-19.943,7.783c-8.071,0-14.553-2.419-19.444-7.259
			c-4.893-4.839-7.53-11.399-7.914-19.681L875.866,247.11z M893.529,248.211c0,5.241,0.82,9.085,2.463,11.53
			c1.642,2.446,4.07,3.669,7.285,3.669c6.29,0,9.504-4.839,9.644-14.518v-1.782c0-10.168-3.249-15.252-9.748-15.252
			c-5.905,0-9.103,4.386-9.592,13.155L893.529,248.211z"/>
		<path fill="#FFFFFF" d="M954.59,219.279l0.576,6.656c3.913-5.136,9.312-7.704,16.195-7.704c5.904,0,10.316,1.765,13.234,5.293
			c2.917,3.53,4.429,8.841,4.533,15.934v36.531h-17.715v-35.798c0-2.864-0.577-4.97-1.729-6.315c-1.153-1.345-3.25-2.018-6.29-2.018
			c-3.459,0-6.027,1.362-7.704,4.088v40.043h-17.663v-56.71H954.59z"/>
		<path fill="#FFFFFF" d="M1026.342,277.037c-8.7,0-15.741-2.594-21.122-7.783c-5.381-5.188-8.071-11.94-8.071-20.257v-1.468
			c0-5.8,1.074-10.919,3.224-15.356c2.148-4.438,5.284-7.87,9.407-10.299s9.016-3.643,14.676-3.643
			c7.967,0,14.256,2.472,18.868,7.416s6.919,11.837,6.919,20.677v6.866h-35.116c0.629,3.18,2.009,5.678,4.141,7.494
			c2.131,1.817,4.891,2.726,8.28,2.726c5.591,0,9.959-1.956,13.104-5.87l8.071,9.539c-2.201,3.04-5.319,5.46-9.355,7.259
			C1035.33,276.138,1030.988,277.037,1026.342,277.037z M1024.351,231.858c-5.172,0-8.247,3.425-9.225,10.272h17.819v-1.362
			c0.07-2.83-0.646-5.022-2.148-6.578C1029.294,232.637,1027.146,231.858,1024.351,231.858z"/>
		<path fill="#FFFFFF" d="M1087.035,260.056c0-1.502-0.786-2.707-2.358-3.616c-1.572-0.908-4.561-1.852-8.963-2.83
			c-4.402-0.978-8.037-2.262-10.901-3.853c-2.865-1.59-5.05-3.52-6.552-5.791c-1.503-2.271-2.254-4.875-2.254-7.81
			c0-5.206,2.149-9.495,6.447-12.867s9.923-5.058,16.876-5.058c7.478,0,13.487,1.695,18.03,5.084
			c4.542,3.39,6.813,7.845,6.813,13.365h-17.716c0-4.542-2.394-6.814-7.18-6.814c-1.853,0-3.407,0.517-4.665,1.547
			c-1.258,1.031-1.887,2.314-1.887,3.852c0,1.573,0.769,2.849,2.306,3.826c1.537,0.979,3.992,1.782,7.364,2.411
			s6.333,1.381,8.884,2.254c8.525,2.936,12.789,8.194,12.789,15.776c0,5.171-2.299,9.382-6.893,12.631
			c-4.595,3.25-10.544,4.874-17.847,4.874c-4.856,0-9.189-0.873-12.998-2.62s-6.779-4.123-8.91-7.128
			c-2.132-3.005-3.197-6.167-3.197-9.486h16.51c0.07,2.62,0.944,4.533,2.621,5.738c1.677,1.206,3.826,1.809,6.446,1.809
			c2.411,0,4.22-0.489,5.425-1.468C1086.433,262.904,1087.035,261.628,1087.035,260.056z"/>
		<path fill="#FFFFFF" d="M1163.032,263.41c2.48,0,4.402-0.672,5.766-2.018c1.362-1.345,2.025-3.224,1.991-5.635h16.563
			c0,6.221-2.228,11.321-6.683,15.305s-10.194,5.975-17.218,5.975c-8.246,0-14.746-2.585-19.497-7.757
			c-4.752-5.171-7.128-12.334-7.128-21.488v-0.734c0-5.729,1.057-10.788,3.171-15.173c2.113-4.385,5.162-7.757,9.146-10.116
			c3.983-2.358,8.7-3.537,14.151-3.537c7.372,0,13.226,2.044,17.559,6.132c4.332,4.088,6.499,9.627,6.499,16.614h-16.563
			c0-2.935-0.717-5.188-2.149-6.761s-3.354-2.358-5.765-2.358c-4.578,0-7.251,2.918-8.02,8.753
			c-0.244,1.853-0.366,4.402-0.366,7.652c0,5.695,0.681,9.644,2.044,11.845C1157.896,262.31,1160.062,263.41,1163.032,263.41z"/>
		<path fill="#FFFFFF" d="M1226.766,275.989c-0.629-1.153-1.188-2.848-1.678-5.084c-3.249,4.088-7.792,6.132-13.627,6.132
			c-5.346,0-9.889-1.615-13.627-4.848c-3.739-3.231-5.608-7.294-5.608-12.186c0-6.149,2.271-10.797,6.813-13.942
			c4.542-3.145,11.146-4.717,19.812-4.717h5.451v-3.002c0-5.231-2.254-7.848-6.761-7.848c-4.193,0-6.29,2.072-6.29,6.216h-17.662
			c0-5.479,2.332-9.93,6.997-13.349c4.664-3.42,10.613-5.131,17.846-5.131c7.233,0,12.946,1.765,17.139,5.293
			c4.193,3.53,6.342,8.369,6.447,14.519v25.105c0.069,5.207,0.873,9.19,2.41,11.95v0.891H1226.766z M1215.706,264.459
			c2.201,0,4.027-0.472,5.478-1.415c1.449-0.944,2.489-2.01,3.118-3.197v-9.067h-5.137c-6.149,0-9.224,2.761-9.224,8.281
			c0,1.607,0.541,2.908,1.624,3.904S1214.029,264.459,1215.706,264.459z"/>
		<path fill="#FFFFFF" d="M1268.014,219.279l0.576,6.656c3.913-5.136,9.312-7.704,16.195-7.704c5.904,0,10.316,1.765,13.234,5.293
			c2.917,3.53,4.429,8.841,4.533,15.934v36.531h-17.715v-35.798c0-2.864-0.577-4.97-1.729-6.315c-1.153-1.345-3.25-2.018-6.29-2.018
			c-3.459,0-6.027,1.362-7.704,4.088v40.043h-17.663v-56.71H1268.014z"/>
		<path fill="#FFFFFF" d="M1361.726,251.251l9.435-31.972h18.92l-23.113,66.196l-0.996,2.411c-3.284,7.338-9.085,11.007-17.4,11.007
			c-2.307,0-4.735-0.349-7.285-1.044v-12.583h2.306c2.48,0,4.377-0.359,5.687-1.075c1.311-0.718,2.28-2.003,2.909-3.856l1.415-3.775
			l-19.707-57.28h18.868L1361.726,251.251z"/>
		<path fill="#FFFFFF" d="M1394.536,204.604c0-2.531,0.908-4.605,2.725-6.223c1.816-1.616,4.176-2.426,7.076-2.426
			c2.899,0,5.259,0.81,7.075,2.426c1.816,1.617,2.726,3.691,2.726,6.223s-0.909,4.605-2.726,6.222
			c-1.816,1.617-4.176,2.426-7.075,2.426c-2.9,0-5.26-0.809-7.076-2.426C1395.444,209.21,1394.536,207.136,1394.536,204.604z
			 M1413.299,275.989h-17.715v-56.71h17.715V275.989z"/>
		<path fill="#FFFFFF" d="M1451.612,277.037c-8.7,0-15.741-2.594-21.122-7.783c-5.381-5.188-8.071-11.94-8.071-20.257v-1.468
			c0-5.8,1.074-10.919,3.224-15.356c2.148-4.438,5.284-7.87,9.407-10.299s9.016-3.643,14.676-3.643
			c7.967,0,14.256,2.472,18.868,7.416s6.919,11.837,6.919,20.677v6.866h-35.116c0.629,3.18,2.009,5.678,4.141,7.494
			c2.131,1.817,4.891,2.726,8.28,2.726c5.591,0,9.959-1.956,13.104-5.87l8.071,9.539c-2.201,3.04-5.319,5.46-9.355,7.259
			C1460.601,276.138,1456.259,277.037,1451.612,277.037z M1449.621,231.858c-5.172,0-8.247,3.425-9.225,10.272h17.819v-1.362
			c0.07-2.83-0.646-5.022-2.148-6.578C1454.564,232.637,1452.416,231.858,1449.621,231.858z"/>
		<path fill="#FFFFFF" d="M1501.246,275.989h-17.715v-80.505h17.715V275.989z"/>
		<path fill="#FFFFFF" d="M1509.895,247.215c0-8.979,1.939-16.055,5.817-21.227c3.879-5.171,9.294-7.757,16.248-7.757
			c5.065,0,9.329,1.991,12.788,5.975v-28.722h17.716v80.505h-15.881l-0.892-6.08c-3.634,4.753-8.246,7.128-13.836,7.128
			c-6.744,0-12.091-2.585-16.038-7.757C1511.868,264.109,1509.895,256.754,1509.895,247.215z M1527.558,248.315
			c0,10.063,2.935,15.095,8.805,15.095c3.913,0,6.709-1.642,8.386-4.927V236.89c-1.607-3.354-4.368-5.031-8.281-5.031
			c-5.45,0-8.403,4.402-8.857,13.208L1527.558,248.315z"/>
	</g>
	<g>
		<path fill="#FFFFFF" d="M411.449,406.77h11.646c9.229,0,13.843-4.516,13.843-13.549c0-3.516-1.099-6.385-3.296-8.605
			c-2.197-2.223-5.299-3.334-9.302-3.334c-3.272,0-6.116,0.953-8.533,2.857s-3.625,4.273-3.625,7.104h-24.683
			c0-5.613,1.562-10.619,4.688-15.014c3.124-4.395,7.458-7.824,13-10.291c5.541-2.465,11.633-3.699,18.274-3.699
			c11.865,0,21.191,2.711,27.979,8.131c6.786,5.42,10.181,12.865,10.181,22.338c0,4.59-1.404,8.924-4.211,13.002
			c-2.809,4.076-6.897,7.385-12.268,9.924c5.664,2.051,10.107,5.164,13.33,9.338c3.223,4.176,4.834,9.338,4.834,15.49
			c0,9.521-3.662,17.139-10.986,22.852s-16.944,8.57-28.857,8.57c-6.983,0-13.465-1.332-19.446-3.992
			c-5.982-2.66-10.51-6.348-13.586-11.059c-3.076-4.713-4.614-10.072-4.614-16.078h24.829c0,3.271,1.318,6.105,3.955,8.496
			c2.637,2.393,5.883,3.59,9.741,3.59c4.345,0,7.812-1.209,10.4-3.625c2.587-2.418,3.882-5.506,3.882-9.266
			c0-5.371-1.344-9.18-4.028-11.426c-2.686-2.246-6.397-3.369-11.133-3.369h-12.012V406.77z"/>
		<path fill="#FFFFFF" d="M477.221,418.326l6.519-54.549h62.329v19.043h-42.261l-2.417,21.33c1.758-1.029,4.065-1.936,6.921-2.721
			s5.651-1.178,8.386-1.178c10.595,0,18.737,3.137,24.426,9.412c5.688,6.273,8.533,15.076,8.533,26.402
			c0,6.838-1.527,13.025-4.578,18.568c-3.052,5.541-7.337,9.803-12.854,12.779c-5.519,2.979-12.037,4.469-19.556,4.469
			c-6.69,0-12.964-1.379-18.823-4.135s-10.45-6.537-13.77-11.344c-3.321-4.805-4.957-10.234-4.907-16.283h24.756
			c0.244,3.898,1.489,6.992,3.735,9.283c2.245,2.291,5.2,3.436,8.862,3.436c8.3,0,12.451-6.141,12.451-18.42
			c0-11.352-5.079-17.029-15.234-17.029c-5.762,0-10.06,1.852-12.891,5.555L477.221,418.326z"/>
		<path fill="#FFFFFF" d="M571.703,499.129l-12.451-5.859l2.49-4.98c3.417-6.348,5.2-12.404,5.347-18.164v-18.311h19.775
			l-0.073,15.893c-0.049,5.615-1.49,11.328-4.321,17.139C579.637,490.656,576.048,495.418,571.703,499.129z"/>
		<path fill="#FFFFFF" d="M677.465,470.418h-74.414v-16.113l34.277-36.035c8.447-9.619,12.671-17.26,12.671-22.926
			c0-4.588-1.001-8.08-3.003-10.473c-2.003-2.393-4.907-3.59-8.716-3.59c-3.761,0-6.812,1.6-9.155,4.799
			c-2.344,3.197-3.516,7.189-3.516,11.975h-24.756c0-6.543,1.635-12.586,4.907-18.127c3.271-5.543,7.812-9.877,13.623-13.002
			c5.81-3.123,12.305-4.688,19.482-4.688c11.523,0,20.398,2.662,26.624,7.984s9.338,12.963,9.338,22.924
			c0,4.201-0.782,8.289-2.344,12.27c-1.563,3.979-3.992,8.154-7.288,12.523c-3.296,4.371-8.606,10.217-15.93,17.541l-13.77,15.895
			h41.968V470.418z"/>
		<path fill="#FFFFFF" d="M764.037,376.961l-39.844,93.457h-26.074l39.917-87.598h-50.83v-19.043h76.831V376.961z"/>
		<path fill="#FFFFFF" d="M841.967,428.742h10.84v19.043h-10.84v22.633h-24.683v-22.633h-41.235l-1.465-15.088l42.7-68.701v-0.219
			h24.683V428.742z M798.095,428.742h19.189V395.93l-1.538,2.49L798.095,428.742z"/>
	</g>
	<g>
		<path fill="#FFFFFF" d="M567.573,709.393l-39.844,93.457h-26.074l39.917-87.598h-50.83v-19.043h76.831V709.393z"/>
		<path fill="#FFFFFF" d="M654.438,709.393l-39.844,93.457H588.52l39.917-87.598h-50.83v-19.043h76.831V709.393z"/>
		<path fill="#FFFFFF" d="M741.596,802.85h-74.414v-16.113l34.277-36.035c8.447-9.619,12.671-17.26,12.671-22.926
			c0-4.588-1.001-8.08-3.003-10.473c-2.003-2.393-4.907-3.59-8.716-3.59c-3.761,0-6.812,1.6-9.155,4.799
			c-2.344,3.197-3.516,7.189-3.516,11.975h-24.756c0-6.543,1.635-12.586,4.907-18.127c3.271-5.543,7.812-9.877,13.623-13.002
			c5.81-3.123,12.305-4.688,19.482-4.688c11.523,0,20.398,2.662,26.624,7.984s9.338,12.963,9.338,22.924
			c0,4.201-0.782,8.289-2.344,12.27c-1.563,3.979-3.992,8.154-7.288,12.523c-3.296,4.371-8.606,10.217-15.93,17.541l-13.77,15.895
			h41.968V802.85z"/>
	</g>
	<g>
		<path fill="#FFFFFF" d="M1072.488,376.961l-39.844,93.457h-26.074l39.917-87.598h-50.83v-19.043h76.831V376.961z"/>
		<path fill="#FFFFFF" d="M1086.697,418.326l6.519-54.549h62.329v19.043h-42.261l-2.417,21.33c1.758-1.029,4.064-1.936,6.922-2.721
			c2.855-0.785,5.65-1.178,8.386-1.178c10.595,0,18.737,3.137,24.427,9.412c5.688,6.273,8.532,15.076,8.532,26.402
			c0,6.838-1.526,13.025-4.577,18.568c-3.053,5.541-7.338,9.803-12.854,12.779c-5.519,2.979-12.037,4.469-19.556,4.469
			c-6.69,0-12.964-1.379-18.823-4.135s-10.45-6.537-13.77-11.344c-3.321-4.805-4.956-10.234-4.907-16.283h24.756
			c0.244,3.898,1.488,6.992,3.735,9.283c2.245,2.291,5.2,3.436,8.862,3.436c8.301,0,12.451-6.141,12.451-18.42
			c0-11.352-5.079-17.029-15.234-17.029c-5.762,0-10.06,1.852-12.891,5.555L1086.697,418.326z"/>
	</g>
	<g>
		<path fill="#FFFFFF" d="M1019.153,739.201h11.646c9.229,0,13.843-4.516,13.843-13.549c0-3.516-1.099-6.385-3.296-8.605
			c-2.197-2.223-5.299-3.334-9.302-3.334c-3.271,0-6.116,0.953-8.532,2.857c-2.418,1.904-3.626,4.273-3.626,7.104h-24.683
			c0-5.613,1.563-10.619,4.688-15.014c3.124-4.395,7.458-7.824,13-10.291c5.542-2.465,11.634-3.699,18.274-3.699
			c11.865,0,21.191,2.711,27.979,8.131c6.786,5.42,10.181,12.865,10.181,22.338c0,4.59-1.404,8.924-4.211,13.002
			c-2.809,4.076-6.897,7.385-12.269,9.924c5.664,2.051,10.107,5.164,13.33,9.338c3.223,4.176,4.834,9.338,4.834,15.49
			c0,9.521-3.662,17.139-10.986,22.852s-16.944,8.57-28.857,8.57c-6.983,0-13.465-1.332-19.446-3.992s-10.51-6.348-13.586-11.059
			c-3.076-4.713-4.614-10.072-4.614-16.078h24.829c0,3.271,1.318,6.105,3.955,8.496c2.637,2.393,5.884,3.59,9.741,3.59
			c4.346,0,7.812-1.209,10.4-3.625c2.588-2.418,3.882-5.506,3.882-9.266c0-5.371-1.344-9.18-4.028-11.426
			c-2.686-2.246-6.397-3.369-11.133-3.369h-12.012V739.201z"/>
		<path fill="#FFFFFF" d="M1106.019,739.201h11.646c9.229,0,13.843-4.516,13.843-13.549c0-3.516-1.099-6.385-3.296-8.605
			c-2.197-2.223-5.299-3.334-9.302-3.334c-3.271,0-6.116,0.953-8.532,2.857c-2.418,1.904-3.626,4.273-3.626,7.104h-24.683
			c0-5.613,1.563-10.619,4.688-15.014c3.124-4.395,7.458-7.824,13-10.291c5.542-2.465,11.634-3.699,18.274-3.699
			c11.865,0,21.191,2.711,27.979,8.131c6.786,5.42,10.181,12.865,10.181,22.338c0,4.59-1.404,8.924-4.211,13.002
			c-2.809,4.076-6.897,7.385-12.269,9.924c5.664,2.051,10.107,5.164,13.33,9.338c3.223,4.176,4.834,9.338,4.834,15.49
			c0,9.521-3.662,17.139-10.986,22.852s-16.944,8.57-28.857,8.57c-6.983,0-13.465-1.332-19.446-3.992s-10.51-6.348-13.586-11.059
			c-3.076-4.713-4.614-10.072-4.614-16.078h24.829c0,3.271,1.318,6.105,3.955,8.496c2.637,2.393,5.884,3.59,9.741,3.59
			c4.346,0,7.812-1.209,10.4-3.625c2.588-2.418,3.882-5.506,3.882-9.266c0-5.371-1.344-9.18-4.028-11.426
			c-2.686-2.246-6.397-3.369-11.133-3.369h-12.012V739.201z"/>
	</g>
	<g>
		<g>
			<path fill="#FFFFFF" d="M565.656,526.088c0,3.938-0.887,7.082-2.66,9.434s-4.168,3.527-7.184,3.527
				c-2.328,0-4.242-0.852-5.742-2.555v11.836h-7.898v-35.109h7.383l0.234,2.344c1.516-1.875,3.508-2.813,5.977-2.813
				c3.125,0,5.555,1.152,7.289,3.457s2.602,5.473,2.602,9.504V526.088z M557.758,525.596c0-4.5-1.313-6.75-3.938-6.75
				c-1.875,0-3.125,0.672-3.75,2.016v9.984c0.688,1.406,1.953,2.109,3.797,2.109c2.516,0,3.813-2.172,3.891-6.516V525.596z"/>
			<path fill="#FFFFFF" d="M568.141,525.666c0-2.531,0.492-4.785,1.477-6.762s2.398-3.496,4.242-4.559s4.008-1.594,6.492-1.594
				c3.797,0,6.789,1.176,8.977,3.527s3.281,5.551,3.281,9.598v0.281c0,3.953-1.098,7.09-3.293,9.41s-5.168,3.48-8.918,3.48
				c-3.609,0-6.508-1.082-8.695-3.246s-3.367-5.098-3.539-8.801L568.141,525.666z M576.039,526.158c0,2.344,0.367,4.063,1.102,5.156
				s1.82,1.641,3.258,1.641c2.813,0,4.25-2.164,4.313-6.492v-0.797c0-4.547-1.453-6.82-4.359-6.82c-2.641,0-4.07,1.961-4.289,5.883
				L576.039,526.158z"/>
			<path fill="#FFFFFF" d="M611.195,535.838c-1.672,2.141-3.93,3.211-6.773,3.211c-2.781,0-4.887-0.809-6.316-2.426
				s-2.145-3.941-2.145-6.973v-16.43h7.898v16.477c0,2.172,1.055,3.258,3.164,3.258c1.813,0,3.102-0.648,3.867-1.945v-17.789h7.945
				v25.359h-7.406L611.195,535.838z"/>
			<path fill="#FFFFFF" d="M630.414,513.221l0.258,2.977c1.75-2.297,4.164-3.445,7.242-3.445c2.641,0,4.613,0.789,5.918,2.367
				s1.98,3.953,2.027,7.125v16.336h-7.922v-16.008c0-1.281-0.258-2.223-0.773-2.824s-1.453-0.902-2.813-0.902
				c-1.547,0-2.695,0.609-3.445,1.828v17.906h-7.898v-25.359H630.414z"/>
			<path fill="#FFFFFF" d="M649.234,525.713c0-4.016,0.867-7.18,2.602-9.492s4.156-3.469,7.266-3.469
				c2.266,0,4.172,0.891,5.719,2.672V502.58h7.922v36h-7.102l-0.398-2.719c-1.625,2.125-3.688,3.188-6.188,3.188
				c-3.016,0-5.406-1.156-7.172-3.469S649.234,529.979,649.234,525.713z M657.133,526.205c0,4.5,1.313,6.75,3.938,6.75
				c1.75,0,3-0.734,3.75-2.203v-9.656c-0.719-1.5-1.953-2.25-3.703-2.25c-2.438,0-3.758,1.969-3.961,5.906L657.133,526.205z"/>
			<path fill="#FFFFFF" d="M690.508,531.455c0-0.672-0.352-1.211-1.055-1.617s-2.039-0.828-4.008-1.266s-3.594-1.012-4.875-1.723
				s-2.258-1.574-2.93-2.59s-1.008-2.18-1.008-3.492c0-2.328,0.961-4.246,2.883-5.754s4.438-2.262,7.547-2.262
				c3.344,0,6.031,0.758,8.063,2.273s3.047,3.508,3.047,5.977h-7.922c0-2.031-1.07-3.047-3.211-3.047
				c-0.828,0-1.523,0.23-2.086,0.691s-0.844,1.035-0.844,1.723c0,0.703,0.344,1.273,1.031,1.711s1.785,0.797,3.293,1.078
				s2.832,0.617,3.973,1.008c3.813,1.313,5.719,3.664,5.719,7.055c0,2.313-1.027,4.195-3.082,5.648s-4.715,2.18-7.98,2.18
				c-2.172,0-4.109-0.391-5.813-1.172s-3.031-1.844-3.984-3.188s-1.43-2.758-1.43-4.242h7.383c0.031,1.172,0.422,2.027,1.172,2.566
				s1.711,0.809,2.883,0.809c1.078,0,1.887-0.219,2.426-0.656S690.508,532.158,690.508,531.455z"/>
		</g>
		<g>
			<path fill="#FFFFFF" d="M557.559,573.496c1.109,0,1.969-0.301,2.578-0.902s0.906-1.441,0.891-2.52h7.406
				c0,2.781-0.996,5.063-2.988,6.844s-4.559,2.672-7.699,2.672c-3.688,0-6.594-1.156-8.719-3.469s-3.188-5.516-3.188-9.609v-0.328
				c0-2.563,0.473-4.824,1.418-6.785s2.309-3.469,4.09-4.523s3.891-1.582,6.328-1.582c3.297,0,5.914,0.914,7.852,2.742
				s2.906,4.305,2.906,7.43h-7.406c0-1.313-0.32-2.32-0.961-3.023s-1.5-1.055-2.578-1.055c-2.047,0-3.242,1.305-3.586,3.914
				c-0.109,0.828-0.164,1.969-0.164,3.422c0,2.547,0.305,4.313,0.914,5.297S556.23,573.496,557.559,573.496z"/>
			<path fill="#FFFFFF" d="M570.777,566.207c0-2.531,0.492-4.785,1.477-6.762s2.398-3.496,4.242-4.559s4.008-1.594,6.492-1.594
				c3.797,0,6.789,1.176,8.977,3.527s3.281,5.551,3.281,9.598v0.281c0,3.953-1.098,7.09-3.293,9.41s-5.168,3.48-8.918,3.48
				c-3.609,0-6.508-1.082-8.695-3.246s-3.367-5.098-3.539-8.801L570.777,566.207z M578.676,566.699c0,2.344,0.367,4.063,1.102,5.156
				s1.82,1.641,3.258,1.641c2.813,0,4.25-2.164,4.313-6.492v-0.797c0-4.547-1.453-6.82-4.359-6.82c-2.641,0-4.07,1.961-4.289,5.883
				L578.676,566.699z"/>
			<path fill="#FFFFFF" d="M622.27,566.629c0,3.938-0.887,7.082-2.66,9.434s-4.168,3.527-7.184,3.527
				c-2.328,0-4.242-0.852-5.742-2.555v11.836h-7.898v-35.109h7.383l0.234,2.344c1.516-1.875,3.508-2.813,5.977-2.813
				c3.125,0,5.555,1.152,7.289,3.457s2.602,5.473,2.602,9.504V566.629z M614.371,566.137c0-4.5-1.313-6.75-3.938-6.75
				c-1.875,0-3.125,0.672-3.75,2.016v9.984c0.688,1.406,1.953,2.109,3.797,2.109c2.516,0,3.813-2.172,3.891-6.516V566.137z"/>
			<path fill="#FFFFFF" d="M649.293,566.629c0,3.938-0.887,7.082-2.66,9.434s-4.168,3.527-7.184,3.527
				c-2.328,0-4.242-0.852-5.742-2.555v11.836h-7.898v-35.109h7.383l0.234,2.344c1.516-1.875,3.508-2.813,5.977-2.813
				c3.125,0,5.555,1.152,7.289,3.457s2.602,5.473,2.602,9.504V566.629z M641.395,566.137c0-4.5-1.313-6.75-3.938-6.75
				c-1.875,0-3.125,0.672-3.75,2.016v9.984c0.688,1.406,1.953,2.109,3.797,2.109c2.516,0,3.813-2.172,3.891-6.516V566.137z"/>
			<path fill="#FFFFFF" d="M665.043,579.59c-3.891,0-7.039-1.16-9.445-3.48s-3.609-5.34-3.609-9.059v-0.656
				c0-2.594,0.48-4.883,1.441-6.867s2.363-3.52,4.207-4.605s4.031-1.629,6.563-1.629c3.563,0,6.375,1.105,8.438,3.316
				s3.094,5.293,3.094,9.246v3.07h-15.703c0.281,1.422,0.898,2.539,1.852,3.352s2.188,1.219,3.703,1.219
				c2.5,0,4.453-0.875,5.859-2.625l3.609,4.266c-0.984,1.359-2.379,2.441-4.184,3.246S667.121,579.59,665.043,579.59z
				 M664.152,559.387c-2.313,0-3.688,1.531-4.125,4.594h7.969v-0.609c0.031-1.266-0.289-2.246-0.961-2.941
				S665.402,559.387,664.152,559.387z"/>
			<path fill="#FFFFFF" d="M694.246,560.91l-2.602-0.188c-2.484,0-4.078,0.781-4.781,2.344v16.055h-7.898v-25.359h7.406l0.258,3.258
				c1.328-2.484,3.18-3.727,5.555-3.727c0.844,0,1.578,0.094,2.203,0.281L694.246,560.91z"/>
		</g>
	</g>
	<g>
		<g>
			<path fill="#FFFFFF" d="M1024.62,526.088c0,3.938-0.887,7.082-2.66,9.434s-4.168,3.527-7.184,3.527
				c-2.328,0-4.242-0.852-5.742-2.555v11.836h-7.898v-35.109h7.383l0.234,2.344c1.516-1.875,3.508-2.813,5.977-2.813
				c3.125,0,5.555,1.152,7.289,3.457s2.602,5.473,2.602,9.504V526.088z M1016.722,525.596c0-4.5-1.313-6.75-3.938-6.75
				c-1.875,0-3.125,0.672-3.75,2.016v9.984c0.688,1.406,1.953,2.109,3.797,2.109c2.516,0,3.813-2.172,3.891-6.516V525.596z"/>
			<path fill="#FFFFFF" d="M1027.104,525.666c0-2.531,0.492-4.785,1.477-6.762s2.398-3.496,4.242-4.559s4.008-1.594,6.492-1.594
				c3.797,0,6.789,1.176,8.977,3.527s3.281,5.551,3.281,9.598v0.281c0,3.953-1.098,7.09-3.293,9.41s-5.168,3.48-8.918,3.48
				c-3.609,0-6.508-1.082-8.695-3.246s-3.367-5.098-3.539-8.801L1027.104,525.666z M1035.003,526.158
				c0,2.344,0.367,4.063,1.102,5.156s1.82,1.641,3.258,1.641c2.813,0,4.25-2.164,4.313-6.492v-0.797c0-4.547-1.453-6.82-4.359-6.82
				c-2.641,0-4.07,1.961-4.289,5.883L1035.003,526.158z"/>
			<path fill="#FFFFFF" d="M1070.159,535.838c-1.672,2.141-3.93,3.211-6.773,3.211c-2.781,0-4.887-0.809-6.316-2.426
				s-2.145-3.941-2.145-6.973v-16.43h7.898v16.477c0,2.172,1.055,3.258,3.164,3.258c1.813,0,3.102-0.648,3.867-1.945v-17.789h7.945
				v25.359h-7.406L1070.159,535.838z"/>
			<path fill="#FFFFFF" d="M1089.378,513.221l0.258,2.977c1.75-2.297,4.164-3.445,7.242-3.445c2.641,0,4.613,0.789,5.918,2.367
				s1.98,3.953,2.027,7.125v16.336h-7.922v-16.008c0-1.281-0.258-2.223-0.773-2.824s-1.453-0.902-2.813-0.902
				c-1.547,0-2.695,0.609-3.445,1.828v17.906h-7.898v-25.359H1089.378z"/>
			<path fill="#FFFFFF" d="M1108.198,525.713c0-4.016,0.867-7.18,2.602-9.492s4.156-3.469,7.266-3.469
				c2.266,0,4.172,0.891,5.719,2.672V502.58h7.922v36h-7.102l-0.398-2.719c-1.625,2.125-3.688,3.188-6.188,3.188
				c-3.016,0-5.406-1.156-7.172-3.469S1108.198,529.979,1108.198,525.713z M1116.097,526.205c0,4.5,1.313,6.75,3.938,6.75
				c1.75,0,3-0.734,3.75-2.203v-9.656c-0.719-1.5-1.953-2.25-3.703-2.25c-2.438,0-3.758,1.969-3.961,5.906L1116.097,526.205z"/>
			<path fill="#FFFFFF" d="M1149.472,531.455c0-0.672-0.352-1.211-1.055-1.617s-2.039-0.828-4.008-1.266s-3.594-1.012-4.875-1.723
				s-2.258-1.574-2.93-2.59s-1.008-2.18-1.008-3.492c0-2.328,0.961-4.246,2.883-5.754s4.438-2.262,7.547-2.262
				c3.344,0,6.031,0.758,8.063,2.273s3.047,3.508,3.047,5.977h-7.922c0-2.031-1.07-3.047-3.211-3.047
				c-0.828,0-1.523,0.23-2.086,0.691s-0.844,1.035-0.844,1.723c0,0.703,0.344,1.273,1.031,1.711s1.785,0.797,3.293,1.078
				s2.832,0.617,3.973,1.008c3.813,1.313,5.719,3.664,5.719,7.055c0,2.313-1.027,4.195-3.082,5.648s-4.715,2.18-7.98,2.18
				c-2.172,0-4.109-0.391-5.813-1.172s-3.031-1.844-3.984-3.188s-1.43-2.758-1.43-4.242h7.383c0.031,1.172,0.422,2.027,1.172,2.566
				s1.711,0.809,2.883,0.809c1.078,0,1.887-0.219,2.426-0.656S1149.472,532.158,1149.472,531.455z"/>
		</g>
		<g>
			<path fill="#FFFFFF" d="M1034.312,571.996c0-0.672-0.352-1.211-1.055-1.617s-2.039-0.828-4.008-1.266s-3.594-1.012-4.875-1.723
				s-2.258-1.574-2.93-2.59s-1.008-2.18-1.008-3.492c0-2.328,0.961-4.246,2.883-5.754s4.438-2.262,7.547-2.262
				c3.344,0,6.031,0.758,8.063,2.273s3.047,3.508,3.047,5.977h-7.922c0-2.031-1.07-3.047-3.211-3.047
				c-0.828,0-1.523,0.23-2.086,0.691s-0.844,1.035-0.844,1.723c0,0.703,0.344,1.273,1.031,1.711s1.785,0.797,3.293,1.078
				s2.832,0.617,3.973,1.008c3.813,1.313,5.719,3.664,5.719,7.055c0,2.313-1.027,4.195-3.082,5.648s-4.715,2.18-7.98,2.18
				c-2.172,0-4.109-0.391-5.813-1.172s-3.031-1.844-3.984-3.188s-1.43-2.758-1.43-4.242h7.383c0.031,1.172,0.422,2.027,1.172,2.566
				s1.711,0.809,2.883,0.809c1.078,0,1.887-0.219,2.426-0.656S1034.312,572.699,1034.312,571.996z"/>
			<path fill="#FFFFFF" d="M1045.562,547.199c0-1.131,0.406-2.059,1.219-2.781c0.813-0.725,1.867-1.086,3.164-1.086
				s2.352,0.361,3.164,1.086c0.813,0.723,1.219,1.65,1.219,2.781c0,1.133-0.406,2.061-1.219,2.783s-1.867,1.084-3.164,1.084
				s-2.352-0.361-3.164-1.084S1045.562,548.332,1045.562,547.199z M1053.952,579.121h-7.922v-25.359h7.922V579.121z"/>
			<path fill="#FFFFFF" d="M1067.147,579.121h-7.922v-36h7.922V579.121z"/>
			<path fill="#FFFFFF" d="M1082.124,569.723l4.008-15.961h8.32l-8.273,25.359h-8.063l-8.273-25.359h8.344L1082.124,569.723z"/>
			<path fill="#FFFFFF" d="M1108.772,579.59c-3.891,0-7.039-1.16-9.445-3.48s-3.609-5.34-3.609-9.059v-0.656
				c0-2.594,0.48-4.883,1.441-6.867s2.363-3.52,4.207-4.605s4.031-1.629,6.563-1.629c3.563,0,6.375,1.105,8.438,3.316
				s3.094,5.293,3.094,9.246v3.07h-15.703c0.281,1.422,0.898,2.539,1.852,3.352s2.188,1.219,3.703,1.219
				c2.5,0,4.453-0.875,5.859-2.625l3.609,4.266c-0.984,1.359-2.379,2.441-4.184,3.246S1110.851,579.59,1108.772,579.59z
				 M1107.882,559.387c-2.313,0-3.688,1.531-4.125,4.594h7.969v-0.609c0.031-1.266-0.289-2.246-0.961-2.941
				S1109.132,559.387,1107.882,559.387z"/>
			<path fill="#FFFFFF" d="M1137.976,560.91l-2.602-0.188c-2.484,0-4.078,0.781-4.781,2.344v16.055h-7.898v-25.359h7.406
				l0.258,3.258c1.328-2.484,3.18-3.727,5.555-3.727c0.844,0,1.578,0.094,2.203,0.281L1137.976,560.91z"/>
		</g>
	</g>
	<g>
		<g>
			<path fill="#FFFFFF" d="M1022.848,834.195c0,3.938-0.887,7.082-2.66,9.434s-4.168,3.527-7.184,3.527
				c-2.328,0-4.242-0.852-5.742-2.555v11.836h-7.898v-35.109h7.383l0.234,2.344c1.516-1.875,3.508-2.813,5.977-2.813
				c3.125,0,5.555,1.152,7.289,3.457s2.602,5.473,2.602,9.504V834.195z M1014.949,833.703c0-4.5-1.313-6.75-3.938-6.75
				c-1.875,0-3.125,0.672-3.75,2.016v9.984c0.688,1.406,1.953,2.109,3.797,2.109c2.516,0,3.813-2.172,3.891-6.516V833.703z"/>
			<path fill="#FFFFFF" d="M1025.332,833.773c0-2.531,0.492-4.785,1.477-6.762s2.398-3.496,4.242-4.559s4.008-1.594,6.492-1.594
				c3.797,0,6.789,1.176,8.977,3.527s3.281,5.551,3.281,9.598v0.281c0,3.953-1.098,7.09-3.293,9.41s-5.168,3.48-8.918,3.48
				c-3.609,0-6.508-1.082-8.695-3.246s-3.367-5.098-3.539-8.801L1025.332,833.773z M1033.23,834.266
				c0,2.344,0.367,4.063,1.102,5.156s1.82,1.641,3.258,1.641c2.813,0,4.25-2.164,4.313-6.492v-0.797c0-4.547-1.453-6.82-4.359-6.82
				c-2.641,0-4.07,1.961-4.289,5.883L1033.23,834.266z"/>
			<path fill="#FFFFFF" d="M1068.387,843.945c-1.672,2.141-3.93,3.211-6.773,3.211c-2.781,0-4.887-0.809-6.316-2.426
				s-2.145-3.941-2.145-6.973v-16.43h7.898v16.477c0,2.172,1.055,3.258,3.164,3.258c1.813,0,3.102-0.648,3.867-1.945v-17.789h7.945
				v25.359h-7.406L1068.387,843.945z"/>
			<path fill="#FFFFFF" d="M1087.605,821.328l0.258,2.977c1.75-2.297,4.164-3.445,7.242-3.445c2.641,0,4.613,0.789,5.918,2.367
				s1.98,3.953,2.027,7.125v16.336h-7.922V830.68c0-1.281-0.258-2.223-0.773-2.824s-1.453-0.902-2.813-0.902
				c-1.547,0-2.695,0.609-3.445,1.828v17.906h-7.898v-25.359H1087.605z"/>
			<path fill="#FFFFFF" d="M1106.426,833.82c0-4.016,0.867-7.18,2.602-9.492s4.156-3.469,7.266-3.469
				c2.266,0,4.172,0.891,5.719,2.672v-12.844h7.922v36h-7.102l-0.398-2.719c-1.625,2.125-3.688,3.188-6.188,3.188
				c-3.016,0-5.406-1.156-7.172-3.469S1106.426,838.086,1106.426,833.82z M1114.324,834.313c0,4.5,1.313,6.75,3.938,6.75
				c1.75,0,3-0.734,3.75-2.203v-9.656c-0.719-1.5-1.953-2.25-3.703-2.25c-2.438,0-3.758,1.969-3.961,5.906L1114.324,834.313z"/>
			<path fill="#FFFFFF" d="M1147.699,839.563c0-0.672-0.352-1.211-1.055-1.617s-2.039-0.828-4.008-1.266s-3.594-1.012-4.875-1.723
				s-2.258-1.574-2.93-2.59s-1.008-2.18-1.008-3.492c0-2.328,0.961-4.246,2.883-5.754s4.438-2.262,7.547-2.262
				c3.344,0,6.031,0.758,8.063,2.273s3.047,3.508,3.047,5.977h-7.922c0-2.031-1.07-3.047-3.211-3.047
				c-0.828,0-1.523,0.23-2.086,0.691s-0.844,1.035-0.844,1.723c0,0.703,0.344,1.273,1.031,1.711s1.785,0.797,3.293,1.078
				s2.832,0.617,3.973,1.008c3.813,1.313,5.719,3.664,5.719,7.055c0,2.313-1.027,4.195-3.082,5.648s-4.715,2.18-7.98,2.18
				c-2.172,0-4.109-0.391-5.813-1.172s-3.031-1.844-3.984-3.188s-1.43-2.758-1.43-4.242h7.383c0.031,1.172,0.422,2.027,1.172,2.566
				s1.711,0.809,2.883,0.809c1.078,0,1.887-0.219,2.426-0.656S1147.699,840.266,1147.699,839.563z"/>
		</g>
		<g>
			<path fill="#FFFFFF" d="M1030.852,874.361c0-2.563,0.422-4.828,1.266-6.797s2.055-3.488,3.633-4.559s3.414-1.605,5.508-1.605
				c2.641,0,4.703,0.891,6.188,2.672l0.281-2.203h7.172v24.398c0,2.234-0.52,4.176-1.559,5.824s-2.543,2.914-4.512,3.797
				s-4.25,1.324-6.844,1.324c-1.859,0-3.66-0.352-5.402-1.055s-3.074-1.617-3.996-2.742l3.305-4.641
				c1.469,1.734,3.406,2.602,5.813,2.602c3.5,0,5.25-1.797,5.25-5.391v-0.797c-1.516,1.672-3.43,2.508-5.742,2.508
				c-3.094,0-5.594-1.184-7.5-3.551s-2.859-5.535-2.859-9.504V874.361z M1038.773,874.854c0,2.078,0.391,3.723,1.172,4.934
				s1.875,1.816,3.281,1.816c1.703,0,2.945-0.57,3.727-1.711v-10.664c-0.766-1.156-1.992-1.734-3.68-1.734
				c-1.406,0-2.508,0.629-3.305,1.887S1038.773,872.463,1038.773,874.854z"/>
			<path fill="#FFFFFF" d="M1058.391,874.314c0-2.531,0.492-4.785,1.477-6.762s2.398-3.496,4.242-4.559s4.008-1.594,6.492-1.594
				c3.797,0,6.789,1.176,8.977,3.527s3.281,5.551,3.281,9.598v0.281c0,3.953-1.098,7.09-3.293,9.41s-5.168,3.48-8.918,3.48
				c-3.609,0-6.508-1.082-8.695-3.246s-3.367-5.098-3.539-8.801L1058.391,874.314z M1066.289,874.807
				c0,2.344,0.367,4.063,1.102,5.156s1.82,1.641,3.258,1.641c2.813,0,4.25-2.164,4.313-6.492v-0.797c0-4.547-1.453-6.82-4.359-6.82
				c-2.641,0-4.07,1.961-4.289,5.883L1066.289,874.807z"/>
			<path fill="#FFFFFF" d="M1094.672,887.229h-7.922v-36h7.922V887.229z"/>
			<path fill="#FFFFFF" d="M1098.539,874.361c0-4.016,0.867-7.18,2.602-9.492s4.156-3.469,7.266-3.469
				c2.266,0,4.172,0.891,5.719,2.672v-12.844h7.922v36h-7.102l-0.398-2.719c-1.625,2.125-3.688,3.188-6.188,3.188
				c-3.016,0-5.406-1.156-7.172-3.469S1098.539,878.627,1098.539,874.361z M1106.438,874.854c0,4.5,1.313,6.75,3.938,6.75
				c1.75,0,3-0.734,3.75-2.203v-9.656c-0.719-1.5-1.953-2.25-3.703-2.25c-2.438,0-3.758,1.969-3.961,5.906L1106.438,874.854z"/>
		</g>
	</g>
	<g>
		<g>
			<path fill="#FFFFFF" d="M556.129,834.195c0,3.938-0.887,7.082-2.66,9.434s-4.168,3.527-7.184,3.527
				c-2.328,0-4.242-0.852-5.742-2.555v11.836h-7.898v-35.109h7.383l0.234,2.344c1.516-1.875,3.508-2.813,5.977-2.813
				c3.125,0,5.555,1.152,7.289,3.457s2.602,5.473,2.602,9.504V834.195z M548.23,833.703c0-4.5-1.313-6.75-3.938-6.75
				c-1.875,0-3.125,0.672-3.75,2.016v9.984c0.688,1.406,1.953,2.109,3.797,2.109c2.516,0,3.813-2.172,3.891-6.516V833.703z"/>
			<path fill="#FFFFFF" d="M558.613,833.773c0-2.531,0.492-4.785,1.477-6.762s2.398-3.496,4.242-4.559s4.008-1.594,6.492-1.594
				c3.797,0,6.789,1.176,8.977,3.527s3.281,5.551,3.281,9.598v0.281c0,3.953-1.098,7.09-3.293,9.41s-5.168,3.48-8.918,3.48
				c-3.609,0-6.508-1.082-8.695-3.246s-3.367-5.098-3.539-8.801L558.613,833.773z M566.512,834.266c0,2.344,0.367,4.063,1.102,5.156
				s1.82,1.641,3.258,1.641c2.813,0,4.25-2.164,4.313-6.492v-0.797c0-4.547-1.453-6.82-4.359-6.82c-2.641,0-4.07,1.961-4.289,5.883
				L566.512,834.266z"/>
			<path fill="#FFFFFF" d="M601.668,843.945c-1.672,2.141-3.93,3.211-6.773,3.211c-2.781,0-4.887-0.809-6.316-2.426
				s-2.145-3.941-2.145-6.973v-16.43h7.898v16.477c0,2.172,1.055,3.258,3.164,3.258c1.813,0,3.102-0.648,3.867-1.945v-17.789h7.945
				v25.359h-7.406L601.668,843.945z"/>
			<path fill="#FFFFFF" d="M620.887,821.328l0.258,2.977c1.75-2.297,4.164-3.445,7.242-3.445c2.641,0,4.613,0.789,5.918,2.367
				s1.98,3.953,2.027,7.125v16.336h-7.922V830.68c0-1.281-0.258-2.223-0.773-2.824s-1.453-0.902-2.813-0.902
				c-1.547,0-2.695,0.609-3.445,1.828v17.906h-7.898v-25.359H620.887z"/>
			<path fill="#FFFFFF" d="M639.707,833.82c0-4.016,0.867-7.18,2.602-9.492s4.156-3.469,7.266-3.469
				c2.266,0,4.172,0.891,5.719,2.672v-12.844h7.922v36h-7.102l-0.398-2.719c-1.625,2.125-3.688,3.188-6.188,3.188
				c-3.016,0-5.406-1.156-7.172-3.469S639.707,838.086,639.707,833.82z M647.605,834.313c0,4.5,1.313,6.75,3.938,6.75
				c1.75,0,3-0.734,3.75-2.203v-9.656c-0.719-1.5-1.953-2.25-3.703-2.25c-2.438,0-3.758,1.969-3.961,5.906L647.605,834.313z"/>
			<path fill="#FFFFFF" d="M680.98,839.563c0-0.672-0.352-1.211-1.055-1.617s-2.039-0.828-4.008-1.266s-3.594-1.012-4.875-1.723
				s-2.258-1.574-2.93-2.59s-1.008-2.18-1.008-3.492c0-2.328,0.961-4.246,2.883-5.754s4.438-2.262,7.547-2.262
				c3.344,0,6.031,0.758,8.063,2.273s3.047,3.508,3.047,5.977h-7.922c0-2.031-1.07-3.047-3.211-3.047
				c-0.828,0-1.523,0.23-2.086,0.691s-0.844,1.035-0.844,1.723c0,0.703,0.344,1.273,1.031,1.711s1.785,0.797,3.293,1.078
				s2.832,0.617,3.973,1.008c3.813,1.313,5.719,3.664,5.719,7.055c0,2.313-1.027,4.195-3.082,5.648s-4.715,2.18-7.98,2.18
				c-2.172,0-4.109-0.391-5.813-1.172s-3.031-1.844-3.984-3.188s-1.43-2.758-1.43-4.242h7.383c0.031,1.172,0.422,2.027,1.172,2.566
				s1.711,0.809,2.883,0.809c1.078,0,1.887-0.219,2.426-0.656S680.98,840.266,680.98,839.563z"/>
		</g>
		<g>
			<path fill="#FFFFFF" d="M529.492,874.736c0,3.938-0.887,7.082-2.66,9.434s-4.168,3.527-7.184,3.527
				c-2.328,0-4.242-0.852-5.742-2.555v11.836h-7.898v-35.109h7.383l0.234,2.344c1.516-1.875,3.508-2.813,5.977-2.813
				c3.125,0,5.555,1.152,7.289,3.457s2.602,5.473,2.602,9.504V874.736z M521.594,874.244c0-4.5-1.313-6.75-3.938-6.75
				c-1.875,0-3.125,0.672-3.75,2.016v9.984c0.688,1.406,1.953,2.109,3.797,2.109c2.516,0,3.813-2.172,3.891-6.516V874.244z"/>
			<path fill="#FFFFFF" d="M547.258,887.229c-0.281-0.516-0.531-1.273-0.75-2.273c-1.453,1.828-3.484,2.742-6.094,2.742
				c-2.391,0-4.422-0.723-6.094-2.168s-2.508-3.262-2.508-5.449c0-2.75,1.016-4.828,3.047-6.234s4.984-2.109,8.859-2.109h2.438
				v-1.342c0-2.34-1.008-3.51-3.023-3.51c-1.875,0-2.813,0.928-2.813,2.779h-7.898c0-2.449,1.043-4.439,3.129-5.969
				s4.746-2.295,7.98-2.295s5.789,0.789,7.664,2.367s2.836,3.742,2.883,6.492v11.227c0.031,2.328,0.391,4.109,1.078,5.344v0.398
				H547.258z M542.313,882.072c0.984,0,1.801-0.211,2.449-0.633s1.113-0.898,1.395-1.43v-4.055h-2.297
				c-2.75,0-4.125,1.234-4.125,3.703c0,0.719,0.242,1.301,0.727,1.746S541.563,882.072,542.313,882.072z"/>
			<path fill="#FFFFFF" d="M566.781,887.229h-7.922v-36h7.922V887.229z"/>
			<path fill="#FFFFFF" d="M579.977,887.229h-7.922v-36h7.922V887.229z"/>
			<path fill="#FFFFFF" d="M599.125,887.229c-0.281-0.516-0.531-1.273-0.75-2.273c-1.453,1.828-3.484,2.742-6.094,2.742
				c-2.391,0-4.422-0.723-6.094-2.168s-2.508-3.262-2.508-5.449c0-2.75,1.016-4.828,3.047-6.234s4.984-2.109,8.859-2.109h2.438
				v-1.342c0-2.34-1.008-3.51-3.023-3.51c-1.875,0-2.813,0.928-2.813,2.779h-7.898c0-2.449,1.043-4.439,3.129-5.969
				s4.746-2.295,7.98-2.295s5.789,0.789,7.664,2.367s2.836,3.742,2.883,6.492v11.227c0.031,2.328,0.391,4.109,1.078,5.344v0.398
				H599.125z M594.18,882.072c0.984,0,1.801-0.211,2.449-0.633s1.113-0.898,1.395-1.43v-4.055h-2.297
				c-2.75,0-4.125,1.234-4.125,3.703c0,0.719,0.242,1.301,0.727,1.746S593.43,882.072,594.18,882.072z"/>
			<path fill="#FFFFFF" d="M609.32,874.361c0-4.016,0.867-7.18,2.602-9.492s4.156-3.469,7.266-3.469
				c2.266,0,4.172,0.891,5.719,2.672v-12.844h7.922v36h-7.102l-0.398-2.719c-1.625,2.125-3.688,3.188-6.188,3.188
				c-3.016,0-5.406-1.156-7.172-3.469S609.32,878.627,609.32,874.361z M617.219,874.854c0,4.5,1.313,6.75,3.938,6.75
				c1.75,0,3-0.734,3.75-2.203v-9.656c-0.719-1.5-1.953-2.25-3.703-2.25c-2.438,0-3.758,1.969-3.961,5.906L617.219,874.854z"/>
			<path fill="#FFFFFF" d="M637.258,855.307c0-1.131,0.406-2.059,1.219-2.781c0.813-0.725,1.867-1.086,3.164-1.086
				s2.352,0.361,3.164,1.086c0.813,0.723,1.219,1.65,1.219,2.781c0,1.133-0.406,2.061-1.219,2.783s-1.867,1.084-3.164,1.084
				s-2.352-0.361-3.164-1.084S637.258,856.439,637.258,855.307z M645.648,887.229h-7.922v-25.359h7.922V887.229z"/>
			<path fill="#FFFFFF" d="M665.617,884.486c-1.672,2.141-3.93,3.211-6.773,3.211c-2.781,0-4.887-0.809-6.316-2.426
				s-2.145-3.941-2.145-6.973v-16.43h7.898v16.477c0,2.172,1.055,3.258,3.164,3.258c1.813,0,3.102-0.648,3.867-1.945v-17.789h7.945
				v25.359h-7.406L665.617,884.486z"/>
			<path fill="#FFFFFF" d="M685.047,861.869l0.258,2.977c1.797-2.297,4.211-3.445,7.242-3.445c3.203,0,5.367,1.273,6.492,3.82
				c1.719-2.547,4.203-3.82,7.453-3.82c5.141,0,7.781,3.109,7.922,9.328v16.5h-7.922v-16.008c0-1.297-0.219-2.242-0.656-2.836
				s-1.234-0.891-2.391-0.891c-1.563,0-2.727,0.695-3.492,2.086l0.023,0.328v17.32h-7.922v-15.961c0-1.328-0.211-2.289-0.633-2.883
				s-1.227-0.891-2.414-0.891c-1.516,0-2.672,0.695-3.469,2.086v17.648h-7.898v-25.359H685.047z"/>
		</g>
	</g>
</g>
<g id="_x34_">
</g>
<g id="_x33_">
</g>
<g id="_x32_">
</g>
<g id="_x31_">
</g>
</svg>
