<?xml version="1.0" encoding="utf-8"?>
<!-- Generator: Adobe Illustrator 16.0.0, SVG Export Plug-In . SVG Version: 6.00 Build 0)  -->
<!DOCTYPE svg PUBLIC "-//W3C//DTD SVG 1.1//EN" "http://www.w3.org/Graphics/SVG/1.1/DTD/svg11.dtd">
<svg version="1.1" xmlns="http://www.w3.org/2000/svg" xmlns:xlink="http://www.w3.org/1999/xlink" x="0px" y="0px" width="1600px"
	 height="1000px" viewBox="0 0 1600 1000" enable-background="new 0 0 1600 1000" xml:space="preserve">
<g id="_x35_">
</g>
<g id="_x34_">
</g>
<g id="_x33_">
</g>
<g id="_x32_">
	<rect fill="#398BCB" width="1600" height="1000"/>
	<g>
		<path fill="#FFFFFF" d="M35.547,155.114c-0.998-5.609-1.18-10.96-0.544-16.055c0.635-5.094,1.97-9.552,4.005-13.378
			c2.035-3.825,4.543-6.69,7.525-8.597l3.226,5.332c-2.797,2.941-4.628,7.079-5.493,12.415c-0.865,5.337-0.708,11.386,0.472,18.149
			l0.27,1.517c1.231,6.92,3.178,12.764,5.841,17.532c2.663,4.768,5.826,8.047,9.489,9.838l-1.188,6.117
			c-3.402-0.723-6.746-2.553-10.031-5.49c-3.286-2.937-6.074-6.645-8.365-11.123c-2.292-4.478-3.935-9.379-4.93-14.706
			L35.547,155.114z"/>
		<path fill="#FFFFFF" d="M84.251,167.509c-0.549-0.685-1.115-1.734-1.699-3.149c-1.66,3.07-4.409,4.947-8.248,5.63
			c-3.518,0.626-6.696,0.095-9.534-1.594c-2.838-1.688-4.543-4.142-5.116-7.361c-0.72-4.046,0.23-7.37,2.851-9.971
			c2.62-2.601,6.781-4.409,12.483-5.423l3.586-0.638l-0.352-1.975c-0.612-3.442-2.402-4.899-5.368-4.372
			c-2.758,0.491-3.896,2.1-3.411,4.826l-11.621,2.068c-0.641-3.604,0.373-6.806,3.041-9.602c2.669-2.797,6.382-4.619,11.142-5.465
			c4.759-0.847,8.724-0.354,11.896,1.476c3.172,1.832,5.152,4.764,5.942,8.798l2.939,16.518c0.655,3.418,1.649,5.944,2.985,7.581
			l0.104,0.586L84.251,167.509z M75.625,161.217c1.448-0.257,2.594-0.782,3.438-1.572c0.844-0.791,1.403-1.614,1.678-2.469
			l-1.062-5.966l-3.379,0.602c-4.047,0.72-5.746,2.897-5.1,6.529c0.188,1.058,0.697,1.85,1.526,2.378
			C73.554,161.248,74.521,161.414,75.625,161.217z"/>
		<path fill="#FFFFFF" d="M104.75,125.368l1.158,4.312c1.974-3.837,5.225-6.159,9.754-6.965c3.885-0.691,6.994-0.047,9.327,1.933
			c2.333,1.981,3.949,5.298,4.848,9.953l4.277,24.035l-11.656,2.074l-4.191-23.553c-0.335-1.885-0.96-3.202-1.877-3.953
			c-0.916-0.749-2.374-0.947-4.375-0.591c-2.276,0.405-3.806,1.602-4.59,3.592l4.688,26.346l-11.621,2.068l-6.64-37.313
			L104.75,125.368z"/>
		<path fill="#FFFFFF" d="M135.712,138.82c-1.051-5.908-0.604-10.791,1.343-14.647c1.946-3.856,5.207-6.191,9.782-7.006
			c3.333-0.593,6.371,0.218,9.113,2.434l-3.362-18.897l11.655-2.074l9.426,52.968l-10.449,1.859l-1.298-3.896
			c-1.835,3.553-4.591,5.656-8.27,6.31c-4.437,0.79-8.257-0.286-11.46-3.226S136.829,145.097,135.712,138.82z M147.462,137.477
			c1.178,6.621,3.698,9.588,7.561,8.9c2.575-0.458,4.222-1.865,4.941-4.223l-2.528-14.208c-1.451-2.019-3.464-2.799-6.038-2.341
			c-3.586,0.638-5.014,3.881-4.281,9.727L147.462,137.477z"/>
		<path fill="#FFFFFF" d="M189.415,100.341c-0.296-1.665,0.059-3.136,1.065-4.414c1.006-1.276,2.463-2.084,4.371-2.424
			c1.908-0.339,3.555-0.083,4.939,0.768c1.385,0.852,2.226,2.11,2.522,3.775c0.296,1.666-0.059,3.137-1.065,4.413
			c-1.006,1.277-2.463,2.085-4.371,2.424c-1.909,0.34-3.555,0.084-4.939-0.768C190.552,103.265,189.711,102.006,189.415,100.341z
			 M210.119,145.111l-11.656,2.074l-6.64-37.312l11.656-2.074L210.119,145.111z"/>
		<path fill="#FFFFFF" d="M222.519,94.841l1.651,9.277l6.138-1.092l1.436,8.069l-6.138,1.092l3.038,17.07
			c0.25,1.403,0.676,2.335,1.279,2.796c0.604,0.462,1.653,0.56,3.148,0.293c1.149-0.205,2.103-0.444,2.86-0.722l1.479,8.311
			c-1.974,1.039-4.098,1.761-6.374,2.166c-4,0.712-7.122,0.295-9.365-1.25c-2.244-1.545-3.707-4.238-4.391-8.077l-3.295-18.519
			l-4.758,0.847l-1.436-8.069l4.758-0.847l-1.651-9.277L222.519,94.841z"/>
		<path fill="#FFFFFF" d="M240.329,104.16l-5.595-1.851c1.319-3.65,1.719-7.065,1.201-10.247l-1.068-6l8.483-1.509l1,5.621
			c0.38,2.138,0.171,4.529-0.627,7.173C242.926,99.992,241.794,102.262,240.329,104.16z"/>
		<path fill="#FFFFFF" d="M269.152,123.792c-0.176-0.988-0.834-1.689-1.975-2.104c-1.141-0.413-3.217-0.684-6.228-0.813
			c-3.011-0.127-5.553-0.547-7.624-1.258c-2.071-0.709-3.734-1.725-4.989-3.043c-1.254-1.317-2.053-2.942-2.396-4.874
			c-0.61-3.425,0.302-6.499,2.734-9.221c2.433-2.721,5.937-4.489,10.512-5.304c4.919-0.875,9.072-0.464,12.458,1.234
			c3.385,1.698,5.402,4.363,6.048,7.996l-11.656,2.074c-0.532-2.988-2.373-4.203-5.522-3.642c-1.219,0.217-2.181,0.738-2.888,1.563
			c-0.707,0.826-0.97,1.744-0.79,2.756c0.184,1.034,0.839,1.784,1.965,2.248c1.126,0.463,2.835,0.705,5.127,0.724
			c2.292,0.019,4.329,0.167,6.109,0.443c5.953,0.933,9.374,3.894,10.261,8.882c0.606,3.403-0.413,6.441-3.056,9.118
			s-6.366,4.441-11.171,5.296c-3.196,0.569-6.148,0.501-8.859-0.202s-4.943-1.919-6.697-3.646c-1.754-1.728-2.825-3.684-3.214-5.867
			l10.862-1.933c0.353,1.715,1.151,2.872,2.396,3.469c1.245,0.597,2.729,0.742,4.454,0.435c1.586-0.282,2.718-0.815,3.397-1.601
			C269.089,125.736,269.336,124.826,269.152,123.792z"/>
		<path fill="#FFFFFF" d="M334.745,107.139l-0.156-22.669l11.138-1.982l-2.154,38.877l-9.828,1.749l-10.112-21.041l-2.268,23.244
			l-9.828,1.749l-15.433-35.747l11.139-1.982l7.696,21.861l1.925-23.574l8.104-1.442L334.745,107.139z"/>
		<path fill="#FFFFFF" d="M351.675,100.319c-0.663-3.724-0.528-7.169,0.402-10.335c0.931-3.166,2.614-5.772,5.048-7.818
			c2.434-2.046,5.479-3.395,9.135-4.045c5.587-0.994,10.296-0.047,14.131,2.84c3.834,2.888,6.282,7.308,7.341,13.262l0.074,0.414
			c1.035,5.816,0.241,10.719-2.381,14.707c-2.623,3.989-6.692,6.474-12.21,7.456c-5.311,0.945-9.859,0.112-13.643-2.5
			c-3.786-2.611-6.29-6.619-7.512-12.022L351.675,100.319z M363.425,98.976c0.614,3.449,1.604,5.882,2.971,7.299
			c1.367,1.417,3.107,1.937,5.223,1.561c4.138-0.736,5.686-4.297,4.646-10.682l-0.209-1.172c-1.19-6.69-3.924-9.654-8.2-8.894
			c-3.885,0.691-5.475,3.951-4.771,9.778L363.425,98.976z"/>
		<path fill="#FFFFFF" d="M413.98,81.192l-3.877,0.405c-3.655,0.65-5.796,2.218-6.421,4.701l4.204,23.622l-11.621,2.068
			l-6.64-37.312l10.897-1.939l1.232,4.726c1.303-4.003,3.702-6.315,7.197-6.937c1.241-0.221,2.346-0.275,3.315-0.163L413.98,81.192z
			"/>
		<path fill="#FFFFFF" d="M435.449,90.678l-2.693,3.859l1.89,10.622l-11.621,2.068l-9.432-53.002l11.621-2.068l5.007,28.139
			l0.896-1.761l6.82-12.455L451.87,63.6l-10.338,17.671l17.84,19.488l-13.311,2.369L435.449,90.678z"/>
		<path fill="#FFFFFF" d="M479.046,97.968c-5.725,1.019-10.66,0.136-14.808-2.648c-4.148-2.784-6.709-6.912-7.683-12.383
			l-0.171-0.965c-0.679-3.816-0.571-7.31,0.323-10.481c0.895-3.171,2.556-5.796,4.984-7.878c2.429-2.08,5.505-3.452,9.229-4.114
			c5.242-0.933,9.669-0.042,13.283,2.67c3.613,2.714,5.938,6.979,6.973,12.795l0.804,4.517l-23.104,4.112
			c0.786,2.019,1.986,3.501,3.602,4.447s3.538,1.22,5.768,0.823c3.678-0.654,6.323-2.453,7.934-5.396l6.428,5.331
			c-1.092,2.258-2.861,4.216-5.305,5.872C484.855,96.324,482.104,97.424,479.046,97.968z M472.446,68.477
			c-3.402,0.605-5.024,3.218-4.866,7.838l11.725-2.086l-0.16-0.896c-0.286-1.87-1.014-3.229-2.184-4.076
			C475.791,68.409,474.286,68.149,472.446,68.477z"/>
		<path fill="#FFFFFF" d="M494.487,74.978c-1.051-5.908-0.604-10.791,1.343-14.647c1.946-3.856,5.207-6.192,9.782-7.006
			c3.333-0.593,6.371,0.218,9.113,2.434l-3.363-18.897l11.656-2.074l9.425,52.968l-10.449,1.859l-1.298-3.896
			c-1.835,3.552-4.592,5.655-8.27,6.31c-4.437,0.79-8.257-0.286-11.46-3.226C497.763,85.863,495.604,81.254,494.487,74.978z
			 M506.237,73.634c1.178,6.621,3.699,9.588,7.561,8.901c2.574-0.458,4.222-1.866,4.94-4.224l-2.528-14.208
			c-1.45-2.019-3.463-2.798-6.037-2.34c-3.586,0.638-5.014,3.88-4.282,9.727L506.237,73.634z"/>
		<path fill="#FFFFFF" d="M547.753,68.63l-9.415,1.675l-7.588-34.048l12.379-2.203L547.753,68.63z M538.414,81.32
			c-0.303-1.7,0.063-3.206,1.099-4.518c1.036-1.311,2.473-2.13,4.313-2.457c1.839-0.327,3.471-0.054,4.895,0.819
			c1.424,0.874,2.288,2.161,2.591,3.861c0.303,1.702-0.064,3.208-1.1,4.519c-1.036,1.311-2.473,2.13-4.312,2.457
			c-1.84,0.328-3.471,0.054-4.896-0.819C539.58,84.31,538.717,83.022,538.414,81.32z"/>
		<path fill="#FFFFFF" d="M573.398,60.402c0.961,5.403,1.08,10.671,0.357,15.804s-2.171,9.689-4.345,13.669
			c-2.173,3.98-4.771,6.879-7.791,8.697l-3.226-5.332c2.77-2.96,4.586-7.078,5.45-12.354c0.864-5.277,0.755-11.151-0.325-17.624
			l-0.374-2.104c-1.231-6.919-3.179-12.763-5.842-17.531c-2.663-4.769-5.826-8.047-9.488-9.839l1.188-6.117
			c3.443,0.692,6.854,2.498,10.232,5.419c3.378,2.921,6.292,6.636,8.743,11.145c2.451,4.509,4.167,9.393,5.15,14.647L573.398,60.402
			z"/>
	</g>
	<g>
		<path fill="#FFFFFF" d="M298.874,195.183l3.483-20.384h10.32l-8.147,34.57h-9.106l-5.719-20.512l-5.751,20.512h-9.106
			l-8.147-34.57h10.32l3.418,20.864l5.496-20.864h7.508L298.874,195.183z"/>
		<path fill="#FFFFFF" d="M333.253,210.008c-5.304,0-9.596-1.582-12.876-4.745s-4.92-7.279-4.92-12.349v-0.895
			c0-3.536,0.655-6.656,1.965-9.361s3.221-4.798,5.735-6.278c2.513-1.48,5.496-2.221,8.946-2.221c4.856,0,8.69,1.507,11.502,4.521
			c2.812,3.014,4.218,7.216,4.218,12.604v4.186h-21.407c0.383,1.938,1.225,3.461,2.524,4.569c1.299,1.108,2.982,1.662,5.048,1.662
			c3.408,0,6.07-1.193,7.987-3.579l4.92,5.815c-1.342,1.853-3.243,3.329-5.703,4.425
			C338.732,209.459,336.085,210.008,333.253,210.008z M332.039,182.467c-3.153,0-5.027,2.088-5.623,6.262h10.863v-0.831
			c0.042-1.725-0.394-3.062-1.31-4.01C335.052,182.941,333.743,182.467,332.039,182.467z"/>
		<path fill="#FFFFFF" d="M353.925,177.418l-4.729-2.556c1.768-3.067,2.673-6.071,2.716-9.01v-5.559h7.86v5.208
			c0,1.981-0.57,4.095-1.709,6.342C356.923,174.091,355.543,175.949,353.925,177.418z"/>
		<path fill="#FFFFFF" d="M379.773,196.557l5.463-21.758h11.342l-11.278,34.57h-10.991l-11.278-34.57h11.375L379.773,196.557z"/>
		<path fill="#FFFFFF" d="M416.101,210.008c-5.304,0-9.596-1.582-12.876-4.745s-4.92-7.279-4.92-12.349v-0.895
			c0-3.536,0.655-6.656,1.965-9.361s3.221-4.798,5.735-6.278c2.513-1.48,5.496-2.221,8.946-2.221c4.856,0,8.69,1.507,11.502,4.521
			c2.812,3.014,4.218,7.216,4.218,12.604v4.186h-21.407c0.383,1.938,1.225,3.461,2.524,4.569c1.299,1.108,2.982,1.662,5.048,1.662
			c3.408,0,6.07-1.193,7.987-3.579l4.92,5.815c-1.342,1.853-3.243,3.329-5.703,4.425
			C421.58,209.459,418.933,210.008,416.101,210.008z M414.886,182.467c-3.153,0-5.027,2.088-5.623,6.262h10.863v-0.831
			c0.042-1.725-0.394-3.062-1.31-4.01C417.9,182.941,416.59,182.467,414.886,182.467z"/>
		<path fill="#FFFFFF" d="M451.214,165.853c0-1.542,0.554-2.807,1.662-3.793c1.107-0.985,2.545-1.479,4.313-1.479
			s3.206,0.494,4.313,1.479c1.107,0.986,1.662,2.25,1.662,3.793c0,1.543-0.554,2.808-1.662,3.793
			c-1.108,0.986-2.545,1.479-4.313,1.479s-3.206-0.493-4.313-1.479C451.768,168.66,451.214,167.396,451.214,165.853z
			 M462.652,209.369h-10.799v-34.57h10.799V209.369z"/>
		<path fill="#FFFFFF" d="M479.171,174.799l0.351,4.058c2.385-3.131,5.676-4.697,9.873-4.697c3.599,0,6.289,1.076,8.067,3.227
			c1.778,2.152,2.7,5.389,2.764,9.713v22.27h-10.799v-21.822c0-1.746-0.352-3.03-1.054-3.85c-0.703-0.819-1.981-1.23-3.834-1.23
			c-2.109,0-3.674,0.831-4.697,2.492v24.41h-10.768v-34.57H479.171z"/>
		<path fill="#FFFFFF" d="M520.802,201.701c1.512,0,2.684-0.41,3.515-1.23c0.831-0.819,1.235-1.965,1.214-3.435h10.097
			c0,3.792-1.358,6.901-4.074,9.33s-6.214,3.643-10.496,3.643c-5.027,0-8.989-1.576-11.885-4.729
			c-2.897-3.152-4.345-7.519-4.345-13.1v-0.447c0-3.493,0.644-6.576,1.933-9.25c1.289-2.673,3.147-4.729,5.576-6.167
			s5.304-2.157,8.626-2.157c4.494,0,8.062,1.246,10.704,3.738c2.641,2.492,3.962,5.868,3.962,10.128h-10.097
			c0-1.79-0.437-3.163-1.31-4.122s-2.044-1.438-3.514-1.438c-2.791,0-4.42,1.779-4.889,5.336c-0.149,1.129-0.224,2.684-0.224,4.665
			c0,3.472,0.416,5.879,1.246,7.221C517.671,201.03,518.992,201.701,520.802,201.701z"/>
		<path fill="#FFFFFF" d="M561.091,184.543l-3.546-0.255c-3.387,0-5.559,1.065-6.518,3.195v21.886H540.26v-34.57h10.096l0.352,4.441
			c1.811-3.387,4.334-5.08,7.572-5.08c1.15,0,2.151,0.128,3.003,0.383L561.091,184.543z"/>
		<path fill="#FFFFFF" d="M581.093,210.008c-5.304,0-9.596-1.582-12.876-4.745s-4.92-7.279-4.92-12.349v-0.895
			c0-3.536,0.655-6.656,1.965-9.361s3.221-4.798,5.735-6.278c2.513-1.48,5.496-2.221,8.946-2.221c4.856,0,8.69,1.507,11.502,4.521
			c2.812,3.014,4.218,7.216,4.218,12.604v4.186h-21.407c0.383,1.938,1.225,3.461,2.524,4.569c1.299,1.108,2.982,1.662,5.048,1.662
			c3.408,0,6.07-1.193,7.987-3.579l4.92,5.815c-1.342,1.853-3.243,3.329-5.703,4.425
			C586.572,209.459,583.925,210.008,581.093,210.008z M579.878,182.467c-3.153,0-5.027,2.088-5.623,6.262h10.863v-0.831
			c0.042-1.725-0.394-3.062-1.31-4.01C582.892,182.941,581.583,182.467,579.878,182.467z"/>
		<path fill="#FFFFFF" d="M619.465,209.369c-0.383-0.703-0.725-1.736-1.022-3.099c-1.981,2.492-4.75,3.738-8.307,3.738
			c-3.259,0-6.028-0.985-8.307-2.956c-2.279-1.97-3.418-4.446-3.418-7.429c0-3.749,1.384-6.582,4.153-8.499
			c2.769-1.917,6.794-2.875,12.077-2.875h3.323v-1.83c0-3.189-1.374-4.784-4.122-4.784c-2.556,0-3.834,1.263-3.834,3.789h-10.767
			c0-3.34,1.422-6.053,4.265-8.137c2.844-2.085,6.47-3.128,10.879-3.128s7.892,1.076,10.448,3.227
			c2.556,2.152,3.866,5.102,3.93,8.85v15.305c0.042,3.174,0.532,5.602,1.47,7.285v0.543H619.465z M612.724,202.34
			c1.342,0,2.455-0.288,3.339-0.862c0.884-0.575,1.518-1.225,1.901-1.949v-5.527h-3.131c-3.749,0-5.624,1.683-5.624,5.048
			c0,0.98,0.33,1.773,0.991,2.38C610.86,202.037,611.701,202.34,612.724,202.34z"/>
		<path fill="#FFFFFF" d="M652.821,199.656c0-0.916-0.479-1.65-1.438-2.205c-0.958-0.554-2.78-1.129-5.464-1.726
			c-2.684-0.596-4.899-1.378-6.646-2.348c-1.747-0.969-3.078-2.146-3.994-3.531c-0.916-1.384-1.374-2.971-1.374-4.76
			c0-3.174,1.31-5.788,3.93-7.844c2.62-2.056,6.049-3.083,10.288-3.083c4.558,0,8.222,1.034,10.991,3.099
			c2.769,2.066,4.153,4.782,4.153,8.147H652.47c0-2.769-1.459-4.153-4.377-4.153c-1.129,0-2.077,0.314-2.844,0.942
			c-0.767,0.628-1.15,1.411-1.15,2.348c0,0.958,0.468,1.736,1.406,2.333c0.937,0.597,2.433,1.086,4.489,1.47
			s3.861,0.842,5.416,1.374c5.197,1.789,7.796,4.995,7.796,9.617c0,3.152-1.4,5.719-4.201,7.7
			c-2.801,1.981-6.428,2.972-10.879,2.972c-2.961,0-5.602-0.533-7.923-1.598c-2.322-1.065-4.133-2.513-5.432-4.345
			c-1.3-1.832-1.949-3.759-1.949-5.783h10.064c0.042,1.598,0.575,2.764,1.598,3.499s2.333,1.103,3.93,1.103
			c1.47,0,2.572-0.298,3.307-0.895S652.821,200.615,652.821,199.656z"/>
		<path fill="#FFFFFF" d="M684.964,210.008c-5.304,0-9.596-1.582-12.876-4.745s-4.92-7.279-4.92-12.349v-0.895
			c0-3.536,0.655-6.656,1.965-9.361s3.221-4.798,5.735-6.278c2.513-1.48,5.496-2.221,8.946-2.221c4.856,0,8.69,1.507,11.502,4.521
			c2.812,3.014,4.218,7.216,4.218,12.604v4.186h-21.407c0.383,1.938,1.225,3.461,2.524,4.569c1.299,1.108,2.982,1.662,5.048,1.662
			c3.408,0,6.07-1.193,7.987-3.579l4.92,5.815c-1.342,1.853-3.243,3.329-5.703,4.425
			C690.443,209.459,687.796,210.008,684.964,210.008z M683.75,182.467c-3.153,0-5.027,2.088-5.623,6.262h10.863v-0.831
			c0.042-1.725-0.394-3.062-1.31-4.01C686.763,182.941,685.454,182.467,683.75,182.467z"/>
		<path fill="#FFFFFF" d="M702.504,191.828c0-5.474,1.182-9.787,3.546-12.94c2.364-3.152,5.666-4.729,9.905-4.729
			c3.088,0,5.687,1.214,7.796,3.643v-17.509h10.799v49.076h-9.681l-0.543-3.706c-2.215,2.897-5.027,4.345-8.435,4.345
			c-4.111,0-7.37-1.576-9.777-4.729C703.708,202.127,702.504,197.644,702.504,191.828z M713.271,192.5
			c0,6.134,1.789,9.202,5.368,9.202c2.385,0,4.09-1.001,5.112-3.003v-13.164c-0.98-2.045-2.663-3.067-5.048-3.067
			c-3.323,0-5.123,2.684-5.4,8.052L713.271,192.5z"/>
		<path fill="#FFFFFF" d="M755.606,191.765c0-3.451,0.671-6.523,2.013-9.218c1.342-2.694,3.27-4.766,5.783-6.214
			c2.513-1.448,5.463-2.173,8.85-2.173c5.176,0,9.255,1.603,12.237,4.809c2.982,3.206,4.473,7.567,4.473,13.083v0.384
			c0,5.389-1.497,9.665-4.489,12.828c-2.993,3.163-7.045,4.745-12.157,4.745c-4.92,0-8.872-1.475-11.854-4.425
			c-2.982-2.95-4.59-6.949-4.825-11.998L755.606,191.765z M766.374,192.436c0,3.195,0.5,5.538,1.501,7.029
			c1.001,1.491,2.481,2.237,4.441,2.237c3.834,0,5.793-2.95,5.879-8.851v-1.086c0-6.199-1.981-9.298-5.943-9.298
			c-3.6,0-5.549,2.673-5.847,8.02L766.374,192.436z"/>
		<path fill="#FFFFFF" d="M814.299,205.631c-2.279,2.918-5.357,4.377-9.233,4.377c-3.792,0-6.662-1.103-8.611-3.307
			c-1.949-2.205-2.923-5.373-2.923-9.505v-22.397h10.768v22.461c0,2.961,1.438,4.441,4.313,4.441c2.471,0,4.229-0.884,5.271-2.652
			v-24.25h10.832v34.57h-10.097L814.299,205.631z"/>
		<path fill="#FFFFFF" d="M851.521,184.543l-3.547-0.255c-3.387,0-5.559,1.065-6.518,3.195v21.886h-10.768v-34.57h10.096
			l0.352,4.441c1.811-3.387,4.335-5.08,7.572-5.08c1.15,0,2.152,0.128,3.004,0.383L851.521,184.543z"/>
		<path fill="#FFFFFF" d="M892.609,184.543l-3.547-0.255c-3.387,0-5.559,1.065-6.518,3.195v21.886h-10.768v-34.57h10.097
			l0.352,4.441c1.811-3.387,4.335-5.08,7.572-5.08c1.15,0,2.151,0.128,3.003,0.383L892.609,184.543z"/>
		<path fill="#FFFFFF" d="M912.611,210.008c-5.305,0-9.597-1.582-12.877-4.745s-4.92-7.279-4.92-12.349v-0.895
			c0-3.536,0.654-6.656,1.965-9.361s3.221-4.798,5.734-6.278s5.496-2.221,8.947-2.221c4.855,0,8.689,1.507,11.502,4.521
			c2.812,3.014,4.217,7.216,4.217,12.604v4.186h-21.406c0.383,1.938,1.225,3.461,2.523,4.569c1.299,1.108,2.982,1.662,5.049,1.662
			c3.408,0,6.07-1.193,7.987-3.579l4.921,5.815c-1.342,1.853-3.243,3.329-5.703,4.425
			C918.09,209.459,915.443,210.008,912.611,210.008z M911.396,182.467c-3.152,0-5.027,2.088-5.623,6.262h10.863v-0.831
			c0.042-1.725-0.395-3.062-1.311-4.01C914.41,182.941,913.101,182.467,911.396,182.467z"/>
		<path fill="#FFFFFF" d="M946.127,201.701c1.512,0,2.684-0.41,3.514-1.23c0.83-0.819,1.236-1.965,1.215-3.435h10.096
			c0,3.792-1.357,6.901-4.074,9.33c-2.715,2.428-6.213,3.643-10.494,3.643c-5.027,0-8.99-1.576-11.887-4.729
			c-2.896-3.152-4.346-7.519-4.346-13.1v-0.447c0-3.493,0.645-6.576,1.934-9.25c1.289-2.673,3.146-4.729,5.576-6.167
			c2.428-1.438,5.303-2.157,8.627-2.157c4.492,0,8.061,1.246,10.703,3.738c2.641,2.492,3.961,5.868,3.961,10.128h-10.096
			c0-1.79-0.438-3.163-1.311-4.122s-2.045-1.438-3.514-1.438c-2.791,0-4.42,1.779-4.889,5.336c-0.15,1.129-0.225,2.684-0.225,4.665
			c0,3.472,0.416,5.879,1.246,7.221C942.996,201.03,944.316,201.701,946.127,201.701z"/>
		<path fill="#FFFFFF" d="M979.323,194.289l5.751-19.49h11.534l-14.09,40.354l-0.607,1.47c-2.002,4.473-5.538,6.709-10.607,6.709
			c-1.406,0-2.887-0.212-4.441-0.637v-7.67h1.406c1.512,0,2.668-0.219,3.467-0.656s1.39-1.22,1.772-2.35l0.863-2.302l-12.014-34.918
			h11.502L979.323,194.289z"/>
		<path fill="#FFFFFF" d="M1013.606,201.701c1.512,0,2.684-0.41,3.515-1.23c0.83-0.819,1.235-1.965,1.214-3.435h10.097
			c0,3.792-1.358,6.901-4.074,9.33s-6.214,3.643-10.495,3.643c-5.027,0-8.989-1.576-11.886-4.729
			c-2.897-3.152-4.346-7.519-4.346-13.1v-0.447c0-3.493,0.645-6.576,1.934-9.25c1.288-2.673,3.146-4.729,5.575-6.167
			c2.428-1.438,5.304-2.157,8.627-2.157c4.493,0,8.062,1.246,10.703,3.738c2.641,2.492,3.962,5.868,3.962,10.128h-10.097
			c0-1.79-0.437-3.163-1.31-4.122c-0.874-0.958-2.045-1.438-3.515-1.438c-2.791,0-4.42,1.779-4.889,5.336
			c-0.149,1.129-0.224,2.684-0.224,4.665c0,3.472,0.415,5.879,1.246,7.221C1010.476,201.03,1011.796,201.701,1013.606,201.701z"/>
		<path fill="#FFFFFF" d="M1044.343,209.369h-10.8v-49.076h10.8V209.369z"/>
		<path fill="#FFFFFF" d="M1050.893,165.853c0-1.542,0.554-2.807,1.661-3.793c1.107-0.985,2.545-1.479,4.313-1.479
			c1.768,0,3.206,0.494,4.313,1.479c1.107,0.986,1.661,2.25,1.661,3.793c0,1.543-0.554,2.808-1.661,3.793
			c-1.107,0.986-2.546,1.479-4.313,1.479c-1.769,0-3.206-0.493-4.313-1.479C1051.446,168.66,1050.893,167.396,1050.893,165.853z
			 M1062.331,209.369h-10.8v-34.57h10.8V209.369z"/>
		<path fill="#FFFFFF" d="M1078.849,174.799l0.352,4.058c2.385-3.131,5.676-4.697,9.872-4.697c3.6,0,6.289,1.076,8.067,3.227
			c1.778,2.152,2.7,5.389,2.764,9.713v22.27h-10.799v-21.822c0-1.746-0.352-3.03-1.055-3.85c-0.702-0.819-1.98-1.23-3.834-1.23
			c-2.108,0-3.674,0.831-4.696,2.492v24.41h-10.768v-34.57H1078.849z"/>
		<path fill="#FFFFFF" d="M1104.601,191.828c0-3.493,0.575-6.582,1.726-9.266c1.15-2.684,2.801-4.755,4.952-6.214
			c2.151-1.458,4.654-2.188,7.509-2.188c3.6,0,6.411,1.214,8.435,3.643l0.384-3.003h9.776v33.26c0,3.046-0.708,5.692-2.124,7.94
			c-1.417,2.247-3.467,3.972-6.15,5.176c-2.685,1.203-5.794,1.805-9.33,1.805c-2.535,0-4.989-0.479-7.364-1.438
			c-2.376-0.958-4.191-2.205-5.447-3.738l4.505-6.326c2.002,2.364,4.643,3.546,7.924,3.546c4.771,0,7.156-2.45,7.156-7.349v-1.086
			c-2.066,2.28-4.676,3.419-7.828,3.419c-4.217,0-7.625-1.614-10.224-4.841s-3.898-7.545-3.898-12.956V191.828z M1115.4,192.5
			c0,2.833,0.532,5.075,1.598,6.726c1.064,1.651,2.556,2.476,4.473,2.476c2.321,0,4.015-0.777,5.08-2.333v-14.538
			c-1.044-1.576-2.716-2.364-5.016-2.364c-1.917,0-3.419,0.858-4.506,2.572C1115.943,186.754,1115.4,189.24,1115.4,192.5z"/>
		<path fill="#FFFFFF" d="M1158.438,191.765c0-3.451,0.671-6.523,2.013-9.218c1.343-2.694,3.27-4.766,5.783-6.214
			c2.514-1.448,5.464-2.173,8.851-2.173c5.176,0,9.255,1.603,12.237,4.809c2.981,3.206,4.473,7.567,4.473,13.083v0.384
			c0,5.389-1.496,9.665-4.489,12.828c-2.992,3.163-7.045,4.745-12.157,4.745c-4.92,0-8.871-1.475-11.854-4.425
			c-2.982-2.95-4.59-6.949-4.824-11.998L1158.438,191.765z M1169.205,192.436c0,3.195,0.5,5.538,1.502,7.029
			c1.001,1.491,2.48,2.237,4.44,2.237c3.835,0,5.794-2.95,5.879-8.851v-1.086c0-6.199-1.98-9.298-5.942-9.298
			c-3.6,0-5.549,2.673-5.847,8.02L1169.205,192.436z"/>
		<path fill="#FFFFFF" d="M1198.919,209.369v-27.094h-5.016v-7.476h5.016v-2.748c0-3.94,1.161-6.997,3.482-9.169
			c2.322-2.173,5.581-3.259,9.777-3.259c1.533,0,3.216,0.224,5.048,0.671l0.032,7.923c-0.66-0.191-1.545-0.288-2.652-0.288
			c-3.259,0-4.888,1.406-4.888,4.218v2.652h6.741v7.476h-6.741v27.094H1198.919z"/>
		<path fill="#FFFFFF" d="M1249.081,166.204v8.595h5.688v7.476h-5.688v15.816c0,1.299,0.234,2.205,0.703,2.716
			c0.469,0.511,1.395,0.767,2.779,0.767c1.065,0,1.96-0.064,2.685-0.192v7.7c-1.938,0.618-3.962,0.927-6.071,0.927
			c-3.706,0-6.443-0.874-8.211-2.62c-1.769-1.746-2.651-4.398-2.651-7.956v-17.158h-4.409v-7.476h4.409v-8.595H1249.081z"/>
		<path fill="#FFFFFF" d="M1269.529,178.505c2.301-2.896,5.24-4.345,8.818-4.345c3.813,0,6.688,1.129,8.627,3.387
			c1.938,2.258,2.929,5.591,2.971,10v21.822h-10.799v-21.566c0-1.832-0.373-3.179-1.118-4.042c-0.746-0.863-2.013-1.294-3.802-1.294
			c-2.216,0-3.781,0.703-4.697,2.109v24.793h-10.768v-49.076h10.768V178.505z"/>
		<path fill="#FFFFFF" d="M1295.856,165.853c0-1.542,0.554-2.807,1.661-3.793c1.107-0.985,2.545-1.479,4.313-1.479
			c1.768,0,3.206,0.494,4.313,1.479c1.107,0.986,1.661,2.25,1.661,3.793c0,1.543-0.554,2.808-1.661,3.793
			c-1.107,0.986-2.546,1.479-4.313,1.479c-1.769,0-3.206-0.493-4.313-1.479C1296.41,168.66,1295.856,167.396,1295.856,165.853z
			 M1307.295,209.369h-10.8v-34.57h10.8V209.369z"/>
		<path fill="#FFFFFF" d="M1323.813,174.799l0.352,4.058c2.385-3.131,5.676-4.697,9.872-4.697c3.6,0,6.289,1.076,8.067,3.227
			c1.778,2.152,2.7,5.389,2.764,9.713v22.27h-10.799v-21.822c0-1.746-0.352-3.03-1.055-3.85c-0.702-0.819-1.98-1.23-3.834-1.23
			c-2.108,0-3.674,0.831-4.696,2.492v24.41h-10.768v-34.57H1323.813z"/>
		<path fill="#FFFFFF" d="M1349.564,191.828c0-3.493,0.575-6.582,1.726-9.266c1.15-2.684,2.801-4.755,4.952-6.214
			c2.151-1.458,4.654-2.188,7.509-2.188c3.6,0,6.411,1.214,8.435,3.643l0.384-3.003h9.776v33.26c0,3.046-0.708,5.692-2.124,7.94
			c-1.417,2.247-3.467,3.972-6.15,5.176c-2.685,1.203-5.794,1.805-9.33,1.805c-2.535,0-4.989-0.479-7.364-1.438
			c-2.376-0.958-4.191-2.205-5.447-3.738l4.505-6.326c2.002,2.364,4.643,3.546,7.924,3.546c4.771,0,7.156-2.45,7.156-7.349v-1.086
			c-2.066,2.28-4.676,3.419-7.828,3.419c-4.217,0-7.625-1.614-10.224-4.841s-3.898-7.545-3.898-12.956V191.828z M1360.364,192.5
			c0,2.833,0.532,5.075,1.598,6.726c1.064,1.651,2.556,2.476,4.473,2.476c2.321,0,4.015-0.777,5.08-2.333v-14.538
			c-1.044-1.576-2.716-2.364-5.016-2.364c-1.917,0-3.419,0.858-4.506,2.572C1360.907,186.754,1360.364,189.24,1360.364,192.5z"/>
		<path fill="#FFFFFF" d="M1406.564,199.656c0-0.916-0.479-1.65-1.438-2.205c-0.959-0.554-2.78-1.129-5.464-1.726
			c-2.684-0.596-4.899-1.378-6.646-2.348c-1.747-0.969-3.078-2.146-3.994-3.531c-0.916-1.384-1.374-2.971-1.374-4.76
			c0-3.174,1.311-5.788,3.931-7.844s6.049-3.083,10.288-3.083c4.558,0,8.222,1.034,10.99,3.099c2.77,2.066,4.154,4.782,4.154,8.147
			h-10.8c0-2.769-1.459-4.153-4.377-4.153c-1.129,0-2.077,0.314-2.844,0.942c-0.767,0.628-1.15,1.411-1.15,2.348
			c0,0.958,0.469,1.736,1.406,2.333c0.937,0.597,2.433,1.086,4.489,1.47c2.055,0.383,3.86,0.842,5.415,1.374
			c5.197,1.789,7.796,4.995,7.796,9.617c0,3.152-1.4,5.719-4.201,7.7s-6.428,2.972-10.879,2.972c-2.961,0-5.603-0.533-7.924-1.598
			c-2.322-1.065-4.133-2.513-5.432-4.345c-1.3-1.832-1.949-3.759-1.949-5.783h10.064c0.042,1.598,0.575,2.764,1.598,3.499
			s2.332,1.103,3.93,1.103c1.47,0,2.572-0.298,3.307-0.895C1406.197,201.393,1406.564,200.615,1406.564,199.656z"/>
		<path fill="#FFFFFF" d="M1449.634,209.369h-10.8v-49.076h10.8V209.369z"/>
		<path fill="#FFFFFF" d="M1456.184,165.853c0-1.542,0.554-2.807,1.661-3.793c1.107-0.985,2.545-1.479,4.313-1.479
			c1.768,0,3.206,0.494,4.313,1.479c1.107,0.986,1.661,2.25,1.661,3.793c0,1.543-0.554,2.808-1.661,3.793
			c-1.107,0.986-2.546,1.479-4.313,1.479c-1.769,0-3.206-0.493-4.313-1.479C1456.737,168.66,1456.184,167.396,1456.184,165.853z
			 M1467.622,209.369h-10.8v-34.57h10.8V209.369z"/>
		<path fill="#FFFFFF" d="M1488.134,196.493l-3.035,3.035v9.841h-10.767v-49.108h10.767v26.072l1.087-1.438l8.115-10.096h12.908
			l-12.109,14.218l12.908,20.353h-12.333L1488.134,196.493z"/>
		<path fill="#FFFFFF" d="M1526.123,210.008c-5.304,0-9.596-1.582-12.876-4.745s-4.92-7.279-4.92-12.349v-0.895
			c0-3.536,0.654-6.656,1.965-9.361c1.31-2.705,3.222-4.798,5.735-6.278c2.513-1.48,5.495-2.221,8.945-2.221
			c4.856,0,8.691,1.507,11.503,4.521c2.812,3.014,4.217,7.216,4.217,12.604v4.186h-21.406c0.383,1.938,1.225,3.461,2.523,4.569
			c1.3,1.108,2.982,1.662,5.049,1.662c3.407,0,6.07-1.193,7.987-3.579l4.921,5.815c-1.343,1.853-3.243,3.329-5.703,4.425
			C1531.603,209.459,1528.956,210.008,1526.123,210.008z M1524.909,182.467c-3.152,0-5.027,2.088-5.623,6.262h10.863v-0.831
			c0.042-1.725-0.395-3.062-1.311-4.01C1527.923,182.941,1526.613,182.467,1524.909,182.467z"/>
	</g>
	<g>
		<g>
			<g>
				<path fill-rule="evenodd" clip-rule="evenodd" fill="#E32228" d="M364.928,444.797c3.192,15.746,3.101,29.521,0.227,41.627
					c-4.363,12.891-7.941,25.533,7.279,32.302c15.468,4.39,30.936,4.633,46.404-0.681c7.323-3.082,9.133-10.495,7.962-20.246
					c-4.962-14.421-7.553-29.633-3.411-47.088c3.505-19.065,3.561-38.336,0.64-57.78c-1.756-11.709-3.921-17.334-7.668-28.11
					c-3.191-9.169-5.641-18.566-7.218-28.236c-1.03-6.316-1.19-10.183-0.995-16.503c2.82-3.491,2.639-7.482,0-11.886
					c0.773-0.165,1.591-0.247,1.82-1.422c0.804-6.34-3.309-8.333-7.223-8.531c-4.928,0-9.857,0-14.786,0
					c-7.525-0.016-8.433,2.557-8.928,5.29c-0.369,2.919,0.16,4.456,1.818,4.776c-2.458,4.018-3.338,7.992-0.029,11.857
					C385.19,360.01,351.15,381.445,364.928,444.797z"/>
			</g>
			<g>
				<path fill-rule="evenodd" clip-rule="evenodd" fill="#E32228" d="M438.262,444.797c3.192,15.746,3.101,29.521,0.227,41.627
					c-4.363,12.891-7.94,25.533,7.279,32.302c15.468,4.39,30.937,4.633,46.404-0.681c7.324-3.082,9.134-10.495,7.962-20.246
					c-4.961-14.421-7.553-29.633-3.411-47.088c3.505-19.065,3.562-38.336,0.64-57.78c-1.756-11.709-3.921-17.334-7.668-28.11
					c-3.191-9.169-5.641-18.566-7.218-28.236c-1.031-6.316-1.19-10.183-0.995-16.503c2.82-3.491,2.639-7.482,0-11.886
					c0.773-0.165,1.592-0.247,1.82-1.422c0.804-6.34-3.309-8.333-7.223-8.531c-4.928,0-9.856,0-14.786,0
					c-7.525-0.016-8.433,2.557-8.928,5.29c-0.369,2.919,0.16,4.456,1.818,4.776c-2.458,4.018-3.338,7.992-0.029,11.857
					C458.524,360.01,424.484,381.445,438.262,444.797z"/>
			</g>
			<g>
				<path fill-rule="evenodd" clip-rule="evenodd" fill="#E32228" d="M511.596,444.797c3.192,15.746,3.101,29.521,0.227,41.627
					c-4.363,12.891-7.94,25.533,7.279,32.302c15.468,4.39,30.937,4.633,46.404-0.681c7.324-3.082,9.134-10.495,7.962-20.246
					c-4.961-14.421-7.553-29.633-3.411-47.088c3.505-19.065,3.562-38.336,0.64-57.78c-1.756-11.709-3.921-17.334-7.668-28.11
					c-3.191-9.169-5.641-18.566-7.218-28.236c-1.031-6.316-1.19-10.183-0.995-16.503c2.82-3.491,2.639-7.482,0-11.886
					c0.773-0.165,1.592-0.247,1.82-1.422c0.804-6.34-3.309-8.333-7.223-8.531c-4.928,0-9.856,0-14.786,0
					c-7.525-0.016-8.433,2.557-8.928,5.29c-0.37,2.919,0.16,4.456,1.818,4.776c-2.458,4.018-3.338,7.992-0.029,11.857
					C531.858,360.01,497.818,381.445,511.596,444.797z"/>
			</g>
			<g>
				<path fill-rule="evenodd" clip-rule="evenodd" fill="#E32228" d="M584.93,444.797c3.192,15.746,3.101,29.521,0.227,41.627
					c-4.363,12.891-7.94,25.533,7.279,32.302c15.468,4.39,30.937,4.633,46.404-0.681c7.324-3.082,9.134-10.495,7.962-20.246
					c-4.961-14.421-7.553-29.633-3.411-47.088c3.505-19.065,3.562-38.336,0.64-57.78c-1.756-11.709-3.921-17.334-7.668-28.11
					c-3.191-9.169-5.641-18.566-7.218-28.236c-1.031-6.316-1.19-10.183-0.995-16.503c2.82-3.491,2.639-7.482,0-11.886
					c0.773-0.165,1.592-0.247,1.82-1.422c0.804-6.34-3.309-8.333-7.223-8.531c-4.928,0-9.856,0-14.786,0
					c-7.525-0.016-8.433,2.557-8.928,5.29c-0.37,2.919,0.16,4.456,1.818,4.776c-2.458,4.018-3.338,7.992-0.029,11.857
					C605.192,360.01,571.152,381.445,584.93,444.797z"/>
			</g>
		</g>
		<g>
			<path fill="#FFFFFF" d="M371.447,584.968v-45.148h16.217c5.809,0,10.228,1.065,13.256,3.194c3.028,2.129,4.542,5.22,4.542,9.271
				c0,2.336-0.538,4.331-1.612,5.985c-1.075,1.654-2.657,2.874-4.744,3.659c2.356,0.62,4.165,1.778,5.426,3.473
				c1.261,1.695,1.892,3.763,1.892,6.202c0,4.424-1.401,7.748-4.202,9.969c-2.801,2.223-6.951,3.354-12.45,3.396H371.447z
				 M382.331,558.642h5.675c2.377-0.021,4.072-0.456,5.085-1.307c1.012-0.85,1.519-2.104,1.519-3.763
				c0-1.907-0.548-3.281-1.643-4.121c-1.096-0.839-2.864-1.26-5.303-1.26h-5.333V558.642z M382.331,565.773v10.822h7.132
				c1.964,0,3.473-0.449,4.527-1.349s1.582-2.166,1.582-3.798c0-3.763-1.871-5.654-5.612-5.675H382.331z"/>
			<path fill="#FFFFFF" d="M450.643,563.324c0,4.403-0.817,8.3-2.45,11.69c-1.633,3.391-3.954,6-6.961,7.83
				s-6.434,2.744-10.279,2.744s-7.256-0.884-10.233-2.651c-2.977-1.767-5.297-4.294-6.961-7.582
				c-1.664-3.287-2.538-7.059-2.62-11.318v-2.543c0-4.423,0.811-8.326,2.434-11.706c1.623-3.38,3.948-5.99,6.977-7.83
				c3.028-1.84,6.476-2.76,10.341-2.76c3.824,0,7.235,0.91,10.233,2.729c2.997,1.819,5.328,4.409,6.992,7.768
				c1.664,3.36,2.507,7.209,2.527,11.551V563.324z M439.573,561.432c0-4.485-0.75-7.892-2.249-10.217s-3.643-3.488-6.434-3.488
				c-5.458,0-8.341,4.093-8.651,12.279l-0.031,3.318c0,4.424,0.734,7.825,2.202,10.202c1.468,2.377,3.648,3.566,6.543,3.566
				c2.749,0,4.868-1.168,6.357-3.504c1.488-2.335,2.243-5.695,2.264-10.078V561.432z"/>
			<path fill="#FFFFFF" d="M489.063,548.223h-13.551v36.745h-10.884v-36.745h-13.303v-8.403h37.738V548.223z"/>
			<path fill="#FFFFFF" d="M529.591,548.223h-13.551v36.745h-10.884v-36.745h-13.303v-8.403h37.738V548.223z"/>
			<path fill="#FFFFFF" d="M545.064,576.595h18.946v8.373h-29.83v-45.148h10.884V576.595z"/>
			<path fill="#FFFFFF" d="M596.601,565.804h-17.117v10.791h20.218v8.373H568.6v-45.148h31.164v8.403h-20.28v9.52h17.117V565.804z"
				/>
			<path fill="#FFFFFF" d="M627.423,572.967c0-1.591-0.563-2.832-1.69-3.721c-1.127-0.889-3.106-1.809-5.938-2.76
				c-2.833-0.951-5.147-1.871-6.946-2.76c-5.851-2.874-8.775-6.822-8.775-11.846c0-2.501,0.729-4.708,2.186-6.62
				s3.52-3.4,6.186-4.465c2.667-1.064,5.664-1.597,8.993-1.597c3.245,0,6.155,0.579,8.729,1.736s4.574,2.806,6,4.946
				s2.14,4.584,2.14,7.333h-10.853c0-1.84-0.563-3.266-1.69-4.279c-1.127-1.013-2.651-1.519-4.574-1.519
				c-1.943,0-3.479,0.429-4.605,1.287c-1.127,0.858-1.69,1.949-1.69,3.271c0,1.158,0.62,2.207,1.86,3.147
				c1.241,0.941,3.421,1.912,6.543,2.915c3.121,1.003,5.685,2.083,7.69,3.241c4.878,2.812,7.318,6.688,7.318,11.628
				c0,3.949-1.488,7.05-4.465,9.303c-2.977,2.253-7.06,3.38-12.249,3.38c-3.659,0-6.972-0.656-9.938-1.969
				c-2.967-1.313-5.199-3.111-6.698-5.396c-1.5-2.284-2.249-4.915-2.249-7.892h10.915c0,2.419,0.625,4.202,1.876,5.349
				s3.282,1.721,6.093,1.721c1.799,0,3.22-0.388,4.264-1.163S627.423,574.374,627.423,572.967z"/>
		</g>
	</g>
	<g>
		<g>
			<g>
				<g>
					<g>
						<g>
							<g>
								<polygon fill="#AC9064" points="1035.741,287.463 1005.237,287.463 995.067,297.631 1045.909,297.631 								"/>
							</g>
						</g>
						<polygon fill="#A18457" points="1045.909,320.509 1045.909,297.631 1035.741,297.631 1035.741,320.509 1005.237,320.509 
							1005.237,297.631 995.067,297.631 995.067,320.509 953.718,320.509 953.718,364.458 1085.569,364.458 1085.569,320.509 						
							"/>
						<polygon fill="#B49A72" points="1063.515,364.458 1063.515,323.452 1085.569,320.509 1085.569,364.458 						"/>
						<polygon fill="#B49A72" points="975.772,364.458 975.772,323.452 953.718,320.509 953.718,364.458 						"/>
						<polygon fill="#A98A5B" points="1063.515,364.458 1063.515,323.452 1089.265,327.078 1089.265,364.458 						"/>
						<polygon fill="#A98A5B" points="975.772,364.458 975.772,323.452 950.022,327.078 950.022,364.458 						"/>
					</g>
					<g>
						<path fill="#C1AF91" d="M1088.208,494.877c1.492,0,1.842-0.245,1.838-1.965c-0.002-1.392-0.742-25.531-0.742-25.531H949.985
							c0,0-0.742,24.139-0.744,25.531c-0.004,1.72,0.346,1.965,1.838,1.965H1088.208z"/>
						<rect x="1004.063" y="291.493" fill="#B49A72" width="32.848" height="10.949"/>
						<polygon fill="#B9A27E" points="1047.862,327.078 1047.862,302.442 1036.911,291.493 1036.911,327.078 1004.063,327.078 
							1004.063,291.493 993.114,302.442 993.114,327.078 950.022,327.078 950.022,467.381 1089.265,467.381 1089.265,327.078 						
							"/>
					</g>
				</g>
			</g>
			<g>
				<g>
					<g>
						<g>
							<g>
								<polygon fill="#BE9D6D" points="1101.665,306.472 1071.161,306.472 1060.993,316.639 1111.833,316.639 								"/>
							</g>
						</g>
						<polygon fill="#B0905F" points="1111.833,339.517 1111.833,316.639 1101.665,316.639 1101.665,339.517 1071.161,339.517 
							1071.161,316.639 1060.993,316.639 1060.993,339.517 1019.644,339.517 1019.644,383.466 1151.493,383.466 1151.493,339.517 
													"/>
						<polygon fill="#C6A87D" points="1129.44,383.466 1129.44,342.46 1151.493,339.517 1151.493,383.466 						"/>
						<polygon fill="#C6A87D" points="1041.698,383.466 1041.698,342.46 1019.644,339.517 1019.644,383.466 						"/>
						<polygon fill="#BA9765" points="1129.44,383.466 1129.44,342.46 1155.19,346.086 1155.19,383.466 						"/>
						<polygon fill="#BA9765" points="1041.698,383.466 1041.698,342.46 1015.948,346.086 1015.948,383.466 						"/>
					</g>
					<g>
						<path fill="#D5BF9F" d="M1154.134,513.886c1.492,0,1.842-0.245,1.838-1.966c-0.002-1.393-0.744-25.531-0.744-25.531h-139.318
							c0,0-0.74,24.138-0.742,25.531c-0.004,1.721,0.346,1.966,1.838,1.966H1154.134z"/>
						<rect x="1069.989" y="310.5" fill="#C6A87D" width="32.848" height="10.95"/>
						<polygon fill="#CCB28B" points="1113.786,346.086 1113.786,321.45 1102.837,310.5 1102.837,346.086 1069.989,346.086 
							1069.989,310.5 1059.038,321.45 1059.038,346.086 1015.948,346.086 1015.948,486.389 1155.19,486.389 1155.19,346.086 						
							"/>
					</g>
				</g>
			</g>
			<g>
				<g>
					<g>
						<g>
							<g>
								<polygon fill="#AC9064" points="1171.8,323.452 1141.296,323.452 1131.13,333.619 1181.968,333.619 								"/>
							</g>
						</g>
						<polygon fill="#A18457" points="1181.968,356.497 1181.968,333.619 1171.8,333.619 1171.8,356.497 1141.296,356.497 
							1141.296,333.619 1131.13,333.619 1131.13,356.497 1089.778,356.497 1089.778,400.446 1221.63,400.446 1221.63,356.497 						
							"/>
						<polygon fill="#B49A72" points="1199.575,400.446 1199.575,359.44 1221.63,356.497 1221.63,400.446 						"/>
						<polygon fill="#B49A72" points="1111.833,400.446 1111.833,359.44 1089.778,356.497 1089.778,400.446 						"/>
						<polygon fill="#A98A5B" points="1199.575,400.446 1199.575,359.44 1225.325,363.067 1225.325,400.446 						"/>
						<polygon fill="#A98A5B" points="1111.833,400.446 1111.833,359.44 1086.083,363.067 1086.083,400.446 						"/>
					</g>
					<g>
						<path fill="#C1AF91" d="M1224.271,530.865c1.49,0,1.84-0.245,1.836-1.965c-0.002-1.393-0.742-25.531-0.742-25.531h-139.32
							c0,0-0.74,24.139-0.742,25.531c-0.004,1.72,0.348,1.965,1.838,1.965H1224.271z"/>
						<rect x="1140.124" y="327.481" fill="#B49A72" width="32.85" height="10.949"/>
						<polygon fill="#B9A27E" points="1183.921,363.067 1183.921,338.43 1172.974,327.481 1172.974,363.067 1140.124,363.067 
							1140.124,327.481 1129.175,338.43 1129.175,363.067 1086.083,363.067 1086.083,503.369 1225.325,503.369 1225.325,363.067 
													"/>
					</g>
				</g>
			</g>
		</g>
		<g>
			<path fill="#FFFFFF" d="M997.094,593.445v-51.188h18.387c6.586,0,11.596,1.208,15.029,3.621c3.434,2.414,5.15,5.918,5.15,10.512
				c0,2.649-0.609,4.91-1.828,6.785c-1.219,1.875-3.012,3.258-5.379,4.148c2.672,0.703,4.723,2.016,6.152,3.938
				c1.43,1.922,2.145,4.266,2.145,7.031c0,5.016-1.588,8.784-4.764,11.303c-3.176,2.52-7.881,3.803-14.115,3.85H997.094z
				 M1009.434,563.597h6.434c2.695-0.023,4.617-0.517,5.766-1.481c1.148-0.963,1.723-2.386,1.723-4.267
				c0-2.163-0.621-3.72-1.863-4.672s-3.246-1.428-6.012-1.428h-6.047V563.597z M1009.434,571.683v12.27h8.086
				c2.227,0,3.938-0.51,5.133-1.529s1.793-2.455,1.793-4.307c0-4.266-2.121-6.41-6.363-6.434H1009.434z"/>
			<path fill="#FFFFFF" d="M1072.609,583.882h-16.91l-2.953,9.563h-13.184l18.773-51.188h11.602l18.914,51.188h-13.254
				L1072.609,583.882z M1058.652,574.355h11.004l-5.52-17.754L1058.652,574.355z"/>
			<path fill="#FFFFFF" d="M1133.746,587.117c-1.898,2.109-4.676,3.809-8.332,5.098s-7.664,1.934-12.023,1.934
				c-6.703,0-12.059-2.051-16.066-6.152c-4.008-4.101-6.152-9.809-6.434-17.121l-0.035-4.43c0-5.039,0.891-9.439,2.672-13.201
				s4.33-6.656,7.646-8.684c3.316-2.027,7.154-3.041,11.514-3.041c6.375,0,11.326,1.459,14.854,4.377s5.584,7.272,6.17,13.061
				h-11.883c-0.422-2.859-1.336-4.898-2.742-6.117c-1.406-1.218-3.398-1.828-5.977-1.828c-3.094,0-5.484,1.313-7.172,3.938
				c-1.688,2.625-2.543,6.375-2.566,11.25v3.094c0,5.11,0.873,8.947,2.619,11.514s4.494,3.85,8.244,3.85
				c3.211,0,5.602-0.715,7.172-2.145v-7.945h-8.578v-8.473h20.918V587.117z"/>
			<path fill="#FFFFFF" d="M1167.32,579.839c0-1.805-0.639-3.211-1.916-4.219c-1.277-1.007-3.521-2.051-6.732-3.129
				c-3.211-1.078-5.836-2.121-7.875-3.129c-6.633-3.257-9.949-7.734-9.949-13.43c0-2.835,0.826-5.338,2.479-7.506
				c1.652-2.167,3.99-3.855,7.014-5.063c3.023-1.207,6.422-1.811,10.195-1.811c3.68,0,6.979,0.656,9.896,1.969
				c2.918,1.313,5.186,3.182,6.803,5.607s2.426,5.198,2.426,8.314h-12.305c0-2.086-0.639-3.703-1.916-4.852
				c-1.277-1.148-3.006-1.723-5.186-1.723c-2.203,0-3.943,0.487-5.221,1.459c-1.277,0.973-1.916,2.209-1.916,3.709
				c0,1.313,0.703,2.502,2.109,3.568c1.406,1.067,3.879,2.168,7.418,3.305c3.539,1.137,6.445,2.361,8.719,3.674
				c5.531,3.188,8.297,7.582,8.297,13.184c0,4.477-1.688,7.993-5.063,10.547c-3.375,2.555-8.004,3.832-13.887,3.832
				c-4.148,0-7.904-0.744-11.268-2.232c-3.363-1.488-5.895-3.527-7.594-6.117c-1.699-2.589-2.549-5.572-2.549-8.947h12.375
				c0,2.742,0.709,4.764,2.127,6.064s3.721,1.951,6.908,1.951c2.039,0,3.65-0.439,4.834-1.318S1167.32,581.434,1167.32,579.839z"/>
		</g>
	</g>
	<g>
		<path fill="#FFFFFF" d="M755.887,461.688h-16.91l-2.953,9.563H722.84l18.773-51.188h11.602l18.914,51.188h-13.254L755.887,461.688
			z M741.93,452.161h11.004l-5.52-17.754L741.93,452.161z"/>
		<path fill="#FFFFFF" d="M818.605,471.251h-12.27l-18.14-31.852v31.852h-12.34v-51.188h12.34l18.105,31.852v-31.852h12.305V471.251
			z"/>
		<path fill="#FFFFFF" d="M826.41,471.251v-51.188h16.488c4.523,0,8.59,1.025,12.199,3.076c3.609,2.051,6.428,4.945,8.455,8.684
			c2.027,3.739,3.053,7.928,3.076,12.568v2.355c0,4.688-0.99,8.889-2.971,12.604c-1.98,3.715-4.77,6.622-8.367,8.719
			c-3.598,2.098-7.611,3.159-12.041,3.182H826.41z M838.75,429.591v32.168h4.289c3.539,0,6.258-1.26,8.156-3.779
			c1.898-2.519,2.848-6.263,2.848-11.232v-2.215c0-4.945-0.949-8.671-2.848-11.18c-1.898-2.508-4.664-3.762-8.297-3.762H838.75z"/>
	</g>
	<g>
		<path fill="#FFFFFF" d="M1282.549,286.307c3.104-2.781,6.361-4.956,9.773-6.522s6.698-2.454,9.861-2.662
			c3.162-0.208,5.91,0.248,8.244,1.367l-2.073,4.06c-2.906-0.606-6.185-0.151-9.836,1.366s-7.353,3.945-11.104,7.284l-0.839,0.753
			c-3.829,3.431-6.714,6.893-8.652,10.385c-1.939,3.492-2.76,6.722-2.463,9.689l-4.262,1.617c-0.86-2.394-1.011-5.178-0.449-8.353
			c0.561-3.175,1.793-6.337,3.693-9.485c1.902-3.15,4.318-6.06,7.246-8.729L1282.549,286.307z"/>
		<path fill="#FFFFFF" d="M1307.629,319.976l14.037-8.828l5.521,6.162l-25.004,13.635l-4.873-5.438l9.189-14.393l-15.328,7.543
			l-4.873-5.438l16.285-23.365l5.522,6.163l-10.63,13.206l15.4-7.883l4.018,4.483L1307.629,319.976z"/>
		<path fill="#FFFFFF" d="M1332.668,327.878c2.961-0.176,5.4,0.805,7.314,2.941c2.041,2.276,2.904,4.598,2.595,6.964
			c-0.312,2.366-1.772,4.741-4.382,7.126l-13.032,11.678l-5.779-6.448l12.879-11.541c1.094-0.98,1.698-1.925,1.815-2.831
			c0.115-0.907-0.305-1.895-1.262-2.964c-1.186-1.323-2.443-1.882-3.773-1.677l-14.806,13.27l-5.762-6.43l29.308-26.264l5.762,6.43
			L1332.668,327.878z"/>
		<path fill="#FFFFFF" d="M1334.447,366.948l-5.779-6.449l20.645-18.5l5.779,6.449L1334.447,366.948z M1354.313,336.829
			c0.921-0.825,1.973-1.172,3.154-1.037c1.181,0.135,2.245,0.729,3.191,1.785c0.946,1.055,1.421,2.178,1.425,3.367
			c0.004,1.188-0.455,2.195-1.376,3.021s-1.974,1.172-3.154,1.037c-1.181-0.134-2.245-0.729-3.19-1.783
			c-0.947-1.057-1.422-2.18-1.426-3.367C1352.933,338.663,1353.393,337.655,1354.313,336.829z"/>
		<path fill="#FFFFFF" d="M1350.396,375.532c0.811,0.903,1.682,1.383,2.615,1.441c0.935,0.057,1.835-0.314,2.701-1.113l5.402,6.029
			c-2.264,2.028-4.848,2.881-7.75,2.559c-2.904-0.321-5.501-1.762-7.792-4.318c-2.69-3.002-3.869-6.211-3.537-9.627
			c0.333-3.418,2.165-6.619,5.497-9.605l0.268-0.24c2.086-1.869,4.271-3.135,6.559-3.795c2.285-0.66,4.508-0.651,6.666,0.029
			s4.126,2.014,5.904,3.998c2.404,2.684,3.569,5.48,3.495,8.392c-0.075,2.911-1.384,5.507-3.929,7.786l-5.402-6.029
			c1.068-0.957,1.655-1.953,1.76-2.987c0.105-1.035-0.234-1.991-1.021-2.869c-1.494-1.667-3.428-1.688-5.803-0.063
			c-0.754,0.516-1.723,1.303-2.904,2.363c-2.074,1.857-3.289,3.394-3.646,4.607C1349.122,373.304,1349.428,374.451,1350.396,375.532
			z"/>
		<path fill="#FFFFFF" d="M1380.252,380.978c2.962-0.176,5.4,0.804,7.314,2.941c2.041,2.276,2.904,4.598,2.595,6.964
			c-0.312,2.365-1.772,4.741-4.382,7.126l-13.032,11.678l-5.778-6.449l12.879-11.541c1.094-0.98,1.698-1.924,1.814-2.83
			c0.115-0.907-0.305-1.895-1.262-2.964c-1.186-1.323-2.443-1.882-3.773-1.677l-14.806,13.27l-5.762-6.43l29.308-26.264l5.762,6.43
			L1380.252,380.978z"/>
		<path fill="#FFFFFF" d="M1390.752,429.778l-5.779-6.449l20.645-18.5l5.779,6.449L1390.752,429.778z M1410.617,399.659
			c0.922-0.825,1.973-1.172,3.154-1.037c1.182,0.134,2.245,0.729,3.191,1.784s1.42,2.179,1.426,3.368
			c0.004,1.188-0.455,2.195-1.377,3.021c-0.921,0.825-1.973,1.172-3.154,1.037s-2.244-0.729-3.191-1.784
			c-0.945-1.056-1.42-2.179-1.425-3.367S1409.695,400.485,1410.617,399.659z"/>
		<path fill="#FFFFFF" d="M1409.785,439.349c0.547-0.49,0.73-1.17,0.547-2.039c-0.182-0.869-0.813-2.264-1.893-4.187
			c-1.08-1.921-1.799-3.663-2.154-5.226c-0.355-1.561-0.365-2.986-0.029-4.273c0.338-1.289,1.04-2.411,2.108-3.369
			c1.896-1.697,4.157-2.314,6.787-1.85s5.079,1.962,7.347,4.494c2.439,2.721,3.783,5.462,4.031,8.221
			c0.248,2.76-0.633,5.04-2.643,6.841l-5.779-6.449c1.653-1.481,1.699-3.094,0.139-4.837c-0.605-0.674-1.3-1.07-2.086-1.193
			c-0.785-0.121-1.458,0.068-2.018,0.57c-0.572,0.512-0.786,1.208-0.641,2.088c0.146,0.879,0.654,2.033,1.525,3.467
			c0.871,1.433,1.563,2.756,2.078,3.969c1.712,4.061,1.188,7.329-1.572,9.803c-1.883,1.688-4.165,2.225-6.846,1.611
			c-2.683-0.613-5.215-2.248-7.597-4.906c-1.585-1.769-2.681-3.631-3.286-5.588c-0.607-1.955-0.711-3.813-0.313-5.568
			s1.201-3.176,2.41-4.258l5.387,6.01c-0.932,0.881-1.344,1.822-1.234,2.826c0.107,1.004,0.59,1.982,1.444,2.938
			c0.786,0.877,1.555,1.376,2.304,1.495C1408.553,440.058,1409.213,439.86,1409.785,439.349z"/>
		<path fill="#FFFFFF" d="M1430.756,453.343c2.086-1.87,4.238-3.18,6.455-3.929c2.219-0.75,4.339-0.872,6.361-0.368
			c2.023,0.504,3.799,1.607,5.326,3.313c1.926,2.149,2.705,4.479,2.338,6.986l1.999-1.379l5.231,5.839l-19.861,17.799
			c-1.819,1.63-3.778,2.624-5.878,2.98c-2.101,0.356-4.228,0.056-6.384-0.903c-2.154-0.959-4.178-2.494-6.07-4.605
			c-1.356-1.514-2.384-3.236-3.082-5.167c-0.699-1.931-0.926-3.683-0.684-5.253l6.189-0.695c-0.341,2.46,0.367,4.67,2.122,6.629
			c2.554,2.85,5.293,2.963,8.218,0.342l0.649-0.582c-2.468-0.014-4.544-0.963-6.23-2.845c-2.257-2.519-3.118-5.417-2.581-8.696
			c0.536-3.278,2.42-6.365,5.651-9.26L1430.756,453.343z M1436.134,460.149c-1.692,1.517-2.745,3.034-3.161,4.554
			c-0.416,1.519-0.111,2.852,0.915,3.997c1.242,1.386,2.612,1.98,4.11,1.785l8.682-7.779c0.383-1.467-0.041-2.889-1.271-4.262
			c-1.026-1.145-2.342-1.582-3.947-1.314C1439.855,457.399,1438.08,458.405,1436.134,460.149z"/>
		<path fill="#FFFFFF" d="M1467.113,485.161l-1.746-2.255c-1.813-2.022-3.611-2.75-5.396-2.183l-13.069,11.713l-5.763-6.43
			l20.645-18.5l5.403,6.028l-2.465,2.587c2.992-0.732,5.354-0.131,7.087,1.803c0.615,0.688,1.074,1.354,1.378,1.998
			L1467.113,485.161z"/>
		<path fill="#FFFFFF" d="M1462.609,510.731c-2.838-3.167-4.191-6.576-4.057-10.228c0.133-3.651,1.714-6.833,4.741-9.547
			l0.534-0.479c2.111-1.892,4.325-3.171,6.643-3.836c2.316-0.665,4.588-0.644,6.817,0.065c2.229,0.708,4.268,2.093,6.114,4.152
			c2.599,2.9,3.75,5.997,3.455,9.289s-2.053,6.381-5.27,9.264l-2.5,2.24l-11.456-12.783c-0.952,1.266-1.411,2.583-1.378,3.951
			c0.034,1.369,0.604,2.67,1.71,3.904c1.823,2.035,3.96,2.986,6.411,2.855l-0.84,6.05c-1.824,0.19-3.723-0.155-5.694-1.038
			C1465.869,513.711,1464.125,512.423,1462.609,510.731z M1478.406,495.269c-1.687-1.883-3.936-1.885-6.748-0.007l5.813,6.487
			l0.495-0.445c1.053-0.896,1.618-1.873,1.693-2.928C1479.736,497.321,1479.318,496.286,1478.406,495.269z"/>
		<path fill="#FFFFFF" d="M1483.525,533.306c0.215-0.605,0.65-1.362,1.305-2.27c-2.549,0.15-4.774-0.836-6.678-2.961
			c-1.744-1.945-2.639-4.126-2.682-6.542c-0.043-2.415,0.826-4.421,2.607-6.017c2.238-2.006,4.672-2.695,7.297-2.068
			c2.627,0.628,5.354,2.52,8.182,5.674l1.778,1.984l1.093-0.979c1.904-1.707,2.121-3.381,0.65-5.021
			c-1.367-1.527-2.806-1.614-4.314-0.263l-5.762-6.431c1.994-1.787,4.375-2.389,7.142-1.807s5.331,2.189,7.69,4.822
			c2.359,2.634,3.58,5.289,3.664,7.967c0.082,2.678-0.979,5.039-3.183,7.084l-9.14,8.189c-1.873,1.723-3.061,3.315-3.563,4.775
			l-0.325,0.291L1483.525,533.306z M1484.116,525.518c0.718,0.802,1.485,1.312,2.302,1.532c0.816,0.22,1.543,0.252,2.182,0.092
			l3.301-2.957l-1.676-1.87c-2.006-2.239-4.015-2.458-6.023-0.657c-0.586,0.525-0.883,1.146-0.892,1.866
			C1483.299,524.241,1483.568,524.907,1484.116,525.518z"/>
		<path fill="#FFFFFF" d="M1524.179,526.806l-5.133,4.6l3.044,3.396l-4.465,4.001l-3.044-3.396l-9.444,8.464
			c-0.775,0.695-1.191,1.319-1.246,1.873s0.289,1.243,1.03,2.069c0.569,0.637,1.087,1.137,1.551,1.502l-4.599,4.12
			c-1.406-0.827-2.674-1.87-3.802-3.13c-1.983-2.213-2.927-4.314-2.83-6.305s1.208-3.938,3.332-5.842l10.245-9.182l-2.359-2.633
			l4.465-4.001l2.359,2.633l5.133-4.6L1524.179,526.806z"/>
		<path fill="#FFFFFF" d="M1506.736,553.409c0.941-0.844,2.02-1.195,3.233-1.057s2.276,0.717,3.188,1.735
			c0.912,1.018,1.371,2.138,1.377,3.359s-0.463,2.255-1.403,3.098c-0.941,0.844-2.02,1.196-3.233,1.058
			c-1.214-0.141-2.277-0.719-3.189-1.736s-1.37-2.138-1.375-3.358C1505.328,555.286,1505.795,554.253,1506.736,553.409z
			 M1518.227,554.329l-4.668-5.209l18.248-17.833l6.139,6.85L1518.227,554.329z"/>
		<path fill="#FFFFFF" d="M1533.22,567.106c-2.989,2.68-6.22,4.782-9.689,6.311c-3.47,1.526-6.862,2.381-10.174,2.563
			s-6.114-0.316-8.409-1.495l2.073-4.06c2.907,0.582,6.167,0.127,9.782-1.369c3.613-1.495,7.225-3.825,10.832-6.99l1.164-1.043
			c3.829-3.431,6.713-6.893,8.652-10.385s2.76-6.723,2.463-9.689l4.262-1.617c0.896,2.408,1.087,5.225,0.571,8.449
			c-0.516,3.227-1.702,6.469-3.563,9.73c-1.86,3.26-4.235,6.208-7.125,8.844L1533.22,567.106z"/>
	</g>
	<g>
		<path fill="#FFFFFF" d="M342.954,728.204c0,10.142-2.097,17.938-6.29,23.39c-4.194,5.453-10.104,8.178-17.729,8.178
			c-6.291,0-11.362-2.497-15.212-7.491l-0.801,6.348h-17.271v-87.841h19.271v30.939c3.584-4.079,8.216-6.119,13.897-6.119
			c7.7,0,13.648,2.765,17.843,8.292c4.193,5.529,6.29,13.306,6.29,23.333V728.204z M323.625,726.975
			c0-5.937-0.792-10.171-2.373-12.703c-1.583-2.531-4.014-3.797-7.292-3.797c-4.347,0-7.358,1.656-9.036,4.967v24.55
			c1.64,3.274,4.689,4.91,9.15,4.91c4.537,0,7.415-2.207,8.636-6.623C323.319,736.11,323.625,732.342,323.625,726.975z"/>
		<path fill="#FFFFFF" d="M388.304,751.937c-4.079,5.224-9.589,7.834-16.527,7.834c-6.786,0-11.923-1.973-15.412-5.919
			c-3.488-3.946-5.232-9.616-5.232-17.013V696.75h19.272v40.203c0,5.3,2.573,7.949,7.721,7.949c4.422,0,7.567-1.582,9.436-4.747
			V696.75h19.387v61.877h-18.071L388.304,751.937z"/>
		<path fill="#FFFFFF" d="M439.945,681.367v15.383h10.179v13.382h-10.179v28.308c0,2.326,0.419,3.946,1.258,4.861
			c0.838,0.915,2.497,1.372,4.976,1.372c1.905,0,3.507-0.114,4.804-0.343v13.782c-3.47,1.105-7.092,1.658-10.866,1.658
			c-6.634,0-11.533-1.563-14.697-4.689c-3.165-3.126-4.746-7.873-4.746-14.24v-30.71h-7.893V696.75h7.893v-15.383H439.945z"/>
		<path fill="#FFFFFF" d="M540.31,733.236l6.234-36.486h18.472l-14.583,61.877h-16.299l-10.236-36.715l-10.294,36.715h-16.299
			l-14.583-61.877h18.472l6.119,37.344l9.836-37.344h13.439L540.31,733.236z"/>
		<path fill="#FFFFFF" d="M601.845,759.771c-9.493,0-17.177-2.831-23.047-8.492c-5.872-5.662-8.808-13.029-8.808-22.103v-1.602
			c0-6.328,1.173-11.914,3.518-16.756c2.345-4.841,5.766-8.587,10.266-11.237c4.498-2.649,9.836-3.975,16.012-3.975
			c8.693,0,15.556,2.698,20.588,8.092c5.033,5.396,7.549,12.916,7.549,22.561v7.491h-38.315c0.686,3.47,2.191,6.196,4.518,8.178
			c2.325,1.982,5.337,2.974,9.036,2.974c6.099,0,10.865-2.135,14.297-6.405l8.807,10.408c-2.402,3.317-5.805,5.958-10.208,7.921
			C611.652,758.79,606.914,759.771,601.845,759.771z M599.671,710.476c-5.643,0-8.998,3.737-10.064,11.209h19.443v-1.487
			c0.076-3.088-0.706-5.48-2.345-7.177C605.065,711.325,602.721,710.476,599.671,710.476z"/>
		<path fill="#FFFFFF" d="M638.845,701.44l-8.464-4.575c3.164-5.49,4.784-10.866,4.861-16.127v-9.951h14.068v9.322
			c0,3.545-1.021,7.33-3.06,11.352C644.211,695.483,641.742,698.81,638.845,701.44z"/>
		<path fill="#FFFFFF" d="M697.863,714.193l-6.348-0.458c-6.063,0-9.951,1.907-11.667,5.719v39.174h-19.272V696.75h18.071
			l0.629,7.949c3.24-6.062,7.759-9.093,13.554-9.093c2.059,0,3.85,0.229,5.375,0.686L697.863,714.193z"/>
		<path fill="#FFFFFF" d="M733.662,759.771c-9.493,0-17.176-2.831-23.047-8.492s-8.807-13.029-8.807-22.103v-1.602
			c0-6.328,1.173-11.914,3.518-16.756c2.345-4.841,5.766-8.587,10.265-11.237c4.498-2.649,9.837-3.975,16.013-3.975
			c8.692,0,15.556,2.698,20.588,8.092c5.032,5.396,7.549,12.916,7.549,22.561v7.491h-38.316c0.687,3.47,2.192,6.196,4.519,8.178
			c2.325,1.982,5.337,2.974,9.035,2.974c6.1,0,10.866-2.135,14.297-6.405l8.808,10.408c-2.402,3.317-5.805,5.958-10.208,7.921
			C743.47,758.79,738.732,759.771,733.662,759.771z M731.489,710.476c-5.643,0-8.998,3.737-10.065,11.209h19.444v-1.487
			c0.076-3.088-0.706-5.48-2.345-7.177C736.884,711.325,734.539,710.476,731.489,710.476z"/>
		<path fill="#FFFFFF" d="M800.915,758.628v-48.496h-8.979V696.75h8.979v-4.918c0-7.053,2.077-12.524,6.233-16.413
			c4.155-3.889,9.988-5.833,17.499-5.833c2.745,0,5.757,0.4,9.036,1.201l0.057,14.183c-1.182-0.343-2.765-0.515-4.746-0.515
			c-5.833,0-8.75,2.516-8.75,7.549v4.747h12.066v13.382h-12.066v48.496H800.915z"/>
		<path fill="#FFFFFF" d="M836.657,727.117c0-6.176,1.201-11.675,3.603-16.499c2.402-4.823,5.853-8.53,10.352-11.123
			c4.498-2.592,9.779-3.889,15.841-3.889c9.265,0,16.565,2.869,21.903,8.606c5.337,5.739,8.006,13.545,8.006,23.418v0.687
			c0,9.646-2.679,17.299-8.034,22.961c-5.357,5.662-12.61,8.492-21.761,8.492c-8.807,0-15.879-2.639-21.217-7.92
			c-5.338-5.28-8.216-12.438-8.635-21.474L836.657,727.117z M855.93,728.318c0,5.719,0.896,9.913,2.688,12.582
			c1.792,2.669,4.441,4.003,7.949,4.003c6.863,0,10.37-5.28,10.522-15.841v-1.944c0-11.094-3.545-16.642-10.637-16.642
			c-6.443,0-9.932,4.785-10.465,14.354L855.93,728.318z"/>
		<path fill="#FFFFFF" d="M942.284,714.193l-6.348-0.458c-6.063,0-9.951,1.907-11.667,5.719v39.174h-19.272V696.75h18.071
			l0.63,7.949c3.239-6.062,7.758-9.093,13.553-9.093c2.06,0,3.851,0.229,5.376,0.686L942.284,714.193z"/>
		<path fill="#FFFFFF" d="M945.887,727.232c0-6.252,1.029-11.781,3.088-16.584c2.059-4.804,5.013-8.511,8.864-11.123
			c3.851-2.611,8.33-3.917,13.439-3.917c6.442,0,11.475,2.173,15.098,6.52l0.686-5.376h17.5v59.533
			c0,5.452-1.269,10.188-3.803,14.211c-2.536,4.021-6.205,7.11-11.009,9.264c-4.804,2.154-10.371,3.231-16.699,3.231
			c-4.537,0-8.931-0.858-13.182-2.574c-4.252-1.716-7.502-3.946-9.751-6.691l8.063-11.323c3.584,4.232,8.312,6.348,14.183,6.348
			c8.54,0,12.811-4.384,12.811-13.153v-1.945c-3.698,4.08-8.369,6.119-14.011,6.119c-7.549,0-13.649-2.888-18.301-8.664
			c-4.651-5.776-6.977-13.505-6.977-23.19V727.232z M965.216,728.433c0,5.071,0.953,9.084,2.859,12.038
			c1.906,2.955,4.575,4.432,8.007,4.432c4.155,0,7.186-1.391,9.093-4.175v-26.021c-1.868-2.821-4.861-4.232-8.979-4.232
			c-3.432,0-6.119,1.535-8.063,4.604C966.188,718.149,965.216,722.6,965.216,728.433z"/>
		<path fill="#FFFFFF" d="M1045.45,759.771c-9.493,0-17.176-2.831-23.047-8.492s-8.807-13.029-8.807-22.103v-1.602
			c0-6.328,1.173-11.914,3.518-16.756c2.345-4.841,5.766-8.587,10.265-11.237c4.498-2.649,9.837-3.975,16.013-3.975
			c8.692,0,15.556,2.698,20.588,8.092c5.032,5.396,7.549,12.916,7.549,22.561v7.491h-38.316c0.687,3.47,2.192,6.196,4.519,8.178
			c2.325,1.982,5.337,2.974,9.035,2.974c6.1,0,10.866-2.135,14.297-6.405l8.808,10.408c-2.402,3.317-5.805,5.958-10.208,7.921
			C1055.258,758.79,1050.521,759.771,1045.45,759.771z M1043.277,710.476c-5.643,0-8.998,3.737-10.065,11.209h19.444v-1.487
			c0.076-3.088-0.706-5.48-2.345-7.177C1048.672,711.325,1046.327,710.476,1043.277,710.476z"/>
		<path fill="#FFFFFF" d="M1101.724,681.367v15.383h10.18v13.382h-10.18v28.308c0,2.326,0.419,3.946,1.258,4.861
			s2.497,1.372,4.976,1.372c1.906,0,3.507-0.114,4.804-0.343v13.782c-3.47,1.105-7.091,1.658-10.865,1.658
			c-6.634,0-11.533-1.563-14.697-4.689c-3.165-3.126-4.747-7.873-4.747-14.24v-30.71h-7.892V696.75h7.892v-15.383H1101.724z"/>
		<path fill="#FFFFFF" d="M1141.927,681.367v15.383h10.18v13.382h-10.18v28.308c0,2.326,0.419,3.946,1.258,4.861
			s2.497,1.372,4.976,1.372c1.906,0,3.507-0.114,4.804-0.343v13.782c-3.47,1.105-7.091,1.658-10.865,1.658
			c-6.634,0-11.533-1.563-14.697-4.689c-3.165-3.126-4.747-7.873-4.747-14.24v-30.71h-7.892V696.75h7.892v-15.383H1141.927z"/>
		<path fill="#FFFFFF" d="M1159.541,680.738c0-2.761,0.99-5.024,2.974-6.789c1.981-1.764,4.555-2.647,7.72-2.647
			c3.164,0,5.738,0.883,7.721,2.647c1.982,1.765,2.974,4.028,2.974,6.789c0,2.762-0.991,5.025-2.974,6.79
			c-1.982,1.765-4.557,2.646-7.721,2.646c-3.165,0-5.738-0.882-7.72-2.646C1160.531,685.763,1159.541,683.5,1159.541,680.738z
			 M1180.014,758.628h-19.329V696.75h19.329V758.628z"/>
		<path fill="#FFFFFF" d="M1209.58,696.75l0.63,7.263c4.269-5.604,10.159-8.407,17.671-8.407c6.442,0,11.256,1.925,14.439,5.776
			c3.184,3.851,4.833,9.646,4.947,17.385v39.86h-19.33v-39.06c0-3.125-0.629-5.423-1.887-6.891
			c-1.258-1.467-3.546-2.202-6.862-2.202c-3.774,0-6.577,1.487-8.407,4.461v43.691h-19.272V696.75H1209.58z"/>
		<path fill="#FFFFFF" d="M1255.674,727.232c0-6.252,1.029-11.781,3.088-16.584c2.059-4.804,5.013-8.511,8.864-11.123
			c3.851-2.611,8.33-3.917,13.439-3.917c6.442,0,11.475,2.173,15.098,6.52l0.686-5.376h17.5v59.533
			c0,5.452-1.269,10.188-3.803,14.211c-2.536,4.021-6.205,7.11-11.009,9.264c-4.804,2.154-10.371,3.231-16.699,3.231
			c-4.537,0-8.931-0.858-13.182-2.574c-4.252-1.716-7.502-3.946-9.751-6.691l8.063-11.323c3.584,4.232,8.312,6.348,14.183,6.348
			c8.54,0,12.811-4.384,12.811-13.153v-1.945c-3.698,4.08-8.369,6.119-14.011,6.119c-7.549,0-13.649-2.888-18.301-8.664
			c-4.651-5.776-6.977-13.505-6.977-23.19V727.232z M1275.003,728.433c0,5.071,0.953,9.084,2.859,12.038
			c1.906,2.955,4.575,4.432,8.007,4.432c4.155,0,7.186-1.391,9.093-4.175v-26.021c-1.868-2.821-4.861-4.232-8.979-4.232
			c-3.432,0-6.119,1.535-8.063,4.604C1275.976,718.149,1275.003,722.6,1275.003,728.433z"/>
		<path fill="#FFFFFF" d="M264.149,881.788c0-1.639-0.858-2.954-2.574-3.946c-1.715-0.991-4.975-2.021-9.778-3.088
			c-4.804-1.067-8.77-2.468-11.896-4.203c-3.127-1.734-5.51-3.84-7.148-6.319c-1.64-2.478-2.459-5.318-2.459-8.521
			c0-5.68,2.345-10.36,7.034-14.04c4.689-3.679,10.827-5.519,18.414-5.519c8.158,0,14.717,1.85,19.673,5.547
			c4.956,3.699,7.435,8.56,7.435,14.583h-19.329c0-4.956-2.612-7.434-7.835-7.434c-2.021,0-3.718,0.563-5.09,1.687
			c-1.373,1.125-2.059,2.526-2.059,4.203c0,1.716,0.838,3.108,2.516,4.175c1.678,1.068,4.355,1.944,8.035,2.63
			c3.679,0.687,6.91,1.507,9.693,2.459c9.302,3.202,13.954,8.941,13.954,17.213c0,5.643-2.508,10.237-7.521,13.782
			c-5.014,3.546-11.505,5.318-19.473,5.318c-5.3,0-10.027-0.953-14.183-2.859c-4.155-1.906-7.396-4.498-9.722-7.777
			c-2.326-3.278-3.488-6.729-3.488-10.351h18.014c0.076,2.859,1.029,4.947,2.859,6.262s4.175,1.973,7.034,1.973
			c2.631,0,4.604-0.533,5.919-1.601C263.491,884.896,264.149,883.503,264.149,881.788z"/>
		<path fill="#FFFFFF" d="M289.312,867.662c0-6.176,1.201-11.675,3.604-16.499c2.401-4.823,5.852-8.53,10.351-11.123
			c4.498-2.592,9.779-3.889,15.841-3.889c9.265,0,16.565,2.869,21.903,8.606c5.337,5.739,8.007,13.545,8.007,23.418v0.687
			c0,9.646-2.68,17.299-8.035,22.961c-5.357,5.662-12.61,8.492-21.76,8.492c-8.808,0-15.88-2.639-21.217-7.92
			c-5.339-5.28-8.217-12.438-8.636-21.474L289.312,867.662z M308.584,868.863c0,5.719,0.896,9.913,2.688,12.582
			c1.791,2.669,4.44,4.003,7.949,4.003c6.862,0,10.369-5.28,10.522-15.841v-1.944c0-11.094-3.546-16.642-10.638-16.642
			c-6.443,0-9.932,4.785-10.465,14.354L308.584,868.863z"/>
		<path fill="#FFFFFF" d="M375.723,837.295l0.629,7.263c4.384-5.604,10.274-8.407,17.672-8.407c7.814,0,13.096,3.108,15.841,9.321
			c4.193-6.213,10.255-9.321,18.186-9.321c12.543,0,18.986,7.587,19.329,22.761v40.26H428.05v-39.06c0-3.164-0.534-5.47-1.602-6.919
			c-1.067-1.449-3.012-2.173-5.833-2.173c-3.813,0-6.653,1.697-8.521,5.09l0.057,0.801v42.262h-19.329v-38.945
			c0-3.24-0.515-5.585-1.544-7.034c-1.029-1.449-2.994-2.173-5.891-2.173c-3.698,0-6.52,1.697-8.464,5.09v43.063h-19.272v-61.877
			H375.723z"/>
		<path fill="#FFFFFF" d="M488.326,900.316c-9.493,0-17.177-2.831-23.047-8.492c-5.872-5.662-8.808-13.029-8.808-22.103v-1.602
			c0-6.328,1.173-11.914,3.518-16.756c2.345-4.841,5.766-8.587,10.266-11.237c4.498-2.649,9.836-3.975,16.012-3.975
			c8.693,0,15.556,2.698,20.588,8.092c5.033,5.396,7.549,12.916,7.549,22.561v7.491h-38.315c0.686,3.47,2.191,6.196,4.518,8.178
			c2.325,1.982,5.337,2.974,9.036,2.974c6.099,0,10.865-2.135,14.297-6.405l8.807,10.408c-2.402,3.317-5.805,5.958-10.208,7.921
			C498.134,899.334,493.396,900.316,488.326,900.316z M486.152,851.021c-5.643,0-8.998,3.737-10.064,11.209h19.443v-1.487
			c0.076-3.088-0.706-5.48-2.345-7.177C491.547,851.87,489.202,851.021,486.152,851.021z"/>
		<path fill="#FFFFFF" d="M544.599,821.912v15.383h10.18v13.382h-10.18v28.308c0,2.326,0.419,3.946,1.259,4.861
			c0.838,0.915,2.496,1.372,4.975,1.372c1.906,0,3.508-0.114,4.804-0.343v13.782c-3.47,1.105-7.091,1.658-10.865,1.658
			c-6.634,0-11.533-1.563-14.697-4.689c-3.165-3.126-4.747-7.873-4.747-14.24v-30.71h-7.892v-13.382h7.892v-15.383H544.599z"/>
		<path fill="#FFFFFF" d="M581.199,843.929c4.117-5.185,9.379-7.777,15.784-7.777c6.823,0,11.971,2.021,15.44,6.062
			c3.469,4.042,5.241,10.008,5.318,17.899v39.06h-19.329v-38.602c0-3.278-0.668-5.69-2.002-7.234
			c-1.335-1.544-3.603-2.316-6.806-2.316c-3.966,0-6.768,1.258-8.406,3.774v44.378h-19.272v-87.841h19.272V843.929z"/>
		<path fill="#FFFFFF" d="M628.322,821.283c0-2.761,0.991-5.024,2.974-6.789c1.981-1.764,4.556-2.647,7.721-2.647
			c3.164,0,5.737,0.883,7.72,2.647c1.982,1.765,2.974,4.028,2.974,6.789c0,2.762-0.991,5.025-2.974,6.79
			c-1.982,1.765-4.556,2.646-7.72,2.646c-3.165,0-5.739-0.882-7.721-2.646C629.313,826.308,628.322,824.045,628.322,821.283z
			 M648.795,899.173h-19.329v-61.877h19.329V899.173z"/>
		<path fill="#FFFFFF" d="M678.361,837.295l0.629,7.263c4.27-5.604,10.16-8.407,17.672-8.407c6.441,0,11.256,1.925,14.439,5.776
			c3.184,3.851,4.832,9.646,4.947,17.385v39.86h-19.33v-39.06c0-3.125-0.629-5.423-1.887-6.891
			c-1.258-1.467-3.547-2.202-6.863-2.202c-3.774,0-6.576,1.487-8.406,4.461v43.691H660.29v-61.877H678.361z"/>
		<path fill="#FFFFFF" d="M724.455,867.777c0-6.252,1.029-11.781,3.088-16.584c2.059-4.804,5.013-8.511,8.864-11.123
			c3.851-2.611,8.33-3.917,13.439-3.917c6.442,0,11.475,2.173,15.098,6.52l0.686-5.376h17.5v59.533
			c0,5.452-1.269,10.188-3.803,14.211c-2.536,4.021-6.205,7.11-11.009,9.264c-4.804,2.154-10.371,3.231-16.699,3.231
			c-4.537,0-8.931-0.858-13.182-2.574c-4.252-1.716-7.502-3.946-9.751-6.691l8.063-11.323c3.584,4.232,8.312,6.348,14.183,6.348
			c8.54,0,12.811-4.384,12.811-13.153v-1.945c-3.698,4.08-8.369,6.119-14.011,6.119c-7.549,0-13.649-2.888-18.301-8.664
			c-4.651-5.776-6.977-13.505-6.977-23.19V867.777z M743.784,868.978c0,5.071,0.953,9.084,2.859,12.038
			c1.906,2.955,4.575,4.432,8.007,4.432c4.155,0,7.186-1.391,9.093-4.175v-26.021c-1.868-2.821-4.861-4.232-8.979-4.232
			c-3.432,0-6.119,1.535-8.063,4.604C744.757,858.694,743.784,863.145,743.784,868.978z"/>
		<path fill="#FFFFFF" d="M823.104,821.283c0-2.761,0.99-5.024,2.974-6.789c1.981-1.764,4.555-2.647,7.72-2.647
			c3.164,0,5.738,0.883,7.721,2.647c1.982,1.765,2.974,4.028,2.974,6.789c0,2.762-0.991,5.025-2.974,6.79
			c-1.982,1.765-4.557,2.646-7.721,2.646c-3.165,0-5.738-0.882-7.72-2.646C824.095,826.308,823.104,824.045,823.104,821.283z
			 M843.577,899.173h-19.329v-61.877h19.329V899.173z"/>
		<path fill="#FFFFFF" d="M873.657,837.295l0.63,7.263c4.384-5.604,10.273-8.407,17.671-8.407c7.814,0,13.096,3.108,15.841,9.321
			c4.193-6.213,10.256-9.321,18.186-9.321c12.543,0,18.986,7.587,19.33,22.761v40.26h-19.33v-39.06c0-3.164-0.534-5.47-1.601-6.919
			c-1.068-1.449-3.013-2.173-5.834-2.173c-3.813,0-6.653,1.697-8.521,5.09l0.057,0.801v42.262h-19.329v-38.945
			c0-3.24-0.515-5.585-1.544-7.034c-1.029-1.449-2.993-2.173-5.891-2.173c-3.698,0-6.52,1.697-8.464,5.09v43.063h-19.272v-61.877
			H873.657z"/>
		<path fill="#FFFFFF" d="M1013.769,868.692c0,9.607-2.164,17.28-6.491,23.018c-4.327,5.738-10.17,8.606-17.527,8.606
			c-5.682,0-10.352-2.077-14.012-6.233v28.88h-19.272v-85.667h18.015l0.572,5.719c3.697-4.575,8.558-6.862,14.582-6.862
			c7.625,0,13.554,2.812,17.786,8.435c4.231,5.624,6.348,13.354,6.348,23.19V868.692z M994.496,867.491
			c0-10.98-3.202-16.47-9.607-16.47c-4.575,0-7.626,1.64-9.15,4.918v24.362c1.678,3.431,4.766,5.147,9.265,5.147
			c6.138,0,9.302-5.299,9.493-15.898V867.491z"/>
		<path fill="#FFFFFF" d="M1019.83,867.662c0-6.176,1.201-11.675,3.603-16.499c2.402-4.823,5.853-8.53,10.352-11.123
			c4.498-2.592,9.779-3.889,15.841-3.889c9.265,0,16.565,2.869,21.903,8.606c5.337,5.739,8.006,13.545,8.006,23.418v0.687
			c0,9.646-2.679,17.299-8.034,22.961c-5.357,5.662-12.61,8.492-21.761,8.492c-8.807,0-15.879-2.639-21.217-7.92
			c-5.338-5.28-8.216-12.438-8.635-21.474L1019.83,867.662z M1039.103,868.863c0,5.719,0.896,9.913,2.688,12.582
			c1.792,2.669,4.441,4.003,7.949,4.003c6.863,0,10.37-5.28,10.522-15.841v-1.944c0-11.094-3.545-16.642-10.637-16.642
			c-6.443,0-9.932,4.785-10.465,14.354L1039.103,868.863z"/>
		<path fill="#FFFFFF" d="M1125.457,854.738l-6.348-0.458c-6.063,0-9.951,1.907-11.667,5.719v39.174h-19.272v-61.877h18.071
			l0.63,7.949c3.239-6.062,7.758-9.093,13.553-9.093c2.06,0,3.851,0.229,5.376,0.686L1125.457,854.738z"/>
		<path fill="#FFFFFF" d="M1157.711,821.912v15.383h10.18v13.382h-10.18v28.308c0,2.326,0.419,3.946,1.258,4.861
			s2.497,1.372,4.976,1.372c1.906,0,3.507-0.114,4.804-0.343v13.782c-3.47,1.105-7.091,1.658-10.865,1.658
			c-6.634,0-11.533-1.563-14.697-4.689c-3.165-3.126-4.747-7.873-4.747-14.24v-30.71h-7.892v-13.382h7.892v-15.383H1157.711z"/>
		<path fill="#FFFFFF" d="M1210.324,899.173c-0.687-1.258-1.297-3.107-1.83-5.547c-3.546,4.461-8.503,6.691-14.869,6.691
			c-5.833,0-10.79-1.763-14.869-5.29c-4.08-3.526-6.119-7.958-6.119-13.296c0-6.709,2.479-11.781,7.435-15.212
			s12.161-5.147,21.617-5.147h5.947v-3.276c0-5.708-2.459-8.562-7.377-8.562c-4.575,0-6.862,2.261-6.862,6.781h-19.272
			c0-5.978,2.545-10.833,7.635-14.565c5.089-3.731,11.58-5.598,19.472-5.598c7.893,0,14.126,1.925,18.701,5.776
			c4.575,3.851,6.92,9.131,7.034,15.841v27.393c0.075,5.682,0.952,10.028,2.63,13.039v0.972H1210.324z M1198.257,886.591
			c2.402,0,4.394-0.515,5.977-1.544c1.581-1.029,2.717-2.192,3.402-3.488v-9.894h-5.604c-6.71,0-10.064,3.012-10.064,9.036
			c0,1.754,0.59,3.174,1.772,4.26C1194.921,886.048,1196.427,886.591,1198.257,886.591z"/>
		<path fill="#FFFFFF" d="M1255.33,837.295l0.63,7.263c4.269-5.604,10.159-8.407,17.671-8.407c6.442,0,11.256,1.925,14.439,5.776
			c3.184,3.851,4.833,9.646,4.947,17.385v39.86h-19.33v-39.06c0-3.125-0.629-5.423-1.887-6.891
			c-1.258-1.467-3.546-2.202-6.862-2.202c-3.774,0-6.577,1.487-8.407,4.461v43.691h-19.272v-61.877H1255.33z"/>
		<path fill="#FFFFFF" d="M1326.129,821.912v15.383h10.18v13.382h-10.18v28.308c0,2.326,0.419,3.946,1.258,4.861
			s2.497,1.372,4.976,1.372c1.906,0,3.507-0.114,4.804-0.343v13.782c-3.47,1.105-7.091,1.658-10.865,1.658
			c-6.634,0-11.533-1.563-14.697-4.689c-3.165-3.126-4.747-7.873-4.747-14.24v-30.71h-7.892v-13.382h7.892v-15.383H1326.129z"/>
		<path fill="#FFFFFF" d="M1355.866,834.836c3.05,0,5.585,0.906,7.606,2.716c2.021,1.812,3.031,4.127,3.031,6.948
			c0,2.822-1.011,5.138-3.031,6.949c-2.021,1.811-4.557,2.716-7.606,2.716c-3.088,0-5.633-0.915-7.634-2.745
			c-2.002-1.83-3.003-4.136-3.003-6.92c0-2.782,1.001-5.089,3.003-6.919C1350.233,835.751,1352.778,834.836,1355.866,834.836z
			 M1355.866,880.472c3.05,0,5.585,0.906,7.606,2.717c2.021,1.811,3.031,4.127,3.031,6.948c0,2.822-1.011,5.138-3.031,6.948
			c-2.021,1.812-4.557,2.716-7.606,2.716c-3.088,0-5.633-0.915-7.634-2.745c-2.002-1.83-3.003-4.137-3.003-6.92
			c0-2.783,1.001-5.09,3.003-6.92C1350.233,881.387,1352.778,880.472,1355.866,880.472z"/>
	</g>
</g>
<g id="_x31_">
</g>
</svg>
