<?xml version="1.0" encoding="utf-8"?>
<!-- Generator: Adobe Illustrator 16.0.0, SVG Export Plug-In . SVG Version: 6.00 Build 0)  -->
<!DOCTYPE svg PUBLIC "-//W3C//DTD SVG 1.1//EN" "http://www.w3.org/Graphics/SVG/1.1/DTD/svg11.dtd">
<svg version="1.1" xmlns="http://www.w3.org/2000/svg" xmlns:xlink="http://www.w3.org/1999/xlink" x="0px" y="0px" width="1600px"
	 height="1000px" viewBox="0 0 1600 1000" enable-background="new 0 0 1600 1000" xml:space="preserve">
<g id="_x35_">
</g>
<g id="_x34_">
</g>
<g id="_x33_">
</g>
<g id="_x32_">
</g>
<g id="_x31_">
	<rect fill="#41B655" width="1600" height="1000"/>
	<g>
		<path fill="#FFFFFF" d="M115.138,109.526l6.954,4.158c-2.567,5.018-3.905,9.825-4.012,14.42v9h-11.822v-8.157
			c0.035-3.087,0.802-6.368,2.3-9.842C110.199,115.351,112.392,112.158,115.138,109.526z M131.935,109.526l6.954,4.158
			c-2.567,5.018-3.905,9.825-4.012,14.42v9h-11.822v-8.157c0.035-3.087,0.802-6.368,2.3-9.842
			C126.995,115.351,129.188,112.158,131.935,109.526z"/>
		<path fill="#FFFFFF" d="M172.268,164.208h-7.81v27.999h-15.727v-76.628h25.088c7.881,0,13.97,2.009,18.268,6.026
			c4.297,4.018,6.446,9.728,6.446,17.13c0,10.176-3.763,17.298-11.287,21.368l13.64,31.367v0.737h-16.903L172.268,164.208z
			 M164.458,151.313h8.934c3.138,0,5.491-1.026,7.061-3.079c1.568-2.052,2.354-4.797,2.354-8.236c0-7.684-3.049-11.525-9.147-11.525
			h-9.201V151.313z"/>
		<path fill="#FFFFFF" d="M231.965,193.259c-7.775,0-13.837-2.28-18.188-6.842c-4.351-4.561-6.526-11.087-6.526-19.578v-4.526
			c0-8.981,1.997-15.911,5.991-20.789c3.994-4.876,9.717-7.315,17.171-7.315c7.275,0,12.749,2.286,16.422,6.858
			c3.672,4.572,5.544,11.341,5.617,20.31v7.304h-30.116c0.214,4.265,1.158,7.384,2.835,9.356c1.676,1.973,4.261,2.958,7.756,2.958
			c5.063,0,9.289-1.737,12.678-5.21l5.938,9c-1.854,2.526-4.547,4.571-8.077,6.131C239.936,192.478,236.102,193.259,231.965,193.259
			z M222.444,158.313h15.138v-1.381c-0.072-3.434-0.642-6.036-1.712-7.805s-2.924-2.655-5.563-2.655c-2.64,0-4.556,0.938-5.75,2.814
			C223.361,151.163,222.658,154.172,222.444,158.313z"/>
		<path fill="#FFFFFF" d="M258.979,161.997c0-9.333,1.604-16.297,4.814-20.894c3.209-4.596,7.881-6.895,14.015-6.895
			c4.458,0,8.166,1.895,11.126,5.684v-28.525h15.245v80.838h-13.747l-0.696-5.789c-3.103,4.562-7.097,6.842-11.982,6.842
			c-6.063,0-10.69-2.28-13.881-6.842c-3.192-4.561-4.824-11.263-4.895-20.104V161.997z M274.171,165.734
			c0,5.614,0.606,9.535,1.818,11.762c1.212,2.229,3.263,3.342,6.152,3.342c2.996,0,5.26-1.316,6.793-3.947v-25.999
			c-1.498-2.807-3.745-4.21-6.74-4.21c-2.781,0-4.814,1.105-6.098,3.315c-1.284,2.21-1.926,6.141-1.926,11.789V165.734z"/>
		<path fill="#FFFFFF" d="M343.764,186.996c-3.139,4.176-7.347,6.263-12.625,6.263c-5.314,0-9.343-1.798-12.089-5.395
			c-2.747-3.596-4.119-8.833-4.119-15.71v-36.893h15.138v37.261c0.071,5.544,1.943,8.315,5.617,8.315
			c3.458,0,5.955-1.474,7.489-4.421v-41.156h15.246v56.944h-14.229L343.764,186.996z"/>
		<path fill="#FFFFFF" d="M390.142,180.996c4.386,0,6.615-2.842,6.687-8.526h14.229c-0.072,6.21-2.015,11.228-5.831,15.052
			c-3.816,3.825-8.737,5.737-14.764,5.737c-7.454,0-13.142-2.28-17.064-6.842c-3.923-4.561-5.92-11.28-5.991-20.157v-4.526
			c0-8.947,1.934-15.771,5.804-20.473c3.869-4.701,9.583-7.052,17.145-7.052c6.383,0,11.411,1.939,15.085,5.815
			c3.672,3.877,5.544,9.377,5.617,16.499h-14.229c-0.036-3.227-0.571-5.708-1.605-7.446c-1.035-1.737-2.747-2.606-5.135-2.606
			c-2.64,0-4.529,0.927-5.67,2.78c-1.142,1.854-1.748,5.445-1.819,10.776v5.824c0,4.66,0.231,7.917,0.695,9.77
			c0.463,1.854,1.23,3.212,2.3,4.077S388.18,180.996,390.142,180.996z"/>
		<path fill="#FFFFFF" d="M442.992,193.259c-7.775,0-13.837-2.28-18.188-6.842c-4.351-4.561-6.526-11.087-6.526-19.578v-4.526
			c0-8.981,1.997-15.911,5.991-20.789c3.994-4.876,9.717-7.315,17.171-7.315c7.275,0,12.749,2.286,16.422,6.858
			c3.672,4.572,5.544,11.341,5.617,20.31v7.304h-30.116c0.214,4.265,1.158,7.384,2.835,9.356c1.676,1.973,4.261,2.958,7.756,2.958
			c5.063,0,9.289-1.737,12.678-5.21l5.938,9c-1.854,2.526-4.547,4.571-8.077,6.131C450.962,192.478,447.129,193.259,442.992,193.259
			z M433.471,158.313h15.138v-1.381c-0.072-3.434-0.642-6.036-1.712-7.805s-2.924-2.655-5.563-2.655c-2.64,0-4.556,0.938-5.75,2.814
			C434.388,151.163,433.685,154.172,433.471,158.313z"/>
		<path fill="#FFFFFF" d="M476.532,211.521l-8.077-4.158l2.033-3.737c2.282-4.14,3.458-8.315,3.53-12.525v-11.842h13.159
			l-0.053,10.579c-0.036,3.718-0.999,7.579-2.889,11.578C482.344,205.416,479.776,208.784,476.532,211.521z"/>
		<path fill="#FFFFFF" d="M548.532,164.208h-7.81v27.999h-15.727v-76.628h25.088c7.881,0,13.97,2.009,18.268,6.026
			c4.297,4.018,6.446,9.728,6.446,17.13c0,10.176-3.763,17.298-11.287,21.368l13.64,31.367v0.737h-16.903L548.532,164.208z
			 M540.722,151.313h8.934c3.138,0,5.491-1.026,7.061-3.079c1.568-2.052,2.354-4.797,2.354-8.236c0-7.684-3.049-11.525-9.147-11.525
			h-9.201V151.313z"/>
		<path fill="#FFFFFF" d="M608.229,193.259c-7.775,0-13.837-2.28-18.188-6.842c-4.351-4.561-6.526-11.087-6.526-19.578v-4.526
			c0-8.981,1.997-15.911,5.991-20.789c3.994-4.876,9.717-7.315,17.171-7.315c7.275,0,12.749,2.286,16.422,6.858
			c3.672,4.572,5.544,11.341,5.617,20.31v7.304h-30.116c0.214,4.265,1.158,7.384,2.835,9.356c1.676,1.973,4.261,2.958,7.756,2.958
			c5.063,0,9.289-1.737,12.678-5.21l5.938,9c-1.854,2.526-4.547,4.571-8.077,6.131C616.2,192.478,612.366,193.259,608.229,193.259z
			 M598.708,158.313h15.138v-1.381c-0.072-3.434-0.642-6.036-1.712-7.805s-2.924-2.655-5.563-2.655c-2.64,0-4.556,0.938-5.75,2.814
			C599.625,151.163,598.922,154.172,598.708,158.313z"/>
		<path fill="#FFFFFF" d="M665.734,186.996c-3.139,4.176-7.347,6.263-12.625,6.263c-5.314,0-9.343-1.798-12.089-5.395
			c-2.747-3.596-4.119-8.833-4.119-15.71v-36.893h15.138v37.261c0.071,5.544,1.943,8.315,5.617,8.315
			c3.458,0,5.955-1.474,7.489-4.421v-41.156h15.246v56.944h-14.229L665.734,186.996z"/>
		<path fill="#FFFFFF" d="M716.819,176.944c0-1.263-0.615-2.429-1.845-3.5c-1.23-1.07-3.968-2.517-8.211-4.342
			c-6.241-2.491-10.53-5.07-12.865-7.736c-2.336-2.666-3.503-5.982-3.503-9.947c0-4.981,1.827-9.096,5.483-12.341
			c3.655-3.245,8.496-4.868,14.523-4.868c6.347,0,11.429,1.614,15.245,4.842c3.816,3.229,5.724,7.562,5.724,13H716.23
			c0-4.631-1.961-6.947-5.884-6.947c-1.605,0-2.925,0.492-3.958,1.474c-1.035,0.983-1.551,2.351-1.551,4.105
			c0,1.263,0.57,2.377,1.711,3.342c1.141,0.965,3.833,2.342,8.078,4.131c6.169,2.246,10.529,4.746,13.079,7.5
			c2.549,2.755,3.825,6.325,3.825,10.71c0,5.088-1.944,9.175-5.831,12.263c-3.887,3.088-8.987,4.631-15.299,4.631
			c-4.244,0-7.989-0.816-11.233-2.447c-3.246-1.632-5.786-3.903-7.623-6.815c-1.837-2.912-2.755-6.052-2.755-9.421h14.39
			c0.071,2.597,0.686,4.544,1.845,5.842c1.159,1.299,3.058,1.947,5.697,1.947C714.786,182.364,716.819,180.558,716.819,176.944z"/>
		<path fill="#FFFFFF" d="M764.32,193.259c-7.775,0-13.837-2.28-18.188-6.842c-4.351-4.561-6.526-11.087-6.526-19.578v-4.526
			c0-8.981,1.997-15.911,5.991-20.789c3.994-4.876,9.717-7.315,17.171-7.315c7.275,0,12.749,2.286,16.422,6.858
			c3.672,4.572,5.544,11.341,5.617,20.31v7.304h-30.116c0.214,4.265,1.158,7.384,2.835,9.356c1.676,1.973,4.261,2.958,7.756,2.958
			c5.063,0,9.289-1.737,12.678-5.21l5.938,9c-1.854,2.526-4.547,4.571-8.077,6.131C772.29,192.478,768.457,193.259,764.32,193.259z
			 M754.798,158.313h15.138v-1.381c-0.072-3.434-0.642-6.036-1.712-7.805s-2.924-2.655-5.563-2.655c-2.64,0-4.556,0.938-5.75,2.814
			C755.716,151.163,755.012,154.172,754.798,158.313z"/>
		<path fill="#FFFFFF" d="M797.859,211.521l-8.077-4.158l2.033-3.737c2.282-4.14,3.458-8.315,3.531-12.525v-11.842h13.159
			l-0.054,10.579c-0.036,3.718-0.999,7.579-2.889,11.578C803.672,205.416,801.104,208.784,797.859,211.521z"/>
		<path fill="#FFFFFF" d="M869.86,164.208h-7.81v27.999h-15.727v-76.628h25.088c7.881,0,13.97,2.009,18.268,6.026
			c4.297,4.018,6.445,9.728,6.445,17.13c0,10.176-3.763,17.298-11.287,21.368l13.641,31.367v0.737h-16.903L869.86,164.208z
			 M862.051,151.313h8.933c3.138,0,5.491-1.026,7.062-3.079c1.568-2.052,2.354-4.797,2.354-8.236c0-7.684-3.049-11.525-9.147-11.525
			h-9.2V151.313z"/>
		<path fill="#FFFFFF" d="M929.558,193.259c-7.774,0-13.837-2.28-18.188-6.842c-4.351-4.561-6.525-11.087-6.525-19.578v-4.526
			c0-8.981,1.996-15.911,5.99-20.789c3.994-4.876,9.718-7.315,17.172-7.315c7.274,0,12.748,2.286,16.422,6.858
			c3.673,4.572,5.545,11.341,5.616,20.31v7.304h-30.116c0.214,4.265,1.159,7.384,2.836,9.356c1.676,1.973,4.261,2.958,7.756,2.958
			c5.063,0,9.289-1.737,12.678-5.21l5.938,9c-1.854,2.526-4.547,4.571-8.077,6.131C937.528,192.478,933.694,193.259,929.558,193.259
			z M920.036,158.313h15.139v-1.381c-0.072-3.434-0.643-6.036-1.712-7.805c-1.07-1.77-2.925-2.655-5.563-2.655
			c-2.64,0-4.556,0.938-5.75,2.814C920.954,151.163,920.25,154.172,920.036,158.313z"/>
		<path fill="#FFFFFF" d="M979.519,180.996c4.387,0,6.615-2.842,6.687-8.526h14.229c-0.072,6.21-2.016,11.228-5.831,15.052
			c-3.816,3.825-8.737,5.737-14.764,5.737c-7.454,0-13.142-2.28-17.064-6.842c-3.923-4.561-5.92-11.28-5.99-20.157v-4.526
			c0-8.947,1.934-15.771,5.804-20.473c3.869-4.701,9.583-7.052,17.144-7.052c6.384,0,11.412,1.939,15.085,5.815
			c3.673,3.877,5.545,9.377,5.617,16.499h-14.229c-0.035-3.227-0.57-5.708-1.604-7.446c-1.034-1.737-2.746-2.606-5.135-2.606
			c-2.64,0-4.529,0.927-5.671,2.78s-1.747,5.445-1.818,10.776v5.824c0,4.66,0.231,7.917,0.695,9.77
			c0.463,1.854,1.23,3.212,2.3,4.077C976.042,180.564,977.558,180.996,979.519,180.996z"/>
		<path fill="#FFFFFF" d="M1027.555,167.418l7.703-32.156h16.154l-19.043,65.47c-2.854,9.648-8.22,14.473-16.102,14.473
			c-1.818,0-3.887-0.334-6.205-1v-11.631l1.766,0.053c2.354,0,4.127-0.447,5.322-1.342c1.194-0.895,2.095-2.447,2.701-4.658
			l1.178-3.842l-16.69-57.523h16.262L1027.555,167.418z"/>
		<path fill="#FFFFFF" d="M1078.104,180.996c4.387,0,6.615-2.842,6.687-8.526h14.229c-0.072,6.21-2.016,11.228-5.831,15.052
			c-3.816,3.825-8.737,5.737-14.764,5.737c-7.454,0-13.142-2.28-17.064-6.842c-3.923-4.561-5.92-11.28-5.99-20.157v-4.526
			c0-8.947,1.934-15.771,5.804-20.473c3.869-4.701,9.583-7.052,17.144-7.052c6.384,0,11.412,1.939,15.085,5.815
			c3.673,3.877,5.545,9.377,5.617,16.499h-14.229c-0.035-3.227-0.57-5.708-1.604-7.446c-1.034-1.737-2.746-2.606-5.135-2.606
			c-2.64,0-4.529,0.927-5.671,2.78s-1.747,5.445-1.818,10.776v5.824c0,4.66,0.231,7.917,0.695,9.77
			c0.463,1.854,1.23,3.212,2.3,4.077C1074.628,180.564,1076.144,180.996,1078.104,180.996z"/>
		<path fill="#FFFFFF" d="M1123.467,192.206h-15.191v-80.838h15.191V192.206z"/>
		<path fill="#FFFFFF" d="M1158.558,193.259c-7.774,0-13.837-2.28-18.188-6.842c-4.351-4.561-6.525-11.087-6.525-19.578v-4.526
			c0-8.981,1.996-15.911,5.99-20.789c3.994-4.876,9.718-7.315,17.172-7.315c7.274,0,12.748,2.286,16.422,6.858
			c3.673,4.572,5.545,11.341,5.616,20.31v7.304h-30.116c0.214,4.265,1.159,7.384,2.836,9.356c1.676,1.973,4.261,2.958,7.756,2.958
			c5.063,0,9.289-1.737,12.678-5.21l5.938,9c-1.854,2.526-4.547,4.571-8.077,6.131
			C1166.528,192.478,1162.694,193.259,1158.558,193.259z M1149.036,158.313h15.139v-1.381c-0.072-3.434-0.643-6.036-1.712-7.805
			c-1.07-1.77-2.925-2.655-5.563-2.655c-2.64,0-4.556,0.938-5.75,2.814C1149.954,151.163,1149.25,154.172,1149.036,158.313z"/>
		<path fill="#FFFFFF" d="M1188.94,141.577c0-2.386,0.812-4.35,2.435-5.895c1.622-1.543,3.735-2.316,6.339-2.316
			c2.531,0,4.635,0.763,6.312,2.29c1.676,1.526,2.515,3.5,2.515,5.921c0,2.456-0.848,4.43-2.541,5.92
			c-1.694,1.492-3.79,2.237-6.285,2.237c-2.533,0-4.628-0.754-6.286-2.263C1189.77,145.963,1188.94,143.998,1188.94,141.577z
			 M1188.94,184.627c0-2.386,0.812-4.35,2.435-5.895c1.622-1.543,3.735-2.315,6.339-2.315c2.531,0,4.635,0.763,6.312,2.289
			c1.676,1.526,2.515,3.5,2.515,5.921c0,2.457-0.848,4.43-2.541,5.921c-1.694,1.492-3.79,2.237-6.285,2.237
			c-2.533,0-4.628-0.754-6.286-2.263C1189.77,189.014,1188.94,187.048,1188.94,184.627z"/>
		<path fill="#FFFFFF" d="M1223.443,139.104l-6.954-4.158c2.531-4.947,3.852-9.753,3.958-14.42v-9.157h11.876v8.315
			c-0.036,3.193-0.883,6.64-2.541,10.341C1228.124,133.727,1226.011,136.753,1223.443,139.104z M1240.507,139.104l-6.954-4.158
			c2.532-4.947,3.852-9.753,3.959-14.42v-9.157h11.875v8.315c-0.036,3.193-0.883,6.64-2.541,10.341
			C1245.188,133.727,1243.075,136.753,1240.507,139.104z"/>
	</g>
	<g>
		<path fill="#FFFFFF" d="M1274.857,138.896c0-2.665,0.317-5.222,0.952-7.672s1.583-4.643,2.847-6.576
			c1.264-1.933,2.615-3.268,4.054-4.006l0.961,2.784c-1.366,1.261-2.448,3.197-3.246,5.808c-0.798,2.611-1.215,5.629-1.251,9.056
			v1.07c0,3.569,0.396,6.707,1.188,9.413s1.896,4.726,3.31,6.058l-0.961,2.748c-1.427-0.738-2.766-2.052-4.018-3.943
			c-1.251-1.891-2.197-4.044-2.838-6.459c-0.641-2.415-0.974-4.931-0.997-7.547V138.896z"/>
		<path fill="#FFFFFF" d="M1286.555,125.157c0-0.785,0.254-1.428,0.762-1.927s1.185-0.75,2.031-0.75c0.846,0,1.523,0.25,2.031,0.75
			s0.762,1.142,0.762,1.927c0,0.773-0.251,1.416-0.753,1.927c-0.502,0.512-1.182,0.768-2.04,0.768s-1.539-0.256-2.04-0.768
			C1286.806,126.572,1286.555,125.93,1286.555,125.157z M1291.941,149.459h-5.151v-19.307h5.151V149.459z"/>
		<path fill="#FFFFFF" d="M1301.88,125.406v4.747h2.63v3.783h-2.63v9.597c0,0.763,0.105,1.287,0.317,1.573
			c0.211,0.286,0.619,0.429,1.224,0.429c0.496,0,0.901-0.042,1.216-0.125l-0.036,3.925c-0.871,0.321-1.814,0.482-2.83,0.482
			c-3.313,0-4.987-1.87-5.023-5.609v-10.271h-2.267v-3.783h2.267v-4.747H1301.88z"/>
		<path fill="#FFFFFF" d="M1309.461,131.456l-2.358-1.41c0.858-1.677,1.306-3.307,1.343-4.889v-3.105h4.025v2.819
			c-0.012,1.083-0.299,2.251-0.861,3.506C1311.048,129.632,1310.331,130.659,1309.461,131.456z"/>
		<path fill="#FFFFFF" d="M1320.579,144.285c0-0.428-0.209-0.823-0.626-1.187c-0.417-0.363-1.346-0.854-2.784-1.472
			c-2.116-0.844-3.57-1.719-4.361-2.623c-0.792-0.904-1.188-2.028-1.188-3.372c0-1.689,0.62-3.084,1.859-4.185
			c1.239-1.1,2.881-1.65,4.924-1.65c2.152,0,3.875,0.547,5.169,1.642c1.294,1.095,1.94,2.563,1.94,4.407h-5.133
			c0-1.57-0.665-2.355-1.995-2.355c-0.544,0-0.991,0.167-1.342,0.5s-0.525,0.797-0.525,1.392c0,0.428,0.192,0.806,0.58,1.133
			c0.387,0.327,1.3,0.794,2.738,1.4c2.092,0.762,3.57,1.609,4.435,2.543c0.864,0.934,1.297,2.144,1.297,3.631
			c0,1.725-0.659,3.111-1.978,4.158c-1.317,1.047-3.047,1.57-5.187,1.57c-1.439,0-2.709-0.277-3.809-0.83
			c-1.101-0.553-1.962-1.323-2.584-2.311c-0.623-0.987-0.935-2.052-0.935-3.194h4.879c0.024,0.88,0.232,1.541,0.626,1.98
			c0.393,0.44,1.036,0.66,1.931,0.66C1319.89,146.123,1320.579,145.51,1320.579,144.285z"/>
		<path fill="#FFFFFF" d="M1346.641,149.459c-0.146-0.297-0.291-0.797-0.436-1.499c-0.919,1.237-2.164,1.856-3.736,1.856
			c-1.645,0-3.008-0.535-4.09-1.606s-1.623-2.456-1.623-4.158c0-2.022,0.656-3.586,1.968-4.693c1.312-1.106,3.201-1.671,5.668-1.695
			h1.56v-1.553c0-0.868-0.151-1.481-0.453-1.838c-0.303-0.356-0.744-0.535-1.324-0.535c-1.282,0-1.923,0.738-1.923,2.213h-5.132
			c0-1.785,0.68-3.257,2.04-4.417s3.08-1.74,5.159-1.74c2.152,0,3.818,0.55,4.997,1.65c1.179,1.101,1.769,2.674,1.769,4.72v9.083
			c0.023,1.666,0.266,2.968,0.725,3.908v0.303H1346.641z M1343.611,145.855c0.568,0,1.052-0.113,1.451-0.339
			c0.398-0.226,0.695-0.494,0.889-0.803v-4.015h-1.233c-0.87,0-1.557,0.274-2.059,0.821c-0.502,0.547-0.753,1.279-0.753,2.195
			C1341.906,145.141,1342.475,145.855,1343.611,145.855z"/>
		<path fill="#FFFFFF" d="M1370.453,145.659c1.487,0,2.243-0.963,2.268-2.891h4.824c-0.024,2.105-0.684,3.807-1.978,5.104
			c-1.293,1.296-2.962,1.945-5.005,1.945c-2.527,0-4.456-0.773-5.786-2.32c-1.33-1.546-2.007-3.824-2.031-6.834v-1.535
			c0-3.033,0.656-5.347,1.968-6.941c1.313-1.594,3.25-2.391,5.813-2.391c2.164,0,3.868,0.657,5.114,1.972
			c1.245,1.314,1.88,3.179,1.904,5.594h-4.824c-0.013-1.094-0.193-1.935-0.544-2.524c-0.352-0.589-0.932-0.883-1.741-0.883
			c-0.896,0-1.536,0.314-1.923,0.942s-0.593,1.846-0.616,3.653v1.975c0,1.58,0.078,2.684,0.235,3.313s0.417,1.089,0.78,1.382
			C1369.274,145.512,1369.788,145.659,1370.453,145.659z"/>
		<path fill="#FFFFFF" d="M1379.848,139.182c0-2.926,0.701-5.222,2.104-6.888c1.402-1.665,3.344-2.498,5.822-2.498
			c2.503,0,4.455,0.833,5.857,2.498c1.402,1.666,2.104,3.973,2.104,6.923v1.231c0,2.938-0.695,5.234-2.086,6.887
			c-1.391,1.654-3.337,2.48-5.84,2.48c-2.515,0-4.471-0.83-5.867-2.489s-2.095-3.964-2.095-6.915V139.182z M1384.998,140.453
			c0,3.471,0.938,5.206,2.812,5.206c1.729,0,2.66-1.448,2.793-4.345l0.018-2.136c0-1.771-0.247-3.085-0.743-3.94
			c-0.496-0.856-1.197-1.284-2.104-1.284c-0.871,0-1.551,0.428-2.041,1.284c-0.489,0.855-0.734,2.169-0.734,3.94V140.453z"/>
		<path fill="#FFFFFF" d="M1403.751,130.153l0.145,1.784c1.149-1.427,2.666-2.141,4.553-2.141c1.959,0,3.343,0.869,4.153,2.605
			c1.124-1.736,2.727-2.605,4.806-2.605c3.434,0,5.193,2.337,5.278,7.013v12.651h-5.133v-12.33c0-1.118-0.157-1.915-0.472-2.391
			c-0.314-0.476-0.847-0.714-1.596-0.714c-0.956,0-1.669,0.577-2.141,1.731l0.036,0.606v13.097h-5.132v-12.294
			c0-1.106-0.151-1.906-0.454-2.4c-0.302-0.493-0.84-0.74-1.614-0.74c-0.882,0-1.584,0.47-2.104,1.41v14.025h-5.133v-19.307
			H1403.751z"/>
		<path fill="#FFFFFF" d="M1431.3,130.153l0.145,1.784c1.149-1.427,2.666-2.141,4.553-2.141c1.959,0,3.343,0.869,4.153,2.605
			c1.124-1.736,2.727-2.605,4.806-2.605c3.434,0,5.193,2.337,5.278,7.013v12.651h-5.133v-12.33c0-1.118-0.157-1.915-0.472-2.391
			c-0.314-0.476-0.847-0.714-1.596-0.714c-0.956,0-1.669,0.577-2.141,1.731l0.036,0.606v13.097h-5.132v-12.294
			c0-1.106-0.151-1.906-0.454-2.4c-0.302-0.493-0.84-0.74-1.614-0.74c-0.882,0-1.584,0.47-2.104,1.41v14.025h-5.133v-19.307H1431.3z
			"/>
		<path fill="#FFFFFF" d="M1453.426,139.182c0-2.926,0.701-5.222,2.104-6.888c1.402-1.665,3.344-2.498,5.822-2.498
			c2.503,0,4.455,0.833,5.857,2.498c1.402,1.666,2.104,3.973,2.104,6.923v1.231c0,2.938-0.695,5.234-2.086,6.887
			c-1.391,1.654-3.337,2.48-5.84,2.48c-2.515,0-4.471-0.83-5.867-2.489s-2.095-3.964-2.095-6.915V139.182z M1458.576,140.453
			c0,3.471,0.938,5.206,2.812,5.206c1.729,0,2.66-1.448,2.793-4.345l0.018-2.136c0-1.771-0.247-3.085-0.743-3.94
			c-0.496-0.856-1.197-1.284-2.104-1.284c-0.871,0-1.551,0.428-2.041,1.284c-0.489,0.855-0.734,2.169-0.734,3.94V140.453z"/>
		<path fill="#FFFFFF" d="M1477.203,130.153l0.145,1.909c1.161-1.511,2.679-2.266,4.553-2.266c3.373,0,5.108,2.326,5.205,6.977
			v12.687h-5.15v-12.312c0-1.094-0.167-1.888-0.499-2.382c-0.333-0.493-0.916-0.74-1.75-0.74c-0.932,0-1.657,0.47-2.177,1.41v14.025
			h-5.15v-19.307H1477.203z"/>
		<path fill="#FFFFFF" d="M1282.475,193.668c-2.637,0-4.691-0.773-6.167-2.32c-1.475-1.546-2.212-3.759-2.212-6.638v-1.535
			c0-3.045,0.677-5.395,2.031-7.048c1.354-1.653,3.294-2.48,5.821-2.48c2.467,0,4.322,0.775,5.567,2.325
			c1.246,1.55,1.881,3.845,1.904,6.886v2.477h-10.21c0.072,1.446,0.393,2.504,0.961,3.172c0.568,0.669,1.444,1.003,2.63,1.003
			c1.717,0,3.149-0.589,4.298-1.767l2.014,3.051c-0.629,0.856-1.542,1.55-2.739,2.079
			C1285.177,193.403,1283.877,193.668,1282.475,193.668z M1279.246,181.82h5.133v-0.468c-0.024-1.164-0.218-2.046-0.581-2.646
			c-0.362-0.6-0.991-0.9-1.886-0.9s-1.545,0.318-1.95,0.954S1279.318,180.416,1279.246,181.82z"/>
		<path fill="#FFFFFF" d="M1297.02,174.005l0.145,1.909c1.161-1.511,2.679-2.266,4.553-2.266c3.373,0,5.108,2.326,5.205,6.977
			v12.687h-5.15V181c0-1.094-0.167-1.888-0.499-2.382c-0.333-0.493-0.916-0.74-1.75-0.74c-0.932,0-1.657,0.47-2.177,1.41v14.025
			h-5.15v-19.307H1297.02z"/>
		<path fill="#FFFFFF" d="M1310.005,183.034c0-2.926,0.701-5.222,2.104-6.888c1.402-1.665,3.344-2.498,5.822-2.498
			c2.503,0,4.455,0.833,5.857,2.498c1.402,1.666,2.104,3.973,2.104,6.923v1.231c0,2.938-0.695,5.234-2.086,6.887
			c-1.391,1.654-3.337,2.48-5.84,2.48c-2.515,0-4.471-0.83-5.867-2.489s-2.095-3.964-2.095-6.915V183.034z M1315.155,184.305
			c0,3.471,0.938,5.206,2.812,5.206c1.729,0,2.66-1.448,2.793-4.345l0.018-2.136c0-1.771-0.247-3.085-0.743-3.94
			c-0.496-0.856-1.197-1.284-2.104-1.284c-0.871,0-1.551,0.428-2.041,1.284c-0.489,0.855-0.734,2.169-0.734,3.94V184.305z"/>
		<path fill="#FFFFFF" d="M1338.732,191.545c-1.064,1.416-2.491,2.124-4.28,2.124c-1.802,0-3.168-0.609-4.099-1.829
			c-0.932-1.219-1.396-2.995-1.396-5.326v-12.508h5.133v12.633c0.023,1.879,0.658,2.819,1.904,2.819c1.172,0,2.019-0.5,2.539-1.499
			v-13.954h5.168v19.307h-4.824L1338.732,191.545z"/>
		<path fill="#FFFFFF" d="M1346.749,183.069c0-3.164,0.581-5.525,1.741-7.084c1.161-1.558,2.787-2.337,4.879-2.337
			c1.777,0,3.149,0.69,4.117,2.07l0.199-1.713h4.625v19.307c0,2.462-0.701,4.345-2.104,5.647c-1.402,1.303-3.415,1.954-6.039,1.954
			c-1.076,0-2.206-0.211-3.392-0.634c-1.185-0.422-2.067-0.96-2.647-1.615l1.723-3.497c0.483,0.5,1.112,0.907,1.887,1.222
			c0.773,0.315,1.505,0.473,2.194,0.473c1.148,0,1.974-0.271,2.476-0.812c0.501-0.541,0.759-1.413,0.771-2.614v-1.66
			c-0.979,1.261-2.255,1.892-3.827,1.892c-2.092,0-3.708-0.8-4.851-2.4s-1.727-3.857-1.751-6.772V183.069z M1351.882,184.336
			c0,1.784,0.236,3.084,0.707,3.898c0.472,0.815,1.222,1.223,2.249,1.223c1.052,0,1.832-0.375,2.34-1.125v-9.225
			c-0.532-0.821-1.3-1.231-2.304-1.231c-1.016,0-1.768,0.41-2.258,1.231c-0.489,0.821-0.734,2.142-0.734,3.961V184.336z"/>
		<path fill="#FFFFFF" d="M1371.052,175.7c1.112-1.368,2.479-2.052,4.099-2.052c1.789,0,3.149,0.619,4.08,1.856
			c0.932,1.237,1.402,3.081,1.415,5.531v12.276h-5.15v-12.223c0-1.13-0.179-1.948-0.535-2.454c-0.357-0.505-0.935-0.758-1.732-0.758
			c-0.931,0-1.656,0.422-2.176,1.267v14.168h-5.133v-27.408h5.133V175.7z"/>
		<path fill="#FFFFFF" d="M1401.575,188.137c0-0.428-0.209-0.823-0.626-1.187c-0.417-0.363-1.346-0.854-2.784-1.472
			c-2.116-0.844-3.57-1.719-4.361-2.623c-0.792-0.904-1.188-2.028-1.188-3.372c0-1.689,0.62-3.084,1.859-4.185
			c1.239-1.1,2.881-1.65,4.924-1.65c2.152,0,3.875,0.547,5.169,1.642c1.294,1.095,1.94,2.563,1.94,4.407h-5.133
			c0-1.57-0.665-2.355-1.995-2.355c-0.544,0-0.991,0.167-1.342,0.5s-0.525,0.797-0.525,1.392c0,0.428,0.192,0.806,0.58,1.133
			c0.387,0.327,1.3,0.794,2.738,1.4c2.092,0.762,3.57,1.609,4.435,2.543c0.864,0.934,1.297,2.144,1.297,3.631
			c0,1.725-0.659,3.111-1.978,4.158c-1.317,1.047-3.047,1.57-5.187,1.57c-1.439,0-2.709-0.277-3.809-0.83
			c-1.101-0.553-1.962-1.323-2.584-2.311c-0.623-0.987-0.935-2.052-0.935-3.194h4.879c0.024,0.88,0.232,1.541,0.626,1.98
			c0.393,0.44,1.036,0.66,1.931,0.66C1400.886,189.975,1401.575,189.362,1401.575,188.137z"/>
		<path fill="#FFFFFF" d="M1419.076,193.312c-0.146-0.297-0.291-0.797-0.436-1.499c-0.919,1.237-2.164,1.856-3.736,1.856
			c-1.645,0-3.008-0.535-4.09-1.606s-1.623-2.456-1.623-4.158c0-2.022,0.656-3.586,1.968-4.693c1.312-1.106,3.201-1.671,5.668-1.695
			h1.56v-1.553c0-0.868-0.151-1.481-0.453-1.838c-0.303-0.356-0.744-0.535-1.324-0.535c-1.282,0-1.923,0.738-1.923,2.213h-5.132
			c0-1.785,0.68-3.257,2.04-4.417s3.08-1.74,5.159-1.74c2.152,0,3.818,0.55,4.997,1.65c1.179,1.101,1.769,2.674,1.769,4.72v9.083
			c0.023,1.666,0.266,2.968,0.725,3.908v0.303H1419.076z M1416.047,189.707c0.568,0,1.052-0.113,1.451-0.339
			c0.398-0.226,0.695-0.494,0.889-0.803v-4.015h-1.233c-0.87,0-1.557,0.274-2.059,0.821c-0.502,0.547-0.753,1.279-0.753,2.195
			C1414.342,188.993,1414.91,189.707,1416.047,189.707z"/>
		<path fill="#FFFFFF" d="M1433.259,184.907l2.611-10.902h5.478l-6.456,22.197c-0.968,3.271-2.787,4.907-5.459,4.907
			c-0.617,0-1.318-0.113-2.104-0.339v-3.943l0.599,0.018c0.798,0,1.399-0.152,1.805-0.455s0.71-0.83,0.916-1.579l0.398-1.303
			l-5.658-19.503h5.514L1433.259,184.907z"/>
		<path fill="#FFFFFF" d="M1443.542,169.009c0-0.785,0.254-1.428,0.762-1.927s1.185-0.75,2.031-0.75c0.846,0,1.523,0.25,2.031,0.75
			s0.762,1.142,0.762,1.927c0,0.773-0.251,1.416-0.753,1.927c-0.502,0.512-1.182,0.768-2.04,0.768s-1.539-0.256-2.04-0.768
			C1443.793,170.424,1443.542,169.782,1443.542,169.009z M1448.929,193.312h-5.151v-19.307h5.151V193.312z"/>
		<path fill="#FFFFFF" d="M1457.598,174.005l0.145,1.909c1.161-1.511,2.679-2.266,4.553-2.266c3.373,0,5.108,2.326,5.205,6.977
			v12.687h-5.15V181c0-1.094-0.167-1.888-0.499-2.382c-0.333-0.493-0.916-0.74-1.75-0.74c-0.932,0-1.657,0.47-2.177,1.41v14.025
			h-5.15v-19.307H1457.598z"/>
		<path fill="#FFFFFF" d="M1470.564,183.069c0-3.164,0.581-5.525,1.741-7.084c1.161-1.558,2.787-2.337,4.879-2.337
			c1.777,0,3.149,0.69,4.117,2.07l0.199-1.713h4.625v19.307c0,2.462-0.701,4.345-2.104,5.647c-1.402,1.303-3.415,1.954-6.039,1.954
			c-1.076,0-2.206-0.211-3.392-0.634c-1.185-0.422-2.067-0.96-2.647-1.615l1.723-3.497c0.483,0.5,1.112,0.907,1.887,1.222
			c0.773,0.315,1.505,0.473,2.194,0.473c1.148,0,1.974-0.271,2.476-0.812c0.501-0.541,0.759-1.413,0.771-2.614v-1.66
			c-0.979,1.261-2.255,1.892-3.827,1.892c-2.092,0-3.708-0.8-4.851-2.4s-1.727-3.857-1.751-6.772V183.069z M1475.697,184.336
			c0,1.784,0.236,3.084,0.707,3.898c0.472,0.815,1.222,1.223,2.249,1.223c1.052,0,1.832-0.375,2.34-1.125v-9.225
			c-0.532-0.821-1.3-1.231-2.304-1.231c-1.016,0-1.768,0.41-2.258,1.231c-0.489,0.821-0.734,2.142-0.734,3.961V184.336z"/>
		<path fill="#FFFFFF" d="M1498.078,183.176c0,2.772-0.36,5.395-1.079,7.869c-0.72,2.474-1.717,4.645-2.993,6.513
			c-1.275,1.868-2.627,3.159-4.053,3.872l-0.943-2.748c1.378-1.297,2.467-3.281,3.265-5.951s1.209-5.695,1.233-9.073v-0.946
			c0-3.461-0.396-6.558-1.188-9.288s-1.895-4.791-3.31-6.183l0.943-2.748c0.931,0.464,1.883,1.237,2.856,2.32
			c0.973,1.083,1.853,2.421,2.639,4.015c0.786,1.594,1.421,3.388,1.904,5.38C1497.836,178.201,1498.078,180.524,1498.078,183.176z"
			/>
	</g>
	<g>
		<path fill="#FFFFFF" d="M177.1,268.219l2.756-16.968h7.699l-6.364,30.246h-6.677l-4.347-17.499l-4.347,17.499h-6.706
			l-6.364-30.246h7.728l2.728,16.996l4.092-16.996h5.71L177.1,268.219z"/>
		<path fill="#FFFFFF" d="M203.949,282.056c-4.129,0-7.349-1.211-9.66-3.634c-2.312-2.422-3.466-5.889-3.466-10.399v-2.404
			c0-4.771,1.061-8.451,3.182-11.042c2.121-2.59,5.161-3.886,9.12-3.886c3.864,0,6.771,1.214,8.723,3.643
			c1.951,2.429,2.945,6.024,2.983,10.788v3.879h-15.996c0.113,2.266,0.615,3.922,1.506,4.97c0.89,1.048,2.263,1.571,4.12,1.571
			c2.689,0,4.934-0.922,6.733-2.768l3.154,4.78c-0.985,1.342-2.415,2.428-4.29,3.256
			C208.183,281.641,206.146,282.056,203.949,282.056z M198.892,263.495h8.041v-0.733c-0.038-1.824-0.341-3.206-0.909-4.146
			s-1.553-1.41-2.955-1.41c-1.402,0-2.42,0.499-3.055,1.495S199.006,261.295,198.892,263.495z"/>
		<path fill="#FFFFFF" d="M247.903,278.729c-1.667,2.218-3.902,3.327-6.705,3.327c-2.823,0-4.963-0.955-6.421-2.865
			c-1.458-1.91-2.188-4.691-2.188-8.344v-19.595h8.041v19.791c0.038,2.945,1.032,4.417,2.983,4.417c1.837,0,3.163-0.783,3.978-2.348
			v-21.859h8.098v30.246h-7.558L247.903,278.729z"/>
		<path fill="#FFFFFF" d="M275.036,273.39c0-0.671-0.327-1.29-0.98-1.859c-0.654-0.568-2.107-1.337-4.361-2.306
			c-3.315-1.323-5.593-2.693-6.833-4.109c-1.241-1.416-1.861-3.177-1.861-5.283c0-2.646,0.97-4.831,2.912-6.555
			c1.941-1.723,4.513-2.585,7.714-2.585c3.371,0,6.07,0.857,8.097,2.572c2.027,1.715,3.04,4.016,3.04,6.904h-8.041
			c0-2.46-1.042-3.69-3.125-3.69c-0.853,0-1.554,0.261-2.103,0.783c-0.55,0.522-0.824,1.249-0.824,2.181
			c0,0.671,0.303,1.263,0.909,1.775c0.606,0.513,2.036,1.244,4.291,2.194c3.276,1.193,5.592,2.521,6.946,3.983
			c1.354,1.463,2.032,3.359,2.032,5.688c0,2.702-1.033,4.874-3.097,6.513c-2.064,1.64-4.773,2.46-8.125,2.46
			c-2.254,0-4.243-0.433-5.967-1.3s-3.073-2.073-4.048-3.62c-0.976-1.546-1.463-3.214-1.463-5.003h7.643
			c0.038,1.379,0.365,2.414,0.98,3.103c0.615,0.69,1.624,1.034,3.026,1.034C273.957,276.269,275.036,275.31,275.036,273.39z"/>
		<path fill="#FFFFFF" d="M300.266,282.056c-4.129,0-7.349-1.211-9.66-3.634c-2.312-2.422-3.466-5.889-3.466-10.399v-2.404
			c0-4.771,1.061-8.451,3.182-11.042c2.121-2.59,5.161-3.886,9.12-3.886c3.864,0,6.771,1.214,8.723,3.643
			c1.951,2.429,2.945,6.024,2.983,10.788v3.879h-15.996c0.113,2.266,0.615,3.922,1.506,4.97c0.89,1.048,2.263,1.571,4.12,1.571
			c2.689,0,4.934-0.922,6.733-2.768l3.154,4.78c-0.985,1.342-2.415,2.428-4.29,3.256C304.5,281.641,302.463,282.056,300.266,282.056
			z M295.209,263.495h8.041v-0.733c-0.038-1.824-0.341-3.206-0.909-4.146s-1.553-1.41-2.955-1.41c-1.402,0-2.42,0.499-3.055,1.495
			S295.323,261.295,295.209,263.495z"/>
		<path fill="#FFFFFF" d="M329.104,243.424c0-1.23,0.398-2.236,1.193-3.019s1.856-1.174,3.182-1.174s2.387,0.391,3.182,1.174
			c0.796,0.783,1.193,1.789,1.193,3.019c0,1.212-0.393,2.218-1.179,3.019c-0.786,0.802-1.852,1.202-3.196,1.202
			c-1.345,0-2.411-0.4-3.196-1.202C329.497,245.642,329.104,244.636,329.104,243.424z M337.542,281.497h-8.069v-30.246h8.069
			V281.497z"/>
		<path fill="#FFFFFF" d="M353.112,243.815v7.436h4.12v5.926h-4.12v15.034c0,1.194,0.166,2.016,0.497,2.464
			c0.332,0.448,0.971,0.671,1.918,0.671c0.776,0,1.411-0.065,1.904-0.195l-0.057,6.149c-1.364,0.503-2.841,0.755-4.432,0.755
			c-5.19,0-7.813-2.929-7.87-8.788v-16.091h-3.551v-5.926h3.551v-7.436H353.112z"/>
		<path fill="#FFFFFF" d="M384.394,243.815v7.436h4.12v5.926h-4.12v15.034c0,1.194,0.166,2.016,0.497,2.464
			c0.332,0.448,0.971,0.671,1.918,0.671c0.776,0,1.411-0.065,1.904-0.195l-0.057,6.149c-1.364,0.503-2.841,0.755-4.432,0.755
			c-5.19,0-7.813-2.929-7.87-8.788v-16.091h-3.551v-5.926h3.551v-7.436H384.394z"/>
		<path fill="#FFFFFF" d="M391.128,265.396c0-4.584,1.098-8.181,3.296-10.79c2.197-2.609,5.237-3.914,9.12-3.914
			c3.921,0,6.979,1.305,9.177,3.914c2.197,2.609,3.296,6.224,3.296,10.846v1.929c0,4.604-1.09,8.2-3.268,10.79
			c-2.178,2.591-5.228,3.886-9.148,3.886c-3.94,0-7.004-1.3-9.191-3.899c-2.188-2.6-3.282-6.21-3.282-10.832V265.396z
			 M399.197,267.386c0,5.438,1.468,8.156,4.404,8.156c2.708,0,4.167-2.269,4.375-6.806l0.029-3.347c0-2.775-0.389-4.833-1.165-6.173
			c-0.777-1.34-1.875-2.011-3.296-2.011c-1.364,0-2.429,0.67-3.196,2.011c-0.767,1.341-1.151,3.398-1.151,6.173V267.386z"/>
		<path fill="#FFFFFF" d="M443.775,243.815v7.436h4.12v5.926h-4.12v15.034c0,1.194,0.166,2.016,0.497,2.464
			c0.332,0.448,0.971,0.671,1.918,0.671c0.776,0,1.411-0.065,1.904-0.195l-0.057,6.149c-1.364,0.503-2.841,0.755-4.432,0.755
			c-5.19,0-7.813-2.929-7.87-8.788v-16.091h-3.551v-5.926h3.551v-7.436H443.775z"/>
		<path fill="#FFFFFF" d="M464.715,282.056c-4.129,0-7.349-1.211-9.66-3.634c-2.312-2.422-3.466-5.889-3.466-10.399v-2.404
			c0-4.771,1.061-8.451,3.182-11.042c2.121-2.59,5.161-3.886,9.12-3.886c3.864,0,6.771,1.214,8.723,3.643
			c1.951,2.429,2.945,6.024,2.983,10.788v3.879h-15.996c0.113,2.266,0.615,3.922,1.506,4.97c0.89,1.048,2.263,1.571,4.12,1.571
			c2.689,0,4.934-0.922,6.733-2.768l3.154,4.78c-0.985,1.342-2.415,2.428-4.29,3.256
			C468.948,281.641,466.912,282.056,464.715,282.056z M459.658,263.495h8.041v-0.733c-0.038-1.824-0.341-3.206-0.909-4.146
			s-1.553-1.41-2.955-1.41c-1.402,0-2.42,0.499-3.055,1.495S459.771,261.295,459.658,263.495z"/>
		<path fill="#FFFFFF" d="M494.747,281.497c-0.228-0.466-0.455-1.249-0.682-2.348c-1.439,1.938-3.391,2.907-5.853,2.907
			c-2.576,0-4.712-0.838-6.407-2.516s-2.542-3.848-2.542-6.513c0-3.168,1.027-5.619,3.083-7.352
			c2.055-1.733,5.015-2.618,8.879-2.655h2.443v-2.432c0-1.36-0.237-2.32-0.71-2.879c-0.474-0.559-1.165-0.838-2.074-0.838
			c-2.008,0-3.012,1.156-3.012,3.466h-8.041c0-2.795,1.065-5.102,3.196-6.918s4.825-2.726,8.083-2.726
			c3.371,0,5.98,0.862,7.828,2.585c1.847,1.724,2.77,4.189,2.77,7.394v14.228c0.038,2.609,0.417,4.65,1.136,6.122v0.475H494.747z
			 M490.001,275.85c0.89,0,1.648-0.177,2.273-0.531c0.625-0.354,1.089-0.773,1.392-1.258v-6.29h-1.932
			c-1.364,0-2.439,0.429-3.225,1.286c-0.787,0.857-1.179,2.003-1.179,3.438C487.331,274.732,488.221,275.85,490.001,275.85z"/>
		<path fill="#FFFFFF" d="M518.641,275.542c2.33,0,3.513-1.509,3.551-4.528h7.558c-0.038,3.298-1.07,5.963-3.097,7.995
			c-2.027,2.031-4.641,3.047-7.842,3.047c-3.959,0-6.98-1.211-9.063-3.634c-2.084-2.422-3.145-5.991-3.182-10.707v-2.404
			c0-4.752,1.027-8.376,3.083-10.874c2.055-2.497,5.09-3.746,9.106-3.746c3.39,0,6.061,1.03,8.012,3.089
			c1.951,2.06,2.945,4.98,2.983,8.763h-7.558c-0.019-1.714-0.303-3.032-0.852-3.955c-0.55-0.923-1.459-1.384-2.728-1.384
			c-1.402,0-2.406,0.492-3.012,1.477c-0.606,0.984-0.928,2.893-0.966,5.724v3.094c0,2.475,0.123,4.205,0.37,5.189
			c0.246,0.985,0.653,1.706,1.222,2.166S517.599,275.542,518.641,275.542z"/>
		<path fill="#FFFFFF" d="M542.137,253.907c1.743-2.143,3.883-3.215,6.421-3.215c2.803,0,4.934,0.969,6.393,2.907
			c1.458,1.938,2.197,4.827,2.216,8.666v19.232h-8.069v-19.148c0-1.771-0.28-3.051-0.838-3.844
			c-0.559-0.792-1.463-1.188-2.713-1.188c-1.459,0-2.595,0.662-3.41,1.985v22.195h-8.041V238.56h8.041V253.907z"/>
		<path fill="#FFFFFF" d="M588.761,282.056c-4.129,0-7.349-1.211-9.66-3.634c-2.312-2.422-3.466-5.889-3.466-10.399v-2.404
			c0-4.771,1.061-8.451,3.182-11.042c2.121-2.59,5.161-3.886,9.12-3.886c3.864,0,6.771,1.214,8.723,3.643
			c1.951,2.429,2.945,6.024,2.983,10.788v3.879h-15.996c0.113,2.266,0.615,3.922,1.506,4.97c0.89,1.048,2.263,1.571,4.12,1.571
			c2.689,0,4.934-0.922,6.733-2.768l3.154,4.78c-0.985,1.342-2.415,2.428-4.29,3.256
			C592.995,281.641,590.958,282.056,588.761,282.056z M583.704,263.495h8.041v-0.733c-0.038-1.824-0.341-3.206-0.909-4.146
			s-1.553-1.41-2.955-1.41c-1.402,0-2.42,0.499-3.055,1.495S583.818,261.295,583.704,263.495z"/>
		<path fill="#FFFFFF" d="M612.627,281.497h-8.069V238.56h8.069V281.497z"/>
		<path fill="#FFFFFF" d="M631.266,282.056c-4.129,0-7.349-1.211-9.66-3.634c-2.312-2.422-3.466-5.889-3.466-10.399v-2.404
			c0-4.771,1.061-8.451,3.182-11.042c2.121-2.59,5.161-3.886,9.12-3.886c3.864,0,6.771,1.214,8.723,3.643
			c1.951,2.429,2.945,6.024,2.983,10.788v3.879h-15.996c0.113,2.266,0.615,3.922,1.506,4.97c0.89,1.048,2.263,1.571,4.12,1.571
			c2.689,0,4.934-0.922,6.733-2.768l3.154,4.78c-0.985,1.342-2.415,2.428-4.29,3.256
			C635.499,281.641,633.463,282.056,631.266,282.056z M626.208,263.495h8.041v-0.733c-0.038-1.824-0.341-3.206-0.909-4.146
			s-1.553-1.41-2.955-1.41c-1.402,0-2.42,0.499-3.055,1.495S626.322,261.295,626.208,263.495z"/>
		<path fill="#FFFFFF" d="M654.251,251.251l0.228,2.795c1.799-2.236,4.176-3.354,7.131-3.354c3.068,0,5.237,1.36,6.506,4.081
			c1.762-2.721,4.271-4.081,7.529-4.081c5.379,0,8.135,3.662,8.268,10.986v19.819h-8.041v-19.316c0-1.751-0.246-3-0.739-3.746
			c-0.493-0.745-1.326-1.118-2.5-1.118c-1.497,0-2.614,0.904-3.353,2.711l0.057,0.95v20.518h-8.041v-19.26
			c0-1.733-0.237-2.986-0.71-3.76c-0.474-0.773-1.316-1.16-2.529-1.16c-1.383,0-2.481,0.736-3.295,2.208v21.971h-8.041v-30.246
			H654.251z"/>
		<path fill="#FFFFFF" d="M702.267,282.056c-4.129,0-7.349-1.211-9.66-3.634c-2.312-2.422-3.466-5.889-3.466-10.399v-2.404
			c0-4.771,1.061-8.451,3.182-11.042c2.121-2.59,5.161-3.886,9.12-3.886c3.864,0,6.771,1.214,8.723,3.643
			c1.951,2.429,2.945,6.024,2.983,10.788v3.879h-15.996c0.113,2.266,0.615,3.922,1.506,4.97c0.89,1.048,2.263,1.571,4.12,1.571
			c2.689,0,4.934-0.922,6.733-2.768l3.154,4.78c-0.985,1.342-2.415,2.428-4.29,3.256C706.5,281.641,704.464,282.056,702.267,282.056
			z M697.21,263.495h8.041v-0.733c-0.038-1.824-0.341-3.206-0.909-4.146s-1.553-1.41-2.955-1.41c-1.402,0-2.42,0.499-3.055,1.495
			S697.324,261.295,697.21,263.495z"/>
		<path fill="#FFFFFF" d="M725.054,251.251l0.227,2.991c1.818-2.367,4.195-3.55,7.132-3.55c5.285,0,8.002,3.644,8.154,10.93v19.875
			h-8.069v-19.288c0-1.714-0.261-2.958-0.781-3.731c-0.521-0.773-1.435-1.16-2.742-1.16c-1.459,0-2.595,0.736-3.41,2.208v21.971
			h-8.069v-30.246H725.054z"/>
		<path fill="#FFFFFF" d="M755.682,243.815v7.436h4.12v5.926h-4.12v15.034c0,1.194,0.166,2.016,0.497,2.464
			c0.332,0.448,0.971,0.671,1.918,0.671c0.776,0,1.411-0.065,1.904-0.195l-0.057,6.149c-1.364,0.503-2.841,0.755-4.432,0.755
			c-5.19,0-7.813-2.929-7.87-8.788v-16.091h-3.551v-5.926h3.551v-7.436H755.682z"/>
		<path fill="#FFFFFF" d="M776.622,282.056c-4.129,0-7.349-1.211-9.66-3.634c-2.312-2.422-3.466-5.889-3.466-10.399v-2.404
			c0-4.771,1.061-8.451,3.182-11.042c2.121-2.59,5.161-3.886,9.12-3.886c3.864,0,6.771,1.214,8.723,3.643
			c1.951,2.429,2.945,6.024,2.983,10.788v3.879h-15.996c0.113,2.266,0.615,3.922,1.506,4.97c0.89,1.048,2.263,1.571,4.12,1.571
			c2.689,0,4.934-0.922,6.733-2.768l3.154,4.78c-0.985,1.342-2.415,2.428-4.29,3.256
			C780.855,281.641,778.819,282.056,776.622,282.056z M771.564,263.495h8.041v-0.733c-0.038-1.824-0.341-3.206-0.909-4.146
			s-1.553-1.41-2.955-1.41c-1.402,0-2.42,0.499-3.055,1.495S771.678,261.295,771.564,263.495z"/>
		<path fill="#FFFFFF" d="M807.222,258.882l-2.671-0.224c-2.197,0-3.685,0.95-4.461,2.851v19.987h-8.068v-30.246h7.586l0.227,3.271
			c1.27-2.553,3.021-3.83,5.257-3.83c0.909,0,1.647,0.122,2.216,0.363L807.222,258.882z"/>
		<path fill="#FFFFFF" d="M821.711,268.331l4.092-17.08h8.58l-10.114,34.774c-1.516,5.125-4.366,7.688-8.553,7.688
			c-0.966,0-2.064-0.178-3.295-0.531v-6.178l0.938,0.028c1.25,0,2.191-0.237,2.826-0.713c0.635-0.475,1.113-1.3,1.436-2.474
			l0.625-2.041l-8.864-30.553h8.637L821.711,268.331z"/>
		<path fill="#FFFFFF" d="M864.841,273.39c0-0.671-0.327-1.29-0.98-1.859c-0.653-0.568-2.107-1.337-4.361-2.306
			c-3.314-1.323-5.593-2.693-6.833-4.109c-1.241-1.416-1.861-3.177-1.861-5.283c0-2.646,0.971-4.831,2.912-6.555
			c1.941-1.723,4.513-2.585,7.714-2.585c3.372,0,6.07,0.857,8.098,2.572c2.026,1.715,3.04,4.016,3.04,6.904h-8.04
			c0-2.46-1.042-3.69-3.126-3.69c-0.853,0-1.553,0.261-2.103,0.783c-0.549,0.522-0.823,1.249-0.823,2.181
			c0,0.671,0.303,1.263,0.909,1.775c0.605,0.513,2.035,1.244,4.29,2.194c3.276,1.193,5.592,2.521,6.946,3.983
			c1.354,1.463,2.031,3.359,2.031,5.688c0,2.702-1.032,4.874-3.097,6.513c-2.064,1.64-4.773,2.46-8.126,2.46
			c-2.254,0-4.243-0.433-5.966-1.3c-1.725-0.867-3.073-2.073-4.049-3.62c-0.976-1.546-1.464-3.214-1.464-5.003h7.644
			c0.037,1.379,0.364,2.414,0.979,3.103c0.616,0.69,1.624,1.034,3.026,1.034C863.761,276.269,864.841,275.31,864.841,273.39z"/>
		<path fill="#FFFFFF" d="M888.764,275.542c2.33,0,3.514-1.509,3.552-4.528h7.558c-0.038,3.298-1.07,5.963-3.097,7.995
			c-2.027,2.031-4.641,3.047-7.842,3.047c-3.959,0-6.98-1.211-9.063-3.634c-2.084-2.422-3.145-5.991-3.183-10.707v-2.404
			c0-4.752,1.027-8.376,3.083-10.874c2.055-2.497,5.091-3.746,9.106-3.746c3.39,0,6.061,1.03,8.012,3.089
			c1.951,2.06,2.945,4.98,2.983,8.763h-7.558c-0.019-1.714-0.303-3.032-0.853-3.955c-0.549-0.923-1.458-1.384-2.728-1.384
			c-1.401,0-2.405,0.492-3.012,1.477s-0.928,2.893-0.966,5.724v3.094c0,2.475,0.123,4.205,0.369,5.189
			c0.246,0.985,0.654,1.706,1.222,2.166C886.917,275.313,887.722,275.542,888.764,275.542z"/>
		<path fill="#FFFFFF" d="M912.261,253.907c1.742-2.143,3.882-3.215,6.421-3.215c2.803,0,4.934,0.969,6.393,2.907
			c1.458,1.938,2.197,4.827,2.216,8.666v19.232h-8.068v-19.148c0-1.771-0.28-3.051-0.839-3.844
			c-0.559-0.792-1.463-1.188-2.713-1.188c-1.459,0-2.596,0.662-3.409,1.985v22.195h-8.041V238.56h8.041V253.907z"/>
		<path fill="#FFFFFF" d="M932.121,265.396c0-4.584,1.098-8.181,3.295-10.79c2.197-2.609,5.237-3.914,9.121-3.914
			c3.921,0,6.979,1.305,9.177,3.914c2.197,2.609,3.296,6.224,3.296,10.846v1.929c0,4.604-1.09,8.2-3.268,10.79
			c-2.179,2.591-5.228,3.886-9.148,3.886c-3.94,0-7.004-1.3-9.191-3.899s-3.281-6.21-3.281-10.832V265.396z M940.189,267.386
			c0,5.438,1.468,8.156,4.404,8.156c2.708,0,4.167-2.269,4.375-6.806l0.028-3.347c0-2.775-0.388-4.833-1.165-6.173
			c-0.776-1.34-1.875-2.011-3.295-2.011c-1.364,0-2.43,0.67-3.196,2.011c-0.768,1.341-1.151,3.398-1.151,6.173V267.386z"/>
		<path fill="#FFFFFF" d="M961.073,265.396c0-4.584,1.098-8.181,3.295-10.79c2.197-2.609,5.237-3.914,9.121-3.914
			c3.921,0,6.979,1.305,9.177,3.914c2.197,2.609,3.296,6.224,3.296,10.846v1.929c0,4.604-1.09,8.2-3.268,10.79
			c-2.179,2.591-5.228,3.886-9.148,3.886c-3.94,0-7.004-1.3-9.191-3.899s-3.281-6.21-3.281-10.832V265.396z M969.142,267.386
			c0,5.438,1.468,8.156,4.404,8.156c2.708,0,4.167-2.269,4.375-6.806l0.028-3.347c0-2.775-0.388-4.833-1.165-6.173
			c-0.776-1.34-1.875-2.011-3.295-2.011c-1.364,0-2.43,0.67-3.196,2.011c-0.768,1.341-1.151,3.398-1.151,6.173V267.386z"/>
		<path fill="#FFFFFF" d="M999.4,281.497h-8.069V238.56h8.069V281.497z"/>
		<path fill="#FFFFFF" d="M1032.643,273.39c0-0.671-0.327-1.29-0.98-1.859c-0.653-0.568-2.107-1.337-4.361-2.306
			c-3.314-1.323-5.593-2.693-6.833-4.109c-1.241-1.416-1.861-3.177-1.861-5.283c0-2.646,0.971-4.831,2.912-6.555
			c1.941-1.723,4.513-2.585,7.714-2.585c3.372,0,6.07,0.857,8.098,2.572c2.026,1.715,3.04,4.016,3.04,6.904h-8.04
			c0-2.46-1.042-3.69-3.126-3.69c-0.853,0-1.553,0.261-2.103,0.783c-0.549,0.522-0.823,1.249-0.823,2.181
			c0,0.671,0.303,1.263,0.909,1.775c0.605,0.513,2.035,1.244,4.29,2.194c3.276,1.193,5.592,2.521,6.946,3.983
			c1.354,1.463,2.031,3.359,2.031,5.688c0,2.702-1.032,4.874-3.097,6.513c-2.064,1.64-4.773,2.46-8.126,2.46
			c-2.254,0-4.243-0.433-5.966-1.3c-1.725-0.867-3.073-2.073-4.049-3.62c-0.976-1.546-1.464-3.214-1.464-5.003h7.644
			c0.037,1.379,0.364,2.414,0.979,3.103c0.616,0.69,1.624,1.034,3.026,1.034C1031.563,276.269,1032.643,275.31,1032.643,273.39z"/>
		<path fill="#FFFFFF" d="M1054.804,243.815v7.436h4.119v5.926h-4.119v15.034c0,1.194,0.165,2.016,0.497,2.464
			c0.331,0.448,0.97,0.671,1.918,0.671c0.776,0,1.41-0.065,1.903-0.195l-0.057,6.149c-1.364,0.503-2.842,0.755-4.433,0.755
			c-5.19,0-7.813-2.929-7.87-8.788v-16.091h-3.552v-5.926h3.552v-7.436H1054.804z"/>
		<path fill="#FFFFFF" d="M1078.442,278.729c-1.667,2.218-3.902,3.327-6.706,3.327c-2.822,0-4.962-0.955-6.421-2.865
			c-1.459-1.91-2.188-4.691-2.188-8.344v-19.595h8.041v19.791c0.037,2.945,1.032,4.417,2.982,4.417c1.838,0,3.163-0.783,3.979-2.348
			v-21.859h8.097v30.246h-7.558L1078.442,278.729z"/>
		<path fill="#FFFFFF" d="M1090.887,265.451c0-4.957,0.853-8.656,2.558-11.097c1.704-2.441,4.186-3.662,7.443-3.662
			c2.367,0,4.338,1.006,5.91,3.019V238.56h8.097v42.937h-7.302l-0.369-3.075c-1.647,2.422-3.77,3.634-6.364,3.634
			c-3.221,0-5.678-1.211-7.373-3.634s-2.562-5.982-2.6-10.678V265.451z M1098.956,267.436c0,2.982,0.321,5.064,0.966,6.248
			c0.644,1.184,1.733,1.775,3.268,1.775c1.591,0,2.794-0.699,3.608-2.096v-13.809c-0.796-1.491-1.989-2.236-3.58-2.236
			c-1.478,0-2.558,0.587-3.239,1.761c-0.682,1.174-1.022,3.261-1.022,6.261V267.436z"/>
		<path fill="#FFFFFF" d="M1133.221,282.056c-4.13,0-7.35-1.211-9.66-3.634c-2.312-2.422-3.467-5.889-3.467-10.399v-2.404
			c0-4.771,1.061-8.451,3.183-11.042c2.121-2.59,5.161-3.886,9.12-3.886c3.864,0,6.771,1.214,8.723,3.643
			c1.95,2.429,2.945,6.024,2.983,10.788v3.879h-15.996c0.113,2.266,0.615,3.922,1.506,4.97c0.89,1.048,2.263,1.571,4.119,1.571
			c2.689,0,4.935-0.922,6.734-2.768l3.153,4.78c-0.985,1.342-2.415,2.428-4.29,3.256
			C1137.454,281.641,1135.417,282.056,1133.221,282.056z M1128.163,263.495h8.041v-0.733c-0.039-1.824-0.342-3.206-0.909-4.146
			c-0.568-0.94-1.554-1.41-2.955-1.41c-1.402,0-2.42,0.499-3.055,1.495S1128.276,261.295,1128.163,263.495z"/>
		<path fill="#FFFFFF" d="M1156.007,251.251l0.228,2.991c1.818-2.367,4.195-3.55,7.131-3.55c5.285,0,8.003,3.644,8.154,10.93v19.875
			h-8.068v-19.288c0-1.714-0.261-2.958-0.781-3.731c-0.521-0.773-1.436-1.16-2.742-1.16c-1.459,0-2.596,0.736-3.409,2.208v21.971
			h-8.069v-30.246H1156.007z"/>
		<path fill="#FFFFFF" d="M1186.636,243.815v7.436h4.119v5.926h-4.119v15.034c0,1.194,0.165,2.016,0.497,2.464
			c0.331,0.448,0.97,0.671,1.918,0.671c0.776,0,1.41-0.065,1.903-0.195l-0.057,6.149c-1.364,0.503-2.842,0.755-4.433,0.755
			c-5.19,0-7.813-2.929-7.87-8.788v-16.091h-3.552v-5.926h3.552v-7.436H1186.636z"/>
		<path fill="#FFFFFF" d="M1208.769,273.39c0-0.671-0.327-1.29-0.98-1.859c-0.653-0.568-2.107-1.337-4.361-2.306
			c-3.314-1.323-5.593-2.693-6.833-4.109c-1.241-1.416-1.861-3.177-1.861-5.283c0-2.646,0.971-4.831,2.912-6.555
			c1.941-1.723,4.513-2.585,7.714-2.585c3.372,0,6.07,0.857,8.098,2.572c2.026,1.715,3.04,4.016,3.04,6.904h-8.04
			c0-2.46-1.042-3.69-3.126-3.69c-0.853,0-1.553,0.261-2.103,0.783c-0.549,0.522-0.823,1.249-0.823,2.181
			c0,0.671,0.303,1.263,0.909,1.775c0.605,0.513,2.035,1.244,4.29,2.194c3.276,1.193,5.592,2.521,6.946,3.983
			c1.354,1.463,2.031,3.359,2.031,5.688c0,2.702-1.032,4.874-3.097,6.513c-2.064,1.64-4.773,2.46-8.126,2.46
			c-2.254,0-4.243-0.433-5.966-1.3c-1.725-0.867-3.073-2.073-4.049-3.62c-0.976-1.546-1.464-3.214-1.464-5.003h7.644
			c0.037,1.379,0.364,2.414,0.979,3.103c0.616,0.69,1.624,1.034,3.026,1.034C1207.688,276.269,1208.769,275.31,1208.769,273.39z"/>
		<path fill="#FFFFFF" d="M1244.34,243.815v7.436h4.119v5.926h-4.119v15.034c0,1.194,0.165,2.016,0.497,2.464
			c0.331,0.448,0.97,0.671,1.918,0.671c0.776,0,1.41-0.065,1.903-0.195l-0.057,6.149c-1.364,0.503-2.842,0.755-4.433,0.755
			c-5.19,0-7.813-2.929-7.87-8.788v-16.091h-3.552v-5.926h3.552v-7.436H1244.34z"/>
		<path fill="#FFFFFF" d="M1251.073,265.396c0-4.584,1.098-8.181,3.295-10.79c2.197-2.609,5.237-3.914,9.121-3.914
			c3.921,0,6.979,1.305,9.177,3.914c2.197,2.609,3.296,6.224,3.296,10.846v1.929c0,4.604-1.09,8.2-3.268,10.79
			c-2.179,2.591-5.228,3.886-9.148,3.886c-3.94,0-7.004-1.3-9.191-3.899s-3.281-6.21-3.281-10.832V265.396z M1259.142,267.386
			c0,5.438,1.468,8.156,4.404,8.156c2.708,0,4.167-2.269,4.375-6.806l0.028-3.347c0-2.775-0.388-4.833-1.165-6.173
			c-0.776-1.34-1.875-2.011-3.295-2.011c-1.364,0-2.43,0.67-3.196,2.011c-0.768,1.341-1.151,3.398-1.151,6.173V267.386z"/>
		<path fill="#FFFFFF" d="M1318.325,267.324c0,4.752-0.829,8.396-2.486,10.93c-1.657,2.535-4.125,3.802-7.401,3.802
			c-2.5,0-4.508-0.997-6.023-2.991v14.061h-8.04v-41.874h7.443l0.284,2.768c1.534-2.218,3.627-3.327,6.279-3.327
			c3.276,0,5.743,1.174,7.401,3.522c1.657,2.348,2.505,5.945,2.543,10.79V267.324z M1310.313,265.364
			c0-2.935-0.326-5.01-0.979-6.225c-0.654-1.215-1.758-1.823-3.311-1.823c-1.647,0-2.851,0.682-3.608,2.047v14.216
			c0.72,1.309,1.941,1.963,3.665,1.963c1.592,0,2.694-0.664,3.311-1.991c0.615-1.327,0.923-3.393,0.923-6.197V265.364z"/>
		<path fill="#FFFFFF" d="M1338.355,258.882l-2.671-0.224c-2.197,0-3.685,0.95-4.461,2.851v19.987h-8.068v-30.246h7.586l0.227,3.271
			c1.27-2.553,3.021-3.83,5.257-3.83c0.909,0,1.647,0.122,2.216,0.363L1338.355,258.882z"/>
		<path fill="#FFFFFF" d="M1354.352,282.056c-4.13,0-7.35-1.211-9.66-3.634c-2.312-2.422-3.467-5.889-3.467-10.399v-2.404
			c0-4.771,1.061-8.451,3.183-11.042c2.121-2.59,5.161-3.886,9.12-3.886c3.864,0,6.771,1.214,8.723,3.643
			c1.95,2.429,2.945,6.024,2.983,10.788v3.879h-15.996c0.113,2.266,0.615,3.922,1.506,4.97c0.89,1.048,2.263,1.571,4.119,1.571
			c2.689,0,4.935-0.922,6.734-2.768l3.153,4.78c-0.985,1.342-2.415,2.428-4.29,3.256
			C1358.585,281.641,1356.548,282.056,1354.352,282.056z M1349.294,263.495h8.041v-0.733c-0.039-1.824-0.342-3.206-0.909-4.146
			c-0.568-0.94-1.554-1.41-2.955-1.41c-1.402,0-2.42,0.499-3.055,1.495S1349.407,261.295,1349.294,263.495z"/>
		<path fill="#FFFFFF" d="M1383.389,273.39c0-0.671-0.327-1.29-0.98-1.859c-0.653-0.568-2.107-1.337-4.361-2.306
			c-3.314-1.323-5.593-2.693-6.833-4.109c-1.241-1.416-1.861-3.177-1.861-5.283c0-2.646,0.971-4.831,2.912-6.555
			c1.941-1.723,4.513-2.585,7.714-2.585c3.372,0,6.07,0.857,8.098,2.572c2.026,1.715,3.04,4.016,3.04,6.904h-8.04
			c0-2.46-1.042-3.69-3.126-3.69c-0.853,0-1.553,0.261-2.103,0.783c-0.549,0.522-0.823,1.249-0.823,2.181
			c0,0.671,0.303,1.263,0.909,1.775c0.605,0.513,2.035,1.244,4.29,2.194c3.276,1.193,5.592,2.521,6.946,3.983
			c1.354,1.463,2.031,3.359,2.031,5.688c0,2.702-1.032,4.874-3.097,6.513c-2.064,1.64-4.773,2.46-8.126,2.46
			c-2.254,0-4.243-0.433-5.966-1.3c-1.725-0.867-3.073-2.073-4.049-3.62c-0.976-1.546-1.464-3.214-1.464-5.003h7.644
			c0.037,1.379,0.364,2.414,0.979,3.103c0.616,0.69,1.624,1.034,3.026,1.034C1382.309,276.269,1383.389,275.31,1383.389,273.39z"/>
		<path fill="#FFFFFF" d="M1408.618,282.056c-4.13,0-7.35-1.211-9.66-3.634c-2.312-2.422-3.467-5.889-3.467-10.399v-2.404
			c0-4.771,1.061-8.451,3.183-11.042c2.121-2.59,5.161-3.886,9.12-3.886c3.864,0,6.771,1.214,8.723,3.643
			c1.95,2.429,2.945,6.024,2.983,10.788v3.879h-15.996c0.113,2.266,0.615,3.922,1.506,4.97c0.89,1.048,2.263,1.571,4.119,1.571
			c2.689,0,4.935-0.922,6.734-2.768l3.153,4.78c-0.985,1.342-2.415,2.428-4.29,3.256
			C1412.852,281.641,1410.814,282.056,1408.618,282.056z M1403.561,263.495h8.041v-0.733c-0.039-1.824-0.342-3.206-0.909-4.146
			c-0.568-0.94-1.554-1.41-2.955-1.41c-1.402,0-2.42,0.499-3.055,1.495S1403.674,261.295,1403.561,263.495z"/>
		<path fill="#FFFFFF" d="M1439.218,258.882l-2.671-0.224c-2.197,0-3.685,0.95-4.461,2.851v19.987h-8.068v-30.246h7.586l0.227,3.271
			c1.27-2.553,3.021-3.83,5.257-3.83c0.909,0,1.647,0.122,2.216,0.363L1439.218,258.882z"/>
		<path fill="#FFFFFF" d="M1453.935,270.315l3.893-19.064h8.382l-8.438,30.246h-7.672l-8.467-30.246h8.41L1453.935,270.315z"/>
		<path fill="#FFFFFF" d="M1482.035,282.056c-4.13,0-7.35-1.211-9.66-3.634c-2.312-2.422-3.467-5.889-3.467-10.399v-2.404
			c0-4.771,1.061-8.451,3.183-11.042c2.121-2.59,5.161-3.886,9.12-3.886c3.864,0,6.771,1.214,8.723,3.643
			c1.95,2.429,2.945,6.024,2.983,10.788v3.879h-15.996c0.113,2.266,0.615,3.922,1.506,4.97c0.89,1.048,2.263,1.571,4.119,1.571
			c2.689,0,4.935-0.922,6.734-2.768l3.153,4.78c-0.985,1.342-2.415,2.428-4.29,3.256
			C1486.269,281.641,1484.231,282.056,1482.035,282.056z M1476.978,263.495h8.041v-0.733c-0.039-1.824-0.342-3.206-0.909-4.146
			c-0.568-0.94-1.554-1.41-2.955-1.41c-1.402,0-2.42,0.499-3.055,1.495S1477.091,261.295,1476.978,263.495z"/>
	</g>
	<g>
		<g>
			<path fill="#B5E4FA" d="M793.745,622.171c0,153.44-126.426,277.829-282.38,277.829c-155.961,0-282.389-124.389-282.389-277.829
				c0-153.439,126.428-277.829,282.389-277.829C667.319,344.342,793.745,468.731,793.745,622.171z"/>
			<g>
				<defs>
					<path id="SVGID_5_" d="M793.745,622.171c0,153.44-126.426,277.829-282.38,277.829c-155.961,0-282.389-124.389-282.389-277.829
						c0-153.439,126.428-277.829,282.389-277.829C667.319,344.342,793.745,468.731,793.745,622.171z"/>
				</defs>
				<use xlink:href="#SVGID_5_"  overflow="visible" fill="#FFFFFF"/>
				<clipPath id="SVGID_2_">
					<use xlink:href="#SVGID_5_"  overflow="visible"/>
				</clipPath>
				<g clip-path="url(#SVGID_2_)">
					<path fill="#41B655" d="M953.131,802.027c-3.479,5.929-14.246,11.824-14.735,16.595c-0.83,8.065,17.208-7.624,17.258-7.179
						c-0.154-1.43,3.728-8.8,2.753-9.368C957.612,801.593,954.564,801.542,953.131,802.027z"/>
					<path fill="#41B655" d="M959.959,802.614c0.025,0.073,0.047,0.036,0.061-0.09C959.797,802.712,959.754,802.753,959.959,802.614
						z"/>
					<path fill="#41B655" d="M969.228,790.964c-3.604-0.334-3.406-2.055-7.36-3.006c-0.398-0.376,0.28,1.697-0.154,1.825
						c-2.325,0.684-3.145-8.942-6.642-8.342c4.683-0.781,5.19,19.333,4.948,21.083C961.623,801.185,972.563,792.432,969.228,790.964
						z"/>
					<path fill="#41B655" d="M641.044,414.702c1.621,3.858,1.995-0.954,3.641,0.795c-0.176-0.181-2.375,2.062-2.153,2.914
						c1.98,7.544,6.947-4.062,6.947-4.138c0-0.29,2.153,1.141,2.286,0.563c0.309-1.446-0.553-2.089-0.625-3.54
						c-0.032,0.201,2.634,1.748,2.084-3.136c0-0.015,39.716-23.268,22.275-23.868c-2.182,0.09-14.979,8.731-16.15,9.374
						c0.384-0.286-12.342,7.392-13.093,8.4c-1.567,0.691,2.109,5.548,2.358,4.553c-0.129,0.611-2.685-0.249-2.796,0.539
						c-0.237,1.364-0.801,2.776-0.859,3.716c-0.021,0.343,1.973,1.02,2.188,1.375C646.611,412.146,640.688,414.864,641.044,414.702z
						"/>
					<path fill="#41B655" d="M453.158,345.55c-0.203,0.145-0.386,0.291-0.571,0.433C452.84,345.892,453.043,345.757,453.158,345.55z
						"/>
					<path fill="#41B655" d="M431.507,433.12c3.286,1.347,6.688,4.514,10.253,6.354c0.009-1.091,0.076-2.431,0.116-3.533
						c-0.408-0.369-0.818-0.75-1.23-1.13c-0.235,0.208-0.406,0.335-0.379,0.235c0.043-0.156,0.085-0.312,0.121-0.47
						c-2.69-2.495-5.319-5.067-7.964-7.562c-0.111,0.245-0.137,0.67-0.035,1.316c-0.733-1.126-0.927-1.796-0.898-2.215
						c-0.647-0.632-1.281-1.295-1.854-1.985c-0.136-0.063-0.273-0.128-0.431-0.197c-0.074-0.037-0.025-0.128,0.095-0.245
						c-1.508-1.996-2.402-4.275-1.538-6.967c2.819-8.77,9.103-15.668,14.39-23.105c-3.096-3.205-5.091-7.053-4.43-12.275
						c0.579-4.535,2.324-8.86,4.268-13.039c1.494-4.622,4.741-10.124,6.18-12.391c0.158-0.289,0.313-0.587,0.482-0.881
						c-0.283-0.183-1.052,0.93-0.994,0.608c0.564-4.771,1.628-7.084,4.929-9.657c-1.414,0.518-4.627-0.436-5.838,2.311
						c1.804-4.079-39.655-2.809-43.443-2.802l-73.853,0.155c-0.084,0.373-0.18,0.743-0.271,1.112
						c0.382,0.449,0.684,0.915,0.219,1.154c-0.394,3.893-1.704,5.727-3.438,6.862c-2.661,4.502-6.53,8.118-10.376,11.699
						c-1.83,1.706-3.854,3.434-6.069,4.69c0.029,0.021,0.054,0.049,0.074,0.07c7.503,6.383,8.05,2.082,14.425,4.373
						c1.324,0.479,2.436,2.521,2.356,4.707c-0.273,1.126-5.335,0.219-9.342,0.318c3.104,3.769,6.32,7.43,9.718,10.919
						c4.965,0.048,13.1,0.311,12.934,1.885c4.326,2.066,8.584,14.798,10.824,15.53c1.18,3.6,4.445,10.366,4.88,13.126
						c-0.098-0.056-1.731,8.915-0.986,8.124c0.404,0.912,2.384,3.088,2.646,3.461c3.67-1.886,0.135-1.589,4.456-1.168
						c0.407-0.296,0.811-0.604,1.219-0.925c1.649-1.292,4.506-1.077,5.054,1.313c1.321,5.789,3.339,12.853,1.292,18.718
						c-0.927,2.659-2.401,4.771-4.241,6.5c0.028,0.032,0.063,0.066,0.088,0.066l-0.148-0.007c-1.604,1.499-3.497,2.697-5.557,3.737
						c4.195,13.091,10.272,25.45,16.738,37.64c0.801-0.072,1.59-0.11,2.17-0.072c3.447-2.667,7.08-5.078,10.732-7.489
						c0.967-3.073,1.612-6.014,1.854-7.55c4.058,1.54,0.263-3.987-0.345-2.868c0.11-0.199,0.23-0.393,0.338-0.587
						c-0.502-0.798-0.615-1.823,0.032-2.888c5.107-8.455,12.917-21.021,23.424-23.356c4.715-1.043,9.662-1.651,14.485-1.638
						c0.257,0,0.523,0,0.787,0c1.488-1.43,3.585-3.333,5.592-5.042c-4.734-1.658-9.53-3.206-14.116-5.244
						c-1.168-0.518-1.793-2.203-1.393-3.36C421.432,433.903,425.572,430.681,431.507,433.12z"/>
					<path fill="#41B655" d="M486.772,540.809c-0.191-0.038-0.379-0.068-0.555-0.072
						C486.35,540.923,486.544,540.926,486.772,540.809z"/>
					<path fill="#41B655" d="M496.962,537.3c1.089-0.046,2.153-0.27,3.209-0.557c-3.49-6.183-8.481-14.753-8.867-13.94
						c1.492-1.651,1.558-4.573,3.468-6.853c0.433-1.03-9.045,3.232-3.396-4.66c-2.005-6.339-11.413,16.846-6.449,14.742
						c0.383-0.163,0.825-1.73,1.094-2.732c-0.111,0.753,0.787-0.539,1.173-0.28c1.415,0.961-2.05,5.413-0.415,5.917
						c-0.311-0.092,4.023-0.994,4.557-1.111c0.864-0.146-0.771,6.735-3.468,8.659c2.717-1.427,0.243,3.638-1.098,4.324
						c0.512,0.107,1.087,0.321,1.677,0.539c1.089-0.349,2.182-0.691,3.276-1.029c1.043-0.411,2.086-0.832,3.128-1.246
						C495.054,538.159,495.755,537.358,496.962,537.3z"/>
					<path fill="#41B655" d="M628.509,721.298c-3.104,6.542-5.067,9.492-12.137,10.094c-0.176,3.357-5.01,31.968,6.563,23.163
						c3.216-1.168,7.245-22.714,8.769-24.213C633.052,729.046,627.812,722.375,628.509,721.298z"/>
					<path fill="#41B655" d="M253.422,389.846c3.269,0.422,0.355,15.333,5.905,15.748c0.274,0.017,7.43,0.69,6.109-0.295
						c0.839,0.619,17.065,4.422,13.843-0.662c6.462,7.951,13.124-2.515,8.346-7.078c1.442-5.703-13.882,0.991-14.688,2.007
						c-2.573-0.981-5.564-1.944-7.621-2.217c-0.801-0.115-0.007,1.906-0.628,2.117c-0.876,0.272-1.671-4.474-5.775-4.076
						c-0.349,0.038,0.485-1.541,1.078-1.952c-0.298-0.2-0.672-0.569-0.998-0.932c1.608,0.497,4.901-1.485,4.989-1.492
						c0.351-0.912-5.662-1.596-5.86-2.401c-0.026-0.12,3.589,0.784,2.533-0.542c-0.273-3.951-8.061,0.142-8.064,0.602
						c1.685-6.356-1.591-3.281-3.388-6.234C238.249,383.1,248.272,389.169,253.422,389.846z"/>
					<path fill="#41B655" d="M260.463,393.59c-0.079-0.29-0.257-0.297-0.471-0.152C260.185,393.572,260.36,393.646,260.463,393.59z"
						/>
					<path fill="#41B655" d="M322.709,456.704c-0.916-0.573-1.865-1.161-2.845-1.775c0.324,0.104,0.552-0.311,0.66-0.905
						c-5.765-7.067-11.681-13.995-18.417-20.183c-3.096-2.843-6.537-4.804-10.241-6.238c-2.454,1.189-4.612,2.395-5.561,2.498
						c0.246-0.024,0.326-1.935-0.056-4.27c-1.98-0.505-4.013-0.919-6.084-1.288c-0.327-0.055-0.656-0.118-0.986-0.17
						c-1.683,3.299-3.449,6.864-4.372,10.32c0.11,0.746,0.212,1.4,0.296,1.907c-0.161-0.158-0.396-0.221-0.661-0.234
						c-0.526,2.84-0.372,5.562,1.009,7.944c0.011,0.027,0.021,0.049,0.036,0.072c4.956,2.377,9.788,3.997,10.525,2.146
						c0.106-0.259-1.805-2.183-1.623-2.159c2.37,0.35,4.744,0.702,7.113,1.054c0.347,0.049,0.119-0.545-0.246-1.243
						c2.787,2.079,9.233,3.554,6.313,9.156c-0.033,0.433,5.217-1.351,5.342-1.427c-1.271,0.401,0.292,2.702,0.898,2.971
						c3.953,6.024,0.982,11.229,1.563,19.088c-1.06-1.703-5.724-0.552-8.423,1.402c1.78,1.129,3.56,2.26,5.341,3.389
						c0.06-0.086,0.119-0.18,0.185-0.287c1.039-0.98,3.073,1.054,4.962,3.565c3.461,2.224,6.898,4.479,10.269,6.829
						c1.337,0.932,1.793,2.29,1.665,3.57c2.783,1.344,5.359,2.45,5.946,2.084c0.225-0.139-5.118-7.642-6.582-9.438
						c2.036,2.235,7.396,3.648,9.795,5.852c3.905,2.905-6.552-16.949-7.812-17.408c0.217-0.691,0.625-3.082,0.463-4.163
						c2.889,0.723,11.128,4.619,10.665,8.241c0.194-0.918,1.984-4.224,2.896-6.324C330.618,466.527,326.671,461.602,322.709,456.704
						z"/>
					<path fill="#41B655" d="M813.867,677.658C813.91,677.706,813.816,677.597,813.867,677.658L813.867,677.658z"/>
					<path fill="#41B655" d="M813.009,688.219c-6.07-6.077,0.396-11.1,0.858-10.561c-1.07-1.285-6.814-3.716-6.648-3.914
						c0.543-0.023-18.979,14.706-18.508,12.023C779.272,712.353,817.637,692.698,813.009,688.219z"/>
					<path fill="#41B655" d="M895.743,716.058c0.5,0.235,0.967,0.37,1.384,0.329C896.765,716.352,896.29,716.234,895.743,716.058z"
						/>
					<path fill="#41B655" d="M897.127,716.387c0.021,0,0.025,0,0.033-0.003C897.145,716.387,897.127,716.387,897.127,716.387z"/>
					<path fill="#41B655" d="M895.743,716.058c-3.069-1.467-7.202-7.416-6.138-8.897c0.276-0.377-24.123-14.494-28.194-11.575
						c-1.567,1.119-2.789,1.713-3.781,1.956c-0.633,1.194-1.149,2.438-1.811,3.618c4.15,3.144,10.634,7.904,10.246,8.133
						c-0.777,0.479-1.931,1.236-2.939,1.869c-0.094,0.105,17.375-0.249,15.662-0.51
						C881.182,709.076,891.208,714.598,895.743,716.058z"/>
					<path fill="#41B655" d="M897.16,716.384C897.185,716.384,897.195,716.384,897.16,716.384L897.16,716.384z"/>
					<path fill="#41B655" d="M194.768,433.402c-1.644,0.273-0.159,0.742-0.271,1.105c-0.13,0.463-3.954,0.946-5.751,1.852
						c-0.066,0.093-0.128,0.183-0.192,0.276c0.909,0.926,1.812,1.921,2.728,2.96c4.3,2.048,10.911,4.349,12.715,2.459
						c-0.755,0.802-4.646,2.031-8.04,2.86c4.144,4.487,8.703,8.377,14.462,8.377c2.05,0,4.127-0.146,6.185-0.436
						c-0.281-0.076-0.555-0.139-0.818-0.184c2.164-0.874,3.472-2.228,3.051-4.059c0.327,0.456,1.97,1.734,3.984,2.854
						c0.801-0.245,1.586-0.512,2.359-0.815c0.902-0.355,1.727-0.795,2.546-1.264c-1.074-0.567,0.994-1.223,2.861-1.676
						c0.035-0.018,0.07-0.041,0.099-0.059c-0.919-2.335-1.664-4.711-3.047-6.86c-1.693-2.635-3.599-5.098-5.537-7.563
						c-2.852-3.617-4.607-7.651-7.103-11.489c-0.055-0.083-0.115-0.165-0.169-0.252c0.047,4.142-0.272,10.576-0.233,10.642
						c-0.681-1.24-6.621-10.106-6.228-10.631c-0.544,0.711-2.852,3.924-3.802,5.25c-0.092-6.321-4.137-4.577-6.168-3.16
						c-2.935,3.298-5.635,6.801-8.11,10.448C192.283,433.769,194.856,433.368,194.768,433.402z"/>
					<path fill="#41B655" d="M382.704,697.465c-3.049-1.064-7.088-9.761-12.749-1.033c0.53-1.096-2.33-1.364-4.204-1.194
						c0.207-0.445,0.038-1.027-0.095-1.496c4.789-0.228-0.026-15.217-1.605-13.236c0.014-0.028,0.032-0.052-0.007,0
						c0.264-0.333-11.017-4.588-19.906-8.695c-9.668-2.068-19.297-4.313-28.889-6.751c-0.984,0.247-1.955,0.496-2.946,0.738
						c-0.591,1.08-1.037,2.003-1.085,2.362c-0.084-0.325-0.268-1.076-0.438-1.989c-4.063,1.001-8.116,2.031-12.092,3.357
						c-0.78,0.262-1.501,0.297-2.13,0.155c-0.281,0.508-0.229,0.909,0.301,1.164c-2.127-1.058-18.147-3.861-17.802-7.35
						c-9.368-7.565,9.785-8.923-11.271-12.2c-3.511-0.547-2.243-4.446-1.027-6.916c-0.921-0.18-1.803-0.346-2.606-0.519
						c-2.183-0.462-4.375-0.895-6.571-1.305c-1.241,0.648-2.856,0.978-5.197,0.677c-2.374-0.297-4.207-1.174-5.592-2.433
						c-0.843-0.109-1.685-0.24-2.521-0.345c-3.795-0.471-4.856-4.922-3.111-7.04c-0.102-0.438-0.109-0.917-0.007-1.442
						c1.028-5.044,2.082-10.074,3.539-15.007c0.416-1.761,0.842-3.514,1.313-5.263c0.372-1.409,1.682-2.273,3.115-2.336
						c4.539-0.186,8.312,1.59,12.15,3.344l0.266,0.057c-0.126-0.057-0.228-0.118-0.262-0.242c-0.033-0.102,6.22,0.145,12.185,2.162
						c2.039,0.145,4.093,0.199,6.197,0.186c0.691-0.005,1.378-0.005,2.064-0.013c0.594-4.2,1.352-7.485,5.659-10.791
						c2.92-2.242,6.335-3.564,9.733-4.922c0.958-0.909,1.768-1.808,2.415-2.659c-0.07-0.152-0.133-0.304-0.199-0.453
						c-0.447-0.221-1.026-0.66-1.374-0.933c0.235,0.037,0.586-0.024,0.91-0.097c-1.571-3.559-2.937-7.22-4.383-10.825
						c-0.494-1.24,0.296-3.019,1.486-3.589c6.688-3.195,13.755-5.488,20.791-7.824c0.85-1.931,2.021-4.241,3.468-6.224
						c-0.561-0.47-1.134-0.951-1.705-1.413c-1.292-1.047-1.52-2.338-1.114-3.481c-0.098-0.118-0.196-0.239-0.296-0.362
						c-3.204,1.053-6.419,2.576-9.408,3.025c-4.879,0.735-6.677-5.492-2.032-7.268c5.834-2.231,11.36-5.133,16.943-7.91
						c3.082-2.425,6.402-4.311,9.42-4.339c0.706-0.29,1.396-0.594,2.113-0.866c1.555-0.598,2.809-0.155,3.611,0.749
						c3.32-1.645,6.696-3.164,10.06-4.704c-2.164-2.604-4.311-5.23-6.445-7.854c-1.697,0.456-3.03,0.767-2.508,0.422
						c0.207-0.146,1.246-0.339,2.39-0.561c-4.841-5.935-9.73-11.838-15.063-17.332c-1.416,0.718-2.837,1.443-4.245,2.183
						c-1.946,1.029-4.014,0.38-5.238-1.352c-3.164-4.486-5.814-9.295-9.086-13.713c-0.091-0.114-0.166-0.23-0.24-0.348
						c-2.899-0.733-5.792-1.562-8.65-2.494c-1.231,4.621-2.511,9.235-3.664,13.886c0.501,2.103,1.752,4.297,3.121,8.062
						c0.355,0.438,0.446,0.895,0.289,1.375c-5.506,5.137-13.16,8.749-4.586,16.576c-2.833-0.286-1.612,3.022-2.187,3.797
						c0.6-0.781-4.683,0.731-5.095,0.5c-0.18-0.1-0.401-4.998-3.313-3.567c5.444-9.168-18.763-24.027-28.049-20.722
						c4.388-1.206-3.192-9.012-4.244-8.38c0.463-6.67,1.77-15.381,5.912-19.571c2.476-2.519,3.026-4.78-0.523-6.429
						c1.7-0.2,3.818-0.718,5.927-1.43c0.029-0.082,0.042-0.166,0.078-0.256c2.507-6.504,6.074-12.438,9.704-18.376
						c-0.994-0.614-1.985-1.246-2.945-1.92c-0.422-0.301-0.875-0.615-1.321-0.943c-0.848,0.981-0.751,0.646-0.326-0.235
						c-2.127-1.536-4.423-3.374-6.069-5.516c-0.011,0.055-0.029,0.11-0.051,0.165c-4.093-0.233-3.03-12.372-3.391-12.096
						c0.986-0.753-6.544-12.307-8.864-13.799c-0.818-0.094-1.465,0.087-1.962,0.46c1.597,4.824,2.86,9.743,3.538,14.766
						c0.204,1.495,0.285,3.009,0.239,4.487c0.235,0.206,0.46,0.358,0.67,0.429c-0.225,0.286-0.492,0.614-0.743,0.963
						c-0.074,0.95-0.208,1.875-0.397,2.777c0.772,0.131,1.447-1.931,1.362-1.931c0.556,0-3.939,11.688-3.672,11.447
						c-0.961,0.9-1.4-0.453-1.607-2.128c-2.487,2.221-6.099,3.198-11.061,2.052c-3.126-0.723-6.523-2.487-9.763-2.46
						c-3.166,0.028-5.441,1.3-8.264,2.536c-0.678,0.297-1.355,0.572-2.023,0.842c-0.318,1.138-0.498,1.918-0.457,1.969
						c-0.107-0.61-0.233-1.161-0.379-1.657c-4.83,1.789-9.611,2.514-14.492-0.208c-7.046-3.934-13.902-8.327-21.037-12.062
						c-3.295-1.728-6.59-3.472-9.829-5.302c-0.18,0.773-0.18,1.492,0.158,1.861c0.02,0.028-2.061-2.072-4.016-4.114
						c-0.134-0.078-0.261-0.161-0.397-0.237c-1.274,0.594-2.543,1.202-3.806,1.823c-0.21,0.222-0.468,0.362-0.78,0.394
						c-4.128,2.069-8.151,4.342-11.923,7.047c-2.611,1.865-5.143,0.504-6.244-1.71c-6.07-4.95-37.123-9.164-38.647-10.739
						c-3.22-3.419-12.952-1.689-13.756-1.972c-0.685-0.242-1.365-0.483-2.046-0.726c6.825,2.438-13.774-11.299-8.396,0.784
						c-0.023-0.493,0.43-0.822,0.751-1.054c0.071-0.184-2.865,4.532-2.221,4.474c-0.467,0.041-0.063-2.474-0.688-2.086
						c-1.335,0.683-3.479,3.357-4.322,2.086c0.684,1.021-2.606,1.149,0.228,2.535c-0.886,0.608-14.072,10.135-13.188,10.897
						c3.624,3.14,7.5,8.576,11.495,7.858c1.612-0.297,1.479,3.357,2.676,3.724c0.375,0.117,3.479-0.636,4.444-0.54
						c0.345-0.023-0.884,0.437-1.071,0.754c-1.831-0.034-4.654-0.234-4.738-0.241c-0.298-0.395,0.052,1.706,0.185,1.668
						c0.368-0.097,2.97-0.362,2.262,0.587c-1.781,0.363-10.041-1.845-7.598-2.4c-2.188,0.477-9.894,4.131-11.042,5.578
						c-0.088,0.106,4.085,2.826,4.346,2.656c-1.261,3.434,8.198,6.777,8.831,4.643c0.074-0.263-0.85-0.812-0.618-0.946
						c0.933-0.536,1.15,2.259,1.667,1.692c2.166-2.497,2.843-1.852,4.753-2.784c3.946,2.101-4.358,8.021-9.851,12.704
						c10.119,4.685,17.188,13.599,26.019,20.308c2.384-6.069,5.132-11.983,8.742-17.461c1.005-1.52,3.118-2.722,5.002-2
						c7.042,2.684,14.135,5.268,21.051,8.262c5.463,2.37,11.291,4.895,16.189,8.445c-0.095-0.598-0.19-1.07-0.278-1.215
						c0.64,0.891,1.475,1.868,2.318,2.811c0.284,0.235,0.575,0.456,0.848,0.706c5.281,4.746,8.947,10.658,12.102,16.903
						c1.229,1.375,2.254,3.97,3.228,6.753c1.242,2.712,2.47,5.427,3.755,8.087c4.09-0.67,8.665-0.856,12.095,1.547
						c3.961,2.777,5.884,6.915,7.587,11.274c0.642,1.665-0.716,3.42-2.256,3.907c-1.966,0.621-3.958,1.156-5.956,1.64
						c2.124,8.767,1.844,17.935,1.446,27.019c0.127,0.253,0.257,0.478,0.391,0.664c0.014,0.027-0.685,1.166-0.253,1.547
						c3.305,7.454,17.586,22.064,19.096,29.213c0.229,1.107,11.332,11.974,13.053,13.017c0.585,0.072,1.021-0.221,1.305-0.884
						c-0.466,0.441-14.453-23.498-13.895-23.74c5.217-2.187,23.24,30.962,25.522,32.072c5.687,2.764,52.751,17.105,52.789,25.629
						c1.948,0.339,9.844,6.269,12.552,6.416c2.784-1.677,14.976,2.003,8.416,9.127c-5.105,4.871-7.524,13.425-7.633,15.448
						c-15.65,16.656,25.489,32.067,24.231,42.334c-0.688,5.603-11.466,64.795-4.436,64.943c-1.431-0.228-1.188,11.198-1.155,12.885
						c-0.509,0.242-2.662,2.279-1.774,2.279c0.91,0,0.59-0.297-0.578,1.481c0.28-0.458-0.517-0.342-0.835-0.255
						c-0.553-0.804-3.754-4.093-2.43-1.31c0.125-0.29-0.144,1.009-0.517,2.049c1.636-0.715,3.486,4.673,4.546,5.668
						c0.292,0.463-2.517-0.47-2.51-0.388c0.106,0.268,1.285,2.246,1.521,1.717c-0.253,0.587-0.324,3.335-0.137,3.023
						c-0.534,2.311-1.361,9.822,1.323,10.749c1.376,0.475,1.03-1.368,0.791-2.021c0.779,1.115,3.894,5.172,4.778,5.653
						c-0.781,0.728-2.602,1.648-2.613,1.662c-0.438,0.652,1.454,1.607,2.426,1.891c0.154-0.941,4.883-5.513,6.963-6.657
						c0.688-18.704,3.601-39.504,15.645-53.394c0.715-1.61,1.498-3.164,2.418-4.632c2.816-4.532,7.116-6.992,12.39-7.992
						c4.001-0.768,8.139-1.127,12.318-1.176c1.222-1.823,2.205-3.351,2.433-3.662c2.697-3.626,6.577-13.194,9.258-15.222
						c4.045-3.071,7.181-6.628,11.808-8.044c10.223-3.1,9.534-14.259,12.298-23.874c1.558-5.442,6.571-11.676,9.422-16.905
						C408.073,704.689,386.468,698.605,382.704,697.465z M78.062,468.096c0.405-0.145,0.88-0.332,0.994-0.138
						C79.108,468.055,78.694,468.089,78.062,468.096z"/>
					<path fill="#41B655" d="M312.074,849.174c-0.073,0.03-0.267,0-0.506-0.072C311.534,849.294,311.688,849.336,312.074,849.174z"
						/>
					<path fill="#41B655" d="M300.605,822.294c0.225,0.179,0.313,0.068,0.35-0.122C300.833,822.32,300.709,822.379,300.605,822.294z
						"/>
					<path fill="#41B655" d="M275.446,666.591c0.112-0.275,0.165-0.552,0.158-0.843c-0.077-0.017-0.165-0.037-0.221-0.034
						C275.187,665.738,275.365,666.525,275.446,666.591z"/>
					<path fill="#41B655" d="M300.955,822.172c0.169-0.203,0.334-0.587,0.488-1.025c-0.135,0.065-0.285,0.155-0.421,0.321
						C300.969,821.537,301.007,821.924,300.955,822.172z"/>
					<path fill="#41B655" d="M685.691,450.556c1.657-7.993,2.368-16.228,1.844-24.168c-0.065-1.023,0.126-1.883,0.503-2.591
						c-1.991-2.768-4.672-4.018-6.538,0.101c-0.337,0.738-5.153,13.201-6.157,19.874
						C678.727,446.142,682.119,448.49,685.691,450.556z"/>
					<path fill="#41B655" d="M630.019,662.226c-10.131,3.384-20.173,4.933-24.766-5.361c-3.852-8.66-7.605-17.07-12.18-25.422
						c-3.881-7.095-7.641-14.259-10.455-21.82c-1.326-0.21-2.433-0.445-2.508-0.59c-5.265,2.597-16.884-4.429-22.544-3.041
						c-12.01,2.961-4.833,7.807-22.516-0.352c-14.775-6.816-1.107-8.754-6.44-13.378c-1.884-1.699-9.369-1.482-17.858-0.266
						c-7.774,4.604-16.326,8.441-25.188,10.535c-0.034,0.388-0.136,0.786-0.343,1.202c-1.036,2.051-2.139,4.075-3.279,6.071
						c-1.819,7.217-7.93,13.976-11.562,20.048c-3.767,6.295-7.896,12.365-12.116,18.376c4.621,7.896,8.629,16.152,12.18,24.573
						c11.181,4.521,24.741,2.094,37.319,2.431c1.485,0.043,17.103,5.062,17.178,5.822c1.061,1.329,0.306,7.892,0.536,9.342
						c2.703,25.962,13.122,61.657,21.926,88.461c6.369,19.385,46.631-25.008,45.367-27.17c-0.145,0.079-0.27,0.179-0.371,0.304
						c-10.02-3.849,13.783-25.923,13.811-26.082c4.719-9.036-0.64-27.053,5.833-34.756c4.179-8.842,20.377-17.481,22.698-25.91
						C635.657,661.998,633.425,661.665,630.019,662.226z"/>
					<path fill="#41B655" d="M972.394,452.455c-0.118-3.143-19.55-7.813-23.044-7.754c-2.296-0.633,2.688,8.135-1.826,8.659
						c2.545-2.432-7.15-5.271-14.382-5.886c0.233,1.741-1.179,3.427-3.328,2.957c-11.414-2.479-22.142-7.544-32.629-12.477
						c-9.143-4.301-17.401-10.041-26.192-14.891c-0.032,0.034-0.075,0.062-0.097,0.107c0.079-0.146-2.753,10.956-2.401,10.721
						c-9.391,6.294-14.135-4.435-19.095-3.979c-0.905,0.069-3.604,8.124-3.819,9.443c-2.419,6.207-7.162-19.771-4.949-18.228
						c-2.451-3.254-15.619-10.11-15.694-3.447c-0.058,5.554-14.278,5.378-12-0.429c0.719-1.806-12.554-0.373-14.767,1.323
						c-0.051-0.38-0.134-0.86-0.234-1.371c-4.769,1.952-9.517,3.955-14.182,6.132c-1.175,0.545-2.533,0.214-3.367-0.567
						c-0.151,0.056-0.32,0.11-0.499,0.18c0.11-0.11,0.226-0.221,0.348-0.338c-0.701-0.746-0.927-1.824-0.215-2.943
						c5.779-8.971,12.567-17.264,17.99-26.431c-1.305-3.842-4.729-3.873-9.107-5.548c-8.776,2.791-17.739,4.836-26.997,5.472
						c-1.438,0.294-8.033,1.523-9.753,1.606c-0.446-0.135-1.301-0.371-2.275-0.619c-7.274,4.947-15.616,8.239-22.595,13.613
						c3.522,8.735-15.712,6.473-14.72,9.71c0.291,0.877,8.528,23.104,7.022,26.382c-0.161,0.456-0.453,0.885-0.916,1.237
						c-1.334,0.997-2.656,1.993-3.986,2.991c-0.273,0.293-0.561,0.59-0.866,0.884c-2.954,2.839-5.916,6.073-9.48,7.82
						c0.122,0.487,0.244,0.96,0.388,1.409c-0.291-0.4-0.575-0.801-0.873-1.188c-0.716,0.318-1.456,0.577-2.229,0.764
						c-1.822,1.33-3.647,2.646-5.48,3.955c-1.193,3.185-2.843,6.213-5.144,8.069c-1.804,2.604-5.322,2.798-7.666,1.429
						c-0.575-0.161-1.157-0.376-1.771-0.648c-1.018-0.46-1.445-1.823-1.161-2.819c0.414-1.499,0.963-2.908,1.725-4.214
						c0.442-1.278,0.855-2.569,1.25-3.871c-7.292-2.272-14.354-5.368-21.067-9.009c-3.587,4.072-7.274,9.509-12.852,9.523
						c-4.981,0.007-9.219-1.956-13.427-4.132c-1.215,0.822-2.588,1.883-4.531,3.51c-5.338,4.466-7.886,6.155-9.129,6.244
						c-0.88,4.139-2.351,8-5.154,10.901c-6.498,6.743-17.208,8.988-26.204,10.238c-0.812,0.104-1.807-0.187-1.994-1.115
						c-0.744-3.914-1.977-7.703-3.124-11.513c-0.018-0.041-0.042-0.073-0.05-0.111c-0.233-0.742-0.449-1.492-0.647-2.244
						c-0.244-0.889-0.493-1.776-0.719-2.674c-0.064-0.249-0.05-0.47-0.018-0.678c-0.15-0.814-0.298-1.633-0.435-2.452
						c-0.111-0.649,0.044-1.499,0.741-1.796c1.538-0.663,3.231-1.043,4.909-1.115c0.528-0.019,1.158,0.313,1.398,0.791
						c0.942,1.92,1.729,3.89,2.293,5.927c8.726,1.527,18.429-2.493,8.777-13.057c-0.346-0.635-9.518-4.98-14.581-7.616
						c-9.183,0.142-18.114-2.618-26.739-6.58c-0.255,0.332-0.511,0.656-0.769,0.98c-0.191,0.415-0.241,0.781-0.076,1.047
						c-0.144-0.086-0.313-0.189-0.488-0.301c-3.066,4.007-6.017,8.104-9,12.104c-3.878,5.198-7.576,10.48-11.368,15.737
						c-3.102,4.304-6.447,8.47-11.13,11.156c0.449,0.608,1.036,0.947,1.351,0.854c-1.118,1.126-6.163,2.735-8.618,4.639
						c-0.122,1.983-0.24,3.966-0.334,5.948c-0.291,6.193,0.716,12.065-1.114,17.858c3.202-0.604,7.446-4.221,8.011-7.718
						c0.053,1.02,5.099,14.592,5.494,16.422c1.934-5.671,4.614-11.095,7.274-16.448c1.409-2.833,2.807-5.612,4.273-8.345
						c3.558-9.265,10.325-19.638,14.955-24.297c0.119-0.021,0.227-0.035,0.349-0.049c0.083-0.09,0.165-0.173,0.258-0.249
						c3.066-2.614,7.723-1.491,11.299-0.853c1.37,0.248,2.117,2.138,1.341,3.254c-3.576,5.13-7.76,9.886-12.622,13.865
						c-0.996,0.812-2.174,0.628-2.983,0.023c-0.136,0.049-0.273,0.104-0.406,0.146c-0.604,1.437,1.092,18.531,3.583,16.3
						c2.2-0.895,21.471-4.688,19.022-0.331c-1.312,2.269-8.442,2.255-13.445,2.974c0.611,0.546,0.91,1.416,0.708,2.266
						c-1.082,4.761-3.087,9.807-5.804,13.899c-2.699,4.065-5.481,5.534-10.351,6.342c-1.379,0.228-2.746,0.456-4.118,0.691
						c-1.251,0.352-2.549,0.573-3.878,0.711c-1.488,0.291-2.961,0.602-4.439,0.937c-0.046,0.114-0.085,0.238-0.122,0.37
						c0.037-0.129,0.054-0.246,0.076-0.36c-1.818,0.415-3.634,0.871-5.452,1.399c-5.075,1.472-10.146,2.892-15.361,3.616
						c-1.555,1.202-3.14,2.37-4.732,3.523c-0.007,0.159,0,0.301,0.005,0.407c-0.237,0.114-0.617,0.207-0.996,0.291
						c-1.464,1.042-2.933,2.072-4.424,3.084c-2.381,1.921-5.653,4.407-8.124,5.406c-3.055,1.988-6.106,3.965-9.135,5.969
						c1.965,0.863,4.641,1.575,5.097,2.873c4.892,14.726-1.008,13.019-18.719,13.882c2.047-0.106-1.626,13.634-0.555,14.117
						c2.455,5.969,4.907,2.191,8.699,6.822c1.061,1.295,2.261,1.827,3.544,1.778c0.95-0.279,1.904-0.58,2.85-0.904
						c7.523-4.2,16.443-21.616,17.867-22.051c1.001-0.698,1.962-1.268,2.897-1.748c0.292-0.47,0.744-0.87,1.4-1.099
						c5.246-1.838,10.719-3.322,16.186-4.324c3.917-0.719,8.952-1.955,12.606,0.245c6.401,3.83,10.729,10.372,14.869,16.763
						c0.262-0.124,0.521-0.263,0.791-0.387c5.427-2.656,10.846-5.357,16.036-8.421c-0.938-1.779-0.665-4.204,0.826-5.61
						c0.781-5.567,2.609-11.024,8.805-12.621c6.426-1.651,13.945-2.487,20.571-1.838c1.305,0.125,2.814,1.092,2.649,2.598
						c-0.163,1.458-0.381,3.186-0.733,4.933c0.021,0.615-0.097,1.212-0.399,1.759c-0.772,2.949-2.016,5.688-4.168,6.897
						c2.982,2.843,7.399,5.769,8.77,7.333c-0.647,2.753-15.332,0.756-24.834,0.591c-0.144,0.093-0.284,0.193-0.428,0.29
						c-0.043,0.346-0.165,0.677-0.384,0.978c-3.472,4.598-8.083,8.155-13.114,11.001c1.423,1.145,3.346,2.287,3.425,2.321
						c0.046,0.159,0.046,0.297,0.003,0.415c5.161-0.968,15.051,1.295,20.561,0.304c-1.136-0.038-2.768,6.457-4.435,11.447
						c1.319,3.771,2.804,7.461,4.41,11.101c0.179,0.273,0.32,0.588,0.42,0.953c5.999,13.36,13.532,26.046,19.641,39.374
						c2.652,2.44,4.532,1.398,7.727,0.475c4.098-1.182,8.201-2.238,12.249-3.579c0.478-0.155,0.955-0.325,1.438-0.478
						c0.478-0.171,0.822-0.311,1.013-0.397c3.946-1.257,11.025-6.041,14.458-10.155c0.349-2.341,0.824-4.662,1.607-6.903
						c-6.275-1.047-12.583-1.952-18.969-2.031c-0.571-0.007-1.021-0.183-1.383-0.445c-2.3-0.486-4.525-2.076-5.646-3.817
						c-2.286-3.582-3.497-8.228-3.59-12.444c-0.01-0.905,0.392-1.538,0.974-1.911c0.061-0.08,0.119-0.159,0.202-0.235
						c0.089-0.081,0.179-0.157,0.269-0.24c0.007-0.018,0.007-0.021,0.018-0.039c0.244-1.04,1.227-1.675,2.232-1.731
						c8.618-5.566,14.688,4.657,20.313,11.987c0.075-0.076,0.161-0.139,0.276-0.192c-0.061,0.095-0.14,0.186-0.212,0.275
						c0.162,0.218,0.331,0.428,0.5,0.642c2.62,0.757,5.553,1.182,9.042,1.237c3.055,0.063,15.824-1.651,17.819,0.497
						c5.114,1.68,3.981,5.498,9.642,5.928c0.963-0.133-3.417,3.039-3.324,2.094c-0.791,7.626,9.193,1.028,9.854,0.02
						c0,0,0.259,1.063,0.712,2.813l-2.229,2.528l14.092,34.095h3.636l7.727-22.054l19.544-12.041l9.089,3.101l2.271,9.835
						l8.18,0.896v6.258l18.178,29.07l3.64-2.228l-10.911-25.054l4.46-0.98l5.189,7.294l0,0c0.482,0.803,0.952,1.376,1.459,1.575
						c3.016,1.086,5.291-0.095,6.896-2.293c-0.521-7.584-1.462-15.109-3.364-22.515c-0.036-0.146-0.053-0.283-0.057-0.421
						c-0.561-1.25-0.147-2.716,2.296-5.374c3.623,0.083,7.806,0.69,7.806,0.69l5.309,3.246l28.176-23.694l3.185-28.621l5.98,9.747
						c-0.008,0.028,0.093,0.015,0.258-0.015l4.098-0.309c0.755,0.382,1.257,0.29,1.57-0.119c1.301-1.67-0.471-8.523-0.446-8.455
						c-0.456-1.277-0.747-2.345-0.897-3.25l11.059-15.402c1.811,0.688,3.74,1.838,4.79,0.049
						c5.354-9.102,13.894-19.029,16.19-28.124l8.755-7.333l-14.128-15.14l0,0c8.184-6.345,20.798-15.16,24.979-14.489
						c0.067,0.01,6.238-0.784,9.804-0.577c2.906-0.26,5.821-0.366,8.732-0.442c1.078-2.177,4.562-5.938,7.469-8.678
						c0.14-0.335,0.377-0.662,0.737-0.967c5.541-4.628,10.598-13.706,18.396-6.707c0.654,0.587,1.036,1.778,0.701,2.607
						c-0.733,1.82-1.563,3.586-2.436,5.319c0.672,0.515,1.322,1.054,1.939,1.62c0.148,0.128,0.288,0.259,0.432,0.391
						c0.145,0.127,0.28,0.252,0.417,0.386c0.611,0.566,1.196,1.147,1.775,1.745c0.266-0.104,0.536-0.215,0.813-0.3
						c0.201-0.197,0.151,0.5,0.094,1.284c0.355,0.391,0.719,0.784,1.07,1.186c2.624-1.32,6.857-0.909,10.215-1.472
						c0.07-0.084,0.129-0.167,0.219-0.246c1.282-1.198,2.598-2.38,3.909-3.54c1.55-2.072,3.573-3.562,5.748-4.901
						c3.988-3.278,8.089-6.415,12.258-9.468c-0.956-2.139-2.591-4.359-3.468-5.645c0.597,0.404,3.989-0.282,4.284-0.479
						C976.43,475.667,972.585,457.713,972.394,452.455z"/>
					<path fill="#41B655" d="M580.11,609.032c0.065-0.028,0.129-0.057,0.198-0.091C580.138,608.956,580.081,608.989,580.11,609.032z
						"/>
					<path fill="#41B655" d="M574.094,592.576c-0.615,0.117-1.168,0.266-1.635,0.479
						C573.425,593.101,573.965,592.938,574.094,592.576z"/>
					<path fill="#41B655" d="M847.211,718.832c-0.122-0.072-0.223-0.111-0.276-0.09
						C847.018,718.771,847.118,718.797,847.211,718.832z"/>
					<path fill="#41B655" d="M894.424,747.646c-4.276,1.003-19.421-29.982-19.004-30.182c-1.219,2.653-2.659,16.234-4.888,17.184
						c-1.844,0.854-13.808-6.196-13.624-6.895c-0.367-0.377,2.659-6.375,2.976-6.396c-2.021-0.135-8.543-1.278-12.673-2.524
						c0.389,0.199,1.043,0.768,1.424,1.112c-1.153-0.218-7.615,6.065-7.529,8.579c1.154-7.226-15.083,2.944-16.227,5.893
						c1.193-3.205-24.252,11.865-25.021,11.593c0.19,1.413,1.136,11.717,0.154,12.172c-0.305,0.138-1.48-2.064-1.516-1.981
						c-0.22,0.338,1.174,2.482,0.714,2.611c-0.387,0.116-1.401-1.23-1.301-0.89c6.983,25.586,7.875,26.083,33.349,19.078
						c20.521-5.654,13.585-2.597,24.679,4.759c0.848-0.586,4.611-0.728,6.225-3.943c-0.579,2.003-1.006,4.124-1.696,5.775
						c0.165,2.335,3.224-2.01,3.317-2.439c3.019-0.204,7.486,18.215,17.664,10.893c-1.114,0.424,2.856,2.34,4.133,2.8
						c-0.165,0.055-0.32,0.111-0.338,0.018c0.772,4.143,15.76-17.384,16.197-20.831
						C902.051,769.197,905.034,745.146,894.424,747.646z"/>
					<path fill="#41B655" d="M437.803,479.812c2.454,2.046,7.741,5.735,9.124,5.894c17.087,3.488,14.043-10.059,13.686-14.9
						C453.147,474.127,445.53,477.098,437.803,479.812z"/>
				</g>
			</g>
		</g>
	</g>
	<g>
		<path fill="#FFFFFF" d="M1131.444,466.678c0,8.253-1.557,15.558-4.667,21.912c-3.111,6.355-7.532,11.247-13.263,14.676
			s-12.258,5.144-19.583,5.144s-13.823-1.657-19.495-4.97c-5.671-3.313-10.093-8.05-13.262-14.21
			c-3.171-6.161-4.835-13.232-4.992-21.214v-4.766c0-8.292,1.545-15.605,4.638-21.941c3.091-6.335,7.521-11.227,13.292-14.676
			c5.769-3.448,12.336-5.173,19.701-5.173c7.285,0,13.784,1.706,19.495,5.115c5.71,3.41,10.15,8.263,13.321,14.56
			c3.169,6.297,4.774,13.513,4.814,21.65V466.678z M1110.354,463.133c0-8.408-1.428-14.792-4.283-19.151
			c-2.855-4.359-6.941-6.539-12.258-6.539c-10.397,0-15.892,7.672-16.482,23.016l-0.059,6.219c0,8.292,1.397,14.667,4.194,19.122
			c2.796,4.456,6.95,6.684,12.465,6.684c5.237,0,9.274-2.189,12.11-6.568c2.836-4.378,4.272-10.674,4.313-18.89V463.133z"/>
		<path fill="#FFFFFF" d="M1209.601,422.622v55.39c0,6.277-1.358,11.712-4.076,16.303c-2.718,4.592-6.616,8.089-11.697,10.491
			c-5.08,2.403-11.086,3.604-18.018,3.604c-10.477,0-18.727-2.674-24.752-8.021c-6.026-5.347-9.098-12.67-9.216-21.97v-55.797
			h20.854v56.204c0.236,9.261,4.607,13.891,13.114,13.891c4.292,0,7.541-1.163,9.747-3.487c2.205-2.325,3.309-6.103,3.309-11.334
			v-55.273H1209.601z"/>
		<path fill="#FFFFFF" d="M1254.497,477.314h-11.225v29.933h-20.735v-84.625h33.851c10.199,0,18.175,2.226,23.925,6.677
			c5.75,4.452,8.625,10.742,8.625,18.87c0,5.884-1.211,10.761-3.633,14.631c-2.422,3.871-6.213,7.006-11.372,9.406l17.959,34.169
			v0.873h-22.213L1254.497,477.314z M1243.272,461.622h13.115c3.938,0,6.901-1.019,8.891-3.059c1.988-2.04,2.983-4.885,2.983-8.537
			c0-3.651-1.005-6.516-3.014-8.594c-2.008-2.078-4.962-3.118-8.86-3.118h-13.115V461.622z"/>
		<path fill="#FFFFFF" d="M935.906,634.277h-28.415l-4.963,15.809h-22.152l31.546-84.625h19.494l31.782,84.625h-22.271
			L935.906,634.277z M912.453,618.526h18.49l-9.274-29.352L912.453,618.526z"/>
		<path fill="#FFFFFF" d="M1033.793,618.526l9.865-53.065h20.559l-18.254,84.625h-21.504l-11.52-48.241l-11.283,48.241h-21.444
			l-18.313-84.625h20.617l9.866,53.065l11.814-53.065h17.604L1033.793,618.526z"/>
		<path fill="#FFFFFF" d="M1125.654,614.167h-32.609v20.226h38.517v15.693h-59.252v-84.625h59.37v15.751h-38.635v17.843h32.609
			V614.167z"/>
		<path fill="#FFFFFF" d="M1184.375,627.593c0-2.983-1.073-5.308-3.22-6.975c-2.146-1.666-5.917-3.39-11.313-5.173
			c-5.396-1.782-9.807-3.506-13.232-5.173c-11.146-5.385-16.719-12.787-16.719-22.202c0-4.688,1.389-8.825,4.165-12.409
			c2.776-3.583,6.705-6.373,11.785-8.369c5.081-1.996,10.791-2.994,17.132-2.994c6.183,0,11.727,1.085,16.63,3.255
			c4.903,2.17,8.714,5.26,11.431,9.271c2.718,4.01,4.076,8.593,4.076,13.746h-20.676c0-3.448-1.073-6.122-3.22-8.021
			c-2.147-1.898-5.051-2.848-8.714-2.848c-3.702,0-6.626,0.805-8.772,2.412c-2.146,1.608-3.22,3.652-3.22,6.132
			c0,2.17,1.182,4.137,3.545,5.899c2.362,1.764,6.518,3.584,12.465,5.463c5.946,1.88,10.83,3.904,14.65,6.074
			c9.294,5.27,13.941,12.535,13.941,21.795c0,7.401-2.835,13.214-8.507,17.437c-5.671,4.224-13.449,6.335-23.334,6.335
			c-6.972,0-13.283-1.23-18.934-3.691c-5.652-2.46-9.905-5.831-12.761-10.113c-2.855-4.281-4.282-9.212-4.282-14.792h20.794
			c0,4.534,1.19,7.875,3.574,10.026c2.382,2.15,6.252,3.226,11.608,3.226c3.426,0,6.133-0.727,8.122-2.18
			C1183.38,632.272,1184.375,630.229,1184.375,627.593z"/>
		<path fill="#FFFFFF" d="M1288.584,609.518c0,8.253-1.557,15.558-4.667,21.912c-3.111,6.355-7.532,11.247-13.263,14.676
			s-12.258,5.144-19.583,5.144s-13.823-1.657-19.495-4.97c-5.671-3.313-10.093-8.05-13.262-14.21
			c-3.171-6.161-4.835-13.232-4.992-21.214v-4.766c0-8.292,1.545-15.605,4.638-21.941c3.091-6.335,7.521-11.227,13.292-14.676
			c5.769-3.448,12.336-5.173,19.701-5.173c7.285,0,13.784,1.706,19.495,5.115c5.71,3.41,10.15,8.263,13.321,14.56
			c3.169,6.297,4.774,13.513,4.814,21.65V609.518z M1267.494,605.972c0-8.408-1.428-14.792-4.283-19.151
			c-2.855-4.359-6.941-6.539-12.258-6.539c-10.397,0-15.892,7.672-16.482,23.016l-0.059,6.219c0,8.292,1.397,14.667,4.194,19.122
			c2.796,4.456,6.95,6.684,12.465,6.684c5.237,0,9.274-2.189,12.11-6.568c2.836-4.378,4.272-10.674,4.313-18.89V605.972z"/>
		<path fill="#FFFFFF" d="M1326.51,565.461l19.2,58.877l19.14-58.877h27.293v84.625h-20.795v-19.761l2.009-40.453l-20.794,60.214
			h-13.706l-20.854-60.272l2.009,40.511v19.761h-20.735v-84.625H1326.51z"/>
		<path fill="#FFFFFF" d="M1458.66,614.167h-32.609v20.226h38.517v15.693h-59.252v-84.625h59.37v15.751h-38.635v17.843h32.609
			V614.167z"/>
		<path fill="#FFFFFF" d="M1039.7,757.007h-32.609v20.226h38.517v15.693h-59.252v-84.625h59.37v15.751h-38.635v17.843h32.609
			V757.007z"/>
		<path fill="#FFFFFF" d="M1102.911,777.117h-28.415l-4.963,15.809h-22.152l31.546-84.625h19.494l31.782,84.625h-22.271
			L1102.911,777.117z M1079.458,761.366h18.49l-9.274-29.352L1079.458,761.366z"/>
		<path fill="#FFFFFF" d="M1168.425,762.994H1157.2v29.933h-20.735v-84.625h33.851c10.199,0,18.175,2.226,23.925,6.677
			c5.75,4.452,8.625,10.742,8.625,18.87c0,5.884-1.211,10.761-3.633,14.631c-2.422,3.871-6.213,7.006-11.372,9.406l17.959,34.169
			v0.873h-22.213L1168.425,762.994z M1157.2,747.301h13.115c3.938,0,6.901-1.019,8.891-3.059c1.988-2.04,2.983-4.885,2.983-8.537
			c0-3.651-1.005-6.516-3.014-8.594c-2.008-2.078-4.962-3.118-8.86-3.118H1157.2V747.301z"/>
		<path fill="#FFFFFF" d="M1279.958,724.052h-25.815v68.874h-20.735v-68.874h-25.343v-15.751h71.894V724.052z"/>
		<path fill="#FFFFFF" d="M1360.596,792.926h-20.617v-35.338h-30.542v35.338h-20.735v-84.625h20.735v33.594h30.542v-33.594h20.617
			V792.926z"/>
	</g>
</g>
</svg>
