<?xml version="1.0" encoding="utf-8"?>
<!-- Generator: Adobe Illustrator 16.0.0, SVG Export Plug-In . SVG Version: 6.00 Build 0)  -->
<!DOCTYPE svg PUBLIC "-//W3C//DTD SVG 1.1//EN" "http://www.w3.org/Graphics/SVG/1.1/DTD/svg11.dtd">
<svg version="1.1" xmlns="http://www.w3.org/2000/svg" xmlns:xlink="http://www.w3.org/1999/xlink" x="0px" y="0px" width="1600px"
	 height="1000px" viewBox="0 0 1600 1000" enable-background="new 0 0 1600 1000" xml:space="preserve">
<g id="_x35_">
</g>
<g id="_x34_">
	<rect fill="#25BAA2" width="1600" height="1000"/>
	<g>
		<path fill="#FFFFFF" d="M142.241,81.132l15.071,46.977l15.025-46.977h21.425v67.52h-16.324v-15.767l1.577-32.276l-16.324,48.043
			h-10.758l-16.37-48.089l1.577,32.322v15.767h-16.277v-67.52H142.241z"/>
		<path fill="#FFFFFF" d="M201.414,123.1c0-5.008,0.974-9.467,2.921-13.378s4.745-6.917,8.394-9.021
			c3.647-2.102,7.93-3.153,12.845-3.153c7.513,0,13.433,2.327,17.761,6.979c4.328,4.653,6.492,10.983,6.492,18.99v0.557
			c0,7.821-2.172,14.027-6.516,18.618c-4.344,4.591-10.225,6.887-17.645,6.887c-7.142,0-12.876-2.141-17.205-6.423
			c-4.329-4.281-6.662-10.086-7.002-17.413L201.414,123.1z M217.042,124.074c0,4.637,0.726,8.038,2.18,10.202
			c1.453,2.164,3.601,3.246,6.446,3.246c5.565,0,8.409-4.282,8.533-12.846V123.1c0-8.996-2.875-13.494-8.625-13.494
			c-5.225,0-8.054,3.88-8.486,11.64L217.042,124.074z"/>
		<path fill="#FFFFFF" d="M282.984,134.554c0-1.328-0.696-2.396-2.087-3.199s-4.035-1.639-7.93-2.504
			c-3.896-0.865-7.111-2.002-9.646-3.409c-2.535-1.406-4.468-3.114-5.796-5.124c-1.33-2.009-1.994-4.313-1.994-6.909
			c0-4.606,1.901-8.401,5.704-11.385c3.802-2.983,8.78-4.476,14.932-4.476c6.615,0,11.933,1.5,15.952,4.499
			c4.019,2.999,6.029,6.94,6.029,11.825h-15.674c0-4.019-2.118-6.029-6.353-6.029c-1.639,0-3.014,0.457-4.127,1.368
			c-1.113,0.912-1.669,2.049-1.669,3.408c0,1.392,0.68,2.521,2.041,3.386c1.36,0.866,3.532,1.576,6.516,2.133
			c2.983,0.557,5.603,1.222,7.86,1.994c7.543,2.597,11.315,7.25,11.315,13.959c0,4.575-2.033,8.301-6.098,11.176
			c-4.065,2.875-9.329,4.313-15.79,4.313c-4.297,0-8.131-0.773-11.5-2.318c-3.37-1.546-5.998-3.647-7.884-6.307
			s-2.829-5.457-2.829-8.394h14.607c0.062,2.318,0.835,4.011,2.319,5.077s3.385,1.601,5.704,1.601c2.133,0,3.733-0.433,4.799-1.299
			C282.451,137.074,282.984,135.945,282.984,134.554z"/>
		<path fill="#FFFFFF" d="M323.561,86.001v12.475h8.254v10.852h-8.254v22.955c0,1.886,0.34,3.199,1.02,3.941
			c0.68,0.742,2.024,1.113,4.035,1.113c1.545,0,2.844-0.093,3.895-0.278v11.176c-2.813,0.896-5.75,1.345-8.811,1.345
			c-5.379,0-9.353-1.268-11.918-3.803c-2.567-2.534-3.849-6.384-3.849-11.547v-24.902h-6.399V98.476h6.399V86.001H323.561z"/>
		<path fill="#FFFFFF" d="M385.887,149.579c-7.698,0-13.928-2.296-18.688-6.887c-4.761-4.591-7.142-10.564-7.142-17.923v-1.299
			c0-5.131,0.951-9.661,2.852-13.587s4.676-6.964,8.324-9.112c3.647-2.148,7.976-3.224,12.984-3.224
			c7.049,0,12.614,2.188,16.694,6.563c4.081,4.375,6.121,10.473,6.121,18.294v6.075h-31.07c0.557,2.813,1.777,5.024,3.664,6.631
			c1.885,1.608,4.328,2.412,7.327,2.412c4.946,0,8.811-1.731,11.594-5.194l7.141,8.44c-1.948,2.689-4.707,4.83-8.277,6.422
			C393.84,148.783,389.998,149.579,385.887,149.579z M384.125,109.605c-4.576,0-7.296,3.03-8.162,9.089h15.767v-1.206
			c0.062-2.504-0.573-4.443-1.901-5.819C388.499,110.294,386.598,109.605,384.125,109.605z"/>
		<path fill="#FFFFFF" d="M411.346,123.054c0-7.977,1.731-14.221,5.193-18.735c3.462-4.513,8.239-6.771,14.33-6.771
			c5.131,0,9.244,2.104,12.335,6.308l1.113-5.38h13.541v69.468h-15.674v-23.466c-2.999,3.401-6.801,5.102-11.408,5.102
			c-5.936,0-10.659-2.296-14.167-6.887C413.1,138.102,411.346,131.556,411.346,123.054z M426.973,124.027
			c0,8.996,2.597,13.495,7.791,13.495c3.586,0,6.059-1.36,7.419-4.081v-19.848c-1.298-2.659-3.741-3.988-7.327-3.988
			c-4.854,0-7.466,3.88-7.837,11.64L426.973,124.027z"/>
		<path fill="#FFFFFF" d="M496.58,143.226c-3.309,4.236-7.776,6.354-13.402,6.354c-5.503,0-9.669-1.6-12.498-4.8
			c-2.829-3.199-4.243-7.798-4.243-13.796V98.476h15.627v32.601c0,4.298,2.087,6.446,6.261,6.446c3.586,0,6.136-1.283,7.651-3.85
			V98.476h15.721v50.176h-14.654L496.58,143.226z"/>
		<path fill="#FFFFFF" d="M520.137,85.491c0-2.239,0.804-4.074,2.412-5.506c1.607-1.43,3.694-2.146,6.26-2.146
			c2.566,0,4.653,0.716,6.261,2.146c1.607,1.432,2.411,3.267,2.411,5.506s-0.804,4.075-2.411,5.505
			c-1.608,1.432-3.695,2.146-6.261,2.146c-2.566,0-4.653-0.715-6.26-2.146C520.941,89.566,520.137,87.73,520.137,85.491z
			 M536.739,148.651h-15.674V98.476h15.674V148.651z"/>
		<path fill="#FFFFFF" d="M592.944,123.935c0,7.791-1.755,14.013-5.264,18.665c-3.509,4.653-8.247,6.979-14.213,6.979
			c-4.607,0-8.394-1.685-11.361-5.055v23.419h-15.628V98.476h14.608l0.463,4.638c2.999-3.71,6.94-5.565,11.825-5.565
			c6.183,0,10.991,2.28,14.422,6.841s5.147,10.828,5.147,18.804V123.935z M577.316,122.961c0-8.904-2.597-13.355-7.791-13.355
			c-3.71,0-6.184,1.329-7.42,3.988v19.755c1.36,2.782,3.864,4.174,7.513,4.174c4.977,0,7.543-4.297,7.698-12.893V122.961z"/>
		<path fill="#FFFFFF" d="M614.6,98.476l0.51,5.89c3.555-4.545,8.332-6.817,14.33-6.817c6.337,0,10.62,2.521,12.845,7.56
			c3.4-5.039,8.316-7.56,14.747-7.56c10.171,0,15.396,6.152,15.674,18.457v32.646h-15.674v-31.673c0-2.565-0.434-4.436-1.299-5.611
			c-0.866-1.174-2.442-1.762-4.73-1.762c-3.092,0-5.395,1.376-6.91,4.127l0.046,0.649v34.27h-15.674v-31.58
			c0-2.627-0.417-4.528-1.252-5.704c-0.834-1.174-2.427-1.762-4.776-1.762c-2.999,0-5.287,1.376-6.863,4.127v34.919h-15.628V98.476
			H614.6z"/>
		<path fill="#FFFFFF" d="M705.909,149.579c-7.698,0-13.928-2.296-18.688-6.887c-4.761-4.591-7.142-10.564-7.142-17.923v-1.299
			c0-5.131,0.951-9.661,2.852-13.587s4.676-6.964,8.324-9.112c3.647-2.148,7.976-3.224,12.984-3.224
			c7.049,0,12.614,2.188,16.694,6.563c4.081,4.375,6.121,10.473,6.121,18.294v6.075h-31.07c0.557,2.813,1.777,5.024,3.664,6.631
			c1.885,1.608,4.328,2.412,7.327,2.412c4.946,0,8.811-1.731,11.594-5.194l7.141,8.44c-1.948,2.689-4.707,4.83-8.277,6.422
			C713.862,148.783,710.02,149.579,705.909,149.579z M704.146,109.605c-4.576,0-7.296,3.03-8.162,9.089h15.767v-1.206
			c0.062-2.504-0.573-4.443-1.901-5.819C708.521,110.294,706.62,109.605,704.146,109.605z"/>
		<path fill="#FFFFFF" d="M747.691,98.476l0.51,5.89c3.462-4.545,8.238-6.817,14.329-6.817c5.224,0,9.127,1.562,11.709,4.684
			c2.581,3.123,3.918,7.822,4.011,14.098v32.322h-15.674v-31.673c0-2.534-0.51-4.397-1.53-5.588
			c-1.02-1.189-2.875-1.785-5.565-1.785c-3.061,0-5.333,1.205-6.817,3.617v35.429h-15.627V98.476H747.691z"/>
		<path fill="#FFFFFF" d="M805.102,86.001v12.475h8.254v10.852h-8.254v22.955c0,1.886,0.34,3.199,1.021,3.941
			c0.679,0.742,2.024,1.113,4.034,1.113c1.545,0,2.844-0.093,3.896-0.278v11.176c-2.813,0.896-5.751,1.345-8.812,1.345
			c-5.379,0-9.352-1.268-11.917-3.803c-2.567-2.534-3.849-6.384-3.849-11.547v-24.902h-6.399V98.476h6.399V86.001H805.102z"/>
		<path fill="#FFFFFF" d="M864.366,137.522c2.195,0,3.896-0.596,5.102-1.786c1.206-1.189,1.793-2.852,1.762-4.984h14.654
			c0,5.503-1.971,10.017-5.912,13.541c-3.942,3.523-9.021,5.286-15.234,5.286c-7.296,0-13.047-2.287-17.251-6.863
			c-4.204-4.575-6.307-10.913-6.307-19.013v-0.649c0-5.07,0.935-9.545,2.806-13.425c1.87-3.88,4.568-6.863,8.093-8.95
			s7.697-3.131,12.521-3.131c6.522,0,11.701,1.809,15.535,5.426c3.833,3.617,5.75,8.518,5.75,14.7h-14.654
			c0-2.597-0.634-4.591-1.901-5.981c-1.268-1.392-2.968-2.087-5.101-2.087c-4.051,0-6.415,2.581-7.095,7.744
			c-0.217,1.639-0.325,3.896-0.325,6.771c0,5.039,0.603,8.532,1.809,10.48C859.822,136.548,861.738,137.522,864.366,137.522z"/>
		<path fill="#FFFFFF" d="M920.756,148.651c-0.557-1.02-1.051-2.52-1.483-4.498c-2.875,3.617-6.895,5.426-12.058,5.426
			c-4.729,0-8.749-1.43-12.057-4.29c-3.309-2.858-4.962-6.453-4.962-10.781c0-5.441,2.009-9.553,6.028-12.335
			c4.019-2.783,9.861-4.174,17.529-4.174h4.822v-2.656c0-4.629-1.993-6.943-5.981-6.943c-3.71,0-5.565,1.833-5.565,5.499h-15.627
			c0-4.848,2.063-8.785,6.19-11.811c4.127-3.026,9.391-4.54,15.79-4.54s11.454,1.562,15.164,4.684
			c3.71,3.123,5.611,7.405,5.704,12.846v22.213c0.062,4.607,0.772,8.132,2.133,10.573v0.788H920.756z M910.972,138.449
			c1.947,0,3.563-0.417,4.846-1.252c1.282-0.835,2.203-1.777,2.759-2.829v-8.022h-4.544c-5.441,0-8.162,2.443-8.162,7.327
			c0,1.423,0.479,2.574,1.438,3.455S909.487,138.449,910.972,138.449z"/>
		<path fill="#FFFFFF" d="M957.252,98.476l0.511,5.89c3.462-4.545,8.238-6.817,14.329-6.817c5.225,0,9.128,1.562,11.709,4.684
			c2.581,3.123,3.919,7.822,4.012,14.098v32.322h-15.674v-31.673c0-2.534-0.511-4.397-1.531-5.588
			c-1.02-1.189-2.875-1.785-5.564-1.785c-3.061,0-5.333,1.205-6.816,3.617v35.429h-15.628V98.476H957.252z"/>
		<path fill="#FFFFFF" d="M1066.692,123.981c0,8.224-1.7,14.546-5.101,18.966c-3.401,4.422-8.193,6.632-14.376,6.632
			c-5.101,0-9.213-2.024-12.335-6.075l-0.649,5.147h-14.005V77.422h15.628v25.088c2.905-3.308,6.662-4.962,11.269-4.962
			c6.245,0,11.067,2.242,14.469,6.725c3.4,4.482,5.101,10.79,5.101,18.92V123.981z M1051.019,122.984
			c0-4.813-0.642-8.248-1.925-10.301c-1.283-2.052-3.254-3.078-5.912-3.078c-3.524,0-5.967,1.343-7.327,4.027v19.907
			c1.329,2.655,3.803,3.982,7.42,3.982c3.679,0,6.013-1.79,7.002-5.371C1050.771,130.393,1051.019,127.337,1051.019,122.984z"/>
		<path fill="#FFFFFF" d="M1097.856,149.579c-7.698,0-13.929-2.296-18.688-6.887c-4.762-4.591-7.142-10.564-7.142-17.923v-1.299
			c0-5.131,0.95-9.661,2.852-13.587s4.676-6.964,8.324-9.112c3.647-2.148,7.976-3.224,12.984-3.224
			c7.049,0,12.613,2.188,16.694,6.563s6.121,10.473,6.121,18.294v6.075h-31.07c0.557,2.813,1.778,5.024,3.664,6.631
			c1.885,1.608,4.328,2.412,7.327,2.412c4.945,0,8.811-1.731,11.593-5.194l7.142,8.44c-1.947,2.689-4.707,4.83-8.277,6.422
			C1105.809,148.783,1101.967,149.579,1097.856,149.579z M1096.094,109.605c-4.576,0-7.297,3.03-8.162,9.089h15.768v-1.206
			c0.062-2.504-0.572-4.443-1.901-5.819C1100.468,110.294,1098.566,109.605,1096.094,109.605z"/>
		<path fill="#FFFFFF" d="M1179.287,112.619l-5.147-0.37c-4.915,0-8.068,1.546-9.46,4.637v31.766h-15.628V98.476h14.654l0.51,6.446
			c2.628-4.916,6.291-7.374,10.99-7.374c1.67,0,3.123,0.186,4.359,0.557L1179.287,112.619z"/>
		<path fill="#FFFFFF" d="M1208.317,149.579c-7.698,0-13.929-2.296-18.688-6.887c-4.762-4.591-7.142-10.564-7.142-17.923v-1.299
			c0-5.131,0.95-9.661,2.852-13.587s4.676-6.964,8.324-9.112c3.647-2.148,7.976-3.224,12.984-3.224
			c7.049,0,12.613,2.188,16.694,6.563s6.121,10.473,6.121,18.294v6.075h-31.07c0.557,2.813,1.778,5.024,3.664,6.631
			c1.885,1.608,4.328,2.412,7.327,2.412c4.945,0,8.811-1.731,11.593-5.194l7.142,8.44c-1.947,2.689-4.707,4.83-8.277,6.422
			C1216.27,148.783,1212.428,149.579,1208.317,149.579z M1206.555,109.605c-4.576,0-7.297,3.03-8.162,9.089h15.768v-1.206
			c0.062-2.504-0.572-4.443-1.901-5.819C1210.929,110.294,1209.027,109.605,1206.555,109.605z"/>
		<path fill="#FFFFFF" d="M1265.635,143.226c-3.308,4.236-7.775,6.354-13.401,6.354c-5.503,0-9.669-1.6-12.498-4.8
			c-2.828-3.199-4.243-7.798-4.243-13.796V98.476h15.628v32.601c0,4.298,2.087,6.446,6.261,6.446c3.586,0,6.137-1.283,7.651-3.85
			V98.476h15.721v50.176h-14.654L1265.635,143.226z"/>
		<path fill="#FFFFFF" d="M1315.578,134.554c0-1.328-0.695-2.396-2.086-3.199c-1.392-0.804-4.035-1.639-7.931-2.504
			c-3.895-0.865-7.11-2.002-9.646-3.409c-2.535-1.406-4.468-3.114-5.797-5.124c-1.329-2.009-1.993-4.313-1.993-6.909
			c0-4.606,1.9-8.401,5.703-11.385s8.78-4.476,14.933-4.476c6.615,0,11.933,1.5,15.952,4.499c4.019,2.999,6.028,6.94,6.028,11.825
			h-15.674c0-4.019-2.118-6.029-6.354-6.029c-1.639,0-3.014,0.457-4.127,1.368c-1.112,0.912-1.669,2.049-1.669,3.408
			c0,1.392,0.68,2.521,2.04,3.386c1.36,0.866,3.531,1.576,6.516,2.133c2.983,0.557,5.604,1.222,7.86,1.994
			c7.543,2.597,11.314,7.25,11.314,13.959c0,4.575-2.033,8.301-6.098,11.176c-4.065,2.875-9.329,4.313-15.79,4.313
			c-4.298,0-8.131-0.773-11.501-2.318c-3.37-1.546-5.998-3.647-7.883-6.307c-1.887-2.659-2.829-5.457-2.829-8.394h14.607
			c0.062,2.318,0.835,4.011,2.319,5.077c1.483,1.066,3.385,1.601,5.703,1.601c2.134,0,3.733-0.433,4.8-1.299
			C1315.045,137.074,1315.578,135.945,1315.578,134.554z"/>
		<path fill="#FFFFFF" d="M1362.23,149.579c-7.698,0-13.929-2.296-18.688-6.887c-4.762-4.591-7.142-10.564-7.142-17.923v-1.299
			c0-5.131,0.95-9.661,2.852-13.587s4.676-6.964,8.324-9.112c3.647-2.148,7.976-3.224,12.984-3.224
			c7.049,0,12.613,2.188,16.694,6.563s6.121,10.473,6.121,18.294v6.075h-31.07c0.557,2.813,1.778,5.024,3.664,6.631
			c1.885,1.608,4.328,2.412,7.327,2.412c4.945,0,8.811-1.731,11.593-5.194l7.142,8.44c-1.947,2.689-4.707,4.83-8.277,6.422
			C1370.183,148.783,1366.341,149.579,1362.23,149.579z M1360.468,109.605c-4.576,0-7.297,3.03-8.162,9.089h15.768v-1.206
			c0.062-2.504-0.572-4.443-1.901-5.819C1364.842,110.294,1362.94,109.605,1360.468,109.605z"/>
		<path fill="#FFFFFF" d="M1387.688,123.192c0-7.944,1.716-14.205,5.147-18.781c3.432-4.574,8.224-6.863,14.376-6.863
			c4.482,0,8.255,1.763,11.315,5.287V77.422h15.674v71.229h-14.051l-0.789-5.379c-3.215,4.205-7.296,6.307-12.242,6.307
			c-5.967,0-10.697-2.287-14.19-6.863C1389.435,138.141,1387.688,131.633,1387.688,123.192z M1403.316,124.166
			c0,8.904,2.597,13.356,7.791,13.356c3.462,0,5.936-1.453,7.42-4.359v-19.106c-1.423-2.968-3.865-4.451-7.327-4.451
			c-4.823,0-7.436,3.896-7.837,11.686L1403.316,124.166z"/>
	</g>
	<g>
		<path fill="#FFFFFF" d="M657.031,229.703c-5.836,0-10.559-1.74-14.168-5.221c-3.609-3.48-5.414-8.01-5.414-13.588v-0.984
			c0-3.89,0.721-7.324,2.162-10.301c1.441-2.976,3.545-5.279,6.311-6.908c2.765-1.629,6.047-2.443,9.844-2.443
			c5.344,0,9.563,1.658,12.656,4.975c3.094,3.317,4.641,7.94,4.641,13.869v4.605h-23.555c0.422,2.133,1.348,3.809,2.777,5.027
			c1.429,1.219,3.281,1.828,5.555,1.828c3.75,0,6.68-1.313,8.789-3.938l5.414,6.398c-1.477,2.039-3.568,3.662-6.275,4.869
			S660.148,229.703,657.031,229.703z M655.695,199.398c-3.469,0-5.532,2.297-6.188,6.891h11.953v-0.914
			c0.047-1.898-0.434-3.369-1.441-4.412C659.012,199.92,657.57,199.398,655.695,199.398z"/>
		<path fill="#FFFFFF" d="M677.738,181.117c0-1.697,0.609-3.089,1.828-4.174c1.218-1.084,2.8-1.627,4.746-1.627
			c1.945,0,3.527,0.543,4.746,1.627c1.218,1.085,1.828,2.477,1.828,4.174c0,1.698-0.61,3.089-1.828,4.174
			c-1.219,1.085-2.801,1.627-4.746,1.627c-1.946,0-3.528-0.542-4.746-1.627C678.348,184.207,677.738,182.815,677.738,181.117z
			 M690.324,229h-11.883v-38.039h11.883V229z"/>
		<path fill="#FFFFFF" d="M711.418,181.504v9.457h6.258v8.227h-6.258v17.402c0,1.43,0.258,2.426,0.773,2.988
			c0.515,0.563,1.535,0.844,3.059,0.844c1.172,0,2.156-0.07,2.953-0.211v8.473c-2.133,0.68-4.359,1.02-6.68,1.02
			c-4.078,0-7.09-0.961-9.035-2.883c-1.946-1.921-2.918-4.839-2.918-8.754v-18.879h-4.852v-8.227h4.852v-9.457H711.418z"/>
		<path fill="#FFFFFF" d="M733.918,195.039c2.531-3.187,5.766-4.781,9.703-4.781c4.195,0,7.359,1.243,9.492,3.727
			c2.132,2.484,3.222,6.152,3.27,11.004V229H744.5v-23.73c0-2.016-0.41-3.498-1.23-4.447c-0.821-0.949-2.215-1.424-4.184-1.424
			c-2.438,0-4.161,0.773-5.168,2.32V229H722.07v-54h11.848V195.039z"/>
		<path fill="#FFFFFF" d="M781.379,229.703c-5.836,0-10.559-1.74-14.168-5.221c-3.609-3.48-5.414-8.01-5.414-13.588v-0.984
			c0-3.89,0.721-7.324,2.162-10.301c1.441-2.976,3.545-5.279,6.311-6.908c2.765-1.629,6.047-2.443,9.844-2.443
			c5.344,0,9.563,1.658,12.656,4.975c3.094,3.317,4.641,7.94,4.641,13.869v4.605h-23.555c0.422,2.133,1.348,3.809,2.777,5.027
			c1.429,1.219,3.281,1.828,5.555,1.828c3.75,0,6.68-1.313,8.789-3.938l5.414,6.398c-1.477,2.039-3.568,3.662-6.275,4.869
			S784.496,229.703,781.379,229.703z M780.043,199.398c-3.469,0-5.532,2.297-6.188,6.891h11.953v-0.914
			c0.047-1.898-0.434-3.369-1.441-4.412C783.359,199.92,781.918,199.398,780.043,199.398z"/>
		<path fill="#FFFFFF" d="M825.184,201.684l-3.902-0.281c-3.727,0-6.117,1.172-7.172,3.516V229h-11.848v-38.039h11.109l0.387,4.887
			c1.992-3.727,4.77-5.59,8.332-5.59c1.266,0,2.367,0.141,3.305,0.422L825.184,201.684z"/>
		<path fill="#FFFFFF" d="M868.813,229c-0.422-0.773-0.797-1.91-1.125-3.41c-2.18,2.742-5.227,4.113-9.141,4.113
			c-3.586,0-6.633-1.084-9.141-3.252c-2.508-2.167-3.762-4.892-3.762-8.174c0-4.125,1.523-7.242,4.57-9.352
			s7.477-3.164,13.289-3.164h3.656v-2.014c0-3.509-1.512-5.264-4.535-5.264c-2.813,0-4.219,1.39-4.219,4.169h-11.848
			c0-3.675,1.564-6.66,4.693-8.954s7.119-3.441,11.971-3.441s8.684,1.184,11.496,3.551c2.813,2.368,4.254,5.613,4.324,9.738v16.84
			c0.047,3.493,0.586,6.165,1.617,8.016V229H868.813z M861.395,221.266c1.477,0,2.701-0.316,3.674-0.949s1.67-1.348,2.092-2.145
			v-6.082h-3.445c-4.125,0-6.188,1.852-6.188,5.555c0,1.078,0.363,1.951,1.09,2.619S860.27,221.266,861.395,221.266z"/>
		<path fill="#FFFFFF" d="M905.516,218.313c0-1.007-0.527-1.816-1.582-2.426c-1.055-0.609-3.059-1.242-6.012-1.898
			c-2.953-0.656-5.391-1.517-7.313-2.584c-1.922-1.066-3.387-2.361-4.395-3.885c-1.008-1.523-1.512-3.27-1.512-5.238
			c0-3.492,1.441-6.369,4.324-8.631c2.883-2.262,6.656-3.393,11.32-3.393c5.016,0,9.047,1.137,12.094,3.41
			c3.047,2.273,4.57,5.262,4.57,8.965h-11.883c0-3.046-1.605-4.57-4.816-4.57c-1.242,0-2.285,0.346-3.129,1.037
			c-0.844,0.691-1.266,1.553-1.266,2.584c0,1.055,0.516,1.911,1.547,2.566c1.031,0.656,2.678,1.195,4.939,1.617
			s4.248,0.926,5.959,1.512c5.719,1.969,8.578,5.497,8.578,10.582c0,3.469-1.541,6.293-4.623,8.473s-7.072,3.27-11.971,3.27
			c-3.258,0-6.164-0.586-8.719-1.758s-4.547-2.765-5.977-4.781c-1.43-2.016-2.145-4.136-2.145-6.363h11.074
			c0.047,1.758,0.633,3.041,1.758,3.85s2.566,1.213,4.324,1.213c1.617,0,2.83-0.328,3.639-0.984
			C905.111,220.223,905.516,219.367,905.516,218.313z"/>
	</g>
	<g>
		<path fill="#FFFFFF" d="M167.953,322.939l7.118-38.917h14.833l-13.171,62.062h-15.516l-8.312-35.378l-8.141,35.378h-15.473
			l-13.214-62.062h14.876l7.119,38.917l8.525-38.917H159.3L167.953,322.939z"/>
		<path fill="#FFFFFF" d="M247.619,346.084h-14.876v-25.916h-22.037v25.916h-14.961v-62.062h14.961v24.637h22.037v-24.637h14.876
			V346.084z"/>
		<path fill="#FFFFFF" d="M309.638,316.333c0,6.053-1.123,11.409-3.368,16.069c-2.245,4.661-5.435,8.248-9.569,10.763
			c-4.135,2.515-8.845,3.772-14.13,3.772c-5.285,0-9.974-1.215-14.066-3.645c-4.092-2.43-7.282-5.903-9.569-10.422
			c-2.288-4.518-3.489-9.704-3.602-15.558v-3.496c0-6.081,1.115-11.444,3.346-16.091c2.23-4.646,5.427-8.233,9.591-10.763
			c4.162-2.529,8.901-3.793,14.215-3.793c5.257,0,9.945,1.251,14.066,3.751c4.12,2.501,7.324,6.06,9.612,10.678
			c2.287,4.618,3.445,9.91,3.474,15.877V316.333z M294.42,313.732c0-6.166-1.03-10.848-3.09-14.045
			c-2.061-3.197-5.008-4.795-8.844-4.795c-7.502,0-11.466,5.626-11.893,16.879l-0.042,4.561c0,6.081,1.008,10.756,3.026,14.023
			c2.017,3.268,5.015,4.902,8.994,4.902c3.779,0,6.692-1.605,8.738-4.816c2.046-3.211,3.083-7.829,3.111-13.853V313.732z"/>
		<path fill="#FFFFFF" d="M332.314,334.576h26.044v11.509h-41.005v-62.062h14.961V334.576z"/>
		<path fill="#FFFFFF" d="M403.156,319.742h-23.529v14.833h27.792v11.509h-42.753v-62.062h42.838v11.551h-27.876v13.086h23.529
			V319.742z"/>
		<path fill="#FFFFFF" d="M450.213,325.028v21.057h-14.961v-62.062h24.765c4.746,0,8.944,0.874,12.596,2.622
			c3.651,1.748,6.479,4.234,8.482,7.459c2.003,3.226,3.005,6.884,3.005,10.976c0,6.053-2.167,10.891-6.5,14.514
			s-10.28,5.435-17.838,5.435H450.213z M450.213,313.477h9.804c2.898,0,5.108-0.725,6.628-2.174c1.52-1.449,2.28-3.495,2.28-6.138
			c0-2.898-0.782-5.214-2.344-6.948c-1.563-1.733-3.694-2.614-6.394-2.643h-9.974V313.477z"/>
		<path fill="#FFFFFF" d="M508.013,346.084h-14.918v-62.062h14.918V346.084z"/>
		<path fill="#FFFFFF" d="M556.903,319.742h-23.529v14.833h27.792v11.509h-42.753v-62.062h42.838v11.551h-27.876v13.086h23.529
			V319.742z"/>
		<path fill="#FFFFFF" d="M617.473,325.07c-0.199,4.32-1.364,8.135-3.495,11.445c-2.131,3.311-5.122,5.875-8.972,7.694
			c-3.851,1.819-8.248,2.728-13.192,2.728c-8.156,0-14.578-2.657-19.267-7.971c-4.688-5.313-7.033-12.815-7.033-22.506v-3.069
			c0-6.081,1.059-11.402,3.176-15.963c2.117-4.561,5.164-8.084,9.143-10.571c3.978-2.486,8.582-3.729,13.81-3.729
			c7.53,0,13.583,1.982,18.158,5.946c4.575,3.964,7.175,9.428,7.8,16.389h-14.918c-0.114-3.779-1.065-6.493-2.856-8.141
			c-1.79-1.647-4.518-2.472-8.184-2.472c-3.723,0-6.451,1.393-8.184,4.177c-1.734,2.785-2.643,7.232-2.728,13.341v4.391
			c0,6.622,0.831,11.353,2.494,14.194c1.662,2.842,4.525,4.263,8.589,4.263c3.438,0,6.066-0.81,7.885-2.43
			c1.818-1.62,2.785-4.191,2.898-7.715H617.473z"/>
		<path fill="#FFFFFF" d="M663.039,319.742H639.51v14.833h27.792v11.509h-42.753v-62.062h42.838v11.551H639.51v13.086h23.529
			V319.742z"/>
		<path fill="#FFFFFF" d="M705.408,329.589c0-2.188-0.774-3.893-2.323-5.115c-1.549-1.221-4.27-2.486-8.163-3.793
			c-3.894-1.307-7.076-2.571-9.548-3.793c-8.042-3.95-12.063-9.377-12.063-16.283c0-3.438,1.001-6.472,3.005-9.101
			c2.003-2.628,4.838-4.674,8.504-6.138c3.666-1.463,7.786-2.195,12.361-2.195c4.461,0,8.461,0.796,11.999,2.387
			c3.538,1.591,6.287,3.857,8.248,6.798c1.96,2.941,2.941,6.302,2.941,10.081h-14.918c0-2.529-0.775-4.49-2.323-5.882
			c-1.549-1.392-3.645-2.089-6.287-2.089c-2.671,0-4.781,0.59-6.33,1.769c-1.549,1.18-2.323,2.679-2.323,4.497
			c0,1.592,0.853,3.034,2.558,4.326c1.705,1.293,4.703,2.629,8.994,4.007c4.291,1.378,7.814,2.863,10.571,4.454
			c6.706,3.865,10.06,9.193,10.06,15.984c0,5.428-2.046,9.69-6.138,12.788c-4.092,3.098-9.704,4.646-16.836,4.646
			c-5.03,0-9.584-0.902-13.661-2.707c-4.078-1.804-7.147-4.277-9.207-7.417c-2.061-3.14-3.09-6.756-3.09-10.848h15.004
			c0,3.325,0.859,5.775,2.579,7.353c1.719,1.577,4.511,2.366,8.376,2.366c2.472,0,4.426-0.533,5.861-1.599
			C704.69,333.02,705.408,331.521,705.408,329.589z"/>
		<path fill="#FFFFFF" d="M747.308,322.598c0-4.604,0.896-8.702,2.686-12.297s4.362-6.358,7.715-8.291
			c3.353-1.932,7.289-2.899,11.807-2.899c6.905,0,12.347,2.139,16.325,6.415c3.979,4.277,5.968,10.096,5.968,17.455v0.511
			c0,7.19-1.997,12.894-5.989,17.114c-3.993,4.22-9.399,6.33-16.219,6.33c-6.564,0-11.836-1.967-15.814-5.904
			c-3.979-3.935-6.124-9.271-6.436-16.005L747.308,322.598z M761.672,323.493c0,4.263,0.667,7.389,2.003,9.377
			c1.335,1.99,3.31,2.984,5.925,2.984c5.115,0,7.729-3.936,7.843-11.807v-1.449c0-8.269-2.643-12.404-7.928-12.404
			c-4.802,0-7.402,3.566-7.8,10.699L761.672,323.493z"/>
		<path fill="#FFFFFF" d="M826.035,312.965l-4.73-0.341c-4.518,0-7.416,1.421-8.695,4.263v29.198h-14.365v-46.12h13.469l0.471,5.925
			c2.414-4.518,5.781-6.777,10.102-6.777c1.533,0,2.869,0.171,4.006,0.512L826.035,312.965z"/>
		<path fill="#FFFFFF" d="M903.825,325.07c-0.199,4.32-1.363,8.135-3.495,11.445c-2.131,3.311-5.122,5.875-8.973,7.694
			c-3.851,1.819-8.248,2.728-13.192,2.728c-8.155,0-14.577-2.657-19.266-7.971c-4.689-5.313-7.033-12.815-7.033-22.506v-3.069
			c0-6.081,1.058-11.402,3.175-15.963c2.117-4.561,5.165-8.084,9.144-10.571c3.978-2.486,8.581-3.729,13.811-3.729
			c7.529,0,13.582,1.982,18.158,5.946c4.574,3.964,7.175,9.428,7.8,16.389h-14.919c-0.113-3.779-1.065-6.493-2.855-8.141
			c-1.79-1.647-4.519-2.472-8.184-2.472c-3.724,0-6.451,1.393-8.185,4.177c-1.733,2.785-2.643,7.232-2.728,13.341v4.391
			c0,6.622,0.831,11.353,2.493,14.194c1.663,2.842,4.525,4.263,8.589,4.263c3.438,0,6.067-0.81,7.886-2.43s2.785-4.191,2.898-7.715
			H903.825z"/>
		<path fill="#FFFFFF" d="M963.458,316.333c0,6.053-1.123,11.409-3.367,16.069c-2.245,4.661-5.435,8.248-9.569,10.763
			c-4.135,2.515-8.845,3.772-14.13,3.772c-5.286,0-9.975-1.215-14.066-3.645s-7.282-5.903-9.569-10.422
			c-2.288-4.518-3.488-9.704-3.602-15.558v-3.496c0-6.081,1.114-11.444,3.346-16.091c2.23-4.646,5.428-8.233,9.591-10.763
			c4.162-2.529,8.901-3.793,14.215-3.793c5.257,0,9.946,1.251,14.066,3.751c4.12,2.501,7.324,6.06,9.612,10.678
			c2.287,4.618,3.445,9.91,3.474,15.877V316.333z M948.241,313.732c0-6.166-1.03-10.848-3.091-14.045s-5.008-4.795-8.845-4.795
			c-7.502,0-11.466,5.626-11.892,16.879l-0.043,4.561c0,6.081,1.008,10.756,3.026,14.023c2.018,3.268,5.015,4.902,8.994,4.902
			c3.778,0,6.691-1.605,8.737-4.816c2.046-3.211,3.083-7.829,3.112-13.853V313.732z"/>
		<path fill="#FFFFFF" d="M990.823,284.023l13.853,43.179l13.811-43.179h19.692v62.062h-15.004v-14.492l1.449-29.667l-15.004,44.159
			h-9.889l-15.046-44.202l1.449,29.709v14.492h-14.962v-62.062H990.823z"/>
		<path fill="#FFFFFF" d="M1062.646,325.028v21.057h-14.962v-62.062h24.766c4.745,0,8.943,0.874,12.595,2.622
			c3.651,1.748,6.479,4.234,8.482,7.459c2.004,3.226,3.006,6.884,3.006,10.976c0,6.053-2.168,10.891-6.501,14.514
			c-4.334,3.623-10.279,5.435-17.838,5.435H1062.646z M1062.646,313.477h9.804c2.898,0,5.107-0.725,6.628-2.174
			c1.52-1.449,2.28-3.495,2.28-6.138c0-2.898-0.782-5.214-2.345-6.948c-1.563-1.733-3.694-2.614-6.394-2.643h-9.974V313.477z"/>
		<path fill="#FFFFFF" d="M1157.06,316.333c0,6.053-1.123,11.409-3.367,16.069c-2.245,4.661-5.435,8.248-9.569,10.763
			c-4.135,2.515-8.845,3.772-14.13,3.772c-5.286,0-9.975-1.215-14.066-3.645s-7.282-5.903-9.569-10.422
			c-2.288-4.518-3.488-9.704-3.602-15.558v-3.496c0-6.081,1.114-11.444,3.346-16.091c2.23-4.646,5.428-8.233,9.591-10.763
			c4.162-2.529,8.901-3.793,14.215-3.793c5.257,0,9.946,1.251,14.066,3.751c4.12,2.501,7.324,6.06,9.612,10.678
			c2.287,4.618,3.445,9.91,3.474,15.877V316.333z M1141.843,313.732c0-6.166-1.03-10.848-3.091-14.045s-5.008-4.795-8.845-4.795
			c-7.502,0-11.466,5.626-11.892,16.879l-0.043,4.561c0,6.081,1.008,10.756,3.026,14.023c2.018,3.268,5.015,4.902,8.994,4.902
			c3.778,0,6.691-1.605,8.737-4.816c2.046-3.211,3.083-7.829,3.112-13.853V313.732z"/>
		<path fill="#FFFFFF" d="M1216.606,346.084h-14.876l-21.994-38.618v38.618h-14.962v-62.062h14.962l21.951,38.618v-38.618h14.919
			V346.084z"/>
		<path fill="#FFFFFF" d="M1264.559,319.742h-23.528v14.833h27.791v11.509h-42.753v-62.062h42.838v11.551h-27.876v13.086h23.528
			V319.742z"/>
		<path fill="#FFFFFF" d="M1326.748,346.084h-14.876l-21.994-38.618v38.618h-14.962v-62.062h14.962l21.951,38.618v-38.618h14.919
			V346.084z"/>
		<path fill="#FFFFFF" d="M1383.695,295.574h-18.627v50.51h-14.962v-50.51h-18.286v-11.551h51.875V295.574z"/>
		<path fill="#FFFFFF" d="M1421.333,329.589c0-2.188-0.774-3.893-2.323-5.115c-1.549-1.221-4.27-2.486-8.163-3.793
			c-3.894-1.307-7.075-2.571-9.548-3.793c-8.042-3.95-12.063-9.377-12.063-16.283c0-3.438,1.002-6.472,3.005-9.101
			c2.004-2.628,4.838-4.674,8.504-6.138c3.666-1.463,7.785-2.195,12.361-2.195c4.461,0,8.461,0.796,11.998,2.387
			c3.538,1.591,6.288,3.857,8.248,6.798c1.961,2.941,2.941,6.302,2.941,10.081h-14.919c0-2.529-0.774-4.49-2.322-5.882
			c-1.55-1.392-3.645-2.089-6.288-2.089c-2.671,0-4.781,0.59-6.329,1.769c-1.55,1.18-2.323,2.679-2.323,4.497
			c0,1.592,0.853,3.034,2.558,4.326c1.705,1.293,4.702,2.629,8.994,4.007c4.29,1.378,7.813,2.863,10.57,4.454
			c6.706,3.865,10.06,9.193,10.06,15.984c0,5.428-2.046,9.69-6.138,12.788c-4.092,3.098-9.705,4.646-16.837,4.646
			c-5.03,0-9.584-0.902-13.661-2.707c-4.078-1.804-7.147-4.277-9.207-7.417c-2.061-3.14-3.091-6.756-3.091-10.848h15.004
			c0,3.325,0.859,5.775,2.579,7.353c1.719,1.577,4.511,2.366,8.376,2.366c2.472,0,4.426-0.533,5.86-1.599
			C1420.614,333.02,1421.333,331.521,1421.333,329.589z"/>
	</g>
	<g>
		<path fill-rule="evenodd" clip-rule="evenodd" fill="#FFFFFF" d="M564.033,865.998c0,43.262-30.331,78.365-67.737,78.365H315.578
			c-37.406,0-67.712-35.104-67.712-78.365V479.046c0-43.246,30.306-78.346,67.712-78.346h180.718
			c37.406,0,67.737,35.101,67.737,78.346V865.998z"/>
		<g>
			<path fill-rule="evenodd" clip-rule="evenodd" fill="#25BAA2" d="M325.085,742.102c25.268,8.926,54.858,14.102,86.511,14.102
				c30.907,0,59.832-4.916,84.74-13.502v-56.762H325.085V742.102z"/>
			<rect x="268.045" y="488.333" fill-rule="evenodd" clip-rule="evenodd" fill="#25BAA2" width="275.784" height="184.429"/>
			<path fill-rule="evenodd" clip-rule="evenodd" fill="#25BAA2" d="M444.569,440.471c0,3.012-2.787,5.416-6.22,5.416h-64.825
				c-3.473,0-6.26-2.404-6.26-5.416l0,0c0-2.988,2.787-5.432,6.26-5.432h64.825C441.782,435.039,444.569,437.483,444.569,440.471
				L444.569,440.471z"/>
			<path fill-rule="evenodd" clip-rule="evenodd" fill="#25BAA2" d="M437.909,717.551c0,15.043-12.193,27.217-27.219,27.217
				s-27.215-12.174-27.215-27.217c0-15.025,12.189-27.219,27.215-27.219S437.909,702.525,437.909,717.551z"/>
			<path fill-rule="evenodd" clip-rule="evenodd" fill="#25BAA2" d="M264.473,686.379v43.488c0,0,43.021,10.547,55.334,10.547
				v-54.475L264.473,686.379z"/>
			<path fill-rule="evenodd" clip-rule="evenodd" fill="#25BAA2" d="M556.048,686.379v43.488c0,0-43.021,10.547-55.319,10.547
				v-54.475L556.048,686.379z"/>
			<g>
				<g>
					<defs>
						<path id="SVGID_1_" d="M262.762,779.049v35.117c0,0,144.041,26.355,286.311-1.764v-35.102
							C549.072,777.301,438.435,817.682,262.762,779.049z"/>
					</defs>
					<use xlink:href="#SVGID_1_"  overflow="visible" fill-rule="evenodd" clip-rule="evenodd" fill="#25BAA2"/>
					<clipPath id="SVGID_2_">
						<use xlink:href="#SVGID_1_"  overflow="visible"/>
					</clipPath>
					<g clip-path="url(#SVGID_2_)">
						<line fill="#25BAA2" stroke="#FFFFFF" stroke-width="0.2" x1="294.374" y1="772.891" x2="294.374" y2="836.133"/>
						<line fill="#25BAA2" stroke="#FFFFFF" stroke-width="0.2" x1="320.532" y1="772.891" x2="320.532" y2="836.133"/>
						<line fill="#25BAA2" stroke="#FFFFFF" stroke-width="0.2" x1="346.671" y1="772.891" x2="346.671" y2="836.133"/>
						<line fill="#25BAA2" stroke="#FFFFFF" stroke-width="0.2" x1="372.823" y1="772.891" x2="372.823" y2="836.133"/>
						<line fill="#25BAA2" stroke="#FFFFFF" stroke-width="0.2" x1="398.957" y1="772.891" x2="398.957" y2="836.133"/>
						<line fill="#25BAA2" stroke="#FFFFFF" stroke-width="0.2" x1="425.075" y1="772.891" x2="425.075" y2="836.133"/>
						<line fill="#25BAA2" stroke="#FFFFFF" stroke-width="0.2" x1="451.229" y1="772.891" x2="451.229" y2="836.133"/>
						<line fill="#25BAA2" stroke="#FFFFFF" stroke-width="0.2" x1="477.362" y1="772.891" x2="477.362" y2="836.133"/>
						<line fill="#25BAA2" stroke="#FFFFFF" stroke-width="0.2" x1="503.48" y1="772.891" x2="503.48" y2="836.133"/>
						<line fill="#25BAA2" stroke="#FFFFFF" stroke-width="0.2" x1="529.653" y1="772.891" x2="529.653" y2="836.133"/>
					</g>
				</g>
			</g>
			<g>
				<g>
					<defs>
						<path id="SVGID_3_" d="M262.762,817.236v35.119c0,0,144.041,26.377,286.311-1.744v-35.143
							C549.072,815.469,438.435,855.871,262.762,817.236z"/>
					</defs>
					<use xlink:href="#SVGID_3_"  overflow="visible" fill-rule="evenodd" clip-rule="evenodd" fill="#25BAA2"/>
					<clipPath id="SVGID_4_">
						<use xlink:href="#SVGID_3_"  overflow="visible"/>
					</clipPath>
					<g clip-path="url(#SVGID_4_)">
						<line fill="#25BAA2" stroke="#FFFFFF" stroke-width="0.2" x1="294.374" y1="811.098" x2="294.374" y2="874.318"/>
						<line fill="#25BAA2" stroke="#FFFFFF" stroke-width="0.2" x1="320.532" y1="811.098" x2="320.532" y2="874.318"/>
						<line fill="#25BAA2" stroke="#FFFFFF" stroke-width="0.2" x1="346.671" y1="811.098" x2="346.671" y2="874.318"/>
						<line fill="#25BAA2" stroke="#FFFFFF" stroke-width="0.2" x1="372.823" y1="811.098" x2="372.823" y2="874.318"/>
						<line fill="#25BAA2" stroke="#FFFFFF" stroke-width="0.2" x1="398.957" y1="811.098" x2="398.957" y2="874.318"/>
						<line fill="#25BAA2" stroke="#FFFFFF" stroke-width="0.2" x1="425.075" y1="811.098" x2="425.075" y2="874.318"/>
						<line fill="#25BAA2" stroke="#FFFFFF" stroke-width="0.2" x1="451.229" y1="811.098" x2="451.229" y2="874.318"/>
						<line fill="#25BAA2" stroke="#FFFFFF" stroke-width="0.2" x1="477.362" y1="811.098" x2="477.362" y2="874.318"/>
						<line fill="#25BAA2" stroke="#FFFFFF" stroke-width="0.2" x1="503.48" y1="811.098" x2="503.48" y2="874.318"/>
						<line fill="#25BAA2" stroke="#FFFFFF" stroke-width="0.2" x1="529.653" y1="811.098" x2="529.653" y2="874.318"/>
					</g>
				</g>
			</g>
			<path fill-rule="evenodd" clip-rule="evenodd" fill="#25BAA2" d="M294.333,863.348c0,0-1.741,27.219,35.145,28.984
				c36.887,1.742,158.072,6.158,180.018-3.51c0,0,15.811-7.482,16.707-28.545C526.202,860.277,464.724,879.156,294.333,863.348z"/>
			<line fill="#25BAA2" stroke="#FFFFFF" stroke-width="0.2" x1="376.896" y1="868.166" x2="376.896" y2="897.164"/>
			<line fill="#25BAA2" stroke="#FFFFFF" stroke-width="0.2" x1="334.712" y1="866.861" x2="334.712" y2="895.84"/>
			<line fill="#25BAA2" stroke="#FFFFFF" stroke-width="0.2" x1="444.529" y1="868.166" x2="444.529" y2="897.164"/>
			<line fill="#25BAA2" stroke="#FFFFFF" stroke-width="0.2" x1="494.595" y1="865.537" x2="494.595" y2="894.541"/>
		</g>
	</g>
	<g>
		<path fill="#FFFFFF" d="M1212.903,553.344c8.808-7.203,14.439-18.154,14.439-30.425c0-21.7-17.594-39.291-39.295-39.291
			s-39.29,17.591-39.29,39.291c0,12.139,5.507,22.983,14.152,30.188l-76.822,363.565h32.542l11.004-53.588h115.429l11.32,53.588
			h33.625L1212.903,553.344z M1207.942,678.753h-41.683l8.047-38.231c4.703-23.838,8.682-47.673,12.294-70.929h0.725
			c3.613,22.673,7.232,45.929,12.654,71.51L1207.942,678.753z M1158.848,713.959h56.548l8.448,39.927h-73.396L1158.848,713.959z
			 M1136.865,827.875l7.073-34.454h86.412l7.276,34.454H1136.865z"/>
		<path fill="#FFFFFF" d="M1112.959,510.969v-0.031c-0.006-9.918,3.853-19.243,10.869-26.258c2.684-2.688,5.709-4.908,8.975-6.633
			l-7.731-15.06c-4.814,2.52-9.272,5.772-13.218,9.728c-10.209,10.212-15.826,23.789-15.823,38.226v0.031
			c0.006,14.437,5.632,28.007,15.842,38.214c3.963,3.963,8.438,7.224,13.271,9.742l7.724-15.093
			C1121.048,537.617,1112.959,525.221,1112.959,510.969"/>
		<path fill="#FFFFFF" d="M1112.288,584.05l7.72-15.087c-20.934-10.902-35.274-32.793-35.28-57.978v-0.05
			c-0.013-25.167,14.29-47.045,35.194-57.972l-7.748-15.078c-7.465,3.877-14.277,8.847-20.289,14.862
			c-7.553,7.557-13.484,16.356-17.625,26.159c-4.289,10.153-6.465,20.93-6.458,32.031v0.05c0,11.105,2.181,21.878,6.477,32.026
			c4.146,9.797,10.077,18.593,17.633,26.145C1097.944,575.193,1104.787,580.172,1112.288,584.05"/>
		<path fill="#FFFFFF" d="M1104.319,599.617c-32.052-16.617-54.024-50.087-54.037-88.608v-0.07
			c-0.012-38.499,21.905-71.957,53.902-88.609l-7.75-15.086c-10.641,5.509-20.35,12.58-28.911,21.148
			c-10.717,10.722-19.129,23.206-25,37.109c-6.088,14.399-9.173,29.685-9.167,45.438v0.07c0.006,15.752,3.098,31.039,9.19,45.43
			c5.878,13.898,14.296,26.379,25.015,37.09c8.592,8.594,18.343,15.679,29.029,21.188L1104.319,599.617z"/>
		<path fill="#FFFFFF" d="M1263.139,510.896v0.032c0.003,14.319-8.146,26.767-20.045,32.96l7.744,15.085
			c4.883-2.534,9.404-5.82,13.406-9.819c10.209-10.216,15.823-23.793,15.823-38.229v-0.032
			c-0.006-14.437-5.632-28.007-15.841-38.214c-3.913-3.91-8.322-7.14-13.086-9.647l-7.726,15.093
			C1255.137,484.374,1263.136,496.718,1263.139,510.896"/>
		<path fill="#FFFFFF" d="M1301.82,478.852c-4.149-9.798-10.081-18.593-17.634-26.146c-5.985-5.985-12.765-10.93-20.19-14.796
			l-7.721,15.087c20.832,10.938,35.086,32.771,35.096,57.883v0.047c0.006,25.247-14.383,47.18-35.383,58.074l7.746,15.074
			c7.541-3.89,14.419-8.892,20.479-14.958c7.556-7.557,13.48-16.356,17.624-26.158c4.287-10.154,6.462-20.93,6.462-32.032v-0.05
			C1308.293,499.772,1306.112,488.999,1301.82,478.852"/>
		<path fill="#FFFFFF" d="M1333.554,465.426c-5.884-13.896-14.302-26.374-25.018-37.09c-8.547-8.544-18.231-15.596-28.846-21.093
			l-7.729,15.098c31.953,16.655,53.84,50.071,53.852,88.517v0.071c0.009,26.657-10.365,51.724-29.208,70.581
			c-7.412,7.417-15.794,13.5-24.851,18.181l7.721,15.028c10.716-5.524,20.484-12.626,29.101-21.243
			c10.716-10.722,19.125-23.206,25.003-37.109c6.087-14.399,9.166-29.688,9.16-45.44v-0.071
			C1342.732,495.104,1339.645,479.82,1333.554,465.426"/>
	</g>
</g>
<g id="_x33_">
</g>
<g id="_x32_">
</g>
<g id="_x31_">
</g>
</svg>
