<?xml version="1.0" encoding="utf-8"?>
<!-- Generator: Adobe Illustrator 16.0.0, SVG Export Plug-In . SVG Version: 6.00 Build 0)  -->
<!DOCTYPE svg PUBLIC "-//W3C//DTD SVG 1.1//EN" "http://www.w3.org/Graphics/SVG/1.1/DTD/svg11.dtd">
<svg version="1.1" xmlns="http://www.w3.org/2000/svg" xmlns:xlink="http://www.w3.org/1999/xlink" x="0px" y="0px" width="1600px"
	 height="1000px" viewBox="0 0 1600 1000" enable-background="new 0 0 1600 1000" xml:space="preserve">
<g id="_x35_">
</g>
<g id="_x34_">
</g>
<g id="_x33_">
	<rect fill="#DC3126" width="1600" height="1000"/>
	<g>
		<path fill="#FFFFFF" d="M510.244,96.02H483.66v16.76h31.4v13.003h-48.304V55.661h48.401v13.052H483.66v14.785h26.584V96.02z"/>
		<path fill="#FFFFFF" d="M538.851,112.779h29.426v13.003h-46.33V55.661h16.904V112.779z"/>
		<path fill="#FFFFFF" d="M618.894,96.02h-26.584v16.76h31.4v13.003h-48.304V55.661h48.401v13.052h-31.497v14.785h26.584V96.02z"/>
		<path fill="#FFFFFF" d="M687.329,102.039c-0.225,4.881-1.541,9.191-3.949,12.932c-2.408,3.74-5.788,6.639-10.138,8.692
			c-4.351,2.056-9.319,3.083-14.905,3.083c-9.215,0-16.471-3.002-21.769-9.007c-5.298-6.003-7.946-14.479-7.946-25.428v-3.468
			c0-6.87,1.195-12.883,3.588-18.036c2.391-5.153,5.835-9.134,10.33-11.943c4.495-2.81,9.696-4.214,15.604-4.214
			c8.508,0,15.347,2.239,20.516,6.718c5.169,4.479,8.107,10.651,8.813,18.518h-16.856c-0.129-4.27-1.204-7.336-3.227-9.198
			c-2.022-1.862-5.105-2.794-9.247-2.794c-4.207,0-7.289,1.574-9.247,4.72c-1.959,3.147-2.986,8.172-3.083,15.074v4.961
			c0,7.481,0.939,12.827,2.817,16.037c1.878,3.211,5.113,4.816,9.705,4.816c3.884,0,6.854-0.915,8.909-2.745
			s3.146-4.735,3.275-8.718H687.329z"/>
		<path fill="#FFFFFF" d="M748.974,68.713h-21.046v57.069h-16.904V68.713h-20.661V55.661h58.611V68.713z"/>
		<path fill="#FFFFFF" d="M782.156,100.98h-9.15v24.802h-16.904V55.661h27.596c8.315,0,14.816,1.845,19.505,5.532
			c4.687,3.689,7.031,8.901,7.031,15.636c0,4.876-0.988,8.916-2.963,12.124c-1.975,3.207-5.064,5.806-9.271,7.793l14.641,28.313
			v0.723h-18.108L782.156,100.98z M773.006,87.977h10.692c3.21,0,5.626-0.844,7.248-2.534c1.621-1.69,2.432-4.048,2.432-7.073
			s-0.819-5.399-2.457-7.121c-1.637-1.722-4.045-2.584-7.224-2.584h-10.692V87.977z"/>
		<path fill="#FFFFFF" d="M879.825,92.167c0,6.839-1.269,12.891-3.805,18.156s-6.141,9.318-10.812,12.16
			c-4.672,2.842-9.994,4.263-15.966,4.263s-11.269-1.373-15.893-4.118s-8.228-6.67-10.812-11.775
			c-2.586-5.104-3.941-10.964-4.07-17.578v-3.949c0-6.87,1.26-12.931,3.781-18.181c2.52-5.249,6.132-9.302,10.836-12.16
			c4.703-2.857,10.057-4.286,16.061-4.286c5.939,0,11.238,1.413,15.894,4.238S873.314,65.783,875.9,71
			c2.584,5.218,3.893,11.197,3.925,17.94V92.167z M862.632,89.229c0-6.966-1.164-12.257-3.491-15.868
			c-2.328-3.612-5.659-5.418-9.994-5.418c-8.476,0-12.955,6.356-13.436,19.071l-0.049,5.153c0,6.871,1.139,12.152,3.42,15.845
			c2.279,3.692,5.666,5.538,10.161,5.538c4.271,0,7.562-1.813,9.873-5.442c2.312-3.628,3.483-8.845,3.516-15.651V89.229z"/>
		<path fill="#FFFFFF" d="M947.105,125.782h-16.809l-24.851-43.633v43.633h-16.903V55.661h16.903l24.803,43.633V55.661h16.856
			V125.782z"/>
		<path fill="#FFFFFF" d="M975.809,125.782h-16.855V55.661h16.855V125.782z"/>
		<path fill="#FFFFFF" d="M1044.292,102.039c-0.226,4.881-1.541,9.191-3.949,12.932c-2.407,3.74-5.788,6.639-10.138,8.692
			c-4.352,2.056-9.318,3.083-14.905,3.083c-9.216,0-16.472-3.002-21.769-9.007c-5.298-6.003-7.946-14.479-7.946-25.428v-3.468
			c0-6.87,1.195-12.883,3.588-18.036c2.392-5.153,5.835-9.134,10.33-11.943s9.696-4.214,15.604-4.214
			c8.508,0,15.346,2.239,20.516,6.718c5.169,4.479,8.107,10.651,8.813,18.518h-16.856c-0.129-4.27-1.203-7.336-3.227-9.198
			c-2.022-1.862-5.105-2.794-9.246-2.794c-4.207,0-7.289,1.574-9.247,4.72c-1.959,3.147-2.986,8.172-3.083,15.074v4.961
			c0,7.481,0.939,12.827,2.818,16.037c1.878,3.211,5.112,4.816,9.704,4.816c3.884,0,6.854-0.915,8.909-2.745
			s3.146-4.735,3.275-8.718H1044.292z"/>
		<path fill="#FFFFFF" d="M1088.455,107.145c0-2.472-0.875-4.398-2.625-5.779c-1.75-1.38-4.824-2.809-9.223-4.286
			c-4.398-1.477-7.994-2.905-10.787-4.286c-9.087-4.463-13.63-10.596-13.63-18.397c0-3.885,1.132-7.312,3.396-10.282
			c2.264-2.97,5.467-5.281,9.607-6.935c4.143-1.653,8.797-2.48,13.967-2.48c5.041,0,9.561,0.899,13.557,2.697
			c3.998,1.798,7.104,4.358,9.319,7.681c2.216,3.323,3.323,7.12,3.323,11.391h-16.855c0-2.857-0.876-5.073-2.625-6.646
			c-1.75-1.572-4.118-2.359-7.104-2.359c-3.019,0-5.402,0.666-7.152,1.998c-1.75,1.333-2.625,3.026-2.625,5.081
			c0,1.799,0.963,3.428,2.891,4.889c1.926,1.461,5.313,2.97,10.161,4.526c4.848,1.558,8.829,3.235,11.944,5.033
			c7.576,4.366,11.365,10.387,11.365,18.06c0,6.133-2.312,10.949-6.936,14.448c-4.623,3.5-10.965,5.25-19.023,5.25
			c-5.682,0-10.828-1.02-15.435-3.059c-4.608-2.038-8.075-4.832-10.403-8.38c-2.328-3.547-3.491-7.634-3.491-12.257h16.952
			c0,3.757,0.971,6.525,2.914,8.308c1.942,1.782,5.097,2.673,9.463,2.673c2.794,0,5.001-0.602,6.623-1.806
			C1087.645,111.021,1088.455,109.328,1088.455,107.145z"/>
		<path fill="#FFFFFF" d="M1123.322,110.034c2.568,0,4.704,0.763,6.406,2.287c1.701,1.525,2.553,3.477,2.553,5.852
			c0,2.377-0.852,4.327-2.553,5.852c-1.702,1.525-3.838,2.288-6.406,2.288c-2.6,0-4.743-0.771-6.429-2.312
			c-1.686-1.542-2.528-3.483-2.528-5.828c0-2.343,0.843-4.286,2.528-5.827S1120.723,110.034,1123.322,110.034z"/>
	</g>
	<g>
		<path fill="#FFFFFF" d="M269.076,250.212l8.167-44.648h17.019l-15.111,71.203h-17.8l-9.536-40.589l-9.341,40.589h-17.751
			l-15.16-71.203h17.067l8.167,44.648l9.781-44.648h14.573L269.076,250.212z"/>
		<path fill="#FFFFFF" d="M324.288,277.744c-8.118,0-14.688-2.421-19.708-7.262c-5.021-4.841-7.531-11.141-7.531-18.901v-1.369
			c0-5.412,1.002-10.188,3.008-14.329c2.005-4.14,4.931-7.343,8.778-9.609c3.847-2.266,8.412-3.399,13.693-3.399
			c7.433,0,13.302,2.307,17.605,6.92c4.304,4.614,6.456,11.044,6.456,19.292v6.406h-32.765c0.587,2.967,1.875,5.298,3.863,6.993
			c1.988,1.696,4.564,2.543,7.727,2.543c5.216,0,9.292-1.825,12.226-5.477l7.531,8.9c-2.054,2.836-4.963,5.094-8.729,6.773
			S328.623,277.744,324.288,277.744z M322.429,235.59c-4.825,0-7.695,3.195-8.607,9.585h16.627v-1.271
			c0.065-2.641-0.604-4.686-2.005-6.137C327.042,236.316,325.037,235.59,322.429,235.59z"/>
		<path fill="#FFFFFF" d="M376.076,249.821c0-5.282,1.027-9.984,3.081-14.109c2.054-4.124,5.004-7.294,8.851-9.511
			c3.847-2.217,8.363-3.326,13.546-3.326c7.922,0,14.165,2.454,18.73,7.36c4.564,4.907,6.846,11.583,6.846,20.026v0.587
			c0,8.249-2.291,14.793-6.871,19.634c-4.581,4.841-10.783,7.262-18.607,7.262c-7.531,0-13.579-2.257-18.143-6.773
			c-4.564-4.515-7.026-10.636-7.384-18.363L376.076,249.821z M392.556,250.848c0,4.89,0.766,8.477,2.298,10.758
			c1.532,2.283,3.797,3.423,6.797,3.423c5.869,0,8.868-4.515,8.998-13.546v-1.663c0-9.487-3.032-14.231-9.096-14.231
			c-5.51,0-8.493,4.092-8.949,12.274L392.556,250.848z"/>
		<path fill="#FFFFFF" d="M449.528,223.853l0.538,6.211c3.651-4.792,8.688-7.189,15.111-7.189c5.509,0,9.625,1.646,12.348,4.939
			c2.722,3.293,4.132,8.249,4.23,14.866v34.085h-16.529v-33.401c0-2.673-0.538-4.637-1.614-5.893
			c-1.076-1.255-3.032-1.883-5.868-1.883c-3.228,0-5.624,1.271-7.189,3.814v37.362h-16.48v-52.913H449.528z"/>
		<path fill="#FFFFFF" d="M508.26,276.766h-16.529v-75.115h16.529V276.766z"/>
		<path fill="#FFFFFF" d="M539.559,253.684l8.802-29.831h17.654l-21.566,61.765l-0.929,2.25c-3.065,6.846-8.477,10.27-16.236,10.27
			c-2.151,0-4.418-0.325-6.797-0.974v-11.741h2.152c2.314,0,4.083-0.334,5.306-1.003c1.223-0.669,2.127-1.868,2.714-3.597
			l1.32-3.523l-18.388-53.445h17.605L539.559,253.684z"/>
		<path fill="#FFFFFF" d="M627.241,238.769l-5.428-0.391c-5.184,0-8.509,1.63-9.976,4.89v33.499h-16.48v-52.913h15.453l0.538,6.797
			c2.771-5.184,6.634-7.775,11.59-7.775c1.761,0,3.292,0.196,4.597,0.587L627.241,238.769z"/>
		<path fill="#FFFFFF" d="M657.854,277.744c-8.118,0-14.688-2.421-19.708-7.262c-5.021-4.841-7.531-11.141-7.531-18.901v-1.369
			c0-5.412,1.002-10.188,3.008-14.329c2.005-4.14,4.931-7.343,8.778-9.609c3.847-2.266,8.412-3.399,13.693-3.399
			c7.433,0,13.302,2.307,17.605,6.92c4.304,4.614,6.456,11.044,6.456,19.292v6.406h-32.765c0.587,2.967,1.875,5.298,3.863,6.993
			c1.988,1.696,4.564,2.543,7.727,2.543c5.216,0,9.292-1.825,12.226-5.477l7.531,8.9c-2.054,2.836-4.963,5.094-8.729,6.773
			S662.19,277.744,657.854,277.744z M655.996,235.59c-4.825,0-7.695,3.195-8.607,9.585h16.627v-1.271
			c0.065-2.641-0.604-4.686-2.005-6.137C660.609,236.316,658.604,235.59,655.996,235.59z"/>
		<path fill="#FFFFFF" d="M709.154,265.029c2.314,0,4.107-0.627,5.379-1.883c1.271-1.254,1.891-3.007,1.858-5.257h15.454
			c0,5.803-2.079,10.563-6.235,14.28c-4.157,3.716-9.512,5.575-16.064,5.575c-7.695,0-13.759-2.412-18.192-7.238
			c-4.434-4.824-6.651-11.508-6.651-20.05v-0.685c0-5.346,0.986-10.065,2.958-14.157c1.972-4.091,4.817-7.238,8.534-9.438
			c3.717-2.2,8.118-3.301,13.204-3.301c6.879,0,12.34,1.907,16.383,5.722c4.042,3.814,6.064,8.982,6.064,15.502h-15.454
			c0-2.739-0.668-4.842-2.005-6.309c-1.337-1.467-3.13-2.201-5.379-2.201c-4.271,0-6.765,2.723-7.482,8.167
			c-0.229,1.728-0.342,4.107-0.342,7.14c0,5.314,0.636,8.998,1.907,11.052C704.361,264.002,706.382,265.029,709.154,265.029z"/>
		<path fill="#FFFFFF" d="M759.964,253.684l8.802-29.831h17.654l-21.566,61.765l-0.929,2.25c-3.065,6.846-8.477,10.27-16.236,10.27
			c-2.151,0-4.418-0.325-6.797-0.974v-11.741h2.152c2.314,0,4.083-0.334,5.306-1.003c1.223-0.669,2.127-1.868,2.714-3.597
			l1.32-3.523l-18.388-53.445h17.605L759.964,253.684z"/>
		<path fill="#FFFFFF" d="M812.438,265.029c2.314,0,4.107-0.627,5.379-1.883c1.271-1.254,1.891-3.007,1.857-5.257h15.454
			c0,5.803-2.079,10.563-6.235,14.28c-4.156,3.716-9.512,5.575-16.064,5.575c-7.695,0-13.759-2.412-18.192-7.238
			c-4.434-4.824-6.651-11.508-6.651-20.05v-0.685c0-5.346,0.986-10.065,2.958-14.157c1.972-4.091,4.817-7.238,8.534-9.438
			c3.717-2.2,8.118-3.301,13.204-3.301c6.879,0,12.34,1.907,16.383,5.722c4.041,3.814,6.063,8.982,6.063,15.502h-15.454
			c0-2.739-0.668-4.842-2.004-6.309c-1.338-1.467-3.131-2.201-5.38-2.201c-4.271,0-6.765,2.723-7.481,8.167
			c-0.229,1.728-0.343,4.107-0.343,7.14c0,5.314,0.636,8.998,1.907,11.052C807.645,264.002,809.666,265.029,812.438,265.029z"/>
		<path fill="#FFFFFF" d="M859.481,276.766h-16.529v-75.115h16.529V276.766z"/>
		<path fill="#FFFFFF" d="M895.229,277.744c-8.117,0-14.688-2.421-19.707-7.262c-5.021-4.841-7.531-11.141-7.531-18.901v-1.369
			c0-5.412,1.002-10.188,3.008-14.329c2.005-4.14,4.931-7.343,8.777-9.609c3.848-2.266,8.412-3.399,13.693-3.399
			c7.434,0,13.301,2.307,17.605,6.92c4.303,4.614,6.455,11.044,6.455,19.292v6.406h-32.766c0.588,2.967,1.875,5.298,3.863,6.993
			c1.988,1.696,4.564,2.543,7.727,2.543c5.217,0,9.293-1.825,12.227-5.477l7.531,8.9c-2.055,2.836-4.965,5.094-8.73,6.773
			C903.617,276.904,899.564,277.744,895.229,277.744z M893.371,235.59c-4.826,0-7.695,3.195-8.607,9.585h16.627v-1.271
			c0.066-2.641-0.604-4.686-2.004-6.137C897.984,236.316,895.979,235.59,893.371,235.59z"/>
	</g>
	<g>
		<path fill="#FFFFFF" d="M350.835,576.51h-57.534V393.355l-56.512,16.511v-43.576l108.769-37.618h5.277V576.51z"/>
		<path fill="#FFFFFF" d="M598.502,576.51H425.561v-37.448l79.662-83.748c19.631-22.354,29.448-40.113,29.448-53.278
			c0-10.666-2.328-18.78-6.979-24.341c-4.655-5.559-11.405-8.341-20.256-8.341c-8.74,0-15.831,3.718-21.277,11.149
			c-5.447,7.434-8.17,16.71-8.17,27.831h-57.534c0-15.205,3.8-29.248,11.404-42.129c7.602-12.878,18.155-22.95,31.661-30.214
			c13.503-7.261,28.597-10.894,45.278-10.894c26.78,0,47.406,6.186,61.875,18.554c14.468,12.37,21.703,30.128,21.703,53.278
			c0,9.761-1.816,19.264-5.447,28.512c-3.633,9.25-9.277,18.953-16.937,29.107c-7.66,10.157-20,23.745-37.022,40.767l-32.001,36.937
			h97.535V576.51z"/>
		<path fill="#FFFFFF" d="M663.866,520.849c9.077,0,16.623,2.697,22.639,8.085c6.014,5.391,9.021,12.285,9.021,20.681
			c0,8.399-3.008,15.293-9.021,20.682c-6.016,5.391-13.562,8.085-22.639,8.085c-9.192,0-16.767-2.724-22.724-8.17
			c-5.958-5.447-8.937-12.312-8.937-20.597c0-8.282,2.979-15.149,8.937-20.596C647.1,523.572,654.674,520.849,663.866,520.849z"/>
		<path fill="#FFFFFF" d="M736.208,455.448l15.149-126.775h144.855v44.257h-98.215l-5.617,49.573
			c4.085-2.394,9.448-4.5,16.085-6.325c6.639-1.824,13.134-2.737,19.49-2.737c24.623,0,43.546,7.293,56.767,21.873
			c13.219,14.583,19.832,35.039,19.832,61.364c0,15.889-3.549,30.272-10.639,43.15c-7.094,12.881-17.052,22.783-29.874,29.703
			c-12.825,6.923-27.974,10.383-45.448,10.383c-15.549,0-30.128-3.205-43.746-9.609c-13.618-6.404-24.286-15.192-32.001-26.362
			c-7.718-11.168-11.519-23.783-11.405-37.842h57.534c0.566,9.059,3.46,16.25,8.681,21.573c5.218,5.325,12.085,7.984,20.597,7.984
			c19.29,0,28.937-14.269,28.937-42.807c0-26.384-11.804-39.579-35.405-39.579c-13.391,0-23.378,4.303-29.958,12.91L736.208,455.448
			z"/>
	</g>
	<g>
		<path fill="#FFFFFF" d="M319.18,688.367c0,16.914-3.81,30.422-11.427,40.523c-7.619,10.103-17.905,15.152-30.858,15.152
			c-10.001,0-18.223-3.658-24.667-10.974v50.843h-33.929V633.094h31.714l1.007,10.068c6.51-8.054,15.067-12.082,25.673-12.082
			c13.423,0,23.861,4.951,31.312,14.851c7.45,9.901,11.175,23.509,11.175,40.826V688.367z M285.251,686.253
			c0-19.331-5.638-28.996-16.914-28.996c-8.054,0-13.425,2.887-16.109,8.659v42.89c2.953,6.041,8.39,9.061,16.31,9.061
			c10.806,0,16.376-9.329,16.713-27.989V686.253z"/>
		<path fill="#FFFFFF" d="M386.837,744.043c-16.713,0-30.239-4.984-40.574-14.951c-10.337-9.967-15.504-22.938-15.504-38.913v-2.819
			c0-11.141,2.064-20.975,6.192-29.5c4.127-8.523,10.151-15.118,18.072-19.783c7.919-4.665,17.317-6.998,28.19-6.998
			c15.303,0,27.385,4.75,36.245,14.247c8.86,9.498,13.29,22.738,13.29,39.718v13.189h-67.455c1.208,6.109,3.859,10.908,7.954,14.397
			c4.093,3.491,9.396,5.235,15.907,5.235c10.738,0,19.129-3.758,25.17-11.276l15.505,18.324
			c-4.229,5.839-10.219,10.488-17.972,13.944C404.104,742.314,395.763,744.043,386.837,744.043z M383.011,657.257
			c-9.934,0-15.841,6.579-17.719,19.733h34.231v-2.618c0.134-5.437-1.243-9.648-4.128-12.635
			C392.508,658.751,388.38,657.257,383.011,657.257z"/>
		<path fill="#FFFFFF" d="M512.284,663.801l-11.175-0.806c-10.672,0-17.519,3.357-20.539,10.068v68.966h-33.929V633.094h31.814
			l1.107,13.995c5.705-10.672,13.658-16.008,23.861-16.008c3.625,0,6.778,0.403,9.464,1.208L512.284,663.801z"/>
		<path fill="#FFFFFF" d="M568.665,717.866c4.765,0,8.457-1.292,11.075-3.876c2.618-2.583,3.892-6.192,3.826-10.823h31.815
			c0,11.948-4.279,21.747-12.836,29.398c-8.558,7.652-19.583,11.478-33.073,11.478c-15.841,0-28.326-4.966-37.453-14.901
			c-9.129-9.933-13.692-23.692-13.692-41.278v-1.41c0-11.007,2.029-20.723,6.091-29.147c4.06-8.422,9.917-14.9,17.568-19.431
			c7.652-4.53,16.713-6.796,27.184-6.796c14.161,0,25.404,3.927,33.728,11.78c8.322,7.853,12.484,18.492,12.484,31.916h-31.815
			c0-5.638-1.376-9.967-4.127-12.988c-2.753-3.021-6.444-4.531-11.075-4.531c-8.793,0-13.928,5.605-15.404,16.813
			c-0.47,3.559-0.705,8.457-0.705,14.699c0,10.941,1.309,18.525,3.926,22.754S562.959,717.866,568.665,717.866z"/>
		<path fill="#FFFFFF" d="M682.433,744.043c-16.713,0-30.239-4.984-40.574-14.951c-10.337-9.967-15.504-22.938-15.504-38.913v-2.819
			c0-11.141,2.064-20.975,6.192-29.5c4.127-8.523,10.151-15.118,18.072-19.783c7.919-4.665,17.317-6.998,28.19-6.998
			c15.303,0,27.385,4.75,36.245,14.247c8.86,9.498,13.29,22.738,13.29,39.718v13.189h-67.455c1.208,6.109,3.859,10.908,7.954,14.397
			c4.093,3.491,9.396,5.235,15.907,5.235c10.738,0,19.129-3.758,25.17-11.276l15.505,18.324
			c-4.229,5.839-10.219,10.488-17.972,13.944C699.699,742.314,691.358,744.043,682.433,744.043z M678.606,657.257
			c-9.934,0-15.841,6.579-17.719,19.733h34.231v-2.618c0.134-5.437-1.243-9.648-4.128-12.635
			C688.104,658.751,683.976,657.257,678.606,657.257z"/>
		<path fill="#FFFFFF" d="M773.145,633.094l1.107,12.787c7.516-9.867,17.886-14.8,31.11-14.8c11.342,0,19.816,3.39,25.422,10.169
			c5.603,6.78,8.507,16.982,8.708,30.606v70.174h-34.029v-68.764c0-5.503-1.107-9.547-3.322-12.132
			c-2.215-2.583-6.242-3.876-12.082-3.876c-6.645,0-11.578,2.618-14.8,7.853v76.919H741.33V633.094H773.145z"/>
		<path fill="#FFFFFF" d="M897.786,606.011v27.083h17.921v23.559h-17.921v49.836c0,4.095,0.737,6.947,2.215,8.558
			c1.476,1.611,4.396,2.416,8.759,2.416c3.355,0,6.175-0.201,8.457-0.604v24.264c-6.108,1.946-12.484,2.92-19.129,2.92
			c-11.679,0-20.304-2.751-25.874-8.256c-5.572-5.503-8.356-13.859-8.356-25.069v-54.065h-13.895v-23.559h13.895v-27.083H897.786z"
			/>
	</g>
	<g>
		<path fill="#FFFFFF" d="M1053.814,244.79c0-6.971,1.355-13.178,4.066-18.623c2.711-5.443,6.605-9.628,11.684-12.555
			c5.077-2.926,11.038-4.389,17.88-4.389c10.457,0,18.697,3.238,24.723,9.714c6.024,6.477,9.037,15.288,9.037,26.433v0.774
			c0,10.888-3.024,19.526-9.069,25.917c-6.047,6.39-14.233,9.585-24.562,9.585c-9.94,0-17.923-2.979-23.947-8.94
			c-6.025-5.96-9.273-14.04-9.747-24.238L1053.814,244.79z M1075.567,246.145c0,6.455,1.011,11.189,3.034,14.201
			c2.022,3.013,5.013,4.519,8.972,4.519c7.746,0,11.705-5.96,11.878-17.88v-2.194c0-12.522-4.003-18.784-12.007-18.784
			c-7.272,0-11.21,5.401-11.813,16.202L1075.567,246.145z"/>
		<path fill="#FFFFFF" d="M1135.599,280.356v-54.738h-10.135v-15.104h10.135v-5.551c0-7.961,2.345-14.136,7.035-18.526
			c4.69-4.389,11.274-6.584,19.752-6.584c3.099,0,6.498,0.452,10.199,1.355l0.064,16.008c-1.334-0.387-3.12-0.581-5.357-0.581
			c-6.584,0-9.876,2.84-9.876,8.521v5.358h13.619v15.104h-13.619v54.738H1135.599z"/>
		<path fill="#FFFFFF" d="M1236.94,193.15v17.364h11.489v15.104h-11.489v31.952c0,2.625,0.473,4.454,1.42,5.486
			c0.946,1.033,2.818,1.549,5.616,1.549c2.15,0,3.958-0.129,5.422-0.387v15.556c-3.917,1.248-8.004,1.872-12.265,1.872
			c-7.487,0-13.018-1.764-16.589-5.293c-3.572-3.528-5.357-8.886-5.357-16.073v-34.663h-8.908v-15.104h8.908V193.15H1236.94z"/>
		<path fill="#FFFFFF" d="M1278.252,218.001c4.647-5.852,10.586-8.778,17.815-8.778c7.702,0,13.512,2.281,17.428,6.842
			c3.915,4.562,5.917,11.296,6.003,20.204v44.087h-21.817v-43.571c0-3.7-0.753-6.422-2.259-8.165
			c-1.507-1.743-4.066-2.614-7.682-2.614c-4.476,0-7.639,1.42-9.488,4.26v50.09h-21.753v-99.147h21.753V218.001z"/>
		<path fill="#FFFFFF" d="M1365.393,281.647c-10.716,0-19.388-3.195-26.014-9.585c-6.627-6.391-9.94-14.706-9.94-24.948v-1.808
			c0-7.143,1.323-13.447,3.97-18.913c2.646-5.464,6.509-9.692,11.587-12.684c5.077-2.99,11.103-4.486,18.073-4.486
			c9.812,0,17.558,3.045,23.237,9.133c5.681,6.09,8.521,14.578,8.521,25.465v8.456h-43.247c0.774,3.916,2.474,6.993,5.099,9.23
			c2.625,2.238,6.024,3.356,10.199,3.356c6.885,0,12.265-2.41,16.137-7.229l9.941,11.748c-2.712,3.744-6.552,6.724-11.522,8.94
			C1376.463,280.539,1371.115,281.647,1365.393,281.647z M1362.939,226.006c-6.369,0-10.156,4.218-11.36,12.651h21.946v-1.678
			c0.086-3.486-0.797-6.186-2.646-8.101C1369.028,226.964,1366.382,226.006,1362.939,226.006z"/>
	</g>
	<g>
		<path fill="#FFFFFF" d="M1066.405,427.053l13.021-108.959h124.498v38.037h-84.413l-4.827,42.606
			c3.511-2.057,8.119-3.868,13.824-5.436c5.706-1.568,11.288-2.352,16.751-2.352c21.163,0,37.427,6.268,48.79,18.799
			c11.361,12.534,17.044,30.114,17.044,52.74c0,13.656-3.05,26.018-9.144,37.086c-6.097,11.07-14.655,19.581-25.675,25.529
			c-11.022,5.95-24.043,8.924-39.062,8.924c-13.363,0-25.895-2.754-37.599-8.259c-11.703-5.504-20.872-13.057-27.503-22.658
			c-6.634-9.598-9.9-20.44-9.803-32.523h49.448c0.487,7.786,2.975,13.967,7.462,18.541c4.484,4.577,10.387,6.862,17.701,6.862
			c16.58,0,24.871-12.264,24.871-36.791c0-22.676-10.146-34.017-30.43-34.017c-11.51,0-20.094,3.699-25.749,11.096L1066.405,427.053
			z"/>
		<path fill="#FFFFFF" d="M1384.893,444.056c0,28.772-6.462,50.961-19.384,66.565c-12.925,15.605-31.139,23.407-54.642,23.407
			c-23.7,0-42.038-7.85-55.008-23.554c-12.973-15.702-19.457-37.84-19.457-66.418v-38.915c0-28.77,6.46-50.959,19.384-66.565
			c12.922-15.604,31.185-23.407,54.788-23.407c23.602,0,41.889,7.852,54.861,23.554c12.97,15.704,19.457,37.891,19.457,66.565
			V444.056z M1335.591,398.85c0-15.311-2-26.747-5.998-34.307c-4-7.557-10.339-11.338-19.019-11.338
			c-8.485,0-14.654,3.511-18.507,10.533c-3.854,7.022-5.925,17.654-6.217,31.893v54.422c0,15.898,1.997,27.529,5.998,34.892
			c3.998,7.365,10.337,11.045,19.019,11.045c8.387,0,14.579-3.584,18.579-10.752c3.998-7.169,6.047-18.408,6.145-33.722V398.85z"/>
	</g>
	<g>
		<path fill="#FFFFFF" d="M1073.132,577.954l0.604,6.972c4.208-5.38,9.862-8.07,16.964-8.07c7.502,0,12.571,2.983,15.207,8.949
			c4.025-5.965,9.845-8.949,17.457-8.949c12.041,0,18.227,7.284,18.556,21.85v38.649h-18.556v-37.496
			c0-3.037-0.513-5.251-1.537-6.643c-1.024-1.391-2.892-2.086-5.6-2.086c-3.66,0-6.387,1.629-8.18,4.886l0.055,0.769v40.57h-18.556
			v-37.386c0-3.11-0.494-5.361-1.482-6.752c-0.988-1.391-2.873-2.086-5.654-2.086c-3.551,0-6.259,1.629-8.125,4.886v41.339h-18.501
			v-59.4H1073.132z"/>
		<path fill="#FFFFFF" d="M1152.352,562.582c0-2.651,0.951-4.824,2.854-6.518c1.902-1.693,4.373-2.541,7.411-2.541
			s5.508,0.848,7.412,2.541c1.902,1.694,2.854,3.867,2.854,6.518c0,2.651-0.952,4.824-2.854,6.517
			c-1.904,1.694-4.374,2.541-7.412,2.541s-5.509-0.847-7.411-2.541C1153.303,567.406,1152.352,565.233,1152.352,562.582z
			 M1172.005,637.354h-18.556v-59.4h18.556V637.354z"/>
		<path fill="#FFFFFF" d="M1202.913,637.354h-18.556v-84.325h18.556V637.354z"/>
		<path fill="#FFFFFF" d="M1233.82,637.354h-18.556v-84.325h18.556V637.354z"/>
		<path fill="#FFFFFF" d="M1245.075,562.582c0-2.651,0.951-4.824,2.854-6.518c1.902-1.693,4.373-2.541,7.411-2.541
			s5.508,0.848,7.412,2.541c1.902,1.694,2.854,3.867,2.854,6.518c0,2.651-0.952,4.824-2.854,6.517
			c-1.904,1.694-4.374,2.541-7.412,2.541s-5.509-0.847-7.411-2.541C1246.026,567.406,1245.075,565.233,1245.075,562.582z
			 M1264.729,637.354h-18.556v-59.4h18.556V637.354z"/>
		<path fill="#FFFFFF" d="M1273.787,607.105c0-5.929,1.153-11.208,3.459-15.838c2.306-4.63,5.617-8.188,9.937-10.678
			c4.318-2.489,9.388-3.733,15.207-3.733c8.894,0,15.901,2.754,21.026,8.262c5.123,5.509,7.686,13.002,7.686,22.481v0.659
			c0,9.26-2.571,16.607-7.713,22.042c-5.143,5.435-12.105,8.153-20.89,8.153c-8.454,0-15.243-2.534-20.367-7.604
			c-5.124-5.069-7.888-11.94-8.29-20.615L1273.787,607.105z M1292.288,608.258c0,5.49,0.859,9.516,2.58,12.078
			c1.721,2.562,4.264,3.843,7.631,3.843c6.588,0,9.955-5.069,10.102-15.207v-1.866c0-10.65-3.403-15.976-10.211-15.976
			c-6.186,0-9.534,4.593-10.047,13.779L1292.288,608.258z"/>
		<path fill="#FFFFFF" d="M1356.245,577.954l0.604,6.972c4.099-5.38,9.753-8.07,16.964-8.07c6.185,0,10.806,1.849,13.861,5.545
			c3.056,3.697,4.64,9.26,4.749,16.689v38.265h-18.556v-37.496c0-3-0.604-5.206-1.812-6.615c-1.208-1.408-3.404-2.113-6.588-2.113
			c-3.624,0-6.313,1.427-8.07,4.282v41.943h-18.501v-59.4H1356.245z"/>
	</g>
	<g>
		<path fill="#FFFFFF" d="M1092.424,658.25v23.18h15.339v20.164h-15.339v42.655c0,3.505,0.632,5.946,1.896,7.325
			s3.763,2.068,7.497,2.068c2.872,0,5.285-0.172,7.238-0.517v20.768c-5.228,1.666-10.685,2.499-16.372,2.499
			c-9.996,0-17.379-2.355-22.146-7.066c-4.77-4.71-7.152-11.862-7.152-21.457v-46.275h-11.892V681.43h11.892v-23.18H1092.424z"/>
		<path fill="#FFFFFF" d="M1112.933,727.188c0-9.307,1.811-17.592,5.43-24.861c3.619-7.267,8.817-12.853,15.597-16.76
			c6.778-3.906,14.735-5.86,23.87-5.86c13.96,0,24.96,4.324,33.004,12.969c8.042,8.646,12.063,20.409,12.063,35.287v1.034
			c0,14.535-4.036,26.067-12.106,34.598c-8.072,8.531-19.001,12.797-32.789,12.797c-13.271,0-23.928-3.978-31.97-11.935
			c-8.044-7.956-12.381-18.743-13.012-32.357L1112.933,727.188z M1141.973,728.997c0,8.617,1.35,14.938,4.051,18.958
			c2.699,4.022,6.691,6.032,11.978,6.032c10.341,0,15.626-7.956,15.855-23.87v-2.93c0-16.717-5.342-25.076-16.027-25.076
			c-9.709,0-14.966,7.21-15.77,21.629L1141.973,728.997z"/>
		<path fill="#FFFFFF" d="M1242.363,681.43l0.948,10.944c6.433-8.445,15.309-12.667,26.627-12.667
			c9.708,0,16.961,2.902,21.759,8.704c4.796,5.803,7.281,14.535,7.453,26.196v60.062h-29.126v-58.855
			c0-4.71-0.947-8.172-2.844-10.384c-1.896-2.211-5.343-3.318-10.341-3.318c-5.687,0-9.909,2.241-12.667,6.722v65.835h-29.04V681.43
			H1242.363z"/>
		<path fill="#FFFFFF" d="M1364.039,748.472c0-2.469-1.293-4.451-3.878-5.946c-2.585-1.493-7.497-3.044-14.735-4.653
			c-7.238-1.608-13.214-3.719-17.924-6.334c-4.711-2.613-8.302-5.787-10.771-9.522c-2.471-3.733-3.705-8.014-3.705-12.839
			c0-8.56,3.532-15.611,10.599-21.155c7.066-5.543,16.315-8.316,27.748-8.316c12.293,0,22.174,2.787,29.643,8.359
			c7.468,5.573,11.202,12.897,11.202,21.974h-29.126c0-7.468-3.936-11.203-11.806-11.203c-3.045,0-5.601,0.848-7.669,2.542
			c-2.068,1.695-3.103,3.807-3.103,6.334c0,2.585,1.264,4.683,3.792,6.291c2.527,1.609,6.563,2.93,12.107,3.964
			c5.543,1.034,10.412,2.27,14.605,3.705c14.017,4.826,21.026,13.473,21.026,25.938c0,8.503-3.778,15.425-11.332,20.768
			c-7.555,5.343-17.335,8.014-29.341,8.014c-7.986,0-15.11-1.437-21.371-4.309c-6.263-2.872-11.146-6.778-14.649-11.72
			c-3.505-4.94-5.257-10.139-5.257-15.597h27.145c0.114,4.309,1.551,7.454,4.309,9.436s6.291,2.973,10.6,2.973
			c3.964,0,6.937-0.804,8.919-2.413C1363.048,753.155,1364.039,751.057,1364.039,748.472z"/>
	</g>
	<g>
		<path fill="#FFFFFF" d="M143.232,867.629c0-3.797,0.738-7.177,2.215-10.143c1.477-2.965,3.598-5.244,6.363-6.838
			c2.765-1.594,6.012-2.391,9.738-2.391c5.695,0,10.183,1.764,13.465,5.291c3.281,3.528,4.922,8.327,4.922,14.396v0.422
			c0,5.93-1.647,10.635-4.939,14.115c-3.293,3.48-7.752,5.221-13.377,5.221c-5.414,0-9.762-1.623-13.043-4.869
			c-3.282-3.246-5.051-7.646-5.309-13.201L143.232,867.629z M155.08,868.367c0,3.516,0.55,6.094,1.652,7.734
			c1.102,1.641,2.73,2.461,4.887,2.461c4.219,0,6.375-3.246,6.469-9.738v-1.195c0-6.82-2.18-10.23-6.539-10.23
			c-3.961,0-6.105,2.941-6.434,8.824L155.08,868.367z"/>
		<path fill="#FFFFFF" d="M187.775,887v-29.813h-5.52v-8.227h5.52v-3.023c0-4.336,1.277-7.699,3.832-10.09
			c2.554-2.391,6.14-3.586,10.758-3.586c1.688,0,3.539,0.246,5.555,0.738l0.035,8.719c-0.727-0.211-1.7-0.316-2.918-0.316
			c-3.586,0-5.379,1.547-5.379,4.641v2.918h7.418v8.227h-7.418V887H187.775z"/>
		<path fill="#FFFFFF" d="M247.576,887.703c-5.836,0-10.559-1.74-14.168-5.221c-3.609-3.48-5.414-8.01-5.414-13.588v-0.984
			c0-3.89,0.721-7.324,2.162-10.301c1.441-2.976,3.545-5.279,6.311-6.908c2.765-1.629,6.047-2.443,9.844-2.443
			c5.344,0,9.563,1.658,12.656,4.975c3.094,3.317,4.641,7.94,4.641,13.869v4.605h-23.555c0.422,2.133,1.348,3.809,2.777,5.027
			c1.429,1.219,3.281,1.828,5.555,1.828c3.75,0,6.68-1.313,8.789-3.938l5.414,6.398c-1.477,2.039-3.568,3.662-6.275,4.869
			S250.693,887.703,247.576,887.703z M246.24,857.398c-3.469,0-5.532,2.297-6.188,6.891h11.953v-0.914
			c0.047-1.898-0.434-3.369-1.441-4.412C249.557,857.92,248.115,857.398,246.24,857.398z"/>
		<path fill="#FFFFFF" d="M280.869,887h-11.883v-54h11.883V887z"/>
		<path fill="#FFFFFF" d="M306.568,887.703c-5.836,0-10.559-1.74-14.168-5.221c-3.609-3.48-5.414-8.01-5.414-13.588v-0.984
			c0-3.89,0.721-7.324,2.162-10.301c1.441-2.976,3.545-5.279,6.311-6.908c2.765-1.629,6.047-2.443,9.844-2.443
			c5.344,0,9.563,1.658,12.656,4.975c3.094,3.317,4.641,7.94,4.641,13.869v4.605h-23.555c0.422,2.133,1.348,3.809,2.777,5.027
			c1.429,1.219,3.281,1.828,5.555,1.828c3.75,0,6.68-1.313,8.789-3.938l5.414,6.398c-1.477,2.039-3.568,3.662-6.275,4.869
			S309.685,887.703,306.568,887.703z M305.232,857.398c-3.469,0-5.532,2.297-6.188,6.891h11.953v-0.914
			c0.047-1.898-0.434-3.369-1.441-4.412C308.549,857.92,307.107,857.398,305.232,857.398z"/>
		<path fill="#FFFFFF" d="M343.447,878.563c1.664,0,2.953-0.451,3.867-1.354c0.914-0.902,1.359-2.162,1.336-3.779h11.109
			c0,4.172-1.494,7.594-4.482,10.266s-6.838,4.008-11.549,4.008c-5.532,0-9.891-1.734-13.078-5.203
			c-3.188-3.468-4.781-8.273-4.781-14.414v-0.492c0-3.844,0.708-7.236,2.127-10.178c1.418-2.941,3.463-5.203,6.135-6.785
			s5.836-2.373,9.492-2.373c4.945,0,8.871,1.371,11.777,4.113c2.906,2.742,4.359,6.457,4.359,11.145H348.65
			c0-1.969-0.48-3.48-1.441-4.535c-0.961-1.055-2.25-1.582-3.867-1.582c-3.071,0-4.864,1.957-5.379,5.871
			c-0.164,1.243-0.246,2.953-0.246,5.133c0,3.82,0.457,6.469,1.371,7.945S341.455,878.563,343.447,878.563z"/>
		<path fill="#FFFFFF" d="M378.568,839.504v9.457h6.258v8.227h-6.258v17.402c0,1.43,0.258,2.426,0.773,2.988
			c0.515,0.563,1.535,0.844,3.059,0.844c1.172,0,2.156-0.07,2.953-0.211v8.473c-2.133,0.68-4.359,1.02-6.68,1.02
			c-4.078,0-7.09-0.961-9.035-2.883c-1.946-1.921-2.918-4.839-2.918-8.754v-18.879h-4.852v-8.227h4.852v-9.457H378.568z"/>
		<path fill="#FFFFFF" d="M412.494,859.684l-3.902-0.281c-3.727,0-6.117,1.172-7.172,3.516V887h-11.848v-38.039h11.109l0.387,4.887
			c1.992-3.727,4.769-5.59,8.332-5.59c1.266,0,2.367,0.141,3.305,0.422L412.494,859.684z"/>
		<path fill="#FFFFFF" d="M414.006,867.629c0-3.797,0.738-7.177,2.215-10.143c1.477-2.965,3.598-5.244,6.363-6.838
			c2.765-1.594,6.012-2.391,9.738-2.391c5.695,0,10.183,1.764,13.465,5.291c3.281,3.528,4.922,8.327,4.922,14.396v0.422
			c0,5.93-1.647,10.635-4.939,14.115c-3.293,3.48-7.752,5.221-13.377,5.221c-5.414,0-9.762-1.623-13.043-4.869
			c-3.282-3.246-5.051-7.646-5.309-13.201L414.006,867.629z M425.854,868.367c0,3.516,0.55,6.094,1.652,7.734
			c1.102,1.641,2.73,2.461,4.887,2.461c4.219,0,6.375-3.246,6.469-9.738v-1.195c0-6.82-2.18-10.23-6.539-10.23
			c-3.961,0-6.105,2.941-6.434,8.824L425.854,868.367z"/>
		<path fill="#FFFFFF" d="M466.811,848.961l0.387,4.465c2.625-3.445,6.246-5.168,10.863-5.168c3.96,0,6.92,1.184,8.877,3.551
			c1.957,2.368,2.971,5.93,3.041,10.688V887h-11.883v-24.012c0-1.921-0.387-3.334-1.16-4.236c-0.773-0.902-2.18-1.354-4.219-1.354
			c-2.32,0-4.043,0.914-5.168,2.742V887h-11.848v-38.039H466.811z"/>
		<path fill="#FFFFFF" d="M496.447,839.117c0-1.697,0.609-3.089,1.828-4.174c1.218-1.084,2.8-1.627,4.746-1.627
			c1.945,0,3.527,0.543,4.746,1.627c1.218,1.085,1.828,2.477,1.828,4.174c0,1.698-0.61,3.089-1.828,4.174
			c-1.219,1.085-2.801,1.627-4.746,1.627c-1.946,0-3.528-0.542-4.746-1.627C497.057,842.207,496.447,840.815,496.447,839.117z
			 M509.033,887H497.15v-38.039h11.883V887z"/>
		<path fill="#FFFFFF" d="M532.412,878.563c1.664,0,2.953-0.451,3.867-1.354c0.914-0.902,1.359-2.162,1.336-3.779h11.109
			c0,4.172-1.494,7.594-4.482,10.266s-6.838,4.008-11.549,4.008c-5.532,0-9.891-1.734-13.078-5.203
			c-3.188-3.468-4.781-8.273-4.781-14.414v-0.492c0-3.844,0.708-7.236,2.127-10.178c1.418-2.941,3.463-5.203,6.135-6.785
			s5.836-2.373,9.492-2.373c4.945,0,8.871,1.371,11.777,4.113c2.906,2.742,4.359,6.457,4.359,11.145h-11.109
			c0-1.969-0.48-3.48-1.441-4.535c-0.961-1.055-2.25-1.582-3.867-1.582c-3.071,0-4.864,1.957-5.379,5.871
			c-0.164,1.243-0.246,2.953-0.246,5.133c0,3.82,0.457,6.469,1.371,7.945S530.42,878.563,532.412,878.563z"/>
		<path fill="#FFFFFF" d="M604.518,871.391l3.832-22.43h11.355L610.74,887h-10.02l-6.293-22.57L588.1,887h-10.02l-8.965-38.039
			h11.355l3.762,22.957l6.047-22.957h8.262L604.518,871.391z"/>
		<path fill="#FFFFFF" d="M645.369,887c-0.422-0.773-0.797-1.91-1.125-3.41c-2.18,2.742-5.227,4.113-9.141,4.113
			c-3.586,0-6.633-1.084-9.141-3.252c-2.508-2.167-3.762-4.892-3.762-8.174c0-4.125,1.523-7.242,4.57-9.352
			c3.046-2.109,7.476-3.164,13.289-3.164h3.656v-2.014c0-3.509-1.512-5.264-4.535-5.264c-2.813,0-4.219,1.39-4.219,4.169h-11.848
			c0-3.675,1.564-6.66,4.693-8.954s7.119-3.441,11.971-3.441s8.684,1.184,11.496,3.551c2.813,2.368,4.254,5.613,4.324,9.738v16.84
			c0.047,3.493,0.585,6.165,1.617,8.016V887H645.369z M637.951,879.266c1.477,0,2.701-0.316,3.674-0.949
			c0.972-0.633,1.67-1.348,2.092-2.145v-6.082h-3.445c-4.125,0-6.188,1.852-6.188,5.555c0,1.078,0.363,1.951,1.09,2.619
			C635.9,878.932,636.826,879.266,637.951,879.266z"/>
		<path fill="#FFFFFF" d="M682.072,876.313c0-1.007-0.527-1.816-1.582-2.426c-1.055-0.609-3.059-1.242-6.012-1.898
			c-2.953-0.656-5.391-1.517-7.313-2.584c-1.922-1.066-3.387-2.361-4.395-3.885c-1.008-1.523-1.512-3.27-1.512-5.238
			c0-3.492,1.441-6.369,4.324-8.631c2.883-2.262,6.656-3.393,11.32-3.393c5.015,0,9.047,1.137,12.094,3.41
			c3.046,2.273,4.57,5.262,4.57,8.965h-11.883c0-3.046-1.605-4.57-4.816-4.57c-1.243,0-2.285,0.346-3.129,1.037
			c-0.844,0.691-1.266,1.553-1.266,2.584c0,1.055,0.515,1.911,1.547,2.566c1.031,0.656,2.677,1.195,4.939,1.617
			c2.262,0.422,4.248,0.926,5.959,1.512c5.718,1.969,8.578,5.497,8.578,10.582c0,3.469-1.542,6.293-4.623,8.473
			c-3.082,2.18-7.072,3.27-11.971,3.27c-3.258,0-6.165-0.586-8.719-1.758c-2.555-1.172-4.547-2.765-5.977-4.781
			c-1.43-2.016-2.145-4.136-2.145-6.363h11.074c0.047,1.758,0.633,3.041,1.758,3.85s2.566,1.213,4.324,1.213
			c1.617,0,2.83-0.328,3.639-0.984C681.668,878.223,682.072,877.367,682.072,876.313z"/>
		<path fill="#FFFFFF" d="M712.834,839.504v9.457h6.258v8.227h-6.258v17.402c0,1.43,0.258,2.426,0.773,2.988
			c0.515,0.563,1.535,0.844,3.059,0.844c1.172,0,2.156-0.07,2.953-0.211v8.473c-2.133,0.68-4.359,1.02-6.68,1.02
			c-4.078,0-7.09-0.961-9.035-2.883c-1.946-1.921-2.918-4.839-2.918-8.754v-18.879h-4.852v-8.227h4.852v-9.457H712.834z"/>
		<path fill="#FFFFFF" d="M742.154,887.703c-5.836,0-10.559-1.74-14.168-5.221c-3.609-3.48-5.414-8.01-5.414-13.588v-0.984
			c0-3.89,0.721-7.324,2.162-10.301c1.441-2.976,3.545-5.279,6.311-6.908c2.765-1.629,6.047-2.443,9.844-2.443
			c5.344,0,9.563,1.658,12.656,4.975c3.094,3.317,4.641,7.94,4.641,13.869v4.605h-23.555c0.422,2.133,1.348,3.809,2.777,5.027
			c1.429,1.219,3.281,1.828,5.555,1.828c3.75,0,6.68-1.313,8.789-3.938l5.414,6.398c-1.477,2.039-3.568,3.662-6.275,4.869
			S745.271,887.703,742.154,887.703z M740.818,857.398c-3.469,0-5.532,2.297-6.188,6.891h11.953v-0.914
			c0.047-1.898-0.434-3.369-1.441-4.412C744.135,857.92,742.693,857.398,740.818,857.398z"/>
		<path fill="#FFFFFF" d="M813.732,871.391l3.832-22.43h11.355L819.955,887h-10.02l-6.293-22.57L797.314,887h-10.02l-8.965-38.039
			h11.355l3.762,22.957l6.047-22.957h8.262L813.732,871.391z"/>
		<path fill="#FFFFFF" d="M851.561,887.703c-5.836,0-10.559-1.74-14.168-5.221s-5.414-8.01-5.414-13.588v-0.984
			c0-3.89,0.721-7.324,2.162-10.301c1.441-2.976,3.545-5.279,6.311-6.908c2.766-1.629,6.047-2.443,9.844-2.443
			c5.344,0,9.563,1.658,12.656,4.975c3.094,3.317,4.641,7.94,4.641,13.869v4.605h-23.555c0.422,2.133,1.348,3.809,2.777,5.027
			c1.43,1.219,3.281,1.828,5.555,1.828c3.75,0,6.68-1.313,8.789-3.938l5.414,6.398c-1.477,2.039-3.568,3.662-6.275,4.869
			S854.678,887.703,851.561,887.703z M850.225,857.398c-3.469,0-5.531,2.297-6.188,6.891h11.953v-0.914
			c0.047-1.898-0.434-3.369-1.441-4.412C853.541,857.92,852.1,857.398,850.225,857.398z"/>
		<path fill="#FFFFFF" d="M888.896,867.699c0-3.844,0.633-7.242,1.898-10.195s3.082-5.232,5.449-6.838
			c2.367-1.605,5.121-2.408,8.262-2.408c3.961,0,7.055,1.336,9.281,4.008l0.422-3.305h10.758v36.598
			c0,3.352-0.779,6.263-2.338,8.736c-1.559,2.473-3.814,4.371-6.768,5.695c-2.953,1.324-6.375,1.986-10.266,1.986
			c-2.789,0-5.49-0.527-8.104-1.582s-4.611-2.426-5.994-4.113l4.957-6.961c2.203,2.602,5.109,3.902,8.719,3.902
			c5.25,0,7.875-2.695,7.875-8.086v-1.195c-2.273,2.508-5.145,3.762-8.613,3.762c-4.641,0-8.391-1.775-11.25-5.326
			s-4.289-8.302-4.289-14.256V867.699z M900.779,868.438c0,3.117,0.586,5.584,1.758,7.4c1.172,1.816,2.813,2.725,4.922,2.725
			c2.555,0,4.418-0.855,5.59-2.566V860c-1.148-1.734-2.988-2.602-5.52-2.602c-2.109,0-3.762,0.944-4.957,2.83
			C901.377,862.115,900.779,864.852,900.779,868.438z"/>
		<path fill="#FFFFFF" d="M950.104,887.703c-5.836,0-10.559-1.74-14.168-5.221s-5.414-8.01-5.414-13.588v-0.984
			c0-3.89,0.721-7.324,2.162-10.301c1.441-2.976,3.545-5.279,6.311-6.908c2.766-1.629,6.047-2.443,9.844-2.443
			c5.344,0,9.563,1.658,12.656,4.975c3.094,3.317,4.641,7.94,4.641,13.869v4.605H942.58c0.422,2.133,1.348,3.809,2.777,5.027
			c1.43,1.219,3.281,1.828,5.555,1.828c3.75,0,6.68-1.313,8.789-3.938l5.414,6.398c-1.477,2.039-3.568,3.662-6.275,4.869
			S953.221,887.703,950.104,887.703z M948.768,857.398c-3.469,0-5.531,2.297-6.188,6.891h11.953v-0.914
			c0.047-1.898-0.434-3.369-1.441-4.412C952.084,857.92,950.643,857.398,948.768,857.398z"/>
		<path fill="#FFFFFF" d="M981.779,848.961l0.387,4.465c2.625-3.445,6.246-5.168,10.863-5.168c3.961,0,6.92,1.184,8.877,3.551
			c1.957,2.368,2.971,5.93,3.041,10.688V887h-11.883v-24.012c0-1.921-0.387-3.334-1.16-4.236c-0.773-0.902-2.18-1.354-4.219-1.354
			c-2.32,0-4.043,0.914-5.168,2.742V887H970.67v-38.039H981.779z"/>
		<path fill="#FFFFFF" d="M1029.908,887.703c-5.836,0-10.559-1.74-14.168-5.221s-5.414-8.01-5.414-13.588v-0.984
			c0-3.89,0.721-7.324,2.162-10.301c1.441-2.976,3.545-5.279,6.311-6.908c2.766-1.629,6.047-2.443,9.844-2.443
			c5.344,0,9.563,1.658,12.656,4.975c3.094,3.317,4.641,7.94,4.641,13.869v4.605h-23.555c0.422,2.133,1.348,3.809,2.777,5.027
			c1.43,1.219,3.281,1.828,5.555,1.828c3.75,0,6.68-1.313,8.789-3.938l5.414,6.398c-1.477,2.039-3.568,3.662-6.275,4.869
			S1033.025,887.703,1029.908,887.703z M1028.572,857.398c-3.469,0-5.531,2.297-6.188,6.891h11.953v-0.914
			c0.047-1.898-0.434-3.369-1.441-4.412C1031.889,857.92,1030.447,857.398,1028.572,857.398z"/>
		<path fill="#FFFFFF" d="M1073.713,859.684l-3.902-0.281c-3.727,0-6.117,1.172-7.172,3.516V887h-11.848v-38.039h11.109l0.387,4.887
			c1.992-3.727,4.77-5.59,8.332-5.59c1.266,0,2.367,0.141,3.305,0.422L1073.713,859.684z"/>
		<path fill="#FFFFFF" d="M1098.357,887c-0.422-0.773-0.797-1.91-1.125-3.41c-2.18,2.742-5.227,4.113-9.141,4.113
			c-3.586,0-6.633-1.084-9.141-3.252c-2.508-2.167-3.762-4.892-3.762-8.174c0-4.125,1.523-7.242,4.57-9.352
			s7.477-3.164,13.289-3.164h3.656v-2.014c0-3.509-1.512-5.264-4.535-5.264c-2.813,0-4.219,1.39-4.219,4.169h-11.848
			c0-3.675,1.564-6.66,4.693-8.954s7.119-3.441,11.971-3.441s8.684,1.184,11.496,3.551c2.813,2.368,4.254,5.613,4.324,9.738v16.84
			c0.047,3.493,0.586,6.165,1.617,8.016V887H1098.357z M1090.939,879.266c1.477,0,2.701-0.316,3.674-0.949s1.67-1.348,2.092-2.145
			v-6.082h-3.445c-4.125,0-6.188,1.852-6.188,5.555c0,1.078,0.363,1.951,1.09,2.619S1089.814,879.266,1090.939,879.266z"/>
		<path fill="#FFFFFF" d="M1128.943,839.504v9.457h6.258v8.227h-6.258v17.402c0,1.43,0.258,2.426,0.773,2.988
			s1.535,0.844,3.059,0.844c1.172,0,2.156-0.07,2.953-0.211v8.473c-2.133,0.68-4.359,1.02-6.68,1.02
			c-4.078,0-7.09-0.961-9.035-2.883c-1.945-1.921-2.918-4.839-2.918-8.754v-18.879h-4.852v-8.227h4.852v-9.457H1128.943z"/>
		<path fill="#FFFFFF" d="M1158.264,887.703c-5.836,0-10.559-1.74-14.168-5.221s-5.414-8.01-5.414-13.588v-0.984
			c0-3.89,0.721-7.324,2.162-10.301c1.441-2.976,3.545-5.279,6.311-6.908c2.766-1.629,6.047-2.443,9.844-2.443
			c5.344,0,9.563,1.658,12.656,4.975c3.094,3.317,4.641,7.94,4.641,13.869v4.605h-23.555c0.422,2.133,1.348,3.809,2.777,5.027
			c1.43,1.219,3.281,1.828,5.555,1.828c3.75,0,6.68-1.313,8.789-3.938l5.414,6.398c-1.477,2.039-3.568,3.662-6.275,4.869
			S1161.381,887.703,1158.264,887.703z M1156.928,857.398c-3.469,0-5.531,2.297-6.188,6.891h11.953v-0.914
			c0.047-1.898-0.434-3.369-1.441-4.412C1160.244,857.92,1158.803,857.398,1156.928,857.398z"/>
		<path fill="#FFFFFF" d="M1215.393,887.703c-5.836,0-10.559-1.74-14.168-5.221s-5.414-8.01-5.414-13.588v-0.984
			c0-3.89,0.721-7.324,2.162-10.301c1.441-2.976,3.545-5.279,6.311-6.908c2.766-1.629,6.047-2.443,9.844-2.443
			c5.344,0,9.563,1.658,12.656,4.975c3.094,3.317,4.641,7.94,4.641,13.869v4.605h-23.555c0.422,2.133,1.348,3.809,2.777,5.027
			c1.43,1.219,3.281,1.828,5.555,1.828c3.75,0,6.68-1.313,8.789-3.938l5.414,6.398c-1.477,2.039-3.568,3.662-6.275,4.869
			S1218.51,887.703,1215.393,887.703z M1214.057,857.398c-3.469,0-5.531,2.297-6.188,6.891h11.953v-0.914
			c0.047-1.898-0.434-3.369-1.441-4.412C1217.373,857.92,1215.932,857.398,1214.057,857.398z"/>
		<path fill="#FFFFFF" d="M1257.615,887c-0.422-0.773-0.797-1.91-1.125-3.41c-2.18,2.742-5.227,4.113-9.141,4.113
			c-3.586,0-6.633-1.084-9.141-3.252c-2.508-2.167-3.762-4.892-3.762-8.174c0-4.125,1.523-7.242,4.57-9.352
			s7.477-3.164,13.289-3.164h3.656v-2.014c0-3.509-1.512-5.264-4.535-5.264c-2.813,0-4.219,1.39-4.219,4.169h-11.848
			c0-3.675,1.564-6.66,4.693-8.954s7.119-3.441,11.971-3.441s8.684,1.184,11.496,3.551c2.813,2.368,4.254,5.613,4.324,9.738v16.84
			c0.047,3.493,0.586,6.165,1.617,8.016V887H1257.615z M1250.197,879.266c1.477,0,2.701-0.316,3.674-0.949s1.67-1.348,2.092-2.145
			v-6.082h-3.445c-4.125,0-6.188,1.852-6.188,5.555c0,1.078,0.363,1.951,1.09,2.619S1249.072,879.266,1250.197,879.266z"/>
		<path fill="#FFFFFF" d="M1290.486,878.563c1.664,0,2.953-0.451,3.867-1.354c0.914-0.902,1.359-2.162,1.336-3.779h11.109
			c0,4.172-1.494,7.594-4.482,10.266s-6.838,4.008-11.549,4.008c-5.531,0-9.891-1.734-13.078-5.203
			c-3.188-3.468-4.781-8.273-4.781-14.414v-0.492c0-3.844,0.709-7.236,2.127-10.178c1.418-2.941,3.463-5.203,6.135-6.785
			s5.836-2.373,9.492-2.373c4.945,0,8.871,1.371,11.777,4.113s4.359,6.457,4.359,11.145h-11.109c0-1.969-0.48-3.48-1.441-4.535
			s-2.25-1.582-3.867-1.582c-3.07,0-4.863,1.957-5.379,5.871c-0.164,1.243-0.246,2.953-0.246,5.133c0,3.82,0.457,6.469,1.371,7.945
			S1288.494,878.563,1290.486,878.563z"/>
		<path fill="#FFFFFF" d="M1323.393,853.039c2.531-3.187,5.766-4.781,9.703-4.781c4.195,0,7.359,1.243,9.492,3.727
			c2.133,2.484,3.223,6.152,3.27,11.004V887h-11.883v-23.73c0-2.016-0.41-3.498-1.23-4.447s-2.215-1.424-4.184-1.424
			c-2.438,0-4.16,0.773-5.168,2.32V887h-11.848v-54h11.848V853.039z"/>
		<path fill="#FFFFFF" d="M1385.584,870.406l6.328-21.445h12.691l-15.504,44.402l-0.668,1.617
			c-2.203,4.922-6.094,7.383-11.672,7.383c-1.547,0-3.176-0.233-4.887-0.7v-8.44h1.547c1.664,0,2.936-0.241,3.814-0.721
			c0.879-0.481,1.529-1.343,1.951-2.586l0.949-2.533l-13.219-38.421h12.656L1385.584,870.406z"/>
		<path fill="#FFFFFF" d="M1425.627,887.703c-5.836,0-10.559-1.74-14.168-5.221s-5.414-8.01-5.414-13.588v-0.984
			c0-3.89,0.721-7.324,2.162-10.301c1.441-2.976,3.545-5.279,6.311-6.908c2.766-1.629,6.047-2.443,9.844-2.443
			c5.344,0,9.563,1.658,12.656,4.975c3.094,3.317,4.641,7.94,4.641,13.869v4.605h-23.555c0.422,2.133,1.348,3.809,2.777,5.027
			c1.43,1.219,3.281,1.828,5.555,1.828c3.75,0,6.68-1.313,8.789-3.938l5.414,6.398c-1.477,2.039-3.568,3.662-6.275,4.869
			S1428.744,887.703,1425.627,887.703z M1424.291,857.398c-3.469,0-5.531,2.297-6.188,6.891h11.953v-0.914
			c0.047-1.898-0.434-3.369-1.441-4.412C1427.607,857.92,1426.166,857.398,1424.291,857.398z"/>
		<path fill="#FFFFFF" d="M1467.85,887c-0.422-0.773-0.797-1.91-1.125-3.41c-2.18,2.742-5.227,4.113-9.141,4.113
			c-3.586,0-6.633-1.084-9.141-3.252c-2.508-2.167-3.762-4.892-3.762-8.174c0-4.125,1.523-7.242,4.57-9.352
			s7.477-3.164,13.289-3.164h3.656v-2.014c0-3.509-1.512-5.264-4.535-5.264c-2.813,0-4.219,1.39-4.219,4.169h-11.848
			c0-3.675,1.564-6.66,4.693-8.954s7.119-3.441,11.971-3.441s8.684,1.184,11.496,3.551c2.813,2.368,4.254,5.613,4.324,9.738v16.84
			c0.047,3.493,0.586,6.165,1.617,8.016V887H1467.85z M1460.432,879.266c1.477,0,2.701-0.316,3.674-0.949s1.67-1.348,2.092-2.145
			v-6.082h-3.445c-4.125,0-6.188,1.852-6.188,5.555c0,1.078,0.363,1.951,1.09,2.619S1459.307,879.266,1460.432,879.266z"/>
		<path fill="#FFFFFF" d="M1507.646,859.684l-3.902-0.281c-3.727,0-6.117,1.172-7.172,3.516V887h-11.848v-38.039h11.109l0.387,4.887
			c1.992-3.727,4.77-5.59,8.332-5.59c1.266,0,2.367,0.141,3.305,0.422L1507.646,859.684z"/>
	</g>
	<g>
		<path fill="#FFFFFF" d="M448.831,946.937c0-4.336,0.577-8.37,1.733-12.102c1.155-3.732,2.75-6.895,4.785-9.49
			c2.035-2.594,4.296-4.407,6.784-5.438l1.706,4.425c-2.488,1.83-4.412,4.687-5.771,8.57s-2.048,8.437-2.066,13.661v1.173
			c0,5.349,0.68,9.987,2.04,13.915c1.359,3.927,3.292,6.806,5.797,8.637l-1.706,4.425c-2.452-0.995-4.714-2.812-6.784-5.451
			c-2.07-2.639-3.666-5.789-4.785-9.45c-1.12-3.661-1.697-7.552-1.733-11.675V946.937z"/>
		<path fill="#FFFFFF" d="M481.378,963.25c-4.425,0-8.006-1.319-10.743-3.958c-2.737-2.639-4.105-6.073-4.105-10.303v-0.746
			c0-2.95,0.546-5.554,1.64-7.811c1.093-2.256,2.688-4.002,4.785-5.238c2.097-1.235,4.585-1.853,7.464-1.853
			c4.052,0,7.25,1.257,9.596,3.771c2.346,2.515,3.519,6.021,3.519,10.516v3.492h-17.86c0.32,1.618,1.022,2.888,2.106,3.812
			c1.083,0.924,2.488,1.386,4.211,1.386c2.843,0,5.065-0.995,6.664-2.985l4.105,4.851c-1.12,1.546-2.706,2.777-4.758,3.692
			S483.742,963.25,481.378,963.25z M480.365,940.273c-2.63,0-4.194,1.742-4.691,5.225h9.063v-0.693
			c0.036-1.439-0.329-2.554-1.093-3.345C482.88,940.668,481.787,940.273,480.365,940.273z"/>
		<path fill="#FFFFFF" d="M522.056,950.882l2.906-17.007h8.61l-6.797,28.842h-7.597l-4.771-17.113l-4.798,17.113h-7.597
			l-6.797-28.842h8.61l2.853,17.407l4.584-17.407h6.265L522.056,950.882z"/>
		<path fill="#FFFFFF" d="M553.03,962.717c-0.32-0.586-0.604-1.448-0.853-2.585c-1.653,2.079-3.963,3.119-6.931,3.119
			c-2.719,0-5.029-0.822-6.931-2.466c-1.902-1.644-2.852-3.709-2.852-6.198c0-3.127,1.155-5.491,3.465-7.09
			c2.31-1.6,5.668-2.399,10.076-2.399h2.772v-1.527c0-2.661-1.146-3.991-3.438-3.991c-2.133,0-3.199,1.054-3.199,3.161h-8.983
			c0-2.787,1.186-5.05,3.559-6.789s5.398-2.609,9.077-2.609c3.678,0,6.584,0.897,8.716,2.692c2.133,1.795,3.226,4.256,3.279,7.384
			v12.769c0.036,2.648,0.444,4.674,1.226,6.078v0.453H553.03z M547.406,956.853c1.12,0,2.048-0.24,2.786-0.72
			c0.737-0.48,1.266-1.022,1.586-1.626v-4.612h-2.612c-3.128,0-4.691,1.404-4.691,4.212c0,0.817,0.275,1.479,0.826,1.986
			S546.553,956.853,547.406,956.853z"/>
		<path fill="#FFFFFF" d="M580.859,954.614c0-0.764-0.4-1.377-1.199-1.839c-0.8-0.462-2.319-0.941-4.559-1.439
			c-2.239-0.497-4.087-1.15-5.544-1.959s-2.568-1.79-3.332-2.946c-0.764-1.155-1.146-2.479-1.146-3.972
			c0-2.647,1.093-4.829,3.279-6.544c2.186-1.715,5.046-2.572,8.583-2.572c3.803,0,6.859,0.862,9.17,2.585
			c2.31,1.724,3.465,3.99,3.465,6.797h-9.01c0-2.31-1.218-3.465-3.652-3.465c-0.942,0-1.733,0.262-2.373,0.787
			c-0.64,0.524-0.959,1.177-0.959,1.959c0,0.8,0.391,1.449,1.173,1.946c0.782,0.498,2.03,0.906,3.745,1.226
			c1.715,0.32,3.221,0.703,4.518,1.146c4.336,1.493,6.504,4.167,6.504,8.023c0,2.63-1.169,4.771-3.505,6.424
			c-2.337,1.652-5.363,2.479-9.077,2.479c-2.47,0-4.674-0.444-6.611-1.333c-1.937-0.888-3.448-2.097-4.531-3.625
			c-1.084-1.528-1.626-3.136-1.626-4.825h8.396c0.036,1.333,0.48,2.306,1.333,2.918c0.853,0.613,1.946,0.92,3.279,0.92
			c1.226,0,2.146-0.249,2.759-0.747C580.553,956.063,580.859,955.414,580.859,954.614z"/>
		<path fill="#FFFFFF" d="M604.184,926.705v7.17h4.745v6.238h-4.745v13.195c0,1.084,0.195,1.839,0.586,2.266
			c0.391,0.427,1.164,0.64,2.319,0.64c0.888,0,1.635-0.054,2.239-0.16v6.424c-1.618,0.515-3.306,0.773-5.065,0.773
			c-3.092,0-5.376-0.729-6.851-2.186c-1.475-1.457-2.212-3.669-2.212-6.637v-14.314h-3.679v-6.238h3.679v-7.17H604.184z"/>
		<path fill="#FFFFFF" d="M626.415,963.25c-4.425,0-8.006-1.319-10.743-3.958c-2.737-2.639-4.105-6.073-4.105-10.303v-0.746
			c0-2.95,0.546-5.554,1.64-7.811c1.093-2.256,2.688-4.002,4.785-5.238c2.097-1.235,4.585-1.853,7.464-1.853
			c4.052,0,7.25,1.257,9.596,3.771c2.346,2.515,3.519,6.021,3.519,10.516v3.492h-17.86c0.32,1.618,1.022,2.888,2.106,3.812
			c1.083,0.924,2.488,1.386,4.211,1.386c2.843,0,5.065-0.995,6.664-2.985l4.105,4.851c-1.12,1.546-2.706,2.777-4.758,3.692
			S628.778,963.25,626.415,963.25z M625.402,940.273c-2.63,0-4.194,1.742-4.691,5.225h9.063v-0.693
			c0.036-1.439-0.329-2.554-1.093-3.345C627.917,940.668,626.824,940.273,625.402,940.273z"/>
		<path fill="#FFFFFF" d="M656.35,947.683c0,4.176-0.613,8.139-1.839,11.889s-2.919,6.971-5.078,9.663s-4.492,4.518-6.997,5.478
			l-1.706-4.425c2.47-1.848,4.38-4.691,5.731-8.53c1.35-3.839,2.053-8.254,2.106-13.249v-1.626c0-5.349-0.68-9.987-2.04-13.915
			c-1.359-3.927-3.292-6.806-5.797-8.636l1.706-4.425c2.488,0.978,4.802,2.786,6.944,5.425c2.141,2.639,3.829,5.811,5.064,9.516
			c1.235,3.705,1.87,7.593,1.906,11.662V947.683z"/>
	</g>
	<g>
		<path fill="#FFFFFF" d="M663.743,892.979c-3.517,6.832-9.247,11.945-17.191,15.339c-7.946,3.395-18.422,5.092-31.43,5.092h-25.418
			c-19.828,0-29.742,5.338-29.742,16.012H553c0-10.674-9.843-16.012-29.531-16.012h-26.051c-13.007-0.042-23.483-1.762-31.43-5.156
			c-7.945-3.395-13.675-8.486-17.191-15.275l4.746-0.961c6.399,11.956,21.41,17.934,45.035,17.934h24.047
			c19.126,0,30.411,4.505,33.855,13.515c3.728-9.009,15.013-13.515,33.855-13.515h24.152c22.851,0,37.652-6.084,44.402-18.254
			L663.743,892.979z"/>
	</g>
</g>
<g id="_x32_">
</g>
<g id="_x31_">
</g>
</svg>
